<?xml version="1.0" encoding="utf-8"?>
<!-- Generator: Adobe Illustrator 19.0.1, SVG Export Plug-In . SVG Version: 6.00 Build 0)  -->
<svg version="1.1" id="Layer_1" xmlns="http://www.w3.org/2000/svg" xmlns:xlink="http://www.w3.org/1999/xlink" x="0px" y="0px"
	 viewBox="0 0 222 1919" style="enable-background:new 0 0 222 1919;" xml:space="preserve">
<g>
	<path d="M194.3,1919c-54.1,0-108.2,0-162.2,0c0-21.8,0-43.6,0-66c-10.4,0-20.2,0-30.4,0c0-3.1,0-5.6,0-8c0-499.1,0-998.2,0-1497.3
		c0-1.8,0.1-3.7,0-5.5c0-0.7-0.5-1.4-0.8-2.2c0-21.3,0-42.7,0-64c0.3-0.9,0.8-1.8,0.8-2.7c0.7-38.6,1.4-77.1,2.1-115.7
		c0.1-5.6,0.7-11.2,0.9-16.8c0.7-14.4,1.4-28.7,2-43.1C7,90.8,7.3,83.9,7.7,77c0.2-3.9,0.6-7.9,1-11.8c1-9.5,1.9-19,3-28.4
		c1-9.7,3.6-18.7,11.3-25.5C29.7,5.4,38,3.8,46.4,3c11.1-1.1,22.2-1.4,33.3-2.2c0.9-0.1,1.8-0.5,2.7-0.8c20.2,0,40.3,0,60.5,0
		c6.4,0.6,12.7,1.3,19.1,1.9c7.4,0.7,14.8,1.2,22.2,2c14.5,1.6,24.7,11.5,27.2,25.3c1.8,9.6,3,19.4,4,29.2c1.2,11.4,2.2,22.9,3,34.4
		c0.8,11.3,1.6,22.7,2,34.1c0.5,13.2,0.7,26.5,1.1,39.7c0.3,9.3,0.7,18.5,1.1,27.8c0,0.6,0.5,1.1,0.8,1.7c0,552.3,0,1104.7,0,1657
		c-9.5,0-19,0-29.2,0C194.3,1875.4,194.3,1897.2,194.3,1919z M161.1,1762.9c4,2.2,8,0.6,12.5,0.9c-2.1-3.1-6.4-3.6-11.6-1.8
		c-1.1-0.3-2.2-0.6-3.3-0.9c-0.1,0.3-0.2,0.7-0.3,1C159.3,1762.5,160.2,1762.7,161.1,1762.9z M10.7,1021.5c18.1,0,35.1,0,52.1,0
		c0-15.2,0-30.1,0-45c-17,0-33.7,0-50.3,0C10.5,989.3,11.1,1014,10.7,1021.5z M118,1024.2c0-17,0-33.3,0-50.2c32.2,0,64,0,96,0
		c0-177.2,0-353.8,0-530.9c-30.3,0-60.2,0-90,0c-1.7-4.5-1.8-66.9-0.1-71.3c8,0,16.1,0,24.3,0c0-0.3,0-0.7,0-1c-8.5,0-16.9,0-26.2,0
		c0-7.2,0-13.7,0-20.5c-2.2,0-3.7,0-5.5,0c-3.7,7.3-8,14.2-15.4,18.4c-7.5,4.3-15.4,4.3-23.9,2.3c0-6.3,0.1-12.1-0.1-17.9
		c0-1-0.8-2-1.3-3.1c-0.5,0.1-1,0.2-1.5,0.4c0,11.7,0,23.5,0,35.2c-2,0.4-3.5,0.6-5.3,1c0,9.3,0.1,18.5,0,27.6
		c-0.1,9.2,0.4,18.5-0.4,28.2c-19.7,0-38.6,0-57.3,0c0,177.5,0,354.4,0,531.5c18,0,35.6,0,53.1,0c2.2,3.8,2.9,43.5,0.8,50.1
		c-17.8,0-35.8,0-54,0c0,196.6,0,392.5,0,589c21.1,0,42,0,63,0c0,21.6,0,42.5,0,63.6c-1.3,0.4-2.5,0.8-4.1,1.2
		c0,37.4,0,74.7,0,112.4c-21.5,0-42.6,0-64,0c0,17,0,33.6,0,50.4c57.6,0,115,0,172.5,0c0-17,0-33.7,0-51.1c-18.8,0-37.1,0-56,0
		c0-41,0-81.3,0-121.6c-1.5-0.6-2.6-1.1-3.8-1.5c0-14.2,0-28.2,0-43.1c10.3,0,20.4,0,31,0c0-4,0-7.1,0-10.6c21.6,0,42.7,0,64,0
		c0-196.3,0-392.2,0-588.6C181.9,1024.2,150,1024.2,118,1024.2z M218.7,159.6c-0.5-3.4-1.2-6.1-1.3-8.9c-0.8-15.2-1.4-30.4-2.1-45.6
		c-0.3-7.3-0.6-14.6-1-21.8c-0.2-3.9-0.6-7.9-1-11.8c-1-8.8-1.9-17.6-3-26.4c-0.6-5-0.9-10.2-2.1-15.1c-2.2-9.2-6.7-17-16.2-20.3
		c-4.9-1.7-10.2-2.9-15.4-3.4c-13.6-1.3-27.1-2.7-40.7-3C118.7,3,101.4,3.5,84.2,4.2C70.1,4.8,56,5.9,41.9,7.2
		c-9.9,0.9-21.3,7.4-24,18.5c-1.9,7.8-2.9,15.8-3.8,23.7c-1.3,10.6-2.2,21.3-3.1,31.9c-0.8,9.9-1.6,19.7-2,29.6
		c-0.5,11.8-0.7,23.5-1.1,35.3c0,1.5-0.2,3-0.3,4.5c-0.3,2.9-0.6,5.8-0.8,8.9c5,0,9.3,0,13.5,0c0.9-14,1.4-27.8,2.6-41.5
		c1-11.5,2.5-23.1,4.1-34.5c0.6-4,2.3-7.8,3.6-11.7c6.4,0,12.1-0.3,17.8,0.1c4.7,0.3,8.4-0.9,11.7-4.3c3.5-3.6,7.7-4.9,13-4.8
		c26.9,0.3,53.7,0.4,80.6,0c7.6-0.1,13.8,1.7,19.2,6.5c2.3,2.1,4.8,2.6,7.8,2.5c5-0.1,10,0,15.3,0c4.9,14.5,6.6,29,7.5,43.8
		c0.8,14.7,1.8,29.4,2.7,44C210.2,159.6,214,159.6,218.7,159.6z M76,226c12.6,0,25,0,37.3,0c12.6,0,25.1,0,37.7,0
		c0.6-1.5,1.1-2.8,1.7-4.4c15.6,0,30.9,0,46.4,0c0-20,0-39.5,0-60c-8.3,0-16.3,0-21.8,0c-5.7-6.1-9.9-10.5-13.7-14.6
		c-12.4,0-24.2-0.1-35.9,0.1c-1.8,0-4.2,0.8-5.2,2c-4,5.2-9.2,6.7-15.5,5.9c-1.7-0.2-3.4-0.3-5,0c-6.5,1.1-10.9-1.7-14.4-6.8
		c-0.3-0.4-0.6-0.7-0.9-1.1c-13.7,0-27.3,0-40.6,0c-6.7,4.8-10.6,12.6-18.9,15.8c0,19.2,0,38.8,0,58.8c16.1,0,31.8,0,47.5,0
		C75.2,223.4,75.5,224.4,76,226z M160.3,243.8c-0.1,4.3-2.7,4-5,4c-8.9,0-17.8,0-26.7,0c-2.3,0-4.6,0-7.1,0
		c-0.4-2.6-0.7-4.6-1.2-7.4c-4.2,9.7-7.3,19-15.2,25.3c-8.3,6.6-17.5,8.2-28.2,5c0-12.9,0-25.6,0-38.2c-0.3,0-0.5,0-0.8,0
		c-0.7,1.2-1.4,2.4-2.3,3.9c-2.5,0-4.9,0-7.5,0c-0.4,1.8-0.7,3.3-0.9,4.7c-0.2,1.5-0.2,3-0.5,4.4c-3.2,15.8-13.2,25.3-28.4,29.5
		c-7.3,2-14.9,2.7-23.4,4.2c18.5,0,36,0,54.2,0c0,14.4,0,28.3,0,42.3c2.8,0.3,4.9,0.5,6.9,0.7c0.3,1.8,0.6,3.4,0.9,5.2
		c1.7-0.7,2.9-1.2,3.6-1.5c2.4,0.5,4.3,1.3,6.2,1.3c10.2,0.1,20.5,0.2,30.7,0c2.1,0,4.2-1,6.3-1.6c0.3-15-0.2-29.3,0.3-43.9
		c3-0.2,5.2-0.5,7.3-0.5c25.8,0,51.7,0,77.5,0c1.5,0,3.1,0.1,4.5-0.2c0.8-0.2,1.3-1.2,2.8-2.6C188.7,277.7,167.4,272.1,160.3,243.8z
		 M98.6,125.2c6.3-3.7,12.7-7.3,18.9-11.2c3.8-2.4,7.8-3.4,12.3-3.2c5.5,0.3,11.1,0.3,16.6,0c10-0.5,19.7-0.1,28.4,5.9
		c0.4,0.3,1,0.2,1.4,0.4c5.7,2.7,11.4,5.4,17,8.1c-0.4,4.2,1.2,8-1.5,11.9c-9.5-3.5-18.8-6.9-28.4-10.4c0,6.3,0,11.7,0,16.7
		c3.6,3.3,6.9,6.3,10.3,9.4c0.6-1.8,1-3.2,1.5-4.5c7.8,0,15.4,0,23.4,0c0,3.4,0,6.3,0,9.3c2.3-8.9-2-61.9-5-67.2
		c-53.7,0-107.4,0-161.6,0c-3.5,22.7-4.4,45.5-4,68.8c5.2-3.8,9.7-8,14.3-12.9c0-13.1,0-26.6,0-40c15.6,0,30.7,0,46.4,0
		c0,2.1,0,3.7,0,5.4c0,8.5,0.4,17-0.1,25.5c-0.4,6.3,1.5,11,7,14.7c3.1,0,6.7-0.3,10.2,0.1c7.1,0.8,12.8-1,16.7-7.8
		c0-5.1,0-10.6,0-16.5c-8.2,2.8-15.1,7.9-23.7,9.8C98.6,132.9,98.6,129.1,98.6,125.2z M211.9,439.6c0-17.9,0-35.6,0-53.9
		c-20.8,0-41.2,0-61.7,0c-0.2-3.8-0.4-7.1-0.5-10.4c-8.1,0-15.7,0-23.5,0c0,21.6,0,42.8,0,64.2C154.9,439.6,183.3,439.6,211.9,439.6
		z M65.3,431.2c0-1.3,0.1-2.7,0-4.2c-0.3-3.6-1-7.2-1-10.7c0-2.2,1.3-4.5,1.1-6.7c-0.3-5-1.2-10-1.9-15.1c-8.2-1.2-8.3-1.2-9.4-3.7
		c3.9,0,7.5,0,11.1,0c0.2-2.2,0.4-3.8,0.5-5.3c-18.3,0-36.4,0-54.4,0c0,18.3,0,36.2,0,53.4c18.1,0,36,0,54,0
		c-0.1-1.7-0.2-2.6-0.3-3.3c-4.2-1.3-8.6,0.8-13.2-2C56.4,430.3,61.1,433.1,65.3,431.2z M65.2,1720.5c0-15,0-28.9,0-43
		c-17.5,0-34.7,0-52,0c-0.2,3.9,2.6,2.7,4.2,2.7c11.9,0.1,23.8,0,35.8,0.1c5.3,0,6,0.7,6,6.1c0,8,0,16,0,24c0,1.8-0.4,3.5-0.6,5.4
		c-9.7,0.5-19,1-28.2,1.5c-0.3,2.8-0.6,5-0.9,7.9c-5.7,0-11,0-16.2,0c0,13.9,0,27.2,0,40.5c17.4,0,34.5,0,51.7,0c0-1.2,0-2.1,0-3.6
		c-5.2,0-10.1,0-15.5,0c0-14,0-27.4,0-41.5C54.7,1720.5,59.7,1720.5,65.2,1720.5z M157.5,1021.7c0-15.5,0-30.3,0-45.1
		c-12.7,0-25,0-37.2,0c0,15.3,0,30.2,0,45.1C132.8,1021.7,145,1021.7,157.5,1021.7z M164.2,236.2c0.1,9.3,2.7,17.1,8.3,23.8
		c6.7,8,15.9,11.3,25.8,12.9c4.5,0.7,9.1,0.9,13.6,1.3c0-14.6,0-28.2,0-41.9c-2.5,0-4.7,0-7,0c-0.7,1.3-1.4,2.5-2.1,3.9
		C190.1,236.2,177.5,236.2,164.2,236.2z M14.2,273.9c11.3,0.2,21.5-1.7,30.9-7c11.1-6.1,17.3-18.3,15.7-30.8c-12.4,0-24.9,0-37.1,0
		c-0.7-1.7-1.2-2.9-1.5-3.7c-2.9,0-5.4,0-8,0C14.2,246.3,14.2,259.8,14.2,273.9z M129.9,292.4c9.6,0,18.7,0,28.8,0
		c0,9.8,0,19.4,0,29c18.7,0,36.4,0,54.2,0c0-12.3,0-24.2,0-36.2c-29.2,0-58.1,0-86.9,0c0,14.2,0,27.9,0,41.7c7.8,0,15.2,0,22.5,0
		c0-0.3,0-0.6,0-0.9c-6.1,0-12.2,0-18.6,0C129.9,314.8,129.9,304,129.9,292.4z M214,976.4c-17.6,0-35,0-52.6,0c0,15.1,0,30,0,45.2
		c17.6,0,35,0,52.6,0C214,1006.4,214,991.6,214,976.4z M166.8,1845.5c-36.6,0-72.9,0-109,0c0,3.6,0,6.8,0,10.1c36.5,0,72.6,0,109,0
		C166.8,1852.2,166.8,1849.1,166.8,1845.5z M127.3,1767.4c0,5.6,0,11.3,0,17.2c19,0,37.9,0,57,0c0-5.8,0-11.4,0-17.2
		C165.3,1767.4,146.5,1767.4,127.3,1767.4z M149.5,1663.7c0-12.5,0-24.5,0-36.6c-9.3,0-18.2,0-27.2,0c0,12.4,0,24.5,0,36.6
		C131.5,1663.7,140.3,1663.7,149.5,1663.7z M81.7,267.6c10.3,1.5,18.5-1.7,24.6-9.2c6.1-7.5,9.2-16.4,11.2-25.8c-12,0-23.8,0-35.7,0
		C81.7,244.3,81.7,255.8,81.7,267.6z M166.3,1684.4c-13.5,0-26.2,0-39,0c0,12.2,0,24.2,0,36.4c8.3-1.2,16-3,23-8.6
		c0-4.8,0-9.8,0-15.2c4.4,0,8.3,0,12.3,0C163.8,1692.8,165,1688.9,166.3,1684.4z M193.9,340.4c-9.9,0-19.6,0-29.3,0
		c0,8.9,0,17.6,0,26.1c10.1,0,19.7,0,29.3,0c0.2-2.3,0.3-4.3,0.5-6.2c2.3-0.4,4.4-0.7,6.3-1c0-4.3,0-8,0-11.7
		c-2.4-0.3-4.3-0.6-6.3-0.9C194.2,344.5,194.1,342.5,193.9,340.4z M194.3,1651.2c2.4-0.3,4.3-0.6,6.5-0.8c0-3.8,0-7.4,0-11.3
		c-2.2-0.5-4.3-1-6.4-1.5c-0.2-2-0.4-4.1-0.6-6.1c-10,0-19.6,0-29.3,0c0,8.9,0,17.4,0,26.2c9.9,0,19.5,0,29.4,0
		C194.1,1655.5,194.2,1653.6,194.3,1651.2z M54.3,360.1c2.2-0.3,3.8-0.4,5.3-0.6c2.3-4.3,2.2-8.5-0.1-12.2c-1.6-0.2-3.2-0.3-5-0.5
		c-0.3-2.3-0.5-4.4-0.7-6.3c-10,0-19.6,0-29.2,0c0,8.9,0,17.5,0,26.1c10,0,19.6,0,29.4,0C54,364.3,54.1,362.4,54.3,360.1z
		 M53.9,1631.4c-10,0-19.7,0-29.5,0c0,8.8,0,17.4,0,26.1c10,0,19.8,0,29.5,0c0.2-2.4,0.4-4.3,0.6-6.4c2-0.2,3.8-0.5,5.5-0.7
		c3.1-7.7,1.7-11.1-5.7-13.2C54.1,1635.5,54,1633.7,53.9,1631.4z M65.1,1784.9c0-5.9,0-11.1,0-16.4c-17.2,0-34,0-50.8,0
		c0,5.6,0,10.9,0,16.4C31.3,1784.9,48,1784.9,65.1,1784.9z M127.3,1725.8c0,12.6,0,25.3,0,38c5.7,0,11.1,0,17.1,0
		c0-3.3-0.3-6.5,0.1-9.6c0.7-5.6,0.7-11.6,3-16.5c3-6.4,2-12.5,2.4-18.8C142.1,1721.3,134.7,1723.5,127.3,1725.8z M189.8,1911.4
		c-51.2,0-102.1,0-153.2,0c0,1.6,0,2.9,0,4.2c51.3,0,102.2,0,153.2,0C189.8,1914,189.8,1912.8,189.8,1911.4z M36.5,1904.5
		c51.3,0,102.3,0,153.7,0c-0.1-1.6-0.2-2.8-0.4-4.1c-51.3,0-102.2,0-153.3,0C36.5,1901.9,36.5,1903.2,36.5,1904.5z M36.5,1894.5
		c51.3,0,102.4,0,153.6,0c-0.1-1.6-0.2-2.8-0.3-4.1c-51.3,0-102.3,0-153.3,0C36.5,1891.9,36.5,1893.2,36.5,1894.5z M189.8,1879.5
		c-51.3,0-102.4,0-153.7,0c0.1,1.6,0.2,2.9,0.3,4.1c51.3,0,102.3,0,153.3,0C189.8,1882.1,189.8,1880.8,189.8,1879.5z M181.7,1790
		c0,17.3,0,33.9,0,50.4c5,0,9.6,0,14.1,0c0-17,0-33.6,0-50.4C191,1790,186.5,1790,181.7,1790z M35.9,1872.5c51.8,0,102.8,0,154.1,0
		c-1.5-1.6-2.7-2.9-4-4.2c-48.3,0-96.7,0-145.1,0c0.1,0.3,0.2,0.5,0.3,0.8C39.6,1870.1,38.1,1871.1,35.9,1872.5z M13.8,285.3
		c7.6,0,14.3-0.1,20.9,0.1c2.4,0.1,3.4,1.8,3.4,4.1c0,3.5,0,7,0,10.5c0,7.1,0,14.2,0,21.4c9,0,17.4,0,25.8,0c0-13.2,0-26,0-38.9
		c-17.4,0-34.6,0-51.7,0c-1.2,13.9-0.6,36.3,1.6,40C13.8,309.8,13.8,298.1,13.8,285.3z M61.9,71.5c36.1,0,71.7,0,108.2,0
		c-4-3.5-7.3-5.5-12.2-5.4c-28.5,0.2-57.1,0.2-85.6,0C67.7,66,64.5,67.5,61.9,71.5z M141.2,322.7c0.4-3.2,0.8-6.4,1.2-10.2
		c4.5,3.1,1.2,7.3,3.6,10.6c3-0.5,6.2-1.1,9.4-1.7c0-8.8,0-17.3,0-25.9c-3.7,0-6.9,0-10.1,0c-0.7,8.5-0.7,8.5-3,10.8
		c-0.3-4-0.6-7.5-0.9-10.9c-2.9,0-5.5,0-8.1,0c0,9.2,0,18.1,0,27.3C136,322.7,138.5,322.7,141.2,322.7z M17.4,289
		c0,10.8,0,21.1,0,31.4c5.9,0,11.5,0,17.1,0c0-10.7,0-20.9,0-31.4C28.7,289,23.3,289,17.4,289z M209.9,1789.4c0,17.9,0,34.6,0,51.1
		c3.3,0,6.2,0,9.2,0c0-15.9,0-31.5,0-46C215.7,1792.6,213.1,1791.1,209.9,1789.4z M118.2,331.2c-12.6,0-24.4,0-36.2,0
		c0,4.8,0,9.1,0,13.3c10.9,0,21.4,0,32.2,0C115.5,340.1,116.8,335.9,118.2,331.2z M85.1,123.6c-13.6,0-26.6,0-39.3,0
		c0,4,0,7.6,0,10.9c13.4,0,26.4,0,39.3,0C85.1,130.6,85.1,127.1,85.1,123.6z M206.9,1840.6c0-17.1,0-33.8,0-50.4c-3,0-5.6,0-8.2,0
		c0,17,0,33.6,0,50.4C201.5,1840.6,204,1840.6,206.9,1840.6z M64.8,1758.6c0-11.4,0-22.9,0-34.4c-4.2,0-8.2,0-12.2,0
		c0,11.7,0,22.9,0,34.4C56.7,1758.6,60.5,1758.6,64.8,1758.6z M45.7,109.4c0,3.8,0,7,0,10.1c13.4,0,26.4,0,39.2,0
		c0-3.6,0-6.9,0-10.1C71.6,109.4,58.8,109.4,45.7,109.4z M81.7,367.2c9.1,4.9,25.4-4.6,29-16.7c-9.6,0-19.2,0-29,0
		C81.7,356.2,81.7,361.5,81.7,367.2z M123.9,244.7c11.6,0,22.7,0,33.6,0c0-3.1,0-5.7,0-8.4c-2-0.2-3.6-0.3-5.3-0.4
		c-0.3-1.3-0.6-2.4-0.9-3.5c-9.2,0-18.2,0-27.5,0C123.9,236.6,123.9,240.5,123.9,244.7z M149.4,367.7c0-5.5,0-10.9,0-17
		c-8,0-15.7,0-23.4,0c0,5.7,0,11.3,0,17C134,367.7,141.5,367.7,149.4,367.7z M55.8,1712.8c0-9.7,0-19,0-28.6c-4.2,0-8.1,0-12.2,0
		c0,9.6,0,19,0,28.6C47.7,1712.8,51.5,1712.8,55.8,1712.8z M7.5,1402.7c0-29.9,0-59.5,0-89.1c-1.2,0-2.2,0-3.3,0
		c0,29.9,0,59.5,0,89.1C5.3,1402.7,6.1,1402.7,7.5,1402.7z M4.3,733.4c0,29.6,0,58.9,0,88.4c1.3-0.1,2.2-0.2,3.1-0.2
		c0-29.6,0-58.9,0-88.2C6.3,733.4,5.3,733.4,4.3,733.4z M160.6,126.5c-11.7,0-23.2,0-34.6,0c0,3.2,0,6.1,0,9.1c11.8,0,23.1,0,34.6,0
		C160.6,132.4,160.6,129.5,160.6,126.5z M26.7,1684.3c-4.2,0-7.9,0-11.6,0c0,9.7,0,19,0,28.2c4.1,0,7.8,0,11.6,0
		C26.7,1702.9,26.7,1693.8,26.7,1684.3z M217.8,733.3c0,28.9,0,57.5,0,86.1c1.2,0,2.2,0,3.3,0c0-28.9,0-57.5,0-86.1
		C220,733.3,219.2,733.3,217.8,733.3z M198.6,1696.8c-0.6-4-0.6-7.6-1.6-10.8c-2.2-7.6-11.7-10.1-16.6-4.4
		c-3.6,4.3-5.2,9.4-3.7,15.2C183.9,1696.8,190.7,1696.8,198.6,1696.8z M221,545.6c0-28.6,0-56.9,0-85.4c-1.3,0.1-2.2,0.2-3.1,0.3
		c0,28.6,0,56.9,0,85.1C219.1,545.6,220,545.6,221,545.6z M7.4,546.6c0-28.8,0-57,0-85.2c-1.2,0-2.1,0-3.1,0c0,28.5,0,56.9,0,85.2
		C5.6,546.6,6.4,546.6,7.4,546.6z M149.7,331.3c-8.3,0-16,0-23.8,0c0,4.7,0,8.9,0,13.2c8.2,0,15.9,0,23.8,0
		C149.7,339.9,149.7,335.8,149.7,331.3z M217.8,1316.3c0,27.9,0,55.5,0,83.4c1.2-0.1,2.3-0.1,3.3-0.2c0-28,0-55.6,0-83.2
		C220,1316.3,219.1,1316.3,217.8,1316.3z M160.7,114.5c-11.8,0-23.3,0-34.7,0c0,2.9,0,5.5,0,8c11.8,0,23.1,0,34.7,0
		C160.7,119.8,160.7,117.4,160.7,114.5z M36.6,1860.4c5.3,2.1,150.3,1.8,153.7,0C138.7,1860.4,87.6,1860.4,36.6,1860.4z
		 M36.6,1907.4c5.5,2.1,150.4,1.8,153.7,0C138.7,1907.4,87.6,1907.4,36.6,1907.4z M36.6,1864.4c5.3,2.1,150.3,1.8,153.8,0
		C138.7,1864.4,87.6,1864.4,36.6,1864.4z M36.6,1875.4c0,0.4,0,0.7,0,1.1c1.1,0.1,2.2,0.3,3.2,0.3c50-0.1,99.9-0.2,149.9-0.4
		c0,0,0.1-0.3,0.1-0.4c0-0.2,0-0.3,0-0.6C138.7,1875.4,87.6,1875.4,36.6,1875.4z M189.8,1887.6c0-0.4,0-0.7,0.1-1.1
		c-0.7-0.1-1.5-0.4-2.2-0.4c-50.3,0.1-100.6,0.2-150.9,0.3c-0.1,0-0.1,0.2-0.2,0.4c0,0.2,0,0.3,0,0.7
		C87.6,1887.6,138.7,1887.6,189.8,1887.6z M16.4,162.5c-0.7,21.5-1.4,42.3-2.1,63.5c2.1-0.1,3.8-0.2,6-0.3c0-21.4,0-42.2,0-63.2
		C18.9,162.5,17.8,162.5,16.4,162.5z M203.8,1784.7c0-6,0-11.5,0-17.3c-5.4,0-10.3,0-15.7,0c0,5.8,0,11.5,0,17.3
		C193.5,1784.7,198.5,1784.7,203.8,1784.7z M184,1725.7c0.8-5.5,6.5-2.6,8.2-6.3c-1.2-6.7-9.1-2.4-12.5-6.9
		c4.3-1.1,8.2-2.2,12.1-3.2c0-1,0-1.9,0-2.9c-5.4,1-10.5,1.8-15.6,2.9c-3.2,0.7-4,2.8-3,6.1c2.3,0.7,4.7,1.4,7.1,2
		c-0.3,5.9-5.3,2.6-7.8,4.4c0,1.4,0,3,0,4.8c6.4,1.8,12.7,3.5,19.3,5.3c0-1.8,0-3.2,0-4.3C189,1727,186.6,1726.4,184,1725.7z
		 M30.6,1684.4c0,9.4,0,18.9,0,28.2c3.3,0,6.2,0,9.1,0c0-9.6,0-18.8,0-28.2C36.6,1684.4,33.8,1684.4,30.6,1684.4z M206.5,225.5
		c1.5,0,3.2,0,5.2,0c-0.4-9.4-0.8-18.3-1.1-27.3c-0.4-10.8-0.8-21.5-1.3-32.3c-0.1-1.5,0.9-4.1-2.8-3.5
		C206.5,183.3,206.5,204.1,206.5,225.5z M168,1679.6c0.1-0.5,0.2-1.1,0.3-1.6c-5.8-2.1-12.3,0.3-18.2-1.3c-0.2-2-0.4-3.8-0.6-5.4
		c-7.7,0-15,0-22.2,0c0,3,0,5.6,0,8.4C141,1679.6,154.5,1679.6,168,1679.6z M85.1,138.5c-13.5,0-26.6,0-39.9,0c0.2,2,0.3,3.5,0.4,5
		c13.4,0,26.4,0,39.5,0C85.1,141.8,85.1,140.4,85.1,138.5z M166.1,86.7c9.2,0,18.4,0,27.8,0c-0.7-3-1.3-5.7-2-8.5
		c-8.5,0-16.8,0-24.9,0C166.7,81.1,166.4,83.7,166.1,86.7z M54.6,1662.5c-10.6,0-20.4,0-30.2,0c-0.2,5.6,0.4,6.3,5.2,6.4
		c7.4,0.1,14.7,0,22.8,0C53,1666.9,53.7,1664.9,54.6,1662.5z M164.6,1662.4c-0.6,5.6,0,6.4,5.3,6.5c6.2,0,12.4,0.1,18.6,0
		c5.1,0,5.9-1,5.1-6.5C183.9,1662.4,174.3,1662.4,164.6,1662.4z M24.3,1627.5c10,0,19.8,0,29.6,0c-0.3-5.2-1.2-6.3-5.7-6.4
		c-6.2-0.1-12.4-0.1-18.5,0C24.7,1621.2,24.1,1621.9,24.3,1627.5z M194,1627.7c-0.3-5.5-1.1-6.4-5.8-6.5c-6.2-0.1-12.4-0.1-18.5,0
		c-5.1,0.1-5.8,1.1-4.9,6.5C174.4,1627.7,184,1627.7,194,1627.7z M55.5,78.4c-6.7,0-13.6,0-20.9,0c-0.6,2.9-1.1,5.5-1.7,8.2
		c8.4,0,16,0,23.3,0C55.9,83.7,55.7,81.1,55.5,78.4z M190,126.7c-8.6-4-17.3-8-26.5-12.2c0,3.2,0,5.7,0,8.5
		c8.7,3.2,17.5,6.5,26.5,9.8C190,130.5,190,128.8,190,126.7z M194.2,371.5c-10.2,0-20,0-30.1,0c0.3,2,0.5,3.5,0.8,5.1
		c9.8,0,19.1,0,28.9,0C193.9,374.7,194,373.2,194.2,371.5z M24.4,376.5c10,0,19.4,0,29.2,0c0.2-2,0.3-3.5,0.4-5.1
		c-10.2,0-19.9,0-29.6,0C24.4,373.1,24.4,374.5,24.4,376.5z M164.4,335.6c10,0,19.7,0,29.5,0c-0.4-4.8-0.9-5.4-4.9-5.4
		c-6.7-0.1-13.4-0.1-20.1,0c-1.5,0-3.1,0.7-4.5,1C164.4,333,164.4,334.2,164.4,335.6z M160.6,139.2c-11.8,0-23.2,0-35,0
		c0.2,1.8,0.3,3.2,0.5,4.5c11.8,0,23.1,0,34.6,0C160.6,142.2,160.6,140.9,160.6,139.2z M24.3,335.7c10,0,19.7,0,30.3,0
		c-1-2.2-1.7-3.8-2.5-5.6c-9.5,0.3-18.6-0.5-27.8,0.5C24.3,332.9,24.3,334.1,24.3,335.7z M7.5,642.6c0-14.1,0-28,0-42.2
		c-1.2,0-2.1,0-3.3,0c0,14.1,0,28,0,42.2C5.4,642.6,6.3,642.6,7.5,642.6z M4.2,839.3c0,14.3,0,28.2,0,42.3c1.2,0,2.1,0,3.2,0
		c0-14.2,0-28.2,0-42.3C6.3,839.3,5.4,839.3,4.2,839.3z M4.3,1119.4c0,14.2,0,28.2,0,42.4c1.3-0.1,2.2-0.2,3.1-0.3
		c0-14.3,0-28.2,0-42.1C6.2,1119.4,5.3,1119.4,4.3,1119.4z M7.3,1227.6c0-14.2,0-28.2,0-42.4c-1.3,0.1-2.2,0.2-3.1,0.3
		c0,14.3,0,28.2,0,42.1C5.4,1227.6,6.4,1227.6,7.3,1227.6z M7.6,1249.4c-1.3,0-2.2,0-3.2,0c0,14.2,0,28.2,0,42.4
		c1.3-0.1,2.2-0.1,3.2-0.2C7.6,1277.4,7.6,1263.7,7.6,1249.4z M4.3,1424.4c0,14.2,0,28.2,0,42.4c1.3-0.1,2.2-0.2,3.1-0.3
		c0-14.3,0-28.2,0-42.1C6.2,1424.4,5.3,1424.4,4.3,1424.4z M7.5,1530.7c0-14.3,0-28.2,0-42.1c-1.2,0-2.2,0-3.3,0
		c0,14.2,0,28.1,0,42.1C5.3,1530.7,6.1,1530.7,7.5,1530.7z M7.3,1765.6c0-14.2,0-28.2,0-42.4c-1.3,0.1-2.2,0.2-3.1,0.3
		c0,14.3,0,28.2,0,42.1C5.4,1765.6,6.4,1765.6,7.3,1765.6z M221.1,949.6c0-14.1,0-27.6,0-41.1c-1.2,0-2.1,0-3.2,0
		c0,13.8,0,27.4,0,41.1C219,949.6,219.9,949.6,221.1,949.6z M7.5,710.7c0-13.9,0-27.5,0-41.1c-1.2,0-2.2,0-3.3,0
		c0,13.9,0,27.5,0,41.1C5.3,710.7,6.1,710.7,7.5,710.7z M221.1,398.7c0-13.9,0-27.5,0-41.1c-1.2,0-2.2,0-3.3,0c0,13.9,0,27.5,0,41.1
		C219,398.7,219.8,398.7,221.1,398.7z M4.2,908.3c0,14,0,27.6,0,41.3c1.2,0,2.1,0,3.2,0c0-13.8,0-27.5,0-41.3
		C6.3,908.3,5.4,908.3,4.2,908.3z M4.1,1092.6c1.3,0,2.3,0,3.4,0c0-13.8,0-27.4,0-41.2c-1.3,0.1-2.3,0.1-3.4,0.2
		C4.1,1065.3,4.1,1078.8,4.1,1092.6z M196,150.4c-6.4,0-12.4,0-18.5,0c-1,5.9-0.2,8.2,3.4,8.4c4.9,0.3,9.9,0.1,15.1,0.1
		C196,155.8,196,153.2,196,150.4z M213.9,1784.6c0-7.9,0-15.6,0-23.1c-2.3,0-4.2,0-6.3,0c0,7.9,0,15.4,0,23.1
		C209.9,1784.6,211.8,1784.6,213.9,1784.6z M221.1,336.7c0-13.9,0-27.5,0-41.1c-1.2,0-2.2,0-3.3,0c0,13.9,0,27.5,0,41.1
		C219,336.7,219.8,336.7,221.1,336.7z M5.3,233.4c0,13.9,0,27.5,0,41.3c1.2-0.1,2.2-0.2,3.2-0.2c0-13.9,0-27.5,0-41.1
		C7.3,233.4,6.4,233.4,5.3,233.4z M7.3,1600.7c0-14,0-27.7,0-41.5c-1.3,0.1-2.2,0.2-3.1,0.3c0,14,0,27.5,0,41.2
		C5.3,1600.7,6.1,1600.7,7.3,1600.7z M101.8,133.5c7.2-3.3,13.8-6.4,20.4-9.5c0-2.9,0-5.6,0-9c-7.3,4.2-13.9,8.1-20.4,11.8
		C101.8,129.1,101.8,130.9,101.8,133.5z M218,670.4c0,13.6,0,26.9,0,40.4c1.3-0.1,2.2-0.2,3.1-0.3c0-13.6,0-26.9,0-40.1
		C219.9,670.4,218.9,670.4,218,670.4z M217.9,1250.4c0,13.7,0,26.9,0,40.1c1.2,0,2.1,0,3.3,0c0-13.5,0-26.7,0-40.1
		C220,1250.4,219.1,1250.4,217.9,1250.4z M218,1120.4c0,13.6,0,26.9,0,40.4c1.3-0.1,2.2-0.2,3.1-0.3c0-13.6,0-26.9,0-40.1
		C219.9,1120.4,218.9,1120.4,218,1120.4z M221.2,1052.4c-1.3,0-2.2,0-3.2,0c0,13.5,0,26.9,0,40.4c1.3-0.1,2.2-0.1,3.2-0.2
		C221.2,1079.1,221.2,1066,221.2,1052.4z M221.1,1530.6c0-13.5,0-26.8,0-40.1c-1.2,0-2.2,0-3.3,0c0,13.5,0,26.8,0,40.1
		C218.9,1530.6,219.8,1530.6,221.1,1530.6z M218,602.4c0,13.2,0,26.2,0,39.4c1.3-0.1,2.2-0.2,3.1-0.3c0-13.3,0-26.2,0-39.1
		C219.9,602.4,218.9,602.4,218,602.4z M218,1187.3c0,13.3,0,26.3,0,39.5c1.3-0.1,2.2-0.2,3.1-0.3c0-13.3,0-26.2,0-39.2
		C220,1187.3,219.2,1187.3,218,1187.3z M218,1560.4c0,13.2,0,26.2,0,39.4c1.3-0.1,2.2-0.2,3.1-0.3c0-13.3,0-26.2,0-39.1
		C219.9,1560.4,218.9,1560.4,218,1560.4z M221,1465.6c0-12.9,0-25.6,0-38.4c-1.3,0.1-2.2,0.2-3.1,0.3c0,13,0,25.5,0,38.1
		C219,1465.6,220,1465.6,221,1465.6z M5.3,297.3c0,13,0,25.7,0,38.5c1.3-0.1,2.2-0.2,3.1-0.3c0-13,0-25.5,0-38.2
		C7.3,297.3,6.5,297.3,5.3,297.3z M5.2,360.3c0,12.9,0,25.5,0,38.2c1.1,0,2.1,0,3.2,0c0-12.8,0-25.4,0-38.2
		C7.3,360.3,6.5,360.3,5.2,360.3z M185.9,1752.4c6.2-2.8,7.8-6.2,6.2-11.5c-1.1-3.6-6.4-7.3-10.1-6.6c-7.7,1.3-9.8,4.4-9.8,9.1
		c0,5.9,1.1,7.4,7.4,7.7c-1.4-1.5-2.7-3-4.3-4.7c-0.6-2.8-0.6-5.7,2.7-7.5c3.1-1.7,6.3-1.5,9,0.4
		C192.9,1743.4,187.1,1747.5,185.9,1752.4z M187.8,1897.7c0.2-0.1,0.3-0.2,0.5-0.3c-50.1,0-100.2,0-150.3,0c0,0.1,0,0.2,0,0.3
		C87.9,1897.7,137.9,1897.7,187.8,1897.7z M217.9,842.4c0,12.7,0,25,0,37.1c1.2,0,2.1,0,3.2,0c0-12.5,0-24.7,0-37.1
		C220,842.4,219,842.4,217.9,842.4z M217.8,1727.3c0,12.2,0,24.1,0,36.3c1.2-0.1,2.3-0.1,3.3-0.1c0-12.3,0-24.2,0-36.2
		C220,1727.3,219.2,1727.3,217.8,1727.3z M218,237.4c0,11.9,0,23.6,0,35.4c1.3-0.1,2.2-0.2,3.1-0.3c0-12,0-23.5,0-35.1
		C219.9,237.4,218.9,237.4,218,237.4z M213,1696.8c0-6.5,0-12.8,0-19.4c-1.8,0-3.4,0-5.2,0c0,6.6,0,12.9,0,19.4
		C209.7,1696.8,211.2,1696.8,213,1696.8z M204,1677.4c-3.8,0-7.1,0-11.6,0c7,5.3,8.4,12.1,8.1,19.5c1.5-0.1,2.4-0.1,3.5-0.2
		C204,1690.2,204,1683.9,204,1677.4z M150,1739.6c-0.4,0-0.7,0-1.1-0.1c-3.2,7.8-2.8,15.9-2.2,24.1c3.8,0,7,0,10.2,0
		c0.1-0.4,0.2-0.8,0.3-1.3c-2.3-0.7-4.6-1.3-7.2-2C150,1753.5,150,1746.5,150,1739.6z M128.4,78.3c0.9,3.5,1.5,6.1,2.1,8.2
		c8.9,1.9,12.3-1.5,9.2-8.2C136.4,78.3,133.1,78.3,128.4,78.3z M58.8,78.2c-1.1,3.6-1.3,7,2,8.2c2.3,0.8,5.8,0.3,7.9-1
		c2.4-1.5,2.1-4.6,0.1-7.2C65.6,78.2,62.3,78.2,58.8,78.2z M106.3,78.2c-1.2,5-0.8,7.1,1.5,8.4c2,1.1,6.8,0.4,8.3-1.3
		c2.1-2.3,2-4.7-0.1-7.1C112.8,78.2,109.7,78.2,106.3,78.2z M82.4,78.4c-1.7,3.6-1,6.5,1.8,7.7c2.1,0.9,5.4,0.8,7.4-0.3
		c3-1.6,2-4.7,0.9-7.8c-2.2,0-4.4,0-6.5,0C84.8,78.1,83.7,78.3,82.4,78.4z M155.4,86.7c8.2,0.9,10.1-1.1,7.9-8.4c-3.2,0-6.5,0-9.7,0
		C150.9,81.6,152,84.1,155.4,86.7z M172.3,1677.3c-1.6,8.1-1,17.3,1.8,20c-0.7-8,1.6-14.4,7.3-20
		C177.9,1677.3,175.2,1677.3,172.3,1677.3z M72.9,225.7c-5.2-2.4-42.7-2-46,0C42.6,225.7,57.7,225.7,72.9,225.7z M198.9,225.5
		c0-0.3,0-0.7,0-1c-14.8,0-29.6,0-44.5,0c0,0.3,0,0.7,0,1C169.3,225.5,184.1,225.5,198.9,225.5z M200.9,233.6c0-0.5,0-1,0-1.5
		c-12.1,0.3-24.2-0.4-36.3,0.4c0,0.4,0,0.7,0,1.1C176.6,233.6,188.8,233.6,200.9,233.6z M26.6,1716.5c-4,0-7.7,0-11.9,0
		c0.1,1.9,0.2,3.5,0.3,5.1c4.1,0,7.7,0,11.6,0C26.6,1719.8,26.6,1718.2,26.6,1716.5z M60.8,233.4c-5.2-1.9-32.1-1.6-35,0
		C37.5,233.4,49.2,233.4,60.8,233.4z M149.8,78.3c-2.1,0-4.3,0-6.5,0c-0.3,2.9-0.6,5.6-0.9,8.5c3,0,5.9,0,8.4,0
		C150.5,83.9,150.2,81.2,149.8,78.3z M102.9,78.3c-2.2,0-4.5,0-7,0c-0.2,2.9-0.3,5.6-0.5,8.4c2.9,0,5.6,0,8.2,0
		C103.3,83.9,103.1,81.3,102.9,78.3z M72.3,78.3c-0.1,2.9-0.3,5.6-0.4,8.5c2.9,0,5.7,0,8.3,0c-0.5-2.8-0.9-5.5-1.4-8.5
		C76.8,78.3,74.6,78.3,72.3,78.3z M126.3,78.3c-2.3,0-4.6,0-6.6,0c-0.2,2.9-0.3,5.6-0.5,8.3c2.8,0,5.5,0,8.1,0
		C127,83.7,126.6,81.1,126.3,78.3z M170.4,1854.5c2.2,1.3,15.9,2.1,19.2,0.9c0.3-0.1,0.4-1.1,0.6-1.7
		C183.3,1852.5,172.9,1852.9,170.4,1854.5z M203.9,1763.6c0.1-0.5,0.1-1,0.2-1.5c-4.4-2.1-9.4-0.6-14.1-0.9c-0.7,0-1.5,0.9-2.3,1.4
		c0.1,0.3,0.3,0.7,0.4,1C193.4,1763.6,198.7,1763.6,203.9,1763.6z M189.7,1858.5c0-0.3,0-0.6,0-0.9c-6.4,0-12.8,0-19.1,0
		c0,0.3,0,0.6,0,0.9C177,1858.5,183.3,1858.5,189.7,1858.5z M75.9,331.1c-1.7,4.3-1.7,8.6,0,12.8C77.6,339.6,77.6,335.4,75.9,331.1z
		 M36.6,1854.4c0,0.3,0,0.6,0,0.8c5.7,0,11.5,0,17.2,0c0-0.3,0-0.6,0-0.8C48,1854.4,42.3,1854.4,36.6,1854.4z M36.6,1857.4
		c0,0.4,0,0.8,0,1.3c5.7,0.3,11.5,0.3,17.2,0.1c0-0.4,0-0.9,0-1.3C48,1857.4,42.3,1857.4,36.6,1857.4z M175.9,1763.5
		c2.9,0,5.7,0,8.9,0C182,1760.3,177.9,1760.4,175.9,1763.5z M121.5,336.8c-0.7,1.7-1.2,2.9-1.6,4c-0.4,1.2-0.6,2.4-0.9,3.7
		C122.3,343.9,122.3,343.9,121.5,336.8z M72.7,233.5c0-0.3-0.1-0.6-0.1-0.9c-2,0-3.9,0-5.9,0c0,0.3,0,0.6,0,0.9
		C68.7,233.5,70.7,233.5,72.7,233.5z M154.3,232.6c0,0.2,0,0.5,0,0.7c1.1,0,2.2,0,3.3,0c0-0.2,0-0.5,0-0.7
		C156.5,232.6,155.4,232.6,154.3,232.6z M36.4,1868.6c0.1,0.4,0.1,0.8,0.2,1.2c0.8-0.2,1.5-0.4,2.3-0.6c-0.1-0.3-0.1-0.6-0.2-0.8
		C37.9,1868.4,37.1,1868.5,36.4,1868.6z M168.5,1695.1c-0.3-0.1-0.6-0.1-0.8-0.2c-0.1,0.6-0.2,1.1-0.3,1.7c0.3,0.1,0.5,0.1,0.8,0.2
		C168.2,1696.2,168.3,1695.7,168.5,1695.1z M189.6,1869.8c0.1-0.4,0.3-0.8,0.2-1.1c0-0.1-0.7-0.4-0.7-0.3c-0.2,0.3-0.3,0.7-0.5,1
		C188.9,1869.5,189.1,1869.6,189.6,1869.8z"/>
	<path d="M57.5,1367.9c-13.4,0-26.2,0-39.4,0c0-8.2,0-16.3,0-24.7c12.9,0,25.9,0,39.4,0C57.5,1351.4,57.5,1359.6,57.5,1367.9z
		 M20.3,1355.6c11.6,0,23,0,34.5,0c0-3.5,0-6.7,0-10.2c-11.6,0-22.9,0-34.5,0C20.3,1348.8,20.3,1351.9,20.3,1355.6z M20.3,1365.5
		c11.7,0,23.1,0,34.4,0c0-2.3,0-4.2,0-6.1c-11.6,0-22.9,0-34.4,0C20.3,1361.6,20.3,1363.5,20.3,1365.5z"/>
	<path d="M122.9,1343.1c13.3,0,26.4,0,39.8,0c0,8.2,0,16.3,0,24.8c-13.2,0-26.3,0-39.8,0C122.9,1359.7,122.9,1351.7,122.9,1343.1z
		 M125.1,1355.4c12.1,0,23.9,0,35.4,0c0-3.6,0-6.9,0-9.8c-12,0-23.7,0-35.4,0C125.1,1349.1,125.1,1352,125.1,1355.4z M160.7,1359.5
		c-12.1,0-23.7,0-35.4,0c0,2.2,0,4.1,0,6c12,0,23.7,0,35.4,0C160.7,1363.4,160.7,1361.6,160.7,1359.5z"/>
	<path d="M208.3,1343.2c0,8.3,0,16.2,0,24.5c-13.3,0-26.5,0-40.1,0c0-8.1,0-16.2,0-24.5C181.5,1343.2,194.6,1343.2,208.3,1343.2z
		 M170.4,1355.5c12.2,0,23.9,0,35.5,0c0-3.6,0-6.8,0-10c-12,0-23.7,0-35.5,0C170.4,1349,170.4,1352.1,170.4,1355.5z M170.4,1365.5
		c12.1,0,23.8,0,35.4,0c0-2.3,0-4.2,0-6.1c-12,0-23.6,0-35.4,0C170.4,1361.5,170.4,1363.3,170.4,1365.5z"/>
	<path d="M102.5,1343.2c0,8.3,0,16.2,0,24.5c-13,0-25.9,0-39.1,0c0-8.1,0-16.2,0-24.5C76.4,1343.2,89.2,1343.2,102.5,1343.2z
		 M100.2,1345.4c-11.7,0-23,0-34.5,0c0,3.5,0,6.7,0,10.1c11.6,0,22.9,0,34.5,0C100.2,1352.2,100.2,1349.1,100.2,1345.4z
		 M65.6,1365.5c11.8,0,23.2,0,34.4,0c0-2.3,0-4.2,0-6.1c-11.7,0-22.9,0-34.4,0C65.6,1361.5,65.6,1363.3,65.6,1365.5z"/>
	<path d="M208.1,786.9c-13.2,0-26.3,0-39.7,0c0-7.7,0-15.5,0-23.6c13,0,26.1,0,39.7,0C208.1,770.8,208.1,778.6,208.1,786.9z
		 M170.4,775.5c12.2,0,23.9,0,35.4,0c0-3.6,0-6.8,0-10c-12,0-23.7,0-35.4,0C170.4,769,170.4,772.1,170.4,775.5z M206,778.5
		c-12,0-23.8,0-35.4,0c0,2.3,0,4.2,0,6.1c12,0,23.6,0,35.4,0C206,782.4,206,780.5,206,778.5z"/>
	<path d="M102.5,763.2c0,7.9,0,15.5,0,23.5c-12.9,0-25.9,0-39.1,0c0-7.8,0-15.5,0-23.5C76.3,763.2,89.1,763.2,102.5,763.2z
		 M65.7,775.6c11.6,0,22.9,0,34.5,0c0-3.5,0-6.7,0-10.2c-11.6,0-22.9,0-34.5,0C65.7,768.9,65.7,772.1,65.7,775.6z M100.1,784.6
		c0-2.4,0-4.3,0-6.2c-11.6,0-22.9,0-34.4,0c0,2.2,0,4.1,0,6.2C77.2,784.6,88.5,784.6,100.1,784.6z"/>
	<path d="M162.9,763.2c0,8,0,15.7,0,23.7c-13.1,0-25.9,0-39,0c0-7.9,0-15.6,0-23.7C136.8,763.2,149.5,763.2,162.9,763.2z
		 M160.6,765.4c-11.6,0-22.9,0-34.5,0c0,3.5,0,6.7,0,10.2c11.6,0,22.9,0,34.5,0C160.6,772.2,160.6,769.1,160.6,765.4z M160.7,778.4
		c-11.8,0-23.1,0-34.5,0c0,2.2,0,4.1,0,6.1c11.7,0,23.1,0,34.5,0C160.7,782.4,160.7,780.6,160.7,778.4z"/>
	<path d="M17.8,786.8c0-7,0-13.4,0-19.9c0-1.1,0.1-2.3,0.2-3.7c13.1,0,25.9,0,39,0c0,7.8,0,15.6,0,23.6
		C44.1,786.8,31.3,786.8,17.8,786.8z M20.3,775.6c11.6,0,23,0,34.5,0c0-3.5,0-6.7,0-10.2c-11.6,0-22.9,0-34.5,0
		C20.3,768.8,20.3,771.9,20.3,775.6z M54.9,778.5c-11.8,0-23.2,0-34.4,0c0,2.3,0,4.2,0,6c11.7,0,22.9,0,34.4,0
		C54.9,782.5,54.9,780.7,54.9,778.5z"/>
	<path d="M78.6,196c-6.7,6.2-22.5,6.9-28.8,1.1c-2.3-2.2-3.9-5-6.7-8.6c0-5.5,0-12.3,0-19.1c0-0.5,0.7-1,1-1.5
		c0.1,7.2,0.2,14.3,0.3,21.5c0.5,0,1,0,1.5,0c4.3-6.6,1.2-14,2.1-21c-1.7-0.2-2.9-0.3-4-0.4c1.5-0.6,3-1.3,4.9-2.1
		c0.5-2.8,2.6-4.2,6.2-4.1c5.9,0.1,11.7,0.1,17.6,0c3.3-0.1,5.5,1.1,6.1,4.6c3.2-0.5,5.7,0.2,5.7,4c0.1,6.5,0,12.9,0,18.1
		c-2.6,3.2-4.4,5.4-6.1,7.6c-0.1-2.3-0.2-4.5-0.4-7.4c-2.4,1.4-4.4,2.5-6.5,3.6c-5.4-2.9-10.6-0.7-15.3,0.6c-2.3-2-4.2-3.6-6.2-5.4
		c-2.3,4.3-1.1,7.5,2.9,9.2c6.7,2.9,13.6,2.6,20.4,0.5C75.1,196.8,76.8,196.5,78.6,196z M77.1,165.4c-4.9-3.3-22.1-3.2-26.5-0.1
		c0,6.9,0,13.8,0,20.1c2.5,1.9,4.6,3.5,6.6,5c0-0.3,0-0.6,0-0.8c5,0,10,0,15.5,0c1.2-0.8,2.8-1.9,4.4-3
		C77.1,179.6,77.1,172.7,77.1,165.4z M80.9,168.2c-3.7,4.1-3.3,17,0.7,21.4C84.4,184.9,84,171.2,80.9,168.2z"/>
	<path d="M121.7,190.2c-0.4-0.7-1.1-1.3-1.1-2c-0.1-6.8,0-13.6,0-20.8c1.7-0.4,3.2-0.7,5.1-1.2c1.3-3.4,4.2-4.6,8.2-4.4
		c5.3,0.3,10.7,0.1,16.1,0c3.3-0.1,5.5,1,6.3,4.3c4.6,0.3,5.7,1.1,5.8,5.3c0.2,5,0,10,0,15c0,3.1-1.3,5.1-4.8,5.6
		c0.3,4.1-2.4,5.8-5.8,6.9c-6,2-12,3.1-18.1,1c-3.7-1.3-7.7-2.2-9-6.9c-0.3-1.2-1.9-2-2.9-3c1.3-1.7,3.7-3.2,3.8-5
		c0.5-5.4,0.2-10.8,0.2-16.5c-1.4-0.1-2.3-0.2-3.8-0.3C121.7,175.7,121.7,183,121.7,190.2z M154.8,186.7c0-5.9,0.1-11.9,0-17.8
		c0-4.2-1.4-5.6-5.7-5.7c-5.4-0.1-10.7-0.1-16.1,0c-3.7,0.1-5.9,2.1-6.1,5.8c-0.2,5.6-0.1,11.2-0.1,16.1c2.9,2,5.2,3.6,6.7,4.6
		c5.5-0.3,10.3-0.5,15.2-0.8c0,0.3,0.1,0.6,0.1,0.9C150.8,188.9,152.7,187.9,154.8,186.7z M155.6,188.6c-2.3,1.4-4.1,2.5-6.2,3.9
		c-5.4-2.5-11-1.3-15.9,0.7c-2.3-2.1-4.1-3.8-6.1-5.6c-1.9,4.8-1,7.8,2.7,9.3c8.9,3.6,17.5,2.8,25.6-1.8
		C155.6,192.9,155.6,191.1,155.6,188.6z M158.5,168.2c-3.7,3.6-3.4,17.6,0.4,21.4C162,185.2,161.7,171.6,158.5,168.2z"/>
	<path d="M188.5,415.6c3.9,0,7.5,0,11.4,0c0,6.8,0,13.1,0,19.9c-3.9,0-7.5,0-11.4,0C188.5,429.2,188.5,422.8,188.5,415.6z
		 M197.9,418.1c-2.5,0-4.7,0-7.2,0c0,5.4,0,10.4,0,15.3c2.6,0,4.8,0,7.2,0C197.9,428.1,197.9,423.3,197.9,418.1z"/>
	<path d="M39.6,425.6c3.8,2,0.8,7.4,6.9,7.1c-0.4,0.6-0.9,1.2-1.3,1.7c-1.8,0.2-3.7,0.5-5.6,0.7C39.6,431.7,39.6,428.9,39.6,425.6z"
		/>
	<path d="M39.5,418.5c0-4.3,0-8.3,0-13.4C41.9,410,41.7,415.9,39.5,418.5z"/>
	<path d="M46.2,392.5c-1.4,0.3-2.9,0.7-4.5,1.1c-0.3,1.4-0.6,2.9-1,4.4c-0.4,0-0.8,0-1.2,0c-0.2-2.1-0.4-4.3-0.6-6.6
		c2.8,0,5,0,7.2,0C46.1,391.8,46.1,392.1,46.2,392.5z"/>
	<path d="M163.3,290.1c12.8,0,25.3,0,38.2,0c0,7.6,0,15,0,23c-12.9,0-25.4,0-38.2,0C163.3,305.4,163.3,298,163.3,290.1z
		 M198.1,309.7c0-5.7,0-11,0-16.4c-6,0-11.7,0-17.4,0c0,5.7,0,11,0,16.4C186.7,309.7,192.2,309.7,198.1,309.7z M166.4,293
		c0,5.9,0,11.1,0,16.4c3.7,0,7,0,10.3,0c0-5.6,0-10.9,0-16.4c-1.8,0-3.3,0-4.8,0C170.2,293,168.5,293,166.4,293z"/>
	<path d="M188.2,1018.1c-10.1,0.5-19-9.2-19.1-18.8c-0.2-9.6,10.2-19.7,19.4-19.5c9.5,0.2,19.2,10.1,19.1,19.6
		C207.4,1009.4,197.5,1018.9,188.2,1018.1z M172.3,999.6c-1.6,9.7,8.3,16.4,15.8,16.3c9.4-0.1,16.2-6.6,16.2-16
		c0-11.2-5.3-16.8-16.1-16.8C177.7,983.1,172.3,988.7,172.3,999.6z"/>
	<path d="M21.8,999.4c-1-10.9,9.3-19.1,18.4-19.4c9.5-0.3,19.5,10.1,19.1,19.6c-0.5,11.4-11.1,18.9-18.8,18.7
		C30.6,1018,21.1,1009.9,21.8,999.4z M56.1,999.4c0-10.7-5.4-16.3-15.9-16.3c-10.4,0-16.1,5.8-16.1,16.2c0,9.5,6.7,16.5,15.9,16.5
		C50.3,1015.9,56.1,1009.9,56.1,999.4z"/>
	<path d="M44.3,283.4c5.3,0,10.2,0,15.9,0c1.6,10.5,0.5,20.9,0.8,31.9c-6.1,0-11.3,0-16.7,0C44.3,304.5,44.3,294.1,44.3,283.4z
		 M47.5,286.3c0,8.8,0,17,0,25.5c3.3,0,6.4,0,9.5,0c0-8.8,0-17.1,0-25.5C53.6,286.3,50.8,286.3,47.5,286.3z"/>
	<path d="M160.9,1763.1c0.4-0.4,0.8-0.8,1.2-1.2C161.7,1762.3,161.3,1762.7,160.9,1763.1z"/>
</g>
</svg>
