<?xml version="1.0" encoding="UTF-8" standalone="no"?>
<!-- Created with Inkscape (http://www.inkscape.org/) -->

<svg
   xmlns:dc="http://purl.org/dc/elements/1.1/"
   xmlns:cc="http://creativecommons.org/ns#"
   xmlns:rdf="http://www.w3.org/1999/02/22-rdf-syntax-ns#"
   xmlns:svg="http://www.w3.org/2000/svg"
   xmlns="http://www.w3.org/2000/svg"
   xmlns:xlink="http://www.w3.org/1999/xlink"
   xmlns:sodipodi="http://sodipodi.sourceforge.net/DTD/sodipodi-0.dtd"
   xmlns:inkscape="http://www.inkscape.org/namespaces/inkscape"
   width="210mm"
   height="297mm"
   viewBox="0 0 744.09448819 1052.3622047"
   id="svg4099"
   version="1.1"
   inkscape:version="0.91 r13725"
   sodipodi:docname="carriage_h_3.svg">
  <defs
     id="defs4101" />
  <sodipodi:namedview
     id="base"
     pagecolor="#ffffff"
     bordercolor="#666666"
     borderopacity="1.0"
     inkscape:pageopacity="0.0"
     inkscape:pageshadow="2"
     inkscape:zoom="0.35"
     inkscape:cx="375"
     inkscape:cy="520"
     inkscape:document-units="px"
     inkscape:current-layer="layer1"
     showgrid="false"
     inkscape:window-width="1440"
     inkscape:window-height="852"
     inkscape:window-x="0"
     inkscape:window-y="0"
     inkscape:window-maximized="1" />
  <metadata
     id="metadata4104">
    <rdf:RDF>
      <cc:Work
         rdf:about="">
        <dc:format>image/svg+xml</dc:format>
        <dc:type
           rdf:resource="http://purl.org/dc/dcmitype/StillImage" />
        <dc:title></dc:title>
      </cc:Work>
    </rdf:RDF>
  </metadata>
  <g
     inkscape:label="Layer 1"
     inkscape:groupmode="layer"
     id="layer1">
    <g
       id="g4167"
       transform="matrix(0,-1,1,0,-604.76429,609.12649)">
      <defs
         id="defs4169">
        <rect
           height="1198"
           width="222"
           id="SVGID_1_"
           x="0"
           y="0" />
      </defs>
      <clipPath
         id="SVGID_2_">
        <use
           id="use4173"
           style="overflow:visible"
           xlink:href="#SVGID_1_"
           x="0"
           y="0"
           width="100%"
           height="100%" />
      </clipPath>
      <path
         clip-path="url(#SVGID_2_)"
         id="path4175"
         d="m 146,1198 c -1,0 -2,0 -3,0 l 0,-18 c -5.3,0 -16.7,0.1 -16.7,0.1 0,0 -0.3,8.2 7.2,11.7 l 0,3 c -9.3,-3.2 -10.4,-12.3 -10.9,-14.6 l -28.3,0 c -0.3,0.7 -1.1,12.7 -10.6,14.2 l 0,-2.9 c 7.1,-2.6 7.4,-11.2 7.4,-11.2 l -13.1,0 0,17.8 c -0.7,0 -1.3,0 -2,0 l 0,-20 c 4.6,0 15,0 15,0 l 0,-1.8 -19.1,0.1 0.1,19.7 c 0,0 -57.2,-0.1 -58.2,-0.1 C 5.3,1196.3 0.6,1181.6 0,1181.2 0,795 0,409 0,23 0.6,22.2 2.5,16.3 2.9,14.9 3.8,12.2 5.3,9.4 8.3,6.2 11.4,3 15.5,1 20.2,1 c 16.8,0 52,0.1 52,0.1 l 0,16.7 19.7,0 0,-2.8 c -2.8,0 -5.4,0 -8.1,0 -2.6,0 -5.2,0.1 -7.7,-0.1 l 0,-14.9 2,0 0,12.8 14,0.1 c 0,0 0.4,-6.2 -4.1,-8.6 C 86.8,3.7 86,3.6 86,3.6 L 85.9,1.5 c 0,0 4.1,-0.7 7.1,3.8 1.6,2.4 2.1,5.5 2.2,7.7 l 31.4,0 c 0,0 -0.1,-5.3 1.8,-8 2.6,-3.6 7.2,-3.6 7.2,-3.6 l 0,2.2 c 0,0 -3.5,0.6 -5,2.4 -1.7,2 -1.6,7.1 -1.6,7.1 l 14.2,0 0,-13.1 3,0 0,15.1 -17,0 0,2.9 c 0,0 12.8,0 19,0 1,0 3.3,-0.1 3.3,-0.1 L 151.2,1 c 0,0 30.1,0 45.1,0 3.7,0 10.8,0.5 16.7,5.3 0,0 6.8,4.2 9,16.9 l 0,11.8 0,1141 c -0.3,3.2 -0.8,5.4 -0.8,5.4 -1.5,11 -7.2,13 -15.5,14.6 l -54.9,0 0,-19.9 -24.5,-0.1 c 0,0 -0.1,1.4 0,2 l 19.7,0 0,20 z m 9.9,-823.2 0,-37.6 -145.7,0 0,37.5 104.5,0.1 m -62.1,781.8 c 0,0 0.6,-4.4 -8.6,-8.9 -10,-4.9 -28.2,-7 -35,-6.6 0,10.3 0.1,31.2 0.1,31.2 m 129.9,-50.1 40,0 0.1,14.7 32.9,0 c 0,-7.5 0,-47.5 0,-47.5 l -72.8,0 c 0,2.5 -0.2,24.7 -0.2,32.8 m 38.5,38.8 c -3.9,2.7 -6,4.1 -8.2,4.8 0,0 -26.9,-24.2 -27.7,-25.6 l -109.5,0 c 5,1.2 9.7,3 14.2,5.5 5.1,2.8 10.4,7.7 8.8,12.9 L 13.4,1174 211.6,1173.8 177.5,1161 M 210.3,20.5 c -2.3,0.2 -4.2,0.5 -6.2,0.5 -62.7,0 -125.3,0 -188,0 -1.5,0 -3,0 -4.5,0 -0.2,0 -0.4,0.4 -0.5,0.5 C 11.6,22 51.2,35.4 51.2,35.4 47.4,45 36.2,57.6 10.6,56 l -0.1,3 132.5,0.3 c 7.2,2.7 13.2,5.4 14.9,13.8 0,0 0,76.6 0,116.1 0,0.3 -0.3,0.5 -0.5,0.8 -0.4,-0.1 -0.9,-0.2 -1.5,-0.3 l 0,-73.6 -36,-0.1 -0.1,-40.2 c 0,0 -73.5,0.1 -109.7,0.1 l 0,259 c 48.7,0 97.1,0 145.9,0 l 0,-90.6 1.9,0 c 0,0 0,90 0,135 0,0.1 52.7,16.1 52.7,16.1 0,0 -3.3,10.8 -5.5,15 -2.6,4.9 -7.4,9.3 -11.7,11.3 -6.1,3 -19,6 -35.3,5.5 l 0,69.7 53.6,0 0,-439.9 c -3.5,0 -6.9,0.3 -10.1,-0.1 -2.2,-0.3 -12.6,-0.5 -22,-4.8 -5.5,-2.5 -12.5,-10.4 -12.5,-15.4 M 11,499 c 0,0 0,3.4 0,4.9 -0.4,18.4 -1,580.3 -1,582 l 202,0 0,-5 0,-164.5 0,-40 0,-40 0,-39.4 c 0,-13.3 0.2,-26.7 0,-40 -0.2,-13.2 0,-185.8 0.1,-251.7 0,-2.3 0,-6.3 0,-6.3 L 11,499 Z m 40.9,-70 c -13.7,0 -27.1,0 -40.4,0 -0.5,0.5 -0.9,0.9 -1.4,1.4 l 0,66.4 c 14,0 111.5,0.1 145.6,0.1 l 0,-43.9 c -33.9,0 -67.5,0 -101.2,0 -0.1,0 -0.3,-0.2 -0.4,-0.3 -0.1,-0.1 0,-0.2 -0.1,-0.7 l 50,0 c -0.2,-19.9 16.2,-42.9 32.6,-43 0,0 18.7,37.9 19.2,37.9 l 0,-70.7 c -15.2,-0.7 -145.6,0.3 -145.6,0.3 l 0.9,3.6 40.8,0 0,48.9 z m 54.2,689.7 c 0,0 -24.6,-19.8 -36.7,-29.6 l -3.2,0 0,47.7 70.8,0 c 0,-12.5 0.2,-47.8 0.2,-47.8 0,0 1,25.5 -31.1,29.7 z m -94.9,-737.6 0,46.9 c 6.6,0 13.1,0 19.6,0 6.4,-0.1 12.8,0.2 19.1,-0.2 l 0,-46.7 -38.7,0 z m 147,0.7 0,42.2 c 0,0 18.1,2.2 33.7,-4.8 6,-2.7 10.1,-7.9 12.9,-13.5 0.9,-1.8 3,-8.8 3,-8.8 -2.5,-1 -42.1,-12.5 -49.6,-15.1 M 139.8,63 c 0,0 -82.9,0 -121.8,0 l -5,0 c 0,2 0.1,8.4 0.2,9.8 l 126.7,0 -0.1,-9.8 z m 15.2,49.9 c 0,-11.6 0,-22.7 0,-33.8 0,-1.5 -0.2,-3.2 -0.2,-3.2 0,0 -21.8,0.1 -31.7,0.1 l 0,37 31.9,0 z m -81.1,976.2 c 2.6,2.4 32.8,27 32.8,27 23.4,-2.6 27.4,-21.8 27.4,-27 l -60.2,0 z m -6,87 -58.8,0 0,13.6 c 1.7,2.1 4,3.3 6.5,3.3 16.3,-0.1 32.6,0 48.9,0 l 3.5,-0.1 -0.1,-16.8 z m 138.6,-0.1 c -15.8,0 -31.6,0 -47.4,0 l -5,0 0,17 c 0,0 32.8,0.2 48.5,-0.1 3.2,-0.1 7,-0.4 9.4,-3.4 l 0,-13 c -0.4,-0.4 -4.1,-0.5 -5.5,-0.5 M 60.1,369 m 46.7,82.9 48.9,0.1 -20.3,-40 c -22.6,3.9 -30,33.3 -28.6,39.9 M 67.9,17.6 67.9,4 c 0,0 -2.2,0 -3.6,0 C 50.5,4 36.7,3.8 22.9,4.1 17.4,4.2 12.2,6 9.1,11.4 8.1,13.1 6.7,17.7 6.7,17.7 L 67.9,17.6 Z M 215.4,17.5 C 213.3,11.7 206.9,5.9 200.3,4.6 l -46.1,0 c 0,0 0,8.9 0,13.1 m -45.1,352.6 m 102.7,770.5 c -0.5,-0.5 -17.9,0.9 -20.8,2.2 l -0.1,19.7 20.9,8 M 194.1,29.3 194,53.3 c 1.8,1.3 17.5,0.9 18,0.4 L 211.9,23.1 M 9,1089.1 l 0,23.9 0,23.8 55,-0.1 -0.1,-14.5 -2.1,0 0,10.6 -50.7,0 -0.1,-40.7 46.4,0 1.5,-3.1 -49.9,0 z m 1.2,-1065 0,28.9 c 0,0 11.2,1 16.8,-1.1 l -0.1,-22 m 156,1110.3 -37.8,0 c 1.7,1.5 22.6,21 24.1,22.5 1.3,-0.3 4.6,-2.9 5.1,-3.5 -0.9,-0.3 -3.3,-1.3 -3.3,-1.3 -0.1,-7.1 8.8,-13.4 12.1,-14.4 0.7,-0.1 -0.2,-3.3 -0.2,-3.3 z M 169.6,38.1 c 0.1,1.3 4.4,7.5 5.7,8.6 8.3,6.9 16.9,6.3 16.9,6.3 0,0 0.3,-22.6 -0.2,-23 M 28.1,51.7 C 32.2,51.3 45.7,43.5 47.7,36.8 L 28.2,30.4 28.1,51.7 Z m 129.8,1071.5 -18.9,0 c 0,2.5 0,13.6 0,13.6 l 19,0 0,-13.6 z m 19,0 -16.9,0 c 0,2.5 0,13.7 0,13.7 l 17,0 0,-13.7 z m 41.9,-777.3 0,-52.9 -3.6,0 -0.1,52.9 3.7,0 z m 0.1,41.8 -3.6,0.1 c 0,0 -0.3,35.6 -0.2,52.5 0,0.2 0.3,0.5 0.4,0.6 l 3.5,0 -0.1,-53.2 z m -0.1,-245.8 0,-52.6 -3.6,0 -0.1,52.7 3.7,0 z m -212,759.2 -2.6,0 0,67.8 2.7,0 0,-67.8 z m -2.6,-122.2 2.7,0 0,-67.8 -2.7,0 0,67.8 z m 0,-189 2.7,0 0,-67.8 -2.7,0 0,67.8 z m 212,478 2.7,0 0,-67.8 -2.7,0 0,67.8 z m -212,0 2.7,0 0,-67.8 -2.7,0 0,67.8 z m 212,-99 2.7,0 0,-67.8 -2.7,0 0,67.8 z M 6.8,807.1 l -2.6,0 0,66.8 2.7,0 0,-66.8 z m 0,-190 -2.6,0 0,66.8 2.7,0 0,-66.8 z m 209.4,66.8 2.7,0 0,-66.8 -2.7,0 0,66.8 z m -212,-431 2.7,0 0,-66.8 -2.7,0 0,66.8 z m 212,621 2.7,0 0,-66.8 -2.7,0 0,66.8 z m 2.6,-689.8 -2.7,0 0,66.8 2.7,0 0,-66.8 z m 0,594.8 0,-65.9 -2.7,0.1 0.1,65.8 2.6,0 z m -2.6,-191 2.7,0 0,-64.6 -2.3,0 M 6.9,347.6 C 7.4,344.4 7.1,332.5 7,331 6.9,324.5 7,318 7,311.6 L 7,295 c -1.2,0.1 -2.1,0.1 -2.8,0.2 0,18.1 0,34.8 0,52.5 0,0.1 1.6,0.4 2.7,-0.1 m -0.1,41.5 -2.6,0 0,53.8 2.7,0 0,-53.8 z M 7,143.8 C 7,125 7,91.5 7,91.5 l -3,0 0.2,52.3 m 39.8,952.9 -16.7,3.4 0,2.3 10,3.2 -10.2,3 0,2.2 16.5,3.2 0,-2.6 -9.7,-1.8 9.8,-2.5 0.1,-3 -10.1,-2.7 c 0,0 6.9,-1.1 10.2,-1.7 l 0,-3 z M 151.3,367.5 m 38.5,775.9 c 0,0 -3.3,0.6 -3.5,1.3 -1.6,5.9 -4.4,11.4 -6.2,14 l 9.6,3.6 0.1,-18.9 z m -186.6,31.5 2.7,0 0,-33.8 -2.7,0 0,33.8 z m 215.6,-35.8 -2.7,0 0,33.8 2.7,0 0,-33.8 z M 4.2,57.9 l 2.7,0 0,-33.8 -2.7,0 0,33.8 z m 212,-2 2.7,0 0,-32.8 -2.7,0 0,32.8 z M 126.3,15.1 C 122.3,15 114.9,15 110.9,15 l -15.8,0 0,2.8 31.2,0 0,-2.7 z m 28.8,57.7 c -2.3,-5.8 -7.6,-8.3 -11.9,-9.6 l 0,9.6 11.9,0 z M 42.4,1117.4 c -3.3,-2.7 -7.4,-2.7 -10.8,-1.5 -1.6,0.6 -3.8,2.6 -4.2,5.2 -0.8,5.9 6.9,6.1 6.9,6.1 l 0,-2.3 c 0,0 -3.5,-0.1 -4.2,-2.3 -0.7,-2.4 0.9,-3.9 2.3,-4.6 1.5,-0.8 5.4,-0.8 7,0 1.5,0.8 3,3 2.2,4.7 -0.9,2 -3.2,2.3 -3.2,2.3 l 0,2.1 c 0,0 4.5,0 5.6,-4.2 0.3,-1.3 -0.2,-4.3 -1.6,-5.5 z m -36.6,-14.3 -2.6,0 0,19.4 2.7,0 0,-19.4 z m 56.4,16.8 1.7,0 0,-28.8 -1.7,0 0,28.8 z m 60.5,58.1 0,-2 -28.1,0.1 -0.1,1.9 28.2,0 z m 50.8,-21.9 3.2,1.3 c 3.1,-2.3 5.9,-11.4 5.9,-11.4 -3.1,1 -9.3,6.7 -9.1,10.1 z m 19.6,-16 -7.1,0 c 0.3,0.8 0.4,2.2 0.4,2.2 1.1,-0.7 6.7,-2.2 6.7,-2.2 z"
         class="st0"
         inkscape:connector-curvature="0" />
    </g>
  </g>
  <style
     id="style4165"
     type="text/css">
	.st0{clip-path:url(#SVGID_2_);}
</style>
</svg>
