<?xml version="1.0" encoding="utf-8"?>
<!-- Generator: Adobe Illustrator 19.1.0, SVG Export Plug-In . SVG Version: 6.00 Build 0)  -->
<svg version="1.1" id="Layer_1" xmlns="http://www.w3.org/2000/svg" xmlns:xlink="http://www.w3.org/1999/xlink" x="0px" y="0px"
	 viewBox="0 0 222 1445" style="enable-background:new 0 0 222 1445;" xml:space="preserve">
<style type="text/css">
	.st0{clip-path:url(#SVGID_2_);}
</style>
<g>
	<defs>
		<rect id="SVGID_1_" width="222" height="1445"/>
	</defs>
	<clipPath id="SVGID_2_">
		<use xlink:href="#SVGID_1_"  style="overflow:visible;"/>
	</clipPath>
	<path class="st0" d="M149,1445c-1.2-1.5-3.1-1.3-4.6-2c-1.6-0.7-3.3-1.4-4.8-2.1v-2.4c1-0.7,2.1-1.3,3.1-2c0-6.3,0-18.6,0-18.6
		l-64.6-0.1l0,19.7c0.5,0.2,1.1,0.4,1.8,0.6v2.5c-2.3,1.4-4.5,3.2-7.5,3.4c-0.3,0-0.6,0.6-0.8,1c-2.1,0-4.2,0-6.4,0
		c0-0.2,0-0.5,0-0.5c-3-0.5-5.9-1.3-8.9-1.5c-3.9-0.3-7.8,0.1-11.7-0.1c-4.1-0.2-8.2-0.4-12.3-1.1c-1.6-0.3-4.1-0.8-4.4-3.3
		c0.2-0.2,0.2-0.4,0.4-0.5c0.1-0.1,0.3-0.2,0.4-0.2c15.5,0,31.1,0,47,0v-22.4h70.1c0,6.2,0,12.4,0,18.7c0,1.4-0.3,2.8,2.5,3.7h44.3
		c1.5,1.3-0.2,3.5-5.8,4.5c-0.8,0.1-2,0.3-3,0.3c-3,0-6,0.2-9,0c-4.7-0.4-13.4,1.5-18.1,1.5c-0.1,0-0.2,0.5-0.4,0.8
		C153.9,1445,151.5,1445,149,1445"/>
	<path class="st0" d="M76.8,0c1.5,1.2,2.9,2.4,4.3,3.6C81,4.5,81,5.1,81,5.7c-0.7,0.3-1.3,0.5-2,0.7v20.1h5.2c18,0,36,0,54,0l6.3,0
		l0.1-20.3h-3.9c-0.1-0.9-0.2-1.7-0.3-2.8c0.9-0.6,1.8-1.3,2.8-2.1c0.9-1.1,2.9,0.7,3.7-1.5h17c0,1.4,1.1,1,1.9,1
		c4.9,0,9.9,0.2,14.8,0c4.8-0.2,9.2,1.3,13.5,3.1c0.3,0.1,0.5,0.8,0.6,1.1c-0.1,0.3-0.2,0.4-0.3,0.6c-0.1,0.1-0.3,0.3-0.4,0.3
		c-15.5,0-31.1,0-47,0v22.3H77c-0.5-7.2,0-14.6-0.3-22.3H28.5c0.8-1.3,1.1-2.4,1.8-2.7C33,2.2,35.7,1,38.8,1c6.4,0.1,12.7,0,19.1,0
		c0.8,0,1.9,0.4,1.9-1H76.8z"/>
	<path class="st0" d="M71.6,10.2v22.4h79.3V10.4c1.5-0.1,2.9-0.2,4.2-0.2c16.3,0,32.5,0,48.8,0c8.7,0,13.7,4.5,16.1,11.5
		c1.4,4,2.2,8.1,2.2,12.4c-0.1,459.2-0.1,918.4,0,1377.5c0,4.5-1.3,8.6-2.6,12.8c-0.3,0.9-3.4,5.1-4.5,6.4c-3,3.8-7.6,4.8-12.2,4.9
		c-13.1,0.3-26.2,0.1-39.3,0.1h-12.5v-24.4H71.7v24.2c-1.5,0.1-2.9,0.2-4.2,0.2c-16.1,0-32.2,0-48.3,0c-5.8,0-10.3-2.6-13.4-6.8
		c-3.6-4.9-5.5-10.4-5.5-16.7c0.1-460.2,0.1-920.4,0-1380.6c0-5.4,1.9-10.1,4.4-14.6c1.7-3.2,5.2-4.5,8.5-5.8c1.5-0.6,3.2-1,4.9-1
		C35.7,10.2,53.4,10.2,71.6,10.2 M91,147.9l43.9-0.1v-24.3c-0.6,0-19.3,10.7-28.5,15.8c-1.9,1.1-16.7,8.8-16.7,8.8l-3.8,0
		c0,0,35.4-19.3,38.7-21.1c4-2.2,8-4.4,12.6-6.9c0,2.7,0,5,0,7.3c0,2.2,0,4.4,0,6.6c0,2.4-0.1,13.8-0.1,13.8l2.2,0l0-65.3h79.4v-8.2
		c0,0-39,0.1-38.9,0c12.3-12.1,25.6-25.1,37.9-37.2v-4.3l-63.7,0l0,2.8l-85.9-0.1c0,0,0-1.9-0.1-2.7H3.7v2.5
		c12.5,12,41.1,39.4,41.1,39.4l-41-0.1v6.2h63.3c0,0-0.9,56-0.9,67.3h8.3c3.2,0,5.9,0.1,9.5,0.1 M212.5,1286.6V492.4
		c-18-0.8-198-0.4-202.4,0.3v793.9H212.5z M132,480.8h80.5V151.3H10.1v329.8h79.5v9H132V480.8z M212.6,1395.8h-18l0.2-19.7
		c0,0-11.9-13-18-18.9h35.8v-10.1l-74.4-0.1l0-57.1H85.2v57.2H10.2v9.3l34.2-0.2c0,0-14.6,14.5-20.9,20.6v19.4H9v12.9h58.9
		c-1.4-0.6-2-0.9-2.6-1.2v-14.8l91.9,0.1l0.1,14.9c-0.8,0.2-1.3,0.3-1.9,0.5c0,0.2,0.1,0.3,0.1,0.5h57.1V1395.8z M66.4,1394v13
		c18,0.7,85.4,0.4,89.9-0.3V1394H66.4z M8.9,1426.1c3.5,4.3,8,5.7,13.2,5.7c13.3-0.1,26.5,0,39.8,0h5.2v-20.2H8.9V1426.1z
		 M155.5,1431.7c13.5,0,26.6,0,39.7,0c4.6,0,9.5,0.9,13.5-1.1c2.3-1.1,2.8-2.4,3.8-3.3v-15.9h-57V1431.7z M190.3,1304.2h-48.7
		c0,7.9-0.1,15.6,0.1,23.2h48.7V1304.2z M4.6,31.5h63.5V14.3c-16.3,0-32.4,0-48.4-0.1c-2.3,0-4.6,0.5-6.2,1.5
		C7.4,19.2,4.6,24.6,4.6,31.5 M155.5,31.5h62.4c0.2-2.7-0.2-4.7-1-6.8c-2-5.1-5.9-10.5-13.4-10.5c-14.5,0.1-28.9,0-43.4,0h-4.6V31.5
		z M212.5,1310.1V1289h-70.8v11.9h55.9c3.1,3,6.4,6.1,9.6,9.3H212.5z M154.5,1302.2c0,0.3,0,0.6,0,0.9h37.2v8.4h9.2v20.3h-8.5v11
		h-29.6c0-3.8,0-14.1,0-14.1l-21,0.2v14.9h70.8v-32.4h-6.7c-3.3-3.2-6.4-6.2-9.4-9H154.5z M9,95.8h56.2c0-2.4-0.2-12.9-0.2-12.9H9
		V95.8z M39.5,72.4c-12-11.6-23.9-23-35.8-34.4v34.4H39.5z M218.9,72.3V39.1c-11.5,11.1-23,22.1-34.5,33.2H218.9z M28,1318.5H10.2
		v25.2h21.9v-1.9H28V1318.5z M189.5,85.9v5.2h7.4v20.2c2.8,0,5.4,0,8.1,0c2.6-0.1,5.2,0.3,7.5-0.2V85.9H189.5z M36.6,148h8.1V98.1
		h-8.1V148z M212.5,1390c0,0,0.1-31-0.2-31.4l-16.4,0v15.6C201.2,1379.2,206.2,1384.3,212.5,1390 M187.1,139H148
		c-2,1.9-3.5,3.3-5.2,5v3.9h44.3V139z M17.5,98.1v50c2.5-0.2,4.9,0.2,7.1-0.3V98.1H17.5z M34.2,98.3h-7.1V148h7.1V98.3z M47.2,147.8
		h7.1V98.1h-7.1V147.8z M63.5,148.1l0-49.9h-6.8l0.4,49.9H63.5z M191.3,1328.7l-27.4,0l-0.1,13.1l27.5,0V1328.7z M142.8,85.9v30.6
		c1.5-0.1,2.8-0.2,4.3-0.3V90.9c13.4,0,26.6,0,39.9,0c0.5,0,0.9-0.3,1.1-0.3v-4.7H142.8z M10.1,1299.1v18.3c3.2,0,6.1,0,9.1,0
		c2.9,0,5.9,0.1,8.6-0.1v-18.2H10.1z M196.8,139.1h-8.6c0.2,3.1-0.2,6.1,0.2,8.9h24v-15h-15.6V139.1z M212.6,484.2h-77.4
		c0.1,1.4,0.2,2.7,0.2,3.7h77.2V484.2z M86.2,484.3H10.1v3.8h76.1V484.3z M196.8,130.5h15.8c-0.1-6.2,0.1-12.2-0.1-18h-15.7V130.5z
		 M10.1,1386.5c4.1-3.9,8.2-7.9,12.4-11.9v-16.4c-2.3,0-4.4,0-6.5,0c-2,0-4.1,0.1-5.9,0.1V1386.5z M218.9,623H216v83.6h2.8V623z
		 M15.1,147V98c-1.8,0.1-3.5,0.2-5,0.2V147H15.1z M218.9,286H216v81.5h2.8V286z M6.6,286H3.7v81.5h2.8V286z M218.5,480
		c0.8-4.8,0.8-80.9,0.2-81.5H216c-0.6,16.2-0.3,80.8,0.4,81.5H218.5z M6.6,479.9v-81.6c-1.1,0.1-2.1,0.2-2.9,0.2v81.4H6.6z
		 M6.4,594.2c0.1-0.4,0.3-0.7,0.3-1c0-26.2,0-52.4,0-78.6c0-1.9,0-1.9-3-1.8v81.4H6.4z M6.6,623H3.7v81.5h2.8V623z M3.7,817.9h2.8
		v-81.5H3.7V817.9z M3.7,931.2h2.8v-81.5H3.7V931.2z M216,512.7v81.6c1.1-0.1,2.1-0.2,2.9-0.2v-81.4H216z M3.6,1045.5h2.9
		c0.6-16.2,0.3-80.8-0.2-81.3H3.6V1045.5z M3.7,1159h2.8v-81.5H3.7V1159z M218.8,849.7H216v81.5h2.8V849.7z M216,817.9h2.8v-81.5
		H216V817.9z M6.6,171.7H3.7v80.5h2.8V171.7z M6.6,1195.9H3.7v80.5h2.8V1195.9z M218.9,964.1H216v80.5h2.8V964.1z M218.9,1078.5H216
		v80.5h2.8V1078.5z M218.9,1195.9H216v80.5h2.8V1195.9z M218.8,171.7H216v80.5h2.8V171.7z M83,1343.8v-27.4h-4.1v25.4
		c-15.2,0-45.4,0-45.4,0l0,2H83z M195.9,1377.6v17.2c5.6,0,11,0,16.4,0c0.1,0,0.2-0.2,0.3-0.3C212.6,1394.4,201,1382.5,195.9,1377.6
		z M22.5,1377.9c-4.4,4.3-8.9,8.5-13.4,12.9v4.2l13.4,0L22.5,1377.9z M61.9,1300.6c0,0-10.6,1.8-15.7,2.7v3.3
		c3.6,0.9,7.1,1.8,11.3,3c-4.5,1.2-8,2.1-11.4,3v3.2c2.8,0.5,15.6,3.1,15.6,3.1v-3.4l-10.3-1.3c0,0,6.7-2.3,10.4-3.2v-2.6
		c-3.5-0.9-7-1.8-10.6-2.6c0-0.3,10.5-1.9,10.5-1.9L61.9,1300.6 M164.1,109.8l0.1,3.3c0,0,10.3,2.7,15.5,4.1v-2.7
		c-3.5-0.9-11-2.8-11-2.8l10.6-2.7l0-3.4c0,0-6.8-1.8-11.1-2.9c4.5-1.2,8.1-2.1,11.4-2.9v-2.9c-5.4,1.5-10.6,3-15.7,4.4v2.7
		c1.6,0.4,9.9,3.4,9.9,3.4L164.1,109.8z M3.7,138.8h2.8V93H3.7V138.8z M219.9,93h-2.8v45.8h2.8V93z M33.2,1290h-23v6.8h17.7
		c0.1-1.4,0-4.2,0-4.2l5.3,0.1V1290z M34.5,1289.9v2.7h44.2l3.2-2.8L34.5,1289.9z M199.8,1312.4h-7.3c0,5.9,0,18.1,0,18.1l7.3,0
		V1312.4z M23.9,1373.5c0,0,15.4-14.4,15.3-15l-15.3-0.1V1373.5z M194.6,1358.6l-14.1,0c0,0,14,14.5,14,14.2
		c0-4.1,0.1-10.3,0.1-14.8 M45,1330.6c0.6,2.1,1.1,2.6,2,3.8c0.8,1,4.8,2,4.8,2l0.1-3.1c0,0-4.1-0.5-4.2-4.4c0-1.1,1.1-2.8,2.4-3.8
		c1.9-1.4,5.6-1.9,8.1,1c0.9,1,1.2,3.6,1,4.3c-0.4,1.4-0.4,1-2.3,2.8l-0.2,2.8c0,0,4.9,0.1,5.3-7.1c0.2-2.6-2.4-6.2-6-7.2
		c-1.6-0.4-4.9-0.3-6.4,0.4c-2.1,1-3.8,2.8-4.6,4.8C44.6,1327.7,44.7,1329.7,45,1330.6z M170.2,130.2c-1.7-0.7-2.1-0.5-3-1.3
		c-0.6-0.6-1-3.3-0.7-4.1c0.7-1.8,1.6-2.3,3-2.9c1-0.5,3.3-0.6,4.3-0.3c1.5,0.4,2.7,1.2,3.5,2.3c0.6,0.9,0.5,3.2,0.1,4.2
		c-0.3,0.8-2.3,2.1-2.3,2.1v2.5c0,0,4.6-0.4,5.3-4.7c0.3-2.1,0-2.8-0.8-5.1c-0.5-1.4-1.9-3-3.5-3.4c-2.2-0.6-3.2-1.4-6.5-0.5
		c-3,0.8-4.1,2.4-5.2,4.1c-0.8,1.2-0.7,4-0.1,5.4c0.8,1.9,1.7,3.1,3.2,3.7c0.9,0.4,2.8,0.4,2.8,0.4V130.2z M79,1314.1h3.9v-23
		l-3.8,3.9L79,1314.1z M142.6,118.6c0,7.2,0,14,0,20.8c0,0.2,0,1.8,0,1.8s3.2-2.8,4-3.5v-19H142.6z"/>
	<path class="st0" d="M157.4,36.9v15H64.2c0,0-0.1-4.8-0.2-7.2c-0.1-2.5,0-5.1,0-7.7H157.4z M66.3,50.9h89V39h-89V50.9z"/>
</g>
</svg>
