<?xml version="1.0" encoding="UTF-8" standalone="no"?>
<!-- Created with Inkscape (http://www.inkscape.org/) -->

<svg
   xmlns:dc="http://purl.org/dc/elements/1.1/"
   xmlns:cc="http://creativecommons.org/ns#"
   xmlns:rdf="http://www.w3.org/1999/02/22-rdf-syntax-ns#"
   xmlns:svg="http://www.w3.org/2000/svg"
   xmlns="http://www.w3.org/2000/svg"
   xmlns:xlink="http://www.w3.org/1999/xlink"
   xmlns:sodipodi="http://sodipodi.sourceforge.net/DTD/sodipodi-0.dtd"
   xmlns:inkscape="http://www.inkscape.org/namespaces/inkscape"
   width="210mm"
   height="297mm"
   viewBox="0 0 744.09448819 1052.3622047"
   id="svg2"
   version="1.1"
   inkscape:version="0.91 r13725"
   sodipodi:docname="carriage_h_1.svg">
  <defs
     id="defs4" />
  <sodipodi:namedview
     id="base"
     pagecolor="#ffffff"
     bordercolor="#666666"
     borderopacity="1.0"
     inkscape:pageopacity="0.0"
     inkscape:pageshadow="2"
     inkscape:zoom="0.35"
     inkscape:cx="375"
     inkscape:cy="520"
     inkscape:document-units="px"
     inkscape:current-layer="layer1"
     showgrid="false"
     inkscape:window-width="1440"
     inkscape:window-height="852"
     inkscape:window-x="-2"
     inkscape:window-y="0"
     inkscape:window-maximized="0" />
  <metadata
     id="metadata7">
    <rdf:RDF>
      <cc:Work
         rdf:about="">
        <dc:format>image/svg+xml</dc:format>
        <dc:type
           rdf:resource="http://purl.org/dc/dcmitype/StillImage" />
        <dc:title></dc:title>
      </cc:Work>
    </rdf:RDF>
  </metadata>
  <g
     inkscape:label="Layer 1"
     inkscape:groupmode="layer"
     id="layer1">
    <g
       id="g3578"
       transform="matrix(0,-1,1,0,-284.69077,226.74791)">
      <g
         transform="translate(-139.02143,-705.81399)"
         id="g3537">
        <g
           id="g3458">
          <defs
             id="defs3460">
            <rect
               id="SVGID_1_"
               x="-0.5"
               y="0.60000002"
               width="222"
               height="1920" />
          </defs>
          <clipPath
             id="SVGID_2_">
            <use
               height="100%"
               width="100%"
               y="0"
               x="0"
               xlink:href="#SVGID_1_"
               style="overflow:visible"
               id="use3464" />
          </clipPath>
          <g
             class="st0"
             id="g3466"
             clip-path="url(#SVGID_2_)">
            <defs
               id="defs3468">
              <polygon
                 id="SVGID_3_"
                 points="-0.2,1.1 -0.2,1921.4 221.1,1918.7 221.1,-1.6 " />
            </defs>
            <clipPath
               id="SVGID_4_">
              <use
                 height="100%"
                 width="100%"
                 y="0"
                 x="0"
                 xlink:href="#SVGID_3_"
                 style="overflow:visible"
                 id="use3472" />
            </clipPath>
            <g
               class="st1"
               id="g3474"
               clip-path="url(#SVGID_4_)">
              <defs
                 id="defs3476">
                <rect
                   id="SVGID_5_"
                   x="-0.2"
                   y="1.1"
                   width="222"
                   height="1920.3" />
              </defs>
              <clipPath
                 id="SVGID_6_">
                <use
                   height="100%"
                   width="100%"
                   y="0"
                   x="0"
                   xlink:href="#SVGID_5_"
                   style="overflow:visible"
                   id="use3480" />
              </clipPath>
              <path
                 inkscape:connector-curvature="0"
                 class="st2"
                 d="m 221,1342.8 0,2.8 c -0.1,0.2 -0.4,0.5 -0.4,0.7 -0.1,0.6 0,1.2 0,1.8 0,13.2 0,26.5 0,39.7 0,0.8 0,1.5 0,2.2 0.2,0.2 0.4,0.2 0.5,0.3 l 0,467.1 c -0.7,0.1 -1.4,0.2 -2.1,0.3 -0.3,-0.1 -0.6,-0.3 -1.1,-0.5 -0.2,-0.5 -0.5,-1.1 -0.5,-1.1 l -24.9,0 c 0,0 -0.1,53.7 -0.1,61.6 0,0.5 0,0.9 0,1.3 -0.4,0.4 -0.6,0.6 -1,0.9 l 0,1.7 -159.5,0 c 0,-0.9 -1,-1.1 -1.3,-1.9 0,0 -0.2,-63.8 -0.3,-64.2 l -25.5,0 c -0.5,0.6 -1,1.2 -1.5,1.8 -0.4,0.2 -0.9,0.3 -1.3,0.5 -0.4,-0.3 -0.9,-0.5 -1.4,-0.8 0,-1.4 0,-2.8 0,-4.2 0,-502.1 0,-1004.2 0,-1506.2 0,-1.1 0,-2.2 0,-3.2 0,-0.4 -0.2,-0.7 -0.3,-1.1 l -1.3,0 c 0,-21.1 0,-42.2 0,-63.4 0.4,-0.1 0.9,-0.3 1.3,-0.4 0.1,-0.4 0.1,-0.7 0.2,-1 0,-1.2 0,-2.5 0,-3.7 0,-18.4 0.9,-85 0.9,-91.2 0,-6.2 0.3,-12.5 0.5,-18.7 0,-0.6 0.2,-43.4 2.3,-66.2 C 4.2,97.2 9.8,33.9 12.5,26 15.3,17.6 22.2,12.9 26.8,10.1 38,3.5 85.6,1.6 92,1.6 c 10.8,0 28.4,-0.3 37.9,0 30.6,1.1 55.5,1.4 69.4,11.5 1.6,1.2 7.9,7.6 10.1,15.6 2.4,8.8 7,60 7,61.4 0.1,1.9 2.7,49.3 2.7,49.6 0.1,2.5 1.2,23.6 1.2,23.8 0.4,11.9 0.5,34.1 0.7,34.2 0,375.4 0,750.8 0,1126.2 -0.1,0.1 -0.2,0.2 -0.5,0.3 l 0,2.2 c 0,2.8 0,5.7 0,8.5 0,2.1 0,4.3 0,6.4 0.1,0.6 0.1,1.1 0.5,1.5 m -61.9,422.9 c 0.4,-0.3 0.9,-1.7 0.8,-2 -1.3,0 -3.9,-0.1 -3.9,-0.1 0,1 0.4,1.6 1,2.1 0.3,0.3 1.2,0.6 2.1,0 0.3,-0.2 0.1,0.5 0.3,1 0.8,0 1.6,0.1 2.3,0.1 2.7,0 5.4,0 8.1,0 0.8,0 2.6,0 2.6,0 l 0,-3 -4,0 -6.6,0 c -0.4,1.4 -1.7,3.1 -2.4,3 m 27.1,110.4 c 0,0 -0.8,0.2 -1.5,0.4 -1.2,0.2 -2.3,0.1 -3.5,0.1 -47.7,0 -95.4,0 -143.1,0 -0.8,0 -4.7,-0.9 -4.7,-0.9 l -0.1,3.9 c 0,0 1,-0.6 1.5,-0.8 0.6,-0.2 2.7,-0.3 2.7,-0.3 36.7,0 73.4,0 110,0 11.6,0 23.1,0 34.7,0.1 1.1,0 3.2,0.2 4,0.4 0.6,0.2 1.9,0.9 1.9,0.9 l -0.1,-4.4 c 0,0 -1.6,0.7 -2.4,0.6 0,0 -0.5,-0.6 -0.4,-0.9 0.8,-0.1 2.8,-0.9 2.8,-0.9 l 0,-3.7 c 0,0 -2.1,-1.3 -3.4,-1.4 -1.1,-0.1 -10.7,0.2 -14.6,0.2 -44.4,0 -88.8,0 -133.2,0 -0.7,0 -0.7,-0.1 -1.4,0 -1.8,0.2 -2,0.9 -2,0.9 l 0,4.1 c 0,0 1.3,0.7 3.3,1 l 3,0 c 45.6,0 91.1,0 136.7,0 2.5,0 5.1,0 7.6,0 0.4,0 0.7,-0.1 1.1,-0.2 M 9.7,790.1 l 0,3.1 c 0,60 0,119.9 0,179.9 0,0.8 0,3.7 0,3.7 l 55.2,-0.1 0,4.8 c 0,13.8 0,45.2 0,45.2 L 9.6,1027 c 0,0 0.1,211.5 0.2,315.9 0,0.1 0,0.2 0,0.2 0,0.1 0.1,0.1 0.1,0.2 0.2,0.3 0.5,0.6 0.7,0.9 l 0,3.5 c 0,87.9 0,175.9 0,263.8 0,0.9 0,1.8 0,2.8 0,0.4 0.1,0.7 0.2,1.2 3.2,0.2 56.9,0.1 58.3,0.1 1.2,0 2.4,-0.2 3.6,0.2 0.1,0.3 0.2,0.5 0.2,0.7 0,20.7 0,41.5 0,62.2 0,0.2 -0.1,0.4 -0.2,0.7 -1.2,0.5 -2.6,-0.1 -3.9,0.5 -0.1,0.5 -0.2,1 -0.2,1.6 0,0.9 0,1.8 0,2.8 0,33.7 0,67.4 0,101.1 0,0.8 0.1,1.7 0,2.5 -0.2,1.2 -0.5,2.4 -0.7,3.6 -0.6,0.3 -1.2,0.6 -1.8,0.9 -1,0 -2.1,0 -3.1,0 -16,0 -32.1,0 -48.1,0 -0.8,0 -1.5,0 -2.3,0 -0.9,0 -1.7,0.1 -2.4,0.5 -0.6,0.7 -1.2,1.3 -1.8,1.9 -0.8,0 -1.5,-0.1 -2,-0.1 -0.6,-0.3 -0.7,-1 -1.4,-0.7 -0.4,0.8 -0.2,1.7 -0.2,2.6 0,15.4 0,30.8 0,46.2 0,0.7 0,1.4 0.1,2.1 0,0.2 0.2,0.5 0.5,0.8 0.8,-1.1 1.9,-1.4 3,-2 56,0 112.1,0 168.1,0 0.2,0 0.5,0 0.7,-0.1 0.1,0 0.2,0 0.2,-0.1 0.1,0 0.1,-0.1 0.2,-0.1 0.1,-0.1 0.2,-0.3 0.2,-0.4 0,-16 0.1,-31.9 0.1,-47.9 0,-0.8 0,-1.5 -0.1,-2.3 -0.5,-0.2 -0.9,-0.4 -1.4,-0.5 -0.8,-0.1 -1.7,-0.1 -2.5,-0.1 -15.6,0 -31.1,0 -46.7,0 -0.8,0 -1.5,0 -2.3,0 -1.2,0 -2.3,-0.3 -3.2,-1.2 -0.4,-0.9 -0.3,-2 -0.3,-2.9 0,-19.5 0,-68 0,-70.9 0,-15 0,-29.9 0,-44.9 0,-0.8 0.2,-1.7 -0.3,-2.5 -0.9,-0.1 -1.8,-0.2 -2.7,-0.3 -0.3,-0.4 -0.6,-0.7 -1,-1.1 l 0,-2.3 c 0,-12.1 0,-24.2 0,-36.3 0,-0.7 0,-1.4 0,-2.1 0,-0.2 0.1,-0.4 0.2,-0.7 0.5,-0.3 1,-0.7 1.5,-1 1,0 2,-0.1 3,-0.1 7.6,0 15.1,0 22.7,0 0.8,0 1.5,0 2.3,0 0.4,0 0.9,-0.2 1.2,-0.3 0.5,-0.8 0.4,-1.6 0.4,-2.4 0,-2 0,-4 0,-6 0,-0.4 -0.1,-0.9 0.5,-1.4 0.7,-0.3 1.5,-0.1 2.3,-0.2 3.7,0 57.1,0 59.1,0 0.4,0 0.7,-0.2 1.1,-0.2 0.2,-1.2 0.1,-2.4 0.1,-3.5 0,-88.3 0,-176.5 0,-264.8 0,-1.1 0,-2.2 0,-3.2 0,-0.2 0.1,-0.5 0.1,-0.7 0.3,-0.4 0.6,-0.7 0.9,-1.1 l 0,-3 c 0,-102.9 0,-205.8 0,-308.7 0,-0.8 0,-1.5 0,-2.3 0,-0.4 -0.1,-0.7 -0.2,-1.1 -1.1,-0.4 -2.1,-0.2 -3.1,-0.2 -29.8,0 -92.9,0 -92.9,0 l -0.4,-49.9 96.5,-0.1 c 0,0 0,-124.7 0,-186.5 -0.3,-0.4 -0.6,-0.7 -0.9,-1 -0.2,-3.2 -0.1,-24.2 0.1,-25.9 0.3,-0.4 0.6,-0.7 0.8,-1 l 0,-313 c -0.3,-0.4 -1.1,-2.6 -1.2,-3.5 -4.3,0 -84.6,0 -88.7,0 -0.5,-0.6 -0.9,-1 -1.4,-1.6 l 0,-2.2 c 0,-21.3 0,-42.5 0,-63.8 0,-0.6 0,-1.2 0,-1.8 0,-0.6 0.3,-1 1,-1.4 0.7,-0.2 26.1,-0.1 26.1,-0.1 l 0,-1.2 -4,0 c -6.6,0 -13.3,0 -19.9,0 -1,0 -3.9,0 -3.9,0 l -0.1,-20.8 -5.5,0.1 c 0,0 -2.9,4.9 -3.9,6.6 -2.5,4.3 -5.7,7.9 -7.5,9.2 -2.7,1.9 -3.9,3.3 -9.9,5.1 -4.6,1.4 -17.8,1 -17.8,1 0,0 0,-3.2 0,-4.1 0,-5.2 0,-10.5 0,-15.7 0,-0.7 0.2,-1.4 -0.4,-2.1 -0.7,0 -1.5,-0.3 -2.3,0.2 -0.3,0.9 -0.2,1.7 -0.2,2.6 0,9.9 0,19.7 0,29.6 0,0.7 0,1.4 0,2.1 0,0.4 -0.2,0.9 -0.4,1.2 -1.6,0.4 -3.2,-0.1 -4.6,0.4 -0.5,1.2 -0.4,2.4 -0.4,3.5 0,15.6 0,31.3 0,46.9 0,0.8 0,1.7 0,2.5 -0.1,1 -0.3,2 -1.1,2.8 l -2.7,0 c -16.6,0 -33.1,0 -49.7,0 -0.7,0 -1.4,0 -2.1,0 -0.4,0 -0.7,0.1 -1.1,0.2 -0.3,1.3 -0.2,2.6 -0.2,3.8 0,112.2 0,224.3 0,336.5 0,0.9 0,1.9 0,2.8 0,0.5 -0.1,0.9 -0.1,1.3 -0.5,0 -0.7,0.2 -1,0.6 M 202.5,123.2 c 2,20.4 1.8,38.6 1.8,38.6 0,0 3.4,-0.1 4.7,-0.3 0.8,-0.7 1.4,-1.5 2.1,-1.8 1.6,-0.6 2.7,0.5 4.2,0.8 0.2,0 -1.5,-39.9 -1.5,-40.8 -0.1,-4.4 -2.3,-41.8 -3.7,-52.1 C 208.6,55.7 207.3,44.7 205.9,34.5 204.2,22.4 197.9,19 195.8,17.1 187.2,9.4 158.6,8.1 144.9,7.2 116.4,5.1 81.1,6.6 89.1,6.5 95.3,6.4 38.9,8.7 29.3,14.4 21.6,19 16.9,25.3 15.5,35.2 c -0.2,1.2 -2.8,27.1 -4.2,38.7 -1.1,9.1 -3.2,37.6 -3.7,53 -0.1,2 -0.7,34.6 -0.6,34.6 0.9,-0.6 2,-1.7 3.2,-1.5 1,0.2 1.7,1.1 2.5,1.7 2.9,0.3 6.6,0 6.6,0 0,0 0.8,-29.7 1.6,-39.8 0.8,-11.5 0.8,-15.5 4.3,-32.6 1.9,-9.2 4.4,-14.1 4.8,-14.6 l 23.1,0 c 5.7,-4.7 7,-5.5 11.7,-8.7 l 96.8,0 c 2.9,1.4 12.6,8.1 13.1,8.7 1,0 20.1,-0.1 20.1,-0.1 0,0 4.7,19 7.7,48.6 z m -29.8,37.2 -11.6,-11.1 -38.4,0 -8.2,8 -21.9,0 -6.9,-7.6 -41.6,0.3 -15.4,15.6 -2.9,0.1 -0.5,58.9 c 0,0 2.6,0.1 3.5,0.1 13.7,0 45,0.1 45,0.1 l 0.1,3.9 8.7,0.1 42.3,0 c 7.4,0 14.8,0 22.2,0 0.6,0 3.4,0 3.4,0 l 0,-3.9 47.1,0 c 0,0 0.1,-39.1 0.1,-56.9 0,-0.6 0,-2.7 -0.1,-2.9 -0.2,-0.2 -20.6,0 -20.6,0 l -1.7,-1.6 -2.6,0 0,-3.1 z M 46,272.9 c -4.4,3.3 -17.6,6 -24.1,7 -1.7,0.2 -8.7,0.8 -10.1,0.8 -0.4,0 -0.5,1 -0.3,1 0.8,0.1 34.1,0.1 49.9,0.1 0.8,0 1.7,0 2.5,0 0.2,0 0.4,0.1 0.7,0.2 0.4,0.4 0.7,0.8 1.1,1.3 0,0.9 0.1,1.8 0.1,2.7 0,11.9 0,23.7 0,35.6 0,0.7 0,1.4 0,2.1 0,0.3 0.1,0.6 0.2,0.9 2.2,0.5 4.5,-0.1 6.7,0.4 0.4,1.6 -0.1,3.1 0.4,4.6 0.8,0.5 9,0.6 9.8,0.6 10.4,0 37.4,-0.2 37.4,-0.2 l 0.2,-45.9 90.1,-0.1 -0.1,-3.2 c 0,0 -1.2,-0.1 -1.9,-0.1 -2.3,0 -13.9,-1.9 -19.1,-2.6 -5.5,-0.8 -13.8,-5.3 -15.4,-6.5 -3,-2.3 -7.7,-7.5 -9,-10 -0.8,-1.6 -2.1,-3.1 -6.6,-16.6 l -0.1,5.4 -39.5,0.1 c 0,0 0.2,-10 -0.1,-9.9 -0.1,0.5 -2.6,9.1 -4.2,12.2 -2,3.8 -3.8,7.6 -6.6,10.8 -1.6,1.8 -9.5,7.2 -14.4,8.9 -6.4,2.3 -18.1,1.7 -18.1,1.7 0,0 0,-2.5 0,-3.2 0,-3.8 0,-7.6 0,-11.3 0,-7.4 0,-14.8 0,-22.2 0,-0.8 0,-2.7 0,-2.7 l -1.9,0 0,4 -9.2,0 c -1.2,4.3 -3.3,16.2 -6.2,21.1 -3.7,6.9 -8.1,9.9 -12.2,13 z m 75.2,-159.2 39.8,0 c 1.2,0.6 30.4,13.5 30.4,13.5 l -0.2,13 -29.9,-10.5 0.1,16.4 11.2,10.4 0,-5.9 c 0,0 15.3,0 22,0 0.5,0 1.8,0 1.8,0 l 0,11 1.4,0 c 0,0 0.3,-23.2 -1.2,-40.2 -1.5,-17 -3.5,-28 -4,-28.9 0,0 -161.9,0.1 -162.2,0.2 -0.4,1.2 -3.7,21.7 -4,36.4 -0.3,18.3 -0.6,31.9 -0.5,32.3 l 2.3,0 c 4,-4.3 12.5,-12.7 12.5,-12.7 l 0.1,-40.4 46.2,0 0,38.6 c 0,0 5.1,6.2 6.4,7.5 l 20.3,0 c 1.2,-1.2 7.3,-7.2 7.3,-7.2 L 120.8,129.6 97.4,141.4 97.3,127 c 0,0 23.3,-12.9 23.9,-13.3 m 26.9,264.1 c -2.2,-0.3 -13.7,-0.4 -22.1,-0.2 -0.5,0 -1.1,0.1 -1.6,0.1 -0.5,0.9 -0.3,1.9 -0.3,2.8 0,19.7 0,39.4 0,59.2 0,0.5 0,1.1 0,1.6 0,0.4 0.1,0.7 0.2,1.1 1,0.4 1.9,0.2 2.8,0.2 26.7,0 53.5,0 80.2,0 0.5,0 1.1,0 1.6,0 0.4,0 0.9,-0.2 1.4,-0.3 0,-0.9 0,-1.8 0,-2.6 0,-16.1 0,-32.2 0,-48.3 0,-0.5 0,-1.1 0,-1.6 0,-0.4 -0.1,-0.7 -0.2,-1.2 -1,0 -1.9,0 -2.8,0 -18.3,0 -36.7,0 -55,0 -0.8,0 -1.5,0 -2.3,0 -0.4,0 -0.9,-0.2 -1.3,-0.3 -0.6,-1.2 -0.4,-2.4 -0.4,-3.5 0,-1.2 0,-2.3 0,-3.5 0,-1.1 0.2,-2.2 -0.2,-3.5 m -95.3,16.1 c 0.9,-0.3 1.7,-0.3 2.5,-0.3 2.3,0 4.6,0 6.9,0 0.5,0 1,-0.1 1.6,-0.2 0.4,-1.6 0.7,-3.1 0,-4.6 -0.9,-0.4 -1.9,-0.2 -2.8,-0.2 -15.8,0 -31.6,0 -47.4,0 -0.6,0 -1.2,0 -1.8,0 -0.4,0 -0.7,0.2 -1.1,0.3 0,0.9 -0.1,1.6 -0.1,2.4 0,15.9 0,31.7 0,47.6 0,0.4 0,0.8 0,1.2 0,0.4 0.1,0.9 0.2,1.3 1.1,0.4 2.1,0.3 3,0.3 15.6,0 31.3,0 46.9,0 0.6,0 1.2,0 1.8,0 0.4,0 0.9,-0.2 1.3,-0.2 0.5,-2.1 0.5,-2.2 -0.3,-3.7 -1.9,0 -3.8,0 -5.7,0 -1.9,0 -3.8,0.2 -5.8,-0.2 -0.2,-0.5 -0.3,-0.9 -0.5,-1.3 0.2,-0.4 0.3,-0.9 0.4,-1.2 0.8,-0.5 1.6,-0.4 2.4,-0.4 2.8,0 5.5,0 8.3,0 0.4,0 1.2,-0.1 1.2,-0.1 l 0.1,-37.8 c 0,0 -2.7,-0.2 -3.3,-0.2 -2.1,0 -4.2,0 -6.2,0 -0.2,0 -0.5,-0.1 -0.7,-0.1 -0.3,-0.3 -0.6,-0.6 -1,-0.9 l 0,-1.7 z m 11,1285.9 c -0.5,-0.1 -0.8,-0.1 -1.2,-0.1 -16.8,0 -33.6,0 -50.4,0.1 -0.1,0 -0.3,0.1 -0.6,0.3 0,0.8 -0.2,1.7 0.1,2.6 1,0.4 2,0.3 3,0.3 12.5,0 25,0 37.5,0 0.9,0 1.8,0 2.5,0 1.4,0.5 2.3,1.3 2.9,2.4 0.2,5.2 0.2,31.1 -0.1,31.9 -0.4,0.5 -0.8,1 -1.3,1.6 l -15,0 c -0.9,0.8 -2,0.9 -3.2,0.8 -2.5,0 -5.1,0 -7.6,0 -0.5,0 -1.1,-0.1 -1.6,0.6 0,1.9 -0.1,4 -0.1,6 -0.5,0.6 -1,1 -1.5,1.5 l -2.6,0 c -3.8,0 -7.6,0 -11.3,0 -0.5,0 -1,0.1 -1.6,0.2 0,1 0,1.8 0,2.6 0,7.2 0,14.5 0,21.7 0,4.8 0,9.6 0,14.3 0,0.6 -0.2,1.2 0.4,1.8 0.8,0.2 1.7,0.1 2.7,0.1 15.4,0 30.8,0 46.2,0 0.5,0 1.1,0 1.6,0 0.4,0 0.9,-0.1 1.2,-0.2 0.6,-2 0.6,-2.1 -0.2,-3.7 -0.7,0 -1.5,0 -2.2,0 -3.7,0 -7.4,0 -11.1,0 -0.4,0 -0.8,-0.1 -1.1,-0.1 -0.4,-0.5 -0.8,-1 -1.3,-1.6 0,-0.7 0,-1.6 0,-2.4 0,-11.1 0,-22.2 0,-33.3 0,-0.5 0,-1.1 0,-1.6 0.1,-0.5 0.2,-1 0.3,-1.4 0.7,-0.8 1.4,-1 2.2,-1 0.9,-0.1 1.8,-0.1 2.8,-0.1 2.8,0 5.5,0 8.3,0 0.8,0 1.7,0.1 2.4,-0.7 0.4,-1 0.3,-2.1 0.3,-3.1 0,-12 0,-24 0,-36.1 0,-0.6 0,-1.2 0,-1.8 -0.1,-0.6 -0.2,-1.1 -0.4,-1.6 m 92.6,-655.6 -0.1,-45.3 -38,0 0,45.6 m 5.6,-737.1 c 0,0 -0.2,27.5 -0.2,40 0,0.7 0.1,1.4 0.1,1.9 0.7,0.9 1.5,0.8 2.3,0.8 6.7,0 13.4,0 20.1,0 0.5,0 1,-0.1 1.6,-0.2 0.1,-0.3 0.1,-0.6 0.2,-1 -0.7,-0.1 -1.3,-0.1 -1.9,-0.1 -3.4,0 -6.8,0 -10.2,0 -2,0 -4,0 -6,0 -0.6,0 -1.2,0.1 -1.8,-0.5 -0.3,-0.8 -0.2,-1.7 -0.2,-2.6 0,-9 0,-18 0,-27 0,-0.6 0,-1.2 0,-1.8 0,-0.2 0.1,-0.4 0.1,-0.6 0.6,-0.4 1.1,-0.8 1.6,-1.2 4.9,-0.2 23.9,-0.1 25.8,0.1 0.4,0.5 1,1.1 1.5,1.7 l 0,5.6 0,5.5 0,5.5 c 0,1.8 0,3.7 0,5.5 0,1.8 0.2,5.6 0.2,5.6 l 53.7,0.2 -0.4,-37.2 -86.5,-0.2 z m 78.6,-48.7 c 0,0 -39.6,-0.1 -40,0 0,0 -0.2,2.7 0.2,6.3 0.4,2.9 2,8.4 4.7,13.2 2.5,4.4 5.6,7.3 9,10.1 3,2.5 9.4,5.1 15.1,6.4 1.2,0.3 14.5,2.1 17,2.1 0.6,0 1.9,0 1.9,0 l 0,-42 -7.9,0 0,3.9 z M 12.8,277.1 c 0,0 19.4,-0.9 30.7,-7.2 4.9,-2.8 7.4,-6 10.7,-10.3 3.8,-4.9 6.2,-20.9 6.2,-20.9 0,0 -38.3,0.6 -38.8,0.5 -0.1,-1.2 -0.2,-4.6 -0.2,-4.6 l -8.7,0.1 0.1,42.4 z m 146.3,747.3 53.4,0.2 -0.2,-45.9 -53.1,0 c 0,0 0.2,45.5 0.3,45.7 m -103.4,835 c 0.4,0.1 0.7,0.2 1,0.2 35.8,0 71.5,0 107.3,0 0.2,0 0.4,-0.1 0.7,-0.2 0.1,-0.3 0.3,-0.6 0.3,-0.8 0,-3.3 0,-6.6 0,-9.9 0,-0.3 -0.2,-0.5 -0.3,-0.8 -1.1,-0.3 -2.1,-0.2 -3.1,-0.2 -34.2,0 -68.4,0 -102.7,0 -0.7,0 -1.4,0 -2.1,0 -0.4,0 -0.7,0.1 -1.1,0.2 -0.3,1.7 -0.3,9 0,11.5 m 6,-834.8 -0.2,-45.8 -50.3,-0.1 0.1,46.1 m 25.5,862.8 148,0 c 2,-0.5 3,-1.3 3.3,-1.7 l 0,-3.3 c -0.4,-0.4 -0.6,-0.7 -1,-1 -0.7,-0.6 -1.3,-0.7 -2.5,-0.9 l -148.8,0 c -1.4,0.7 -2.1,0.7 -2.5,1.5 0,0.6 0,1.3 0,2.1 0,0.7 0.1,2.3 0.1,2.3 0.4,0.1 2.1,1.3 3.4,1 m 88.1,-117.9 0,18.3 58.2,0 0,-18.3 m -63.2,-139.9 c 0,0.8 -0.1,1.5 -0.1,2.3 0,5.2 0,10.3 0,15.5 0,5.6 0,11.2 0,16.9 0,0.7 -0.2,1.4 0.4,2.1 0.7,0 1.4,0.1 2.2,0.1 3,0 6,0 9,0 4.8,0 9.5,0 14.3,0 0.7,0 1.4,0.2 2.1,-0.4 0.3,-0.8 0.1,-1.6 0.1,-2.4 0,-10.5 0,-20.9 0,-31.4 0,-0.6 0,-1.2 0,-1.8 0,-0.3 -0.2,-0.6 -0.3,-0.8 -0.7,-0.4 -1.4,-0.3 -2.1,-0.3 -7.7,0 -15.4,0 -23.1,0 -0.7,-0.2 -1.5,-0.3 -2.5,0.2 M 79.9,234.7 c 0,0 0,1.9 0,2.8 0,6.4 0,12.8 0,19.2 0,4 0,8 0,12 0,0.6 0,1.9 0,1.9 0,0 12.1,-0.4 17.4,-3.1 7.3,-3.7 11.6,-11.4 13.1,-13.6 2.3,-3.3 3.7,-10.4 4.5,-13.5 0.6,-2.4 1.2,-4.8 0.8,-5.5 -0.2,-0.1 -0.4,-0.2 -0.6,-0.2 -11.6,0 -23.2,0 -35,0 m 68.3,1480.4 c 0,-0.9 0,-1.7 0,-2.6 0,-3.5 0,-6.9 0,-10.4 0,-0.8 -0.1,-1.6 0.5,-2.2 0.8,-0.5 1.6,-0.3 2.5,-0.3 2.5,0 4.9,0 7.4,0 0.8,0 2.4,0 2.4,0 2.9,-4.4 2.8,-12.8 2.8,-12.8 0,0 -1.7,-0.2 -2.5,-0.2 -6.5,0 -13.1,0 -19.6,0 -4.7,0 -9.4,0 -14.1,0 -0.8,0 -1.5,-0.2 -2.4,0.3 0,0.5 -0.1,1.1 -0.1,1.7 -0.2,15.2 0.2,34.6 0.2,34.6 7.7,0.8 22,-7.1 22.9,-8.1 M 36.1,1891.9 c -1.4,0.3 -1.6,0.6 -2.4,1.1 l 0,3.5 c 0,0 1.1,1 1.9,1.1 0,0 12.9,0 20.1,0 7.2,0 14.5,0 21.7,0 l 21.7,0 21.7,0 21.7,0 c 7.2,0 14.5,0 21.7,0 7.2,0 21,0.1 21.6,0 1.5,-0.2 2.5,-1.3 2.5,-1.3 l 0,-3.3 c 0,0 -1.3,-0.8 -2.9,-1.2 M 36,1902.7 c -1.1,0.3 -1.8,1 -2.2,1.3 l 0,3 c 0.5,0.6 1.3,1.3 2.2,1.5 l 2,0 c 48.4,0 96.8,0 145.1,0 0.8,0 2.8,-0.2 2.9,-0.2 1,0 2.4,-1.3 2.4,-1.3 l 0,-3.2 c 0,0 -1.2,-1 -2.8,-1 m -0.6,9.9 -147.8,0 c -2.3,-0.1 -3.2,1.1 -3.2,1.1 l -0.1,4.7 c 0,0 17.1,0 25.5,0 8.6,0 17.1,0 25.7,0 l 25.4,0 25.5,0 25.7,0 c 8.5,0 25.3,0 25.3,0 0.5,-0.2 0.8,-0.4 1.4,-1.2 l -0.1,-2.8 c -0.1,0.1 -1.7,-1.7 -3.3,-1.8 M 162.5,369.6 c 0.7,0 1.2,0.1 1.7,0.1 1.8,0 3.7,0 5.5,0 6.9,0 13.7,0 20.6,0 0.7,0 1.4,0.2 2,-0.4 0.3,-2.1 -0.2,-4.3 0.3,-6.4 1.9,-0.5 3.8,0 5.5,-0.4 0.4,-0.4 0.8,-0.8 1.3,-1.2 0.1,-3.4 0.1,-6.9 0,-10.3 -0.5,-0.4 -0.9,-0.8 -1.2,-1.1 -1.9,-0.5 -3.8,0.2 -5.5,-0.6 -0.6,-2.1 0.1,-4.3 -0.4,-6.4 -0.9,-0.4 -1.7,-0.3 -2.6,-0.3 -5.5,0 -10.9,0 -16.4,0 -3,0 -6,0 -9,0 -0.6,0 -1.2,-0.1 -1.8,0.3 -0.3,1.9 -0.3,24.3 0,26.7 M 52.8,362.9 c 2,-0.6 3.9,0.1 5.7,-0.6 0.4,-0.7 0.8,-1.5 1.2,-2.2 0,-2.4 0,-4.7 0,-7 0,-1.3 -0.2,-2.4 -1.3,-3.3 -1.8,-0.4 -3.7,0.2 -5.5,-0.5 -0.6,-2.1 0,-4.3 -0.4,-6.4 -0.7,-0.5 -1.5,-0.3 -2.3,-0.3 -4,0 -8,0 -12,0 -4.4,0 -8.8,0 -13.2,0 -0.8,0 -1.5,-0.2 -2.3,0.4 0,0.3 -0.1,0.7 -0.1,1.1 0,8.1 0,16.2 0,24.2 0,0.4 0.1,0.7 0.2,1.2 0.6,0 1.1,0.1 1.7,0.1 2,0 4,0 6,0 6.7,0 13.4,0 20.1,0 0.7,0 1.4,0.2 2,-0.5 0.1,-1.9 0.1,-3.9 0.2,-6.2 m 139.5,1297.7 c 0,-1.4 0,-2.4 0,-3.5 0,-1.1 -0.2,-2.1 0.3,-3.2 0.5,-0.1 1.1,-0.2 1.6,-0.2 1.2,0 2.3,0 3.5,0 0.2,0 0.4,-0.1 0.7,-0.2 0.3,-0.3 0.6,-0.7 0.8,-0.9 0.3,-4.1 0.3,-9.7 -0.2,-10.5 -0.5,-0.4 -1,-0.8 -1.7,-1.3 -1.1,0 -2.4,0 -3.6,0 -0.4,0 -0.9,-0.1 -1.3,-0.2 -0.3,-1.2 -0.1,-2.3 -0.2,-3.3 0,-1.1 0.1,-2.1 -0.2,-3.3 -0.5,0 -0.8,-0.1 -1.2,-0.1 -9.2,0 -18.3,0 -27.5,0 -0.4,0 -0.7,0.1 -1.1,0.2 -0.1,0.4 -0.1,0.7 -0.1,1 0,8.2 0,16.3 0,24.5 0,0.4 0.1,0.7 0.2,1 2,0.3 11.6,0.4 27.6,0.2 0.8,-0.1 1.5,-0.1 2.4,-0.2 m -133.9,-7 c 1,-1 1.4,-1.9 1.4,-2.9 0,-2.6 0,-5.2 0,-7.7 -0.7,-0.9 -1.2,-1.8 -2.3,-2.3 -1,0 -2.2,0 -3.3,0 -0.4,0 -0.9,-0.2 -1.4,-0.3 0,-1.8 0,-3.5 0,-5.2 0,-0.4 -0.1,-0.9 -0.2,-1.4 -0.7,0 -1.3,-0.1 -1.9,-0.1 -2.4,0 -4.8,0 -7.2,0 -6.2,0 -12.3,0 -18.5,0 -0.7,0 -1.4,-0.2 -2.1,0.3 0,0.3 -0.1,0.7 -0.1,1.1 0,8 0,16 0,24 0,0.4 0.1,0.9 0.2,1.3 0.9,0.4 1.8,0.3 2.6,0.3 4.9,0 9.9,0 14.8,0 3.5,0 6.9,0 10.4,0 0.6,0 1.2,0.1 1.7,-0.3 0.3,-0.5 0.2,-1.1 0.2,-1.6 0,-1.2 0,-2.5 0,-3.7 0,-0.4 0.2,-0.9 0.4,-1.4 1.8,0 3.6,0 5.3,-0.1 m 5.3,117.2 c -1.9,-0.2 -48.8,-0.2 -50.8,0 -0.1,0.2 -0.2,0.4 -0.2,0.6 0,5.1 0,10.2 0,15.2 0,0.3 0.1,0.6 0.2,0.8 0.9,0.6 1.8,0.4 2.7,0.4 15.1,0 30.2,0 45.2,0 0.5,0 1.1,0 1.6,0 0.4,0 0.9,-0.2 1.2,-0.3 0.5,-0.7 0.5,-1.4 0.5,-2.1 0,-4.2 0,-8.5 0,-12.7 0.1,-0.6 0.1,-1.3 -0.4,-1.9 m 84.7,-31 c 0,-4 0,-19.3 0,-19.3 -12.9,6.5 -21.8,7.2 -23,7.4 l 0,39 18.4,-0.1 3.3,0.1 c 2.4,0 8.1,0 8.5,-0.1 0.4,0 1.1,0.1 1.1,0.1 -1.1,-0.6 -1.9,-1.5 -2.4,-3 l -5.8,0 c 0,0 0,-18.3 0,-19.7 m 45.6,48.5 c -0.6,-0.1 -1.1,-0.3 -1.6,-0.4 -0.6,-0.1 -1.2,0 -1.8,0 -2.9,0 -5.7,0 -8.5,0 -0.9,0 -1.8,0 -2.7,0.7 0,0.8 0,1.7 0,2.5 0,15 0,30 0,45.1 0,0.6 0,1.2 0,1.8 0,0.4 0.1,0.7 0.2,1 0.3,0.1 0.6,0.2 0.8,0.2 4.3,0 8.6,0 12.9,0 0.3,0 0.6,-0.2 0.8,-0.3 0.2,-2 0.2,-48.4 -0.1,-50.6 M 62.6,284.8 c -1,0 -1.8,-0.1 -2.6,-0.1 -15.5,0 -31,0 -46.5,0 -0.5,0 -1.1,0 -1.6,0 -0.4,0 -0.7,0.2 -1,0.2 -0.3,0.9 -0.2,1.6 -0.2,2.4 0,11.5 0,23 0,34.5 0,0.8 0.1,1.5 0.1,2.3 0,0.1 0.2,0.2 0.3,0.4 0.2,0 0.4,0.1 0.6,0.1 0.3,0 0.6,-0.1 0.8,-0.2 0.4,-1 0.2,-1.9 0.2,-2.9 0,-9.8 0,-19.6 0,-29.4 0,-0.8 0.1,-1.7 0.1,-2.5 0,-0.2 0.2,-0.4 0.3,-0.7 0.4,-0.3 0.9,-0.6 1.2,-0.8 2,-0.2 15.8,-0.3 19.9,-0.1 0.4,0.2 0.9,0.5 1.4,0.7 0.2,0.2 0.3,0.5 0.5,0.7 0.2,0.2 0.4,0.5 0.6,0.7 0,0.9 0,1.9 0,2.8 0,9.3 0,18.7 0,28 0,0.8 0,1.5 0,2.3 0,0.4 0.2,0.8 0.4,1.4 0.9,0 1.6,0 2.4,0 2.9,0 5.9,0 8.8,0 4.2,0 8.3,0 12.5,0 0.7,0 1.4,0.2 2,-0.4 0.1,-2 0,-37.4 -0.2,-39.4 M 59.7,74.5 c 0.8,0.1 1.2,0.1 1.7,0.1 35.5,0 71,0 106.5,-0.1 0.1,0 0.6,-0.1 0.4,-0.3 -1.6,-1.3 -3.4,-2.4 -7.9,-5.5 l -94.3,0 c -3.2,2.4 -3.1,2.5 -6.4,5.8 m 94.5,248.9 0,-24.6 c -0.4,-0.4 -0.7,-0.8 -1.1,-1.2 -3.1,0 -9.9,0 -9.9,0 l 0,10.1 -3,0 0,-10.1 c 0,0 -2.2,0 -3.1,0 -1,0 -2,0 -3,0 -0.9,0 -1.8,-0.2 -2.7,0.3 -0.3,2 -0.4,18.8 -0.2,26.1 0,0.4 0.1,0.9 0.2,1.4 2.2,0.5 4.3,0.2 6.5,0.2 0.7,0 1.4,0.2 2.1,-0.4 0.3,-2.8 -0.1,-5.7 0.2,-8.6 0.5,-0.4 2.5,-0.1 3,0.5 0,0.8 0,1.7 0,2.5 0,1.5 0,3.1 0,4.6 0,0.4 0.2,0.8 0.3,1.3 l 4.2,0 c 0.4,-0.3 0.8,-0.6 1.2,-0.9 1.4,0 2.8,-0.1 4.2,-0.1 0.4,-0.3 0.8,-0.7 1.1,-1.1 m -137.6,0 c 3.8,0.3 15.4,0.3 16.3,-0.1 0.2,-0.3 0.5,-0.6 0.8,-1 0,-0.8 0,-1.6 0,-2.3 0,-5.5 0,-11.1 0,-16.6 0,-3.4 0,-6.8 0,-10.2 0,-0.5 0.1,-1.1 -0.5,-1.6 -0.4,-0.1 -1,-0.1 -1.5,-0.2 -0.8,0 -1.5,0 -2.3,0 -3.7,0 -7.4,0 -11.1,0 -0.8,0 -1.7,-0.1 -2.4,0.4 -0.3,2.1 -0.3,30 0.1,31.1 0,0 0.3,0.3 0.6,0.5 m 152.2,1536.3 0,1.7 6.2,0 0,3 -14,0 c 0,0 -1.4,-1.3 -2,-1.9 -1,0 -2,0 -3,0 -11.5,0 -23,0 -34.4,0 -11.6,0.1 -23.1,-0.2 -34.7,0.2 -7.1,0.2 -14.2,0 -21.3,0 -0.8,0 -1.7,0 -2.4,0 -0.7,0.7 -1.8,1.8 -1.8,1.8 l -14.6,0.1 0,-3.2 5.6,0 c 0,0 0,-1.2 0,-1.6 0,-0.1 -17.4,-0.1 -17.4,-0.1 0,0 -0.7,0.1 -1.4,0.8 l 0,3.6 c 0.5,0.5 1.6,1.2 2.3,1.3 1.3,0.2 1.6,0.1 1.6,0.1 4.4,0 8.8,0 13.2,0 22,0 44.1,0.1 66.1,0.1 10,0 20,-0.1 30.1,-0.1 11.7,0 23.4,0.1 35.1,0.1 1.4,0 3.8,0 4.3,-0.3 1.6,-0.8 1.1,-0.5 2,-1.2 l -0.1,-3.2 c 0,0 -1.1,-1.1 -2.6,-1.2 -4,-0.4 -16.8,0 -16.8,0 z m -85.1,-1734 -39.5,-0.1 -0.1,11.9 39.6,-0.1 c 0,-0.1 0.1,-11.2 0,-11.7 m 129.2,1669.8 c -1,-0.9 -1.4,-1.9 -1.6,-3 -1.3,-0.2 -2.5,-0.4 -3.6,0.5 0,0.8 -0.1,1.7 -0.1,2.5 0,15.1 0,30.2 0,45.3 0,0.5 0,1.1 0,1.6 0,0.4 0,0.8 0.5,1.2 0.3,0 0.7,0.1 1.2,0.1 1.3,0 2.6,0 3.9,0 0.8,0 1.6,0 2.3,0.1 0.6,0.1 1.1,0.4 1.8,0.7 0.1,-0.3 0.2,-0.6 0.2,-0.9 0,-0.6 0,-1.2 0,-1.8 0,-14.5 0,-28.9 0,-43.4 0,-0.6 0,-1.2 0,-1.8 0,-0.3 -0.1,-0.6 -0.2,-0.8 -0.8,-0.2 -1.4,0 -2,0.4 -0.2,0.1 -0.4,0.1 -0.7,0.2 -0.7,-0.3 -1.2,-0.6 -1.7,-0.9 m -95.6,-1461.9 -37.2,0 -0.1,14 33.5,-0.1 c 0,0 0.6,-1.2 0.9,-1.8 0.3,-0.7 1.3,-3.8 2.1,-6.8 0.6,-2.2 0.8,-5.3 0.8,-5.3 z M 63.6,1761.5 c 0.3,-2 0.4,-15.5 0.2,-32.8 0,-0.7 -0.1,-1.4 -0.1,-2.1 -0.5,-0.2 -1,-0.4 -1.4,-0.4 -3.2,0 -6.5,0 -9.7,0 -0.6,0 -1.1,0.3 -1.8,0.5 0,0.9 -0.1,1.6 -0.1,2.4 0,2.9 0,5.9 0,8.8 0,7 0,14 0,21 0,0.8 -0.1,1.7 0.2,2.5 0.3,0.1 0.5,0.2 0.7,0.2 3.6,0 7.2,0 10.9,0 0.4,0.1 0.7,0 1.1,-0.1 m 141.7,82 c 0.4,-1.1 0.2,-2.1 0.2,-3.1 0,-14.9 0,-29.7 0,-44.6 0,-0.6 0,-1.2 0,-1.8 0,-0.4 -0.2,-0.9 -0.2,-1.3 -0.3,-0.1 -0.5,-0.3 -0.7,-0.3 -2.2,0 -4.5,-0.1 -6.7,0 -0.4,0 -0.8,0.3 -1.3,0.5 l 0,2.4 c 0,15.2 0,30.3 0,45.5 0,0.5 0,1.1 0,1.6 0,0.4 0.1,0.7 0.2,1 1.9,0.4 6.2,0.4 8.5,0.1 M 83.8,111.9 l -39.8,0 0,10.4 39.8,-0.1 0,-10.3 z m 66.6,122.7 -28.4,0.1 0.1,13.2 34.1,0.1 0.1,-9.1 -5.8,0 m -2.1,113.7 -24.6,0 0,18 24.7,-0.1 M 111,352.8 c -0.7,0 -30.8,-0.1 -30.8,-0.1 L 80,370.8 c 0,0 11.9,-0.1 16.2,-2.5 2.9,-1.6 5.5,-3.7 7.9,-6 1.3,-1.2 2.1,-2.7 3.1,-4.1 0.2,-0.3 2.8,-3.6 3.3,-5.4 M 54.7,1715.5 c 0,-0.8 0.1,-1.5 0.1,-2.2 0,-3.1 0,-6.2 0,-9.2 0,-5 0,-10 0,-15 0,-0.8 0.2,-1.5 -0.4,-2.3 -0.2,-0.1 -0.5,-0.3 -0.8,-0.3 -3.5,0 -6.9,-0.1 -10.4,-0.1 -0.4,0 -0.7,0.1 -1.1,0.2 -0.1,0.3 -0.3,0.5 -0.3,0.7 0,9 -0.1,18 -0.1,27 0,0.4 0.1,0.7 0.2,1.2 0.4,0.1 0.8,0.2 1.2,0.2 3.9,0.1 9.7,0 11.6,-0.2 m 164.8,-893.4 0,-84 c -0.5,-0.8 -0.9,-1.6 -1.3,-2.3 -0.3,0 -0.6,-0.1 -0.9,-0.1 -0.3,0 -0.6,0.1 -0.9,0.1 -0.3,0.3 -0.5,0.6 -0.9,1 -0.1,0.9 -0.2,1.8 -0.2,2.7 0,2.6 0,5.2 0,7.9 0,24.2 0,48.4 0,72.5 0,1.1 0.1,2.3 0.1,3.4 0.5,0.6 0.9,1 1.3,1.4 0.6,-0.1 1,-0.1 1.4,-0.1 0.6,-0.9 1,-1.7 1.4,-2.5 m -3.7,495 c -0.5,1.3 -0.4,2.5 -0.4,3.8 0,12.6 0,25.1 0,37.7 0,13.9 0,27.9 0,41.8 0,1.3 0,2.6 0.2,3.9 0.6,0.5 1.1,0.9 1.6,1.4 0.3,-0.1 0.6,-0.1 0.8,-0.1 0.5,-1 1,-1.8 1.4,-2.8 l 0,-83.9 c -0.5,-0.8 -0.9,-1.5 -1.3,-2.2 -1.1,-0.1 -1.1,-0.2 -2.3,0.4 m 3.7,-770.6 0,-83.8 c -0.5,-0.8 -0.9,-1.5 -1.3,-2.1 -1.3,0 -1.3,0 -2.5,0.6 -0.4,1.2 -0.3,2.5 -0.3,3.9 0,26.3 0,52.7 0,79 0,0.9 0,1.8 0.1,2.8 0,0.5 0.2,1 0.4,1.6 0.9,0.3 1.7,0.6 2.4,0.2 0.4,-0.8 0.8,-1.5 1.2,-2.2 M 13.8,1686.6 c -0.2,0.4 -0.4,0.8 -0.4,1.3 -0.1,0.6 -0.1,1.2 -0.1,1.8 0,7.6 0,15.2 0,22.9 0,0.6 0,1.2 0.1,1.8 0,0.4 0.2,0.7 0.3,1 1.8,0.3 5.7,0.4 10.7,0.2 0.4,0 0.7,-0.1 1.2,-0.2 0,-0.8 0.1,-1.4 0.1,-2.1 0,-3.4 0,-6.8 0,-10.2 0,-4.8 0,-9.5 0,-14.3 0,-0.8 0.2,-1.5 -0.4,-2.3 -0.2,-0.1 -0.5,-0.2 -0.8,-0.2 -3.2,0 -6.3,0 -9.5,0 -0.4,0.1 -0.7,0.2 -1.2,0.3 m -6.2,-287.3 0,-77.3 c -0.7,-0.7 -0.8,-1.7 -0.9,-2.7 -0.1,-0.9 0,-1.9 -0.5,-2.6 -1.2,-0.2 -1.3,-0.2 -2.4,0.6 -0.3,1.9 -0.3,3.9 -0.3,5.9 0,25.3 0,50.5 0,75.8 0,1.8 0.1,3.5 0.2,5.2 0.5,0.6 0.9,1 1.3,1.4 0.5,0 0.9,0.1 1.4,-0.5 0.1,-1.2 0.3,-2.6 0.5,-4.1 0.2,-0.5 0.5,-1.1 0.7,-1.7 M 6.9,820.1 c 0.6,-0.7 0.8,-1.6 0.8,-2.5 0,-0.5 0,-0.9 0,-1.4 0,-24.3 0,-48.5 0,-72.8 l 0,-2.2 C 7.4,740.7 7.2,740.3 7,740 6.9,738.7 6.7,737.5 6.6,736.2 6.6,736 6.4,735.8 6.3,735.6 l -1.6,0 c -0.3,0.4 -0.7,0.8 -1,1.2 -0.1,1.8 -0.2,3.6 -0.2,5.3 0,9.8 0,19.6 0,29.4 0,16.2 0,32.4 0,48.5 0,1.1 0.1,2.1 0.1,3.3 0.4,0.5 0.8,0.9 1.2,1.3 0.7,-0.1 1.1,-0.2 1.7,-0.3 0.1,-1.2 0.2,-2.5 0.4,-4.2 M 7.6,543.2 7.6,466 c -0.7,-0.9 -0.9,-2 -0.9,-3.2 0,-0.7 0,-1.5 -0.5,-2.2 -0.9,-0.2 -1.7,0 -2.3,0.4 -0.4,1.2 -0.4,2.4 -0.4,3.5 0,26.7 0,53.3 0,80 0,0.8 0,1.5 0.1,2.3 0.1,0.5 0.2,1 0.3,1.5 0.9,0.4 1.7,0.6 2.4,0.1 0.7,-1.7 0.1,-3.7 1.3,-5.2 m 180.4,1137.4 -5.4,0 c -6.4,2.4 -8.3,11 -8.1,12.1 l 0.1,6.8 22.1,-0.1 0.2,-6 c -0.1,-4.6 -4.4,-11.4 -8.9,-12.8 z m -63.9,-1542.3 34.9,0 -0.2,-9.6 -34.8,0.2 c 0.1,0 -0.1,5.3 0.1,9.4 m 24,195.4 c -0.9,-0.4 -1.8,-0.3 -2.6,-0.3 -6.2,0 -12.3,0 -18.5,0 -0.5,0 -1.1,0 -1.6,0 -0.4,0.1 -0.9,0.2 -1.2,0.3 -0.1,0.3 -0.2,0.6 -0.2,0.8 0,3.9 0,7.7 0,11.6 0,0.4 0.2,0.9 0.4,1.2 2.2,0.3 10.8,0.4 22.3,0.2 0.5,0 1,-0.1 1.7,-0.1 0.1,-0.5 0.2,-0.9 0.2,-1.4 0,-5.5 -0.2,-10.5 -0.5,-12.3 m -128.7,-105 0.2,-62.8 -6.6,0 -0.1,62.7 6.5,0.1 z m 151.1,1485.2 0,3.4 9.9,4.3 -9.9,3.2 0,4.4 c 0,0 19.9,5.4 19.9,5.1 0,-1.1 0.1,-3.2 0,-4.3 -1.6,-0.7 -11.4,-3.3 -11.4,-3.3 0,0 10.5,-3.1 11.4,-3.5 l 0,-3.3 c -1.4,-0.5 -11.9,-3.7 -11.9,-3.7 l 12,-3.2 0,-4.3 m -31.6,-1583.4 -0.1,-8.5 -34.8,0.3 0,8.1 c 0.1,0.1 34.7,0.2 34.9,0.1 m 26.6,1644.5 0,18 17,0 0,-18 M 28.9,1715.5 c 0.3,0.1 0.6,0.2 0.8,0.2 2.7,0 5.4,0 8.1,0 0.3,0 0.6,-0.2 0.8,-0.2 0.3,-2.3 0.4,-17.2 0.2,-27.1 0,-0.4 -0.1,-0.9 -0.1,-1.3 -0.3,-0.1 -0.5,-0.3 -0.7,-0.3 -2.7,0 -5.4,0 -8.1,0 -0.3,0 -0.6,0.1 -1,0.2 -0.1,0.4 -0.1,0.8 -0.1,1.1 -0.3,6.1 -0.1,25.2 0.1,27.4 m 7,153.5 c 1.4,-0.3 3.3,-0.3 3.3,-0.3 34.8,0 69.6,0 104.5,0 12.5,0 25,0 37.4,0.1 1.2,0 4.6,0.6 4.9,0.7 1.1,0.4 2.5,1.2 2.5,1.2 l 0,-5.1 c 0,0 -0.5,0.4 -1.8,0.9 -0.6,0.2 -2.6,0.3 -3.8,0.3 -5.4,0 -10.8,0.1 -16.2,0.1 -20.8,0 -41.6,0 -62.4,0 -22.4,0 -44.8,0 -67.2,0 -0.8,0 -0.9,0 -1.6,-0.1 -0.9,-0.1 -1.8,-0.7 -1.8,-0.7 l 0,3.6 m 4.2,20.8 c 48.2,0 96.5,0 144.7,0 0.5,0 1.1,0 1.6,0 2,0 4.2,1.1 4.2,1.1 l 0,-4.1 c 0,0 -1.9,1 -3.4,1 -4.5,0.1 -8.9,0.1 -13.4,0.1 -45.5,0 -90.9,0 -136.4,0 -0.1,0 -0.1,0 -0.2,-0.1 -0.1,0 -0.1,-0.1 -0.2,-0.1 -0.3,-0.2 -0.9,-0.6 -0.9,-0.6 l 0,3.5 c 0,0 0.8,-0.5 1.9,-0.8 m 0.3,21.2 149.7,0 c 1.8,0.5 2.5,1.3 2.5,1.3 l 0,-4.1 c 0,0 -0.7,0.5 -1.6,0.7 l -2.8,0.2 c -48.8,0 -97.7,0 -146.5,0 -0.8,0 -2.4,0.3 -3.5,-0.5 l 0,3.2 c -0.1,0 1,-0.9 2.2,-0.8 M 209.4,228.5 208.1,165 l -3.5,0 -0.1,63.6 c 0,-0.1 3.7,0.2 4.9,-0.1 m -61.3,1445.3 c -1.1,-0.5 -2,-0.4 -2.9,-0.4 -5.6,0 -11.3,0 -16.9,0 -0.5,0 -1.1,0 -1.6,0 -0.4,0 -0.9,0.2 -1.2,0.3 -0.3,2 -0.3,6.8 0,8.6 0.8,0.5 1.6,0.3 2.5,0.3 8.2,0 16.3,0 24.5,0 4,0 8,0 12,0 0.8,0 1.5,-0.1 2.3,-0.3 0.2,0 0.4,-0.3 0.5,-0.4 0.2,-0.7 0.3,-1.4 -0.2,-2 -0.7,-0.5 -1.5,-0.4 -2.3,-0.4 -2.8,0 -5.5,0 -8.3,0 -2.2,0 -4.3,0 -6.5,0 -0.5,0 -1.1,0 -1.5,-0.5 -0.4,-1.6 0.1,-3.4 -0.4,-5.2 M 190.8,80.6 c 0,0 -18.6,0.1 -26.5,0.2 -0.1,0 0.9,0.4 0.8,4.2 0,1.9 -1.4,4.6 -1.2,4.7 0.6,0.1 28.2,-0.2 28.4,-0.3 l -1.5,-8.8 z m -146.8,66 39.9,0 0,-5.9 c 0,0 -21.5,0 -30.8,0 -2.6,0 -9.1,0 -9.1,0 l 0,5.9 m 170.7,128.9 4.5,0 -0.2,-36.6 -4.4,-0.1 m 1,1528.5 c 0.5,0.3 0.9,0.7 1.3,0.8 0.4,0.1 0.8,0.1 1.2,0.1 0.5,-0.8 0.9,-1.4 1.2,-2.1 0.3,-0.7 0.2,-1.5 1.1,-1.8 l 0,-34 c -0.8,-1.4 -1.5,-2.6 -2.2,-3.7 -0.9,-0.2 -1.7,-0.1 -2.5,0.4 -0.2,0.7 -0.3,1.4 -0.4,2 -0.2,0.3 -0.5,0.6 -0.7,0.9 l 0,34.4 c 0.3,0.3 0.5,0.5 0.7,0.8 0.1,0.8 0.2,1.4 0.3,2.2 m -1,-1406.1 0,1.5 c 0,11.9 0,23.8 0,35.8 0,0.5 0,0.9 0,1.4 0,0.2 0.1,0.4 0.1,0.5 0.5,0.4 0.9,0.8 1.3,1.1 l 2.2,0 c 0.5,-0.8 0.9,-1.5 1.3,-2.3 l 0,-37 c -0.3,-0.4 -0.6,-0.8 -0.8,-1.2 -0.2,-0.4 -0.3,-0.8 -0.5,-1.3 l -2.2,0 c -0.5,0.5 -0.9,0.9 -1.4,1.5 M 31,89.9 c 0,0 22.1,-0.1 24.8,-0.1 0.6,0 -1.1,-1.6 -1.5,-4.4 -0.3,-2 0.8,-4.4 1,-4.6 l -21.8,0.1 c 0,0 -1.1,2.4 -1.6,4.6 -0.7,3.1 -0.9,4.4 -0.9,4.4 z m 183.7,209.3 c -0.2,4.3 -0.2,37.5 0.1,38.1 0.2,0.2 0.4,0.4 0.7,0.6 0.1,0.5 0.2,1 0.4,1.6 0.4,0 0.8,0.1 1.2,0.1 0.9,-0.8 1.7,-1.7 2.5,-2.4 l 0,-36.8 c -0.3,-0.4 -0.6,-0.8 -0.8,-1.2 -0.2,-0.5 -0.4,-1 -0.5,-1.5 l -2.3,0 c -0.4,0.5 -0.9,1 -1.3,1.5 m -53.3,-173.8 26.8,10.3 0.2,-6.5 -27,-11.3 c 0,0 0,4.9 0,7.5 M 52.6,1665 c -2.3,-0.3 -21.5,-0.5 -28.9,-0.2 -0.3,0 -0.6,0.1 -1,0.2 0,0.5 -0.1,1 -0.1,1.4 0,1.1 0,2.3 0.1,3.4 0.4,0.3 0.8,0.6 1.1,0.9 0.4,0.3 0.9,0.6 1.3,0.9 5.6,0.2 23.5,0.1 25.5,-0.1 0.7,-0.8 1.3,-1.6 2,-2.3 l 0,-4.2 z m 139.7,-0.2 c -0.9,0 -1.6,-0.1 -2.3,-0.1 -8.5,0 -16.9,0 -25.4,0 -0.7,0 -1.5,-0.2 -2.3,0.4 -0.1,1.5 -0.2,3 0.1,4.6 0.7,0.6 1.5,1.2 2.3,1.8 l 25.4,0 c 0.8,-0.8 1.5,-1.5 2.2,-2.2 l 0,-4.5 z m -29.9,-34.4 c 1,0.4 1.9,0.2 2.7,0.2 6.7,0 13.4,0 20.1,0 1.9,0 3.9,0 5.8,0 0.4,0 0.9,-0.2 1.3,-0.3 l 0,-3.8 c -0.4,-0.6 -0.8,-1.2 -1.2,-1.7 -0.6,-0.4 -1.2,-0.8 -1.8,-1.2 -8.2,0 -16.4,0 -24.4,0 -1,0.7 -1.7,1.2 -2.6,1.8 -0.1,1.6 -0.1,3.2 0.1,5 m -113,-6.7 -24.3,0 c -0.8,0.7 -1.6,1.3 -2.4,1.9 -0.1,1.6 -0.4,3.2 0.1,4.7 0.9,0.4 1.8,0.2 2.6,0.2 6.7,0 13.4,0 20.1,0 1.9,0 3.9,0 5.8,0 0.4,0 0.9,-0.2 1.3,-0.3 l 0,-3 c -0.5,-0.9 -0.8,-1.6 -1.1,-2.4 -0.6,-0.2 -1.3,-0.7 -2.1,-1.1 M 23.8,379.3 c 1,0.5 2,0.5 3,0.5 7.1,0 14.2,0 21.3,0 1.2,0 2.3,0 3.5,-0.4 0.4,-0.5 0.7,-1.1 1.1,-1.7 0,-1.3 0.2,-2.6 -0.1,-4 -0.6,-0.1 -1.1,-0.1 -1.7,-0.1 -8.7,0 -17.4,0 -26.1,0 -0.6,0 -1.2,0.1 -1.8,0.2 -0.3,1.6 -0.2,3.1 -0.1,4.6 0.3,0.4 0.6,0.7 0.9,0.9 m 168.6,-1.1 c 0,-1.2 0,-2.2 0,-3.3 0,-0.4 0,-0.8 -0.4,-1 -2,-0.3 -21.3,-0.4 -28.2,-0.2 -0.5,0 -0.9,0.1 -1.5,0.2 -0.1,1.6 -0.2,3.1 0.1,4.5 0.5,0.4 0.9,0.8 1.3,1.2 0.8,0.1 1.6,0.2 2.4,0.2 7.5,0 14.9,0 22.4,0 0.8,0 1.7,-0.2 2.3,-0.3 0.7,-0.4 1.1,-0.8 1.6,-1.3 m -33.6,-231.5 0,-5.1 -34.7,0.2 0,4.9 34.7,0 z m 31.4,186.1 -25.9,0 c -0.7,0.4 -1.2,0.8 -1.9,1.2 -0.1,1.5 -0.3,3.1 0.1,4.6 0.9,0.4 1.8,0.2 2.6,0.2 7.9,0 15.8,0 23.8,0 0.7,0 1.4,0 2.1,0 0.4,0 0.9,-0.2 1.3,-0.3 l 0,-3.5 c -0.7,-0.7 -1.4,-1.4 -2.1,-2.2 m -139.8,0 c -4.6,-0.2 -25.2,-0.2 -25.9,0.1 -0.6,0.4 -1.1,0.7 -1.7,1.1 -0.4,1.2 -0.3,2.5 -0.2,3.7 0,0.4 0.2,0.7 0.3,1 1.6,0.2 26.1,0.3 28.7,0.2 0.3,0 0.6,-0.1 0.9,-0.2 0.2,-1 0.2,-1.9 0,-2.7 -0.4,-0.7 -0.7,-1.4 -1,-2 -0.3,-0.5 -0.6,-0.8 -1.1,-1.2 m 49.5,-203.5 0.1,7.4 c 0,0 20.6,-10.2 21.1,-10.7 0,-2.5 -0.2,-8.3 -0.2,-8.3 m 98.6,1174 0,-36.7 c -0.5,-1.1 -0.8,-1.9 -1.2,-2.8 -0.1,-0.1 -0.2,-0.2 -0.4,-0.4 l -0.8,0 c -0.5,0.4 -1,0.7 -1.6,1.2 0,1.2 -0.1,2.5 -0.1,3.8 0,10.6 0,21.1 0,31.7 0,1.5 0.1,3.1 0.1,4.6 0.5,0.5 1,1 1.4,1.5 1.6,-0.4 1.7,-2 2.6,-2.9 m -3.9,271.2 c -0.1,1.1 -0.1,2 -0.1,2.9 0,11.2 0,22.5 0,33.7 0,0.9 0.1,1.8 0.2,2.8 0,0.1 0.1,0.3 0.2,0.6 0.1,0.1 0.4,0.4 0.6,0.7 l 1.8,0 c 0.5,-0.8 0.9,-1.6 1.4,-2.3 l 0,-36.9 c -0.5,-1 -0.8,-1.7 -1.1,-2.3 -0.1,-0.1 -0.2,-0.2 -0.4,-0.3 l -1.2,0 c -0.6,0.3 -1,0.7 -1.4,1.1 m 0.2,-134.7 c -0.4,1.2 -0.4,2.4 -0.4,3.5 0,11 0,22 0,33 0,0.9 0.1,1.8 0.1,2.8 0,0.3 0.1,0.6 0.1,0.8 0.5,0.4 1,0.7 1.6,1.1 0.3,0 0.6,-0.1 0.9,-0.1 0.5,-0.8 0.9,-1.6 1.4,-2.5 0.2,-2.1 0.2,-35.4 0,-37.3 -0.4,-0.7 -0.9,-1.4 -1.3,-2.1 -1,0 -1.7,0.2 -2.4,0.8 M 215.6,1055 c -0.1,0.7 -0.2,1.5 -0.2,2.3 0,11.6 0,23.3 0,34.9 0,0.9 0,1.8 0.3,2.6 0.7,0.9 1.5,1.1 2.5,0.8 0.5,-0.8 0.9,-1.6 1.3,-2.4 l 0,-36.9 c -0.3,-0.4 -0.6,-0.8 -0.8,-1.2 -0.2,-0.4 -0.3,-0.8 -0.5,-1.2 l -1.1,0 c -0.6,0.4 -1,0.7 -1.5,1.1 m 0.2,437 c -0.4,1.2 -0.4,2.4 -0.4,3.6 0,11.1 0,22.2 0,33.2 0,0.9 0.1,1.8 0.1,2.8 0,0.2 0.1,0.4 0.2,0.6 0.5,0.4 1,0.8 1.5,1.2 0.3,0 0.6,-0.1 0.9,-0.1 0.2,-0.5 0.3,-0.9 0.5,-1.3 0.2,-0.4 0.5,-0.7 0.8,-1.1 l 0,-37.1 c -0.5,-0.8 -0.9,-1.5 -1.3,-2.2 -0.8,-0.3 -1.5,0 -2.3,0.4 m -0.3,-368.9 c 0,1.1 -0.1,2.1 -0.1,3.1 0,10.9 0,21.9 0,32.8 0,1.5 0.1,2.9 0.2,4.3 1,0.6 1.8,0.6 2.6,0.2 0.5,-0.9 0.9,-1.6 1.3,-2.5 0,-12.1 0,-24.5 0,-36.4 -0.6,-1.2 -1.1,-1.9 -1.5,-2.8 -0.3,0 -0.6,0 -0.8,0 -0.5,0.4 -1,0.8 -1.7,1.3 m 4,-241.4 0,-36.9 c -0.4,-0.7 -0.9,-1.5 -1.3,-2.2 -1,-0.2 -1.7,0.1 -2.4,0.5 -0.4,1 -0.4,2.1 -0.4,3.1 0,11.3 0,22.7 0,34 0,1 0.1,2 0.2,3 0.3,0.2 0.6,0.3 0.8,0.5 0.3,0.2 0.6,0.5 0.8,0.7 0.4,-0.1 0.7,-0.1 0.9,-0.2 0.5,-0.8 0.9,-1.5 1.4,-2.5 m 0,-239.2 0,-36.7 c -0.5,-0.8 -0.9,-1.6 -1.4,-2.3 -0.4,0 -0.7,-0.1 -1,0 -0.4,0.1 -0.9,0.3 -1.3,0.4 -0.5,1.2 -0.4,2.5 -0.4,3.7 0,10.8 0,21.6 0,32.4 0,1.4 0.1,2.8 0.2,4.2 0.1,-0.1 0.2,-0.2 0.3,-0.3 0.4,0.6 0.7,1.2 1,1.8 1.6,-0.6 1.8,-2.1 2.6,-3.2 m -4,30.3 c 0,1.2 -0.1,2.3 -0.1,3.5 0,10.5 0,20.9 0,31.4 0,1.5 0.1,2.9 0.2,4.4 0,0.1 0.1,0.3 0.2,0.6 0.4,0.3 0.8,0.7 1.3,1.1 0.4,-0.1 0.8,-0.3 1.1,-0.3 0.5,-0.8 0.9,-1.6 1.4,-2.5 l 0,-37 c -0.5,-0.8 -0.9,-1.5 -1.3,-2.3 -0.6,0 -1.2,0.1 -1.8,0.1 -0.4,0.4 -0.6,0.6 -1,1 m 4,554.8 0,-36.8 c -0.5,-0.8 -0.9,-1.5 -1.3,-2.2 -0.9,-0.1 -1.7,0.1 -2.4,0.6 -0.5,1.2 -0.4,2.4 -0.4,3.5 0,10.8 0,21.5 0,32.3 0,1.5 0.1,2.9 0.2,4.3 0.5,0.4 1,0.8 1.4,1.2 1.7,-0.4 1.6,-2 2.5,-2.9 m -2.7,-275 c 0.7,-0.1 1.1,-0.1 1.4,-0.2 0.5,-0.9 0.9,-1.6 1.3,-2.3 l 0,-37.1 c -0.5,-0.8 -0.9,-1.5 -1.3,-2.2 -1,-0.2 -1.8,-0.2 -2.4,0.6 -0.4,0.8 -0.4,1.8 -0.4,2.7 0,11.6 0,23.2 0,34.9 0,0.8 0.1,1.5 0.2,2.3 0.1,-0.1 0.2,-0.1 0.3,-0.2 0.2,0.5 0.5,0.9 0.9,1.5 m -39.3,-790.9 16.9,-0.1 0,-8.5 -19.1,-0.1 0,6 c -0.1,0 1.4,1.9 2.2,2.7 M 3.6,1253.1 c 0,1.1 -0.1,2.2 -0.1,3.3 0,10.9 0,21.7 0,32.6 0,1.5 0.1,2.9 0.2,4.5 0.8,0 0.7,1.1 1.7,1.1 0.3,-0.3 0.7,-0.7 1,-0.9 0.8,-1.9 -0.1,-3.9 1.3,-5.4 l 0,-30.1 c -0.2,-0.5 -0.5,-0.9 -0.6,-1.3 -0.1,-0.5 -0.1,-1.1 -0.2,-1.6 -0.1,-1 -0.2,-2 -0.4,-3 0,-0.1 -0.2,-0.3 -0.3,-0.4 l -1.2,0 c -0.4,0.3 -0.8,0.7 -1.4,1.2 M 3.7,299.2 c 0,2.4 -0.1,4.8 -0.1,7.2 0,9.1 0,18.2 0,27.3 0,1.5 0.1,3.1 0.1,4.6 0,0.4 0.2,0.9 0.3,1.2 0.9,0.3 1.8,0.4 2.6,-0.2 0.1,-1.4 0.2,-2.7 0.3,-4 0.3,-0.4 0.5,-0.8 0.7,-1.2 l 0,-30.1 c -0.3,-0.7 -0.5,-1.3 -0.8,-1.9 -0.2,-1.5 -0.1,-3 -0.6,-4.4 l -1.3,0 c -0.4,0.5 -0.8,0.9 -1.2,1.5 m -0.1,823.9 c 0,1.3 -0.1,2.5 -0.1,3.7 0,10.2 0,20.5 0,30.7 0,1.6 0.1,3.2 0.2,4.8 0,0.4 0.1,0.7 0.2,1 1.3,0.4 1.3,0.4 2.5,0 0.6,-1.3 0.3,-2.7 0.5,-4.1 0.3,-0.5 0.5,-0.9 0.7,-1.3 l 0,-30.1 c -0.3,-0.6 -0.5,-1.2 -0.7,-1.7 -0.2,-1.5 0,-3 -0.7,-4.4 l -1.1,0 c -0.5,0.6 -0.9,0.9 -1.5,1.4 M 3.9,672.2 c -0.5,1.2 -0.4,2.5 -0.4,3.7 0,10.6 0,21.2 0,31.9 0,1.4 0.1,2.8 0.2,4.1 0,0.2 0.1,0.4 0.2,0.7 0.4,0.3 0.8,0.7 1.2,1 0.5,-0.2 0.9,-0.3 1.3,-0.4 0.6,-1.4 0.4,-2.9 0.6,-4.3 0.5,-0.9 0.8,-1.9 0.8,-3 0,-9.5 0,-18.9 0,-28.4 0,-0.2 0,-0.3 -0.1,-0.5 -0.2,-0.4 -0.5,-0.8 -0.7,-1.1 -0.2,-1.4 -0.1,-2.8 -0.5,-4.1 -1,-0.1 -1.7,-0.2 -2.6,0.4 M 3.7,360.9 c -0.1,0.8 -0.2,1.6 -0.2,2.3 0,11.6 0,23.2 0,34.9 0,0.9 0.1,1.8 0.2,2.5 0.8,1.1 1.7,1 2.6,0.8 0.5,-1.4 0.3,-2.8 0.5,-4.2 0.3,-0.5 0.5,-0.9 0.8,-1.3 0,-9.7 0,-19.3 0,-28.9 0,-1.1 -0.1,-2.2 -0.8,-2.9 -0.1,-1.4 -0.3,-2.6 -0.4,-3.8 0,-0.2 -0.2,-0.4 -0.3,-0.6 l -1.3,0 c -0.3,0.4 -0.6,0.7 -1.1,1.2 m 3.9,1237.3 c 0,-0.2 0.1,-0.4 0.1,-0.5 0,-9.5 0,-19.1 0,-28.6 0,-1.1 -0.2,-2.1 -0.8,-2.9 -0.2,-1.5 -0.1,-2.9 -0.6,-4.3 -0.6,-0.1 -1.1,-0.2 -1.6,0.1 -0.3,0.4 -0.7,0.8 -1.1,1.2 0,1 -0.1,2.1 -0.1,3.2 0,9.8 0,19.5 0,29.3 0,1.6 0,3.2 0,4.8 0,0.8 0.2,1.7 0.4,2.5 0,0.2 0.3,0.3 0.4,0.5 0.7,0.3 1.3,0.4 2.1,-0.1 0.1,-1.3 0.3,-2.7 0.4,-4.1 0.3,-0.4 0.6,-0.8 0.8,-1.1 M 3.9,1492 c -0.5,1.3 -0.4,2.6 -0.4,3.9 0,9.9 0,19.7 0,29.6 0,2.2 0.1,4.5 0.1,6.6 0.5,0.6 1,1.1 1.4,1.6 0.4,-0.1 0.8,-0.2 1.2,-0.3 0.5,-1.5 0.5,-2.9 0.6,-4.3 0.3,-0.6 0.5,-1.2 0.8,-1.8 l 0,-30.3 c -0.8,-0.8 -0.8,-2.1 -0.9,-3.3 -0.1,-0.7 0.1,-1.6 -0.5,-2.2 -0.9,-0.2 -1.6,0.1 -2.3,0.5 m 0,-63.9 c -0.4,1.3 -0.4,2.6 -0.4,3.8 0,8.9 0,17.7 0,26.6 0,3.1 0.1,6.2 0.2,9.2 0,0.2 0.1,0.5 0.1,0.7 0.2,0.2 0.5,0.4 0.7,0.6 0.2,0.2 0.4,0.4 0.6,0.6 0.5,-0.1 0.8,-0.1 1.2,-0.2 0.6,-1.4 0.5,-2.8 0.6,-4.2 0.3,-0.7 0.5,-1.5 0.8,-2 l 0,-30.3 c -0.7,-0.7 -0.8,-1.7 -0.9,-2.7 -0.1,-0.9 0,-1.9 -0.6,-2.6 -0.9,-0.3 -1.6,0 -2.3,0.5 m 0,-824.3 c -0.5,1.5 -0.4,2.8 -0.4,4.1 0,10.6 0,21.1 0,31.7 0,1.5 0.1,3.1 0.1,4.6 0.5,0.5 1,1 1.5,1.5 0.5,-0.4 0.9,-0.8 1.3,-1.1 0.6,-1.9 -0.1,-4 1.2,-5.5 l 0,-30.1 c -0.6,-0.9 -0.9,-1.9 -0.9,-3 0,-0.5 -0.1,-1.1 -0.2,-1.6 -0.1,-0.3 -0.3,-0.7 -0.4,-1.1 -0.7,0.2 -1.4,0.4 -2.2,0.5 M 3.6,1055 c 0,1 -0.1,2.1 -0.1,3.2 0,10.1 0,20.1 0,30.2 0,1.9 0.1,3.8 0.2,5.8 0,0.1 0.1,0.3 0.2,0.6 0.3,0.3 0.7,0.6 1.1,1 0.5,-0.1 0.9,-0.1 1.4,-0.1 0.4,-1.5 0.3,-3 0.5,-4.4 0.3,-0.5 0.5,-0.8 0.7,-1.1 0,-0.3 0.1,-0.5 0.1,-0.6 0,-9.5 0,-18.9 0,-28.4 0,-1.2 -0.3,-2.3 -0.8,-3 -0.2,-1.5 -0.3,-2.7 -0.5,-3.9 0,-0.1 -0.2,-0.2 -0.3,-0.4 -0.5,0 -1,0.1 -1.4,0.1 -0.3,0.2 -0.6,0.5 -1.1,1 M 3.9,843.1 c -0.4,1.2 -0.3,2.5 -0.3,3.7 0,9.2 0,18.3 0,27.5 0,2.8 0.1,5.7 0.2,8.5 0,0.1 0.1,0.3 0.1,0.4 0.4,0.5 0.8,0.9 1.2,1.4 0.6,-0.2 1,-0.3 1.5,-0.4 0.2,-1.4 0.3,-2.7 0.5,-4.1 0.2,-0.5 0.5,-1.1 0.7,-1.8 l 0,-30.2 c -1.3,-1.5 -0.6,-3.6 -1.3,-5.4 -1,-0.3 -1.8,-0.1 -2.6,0.4 m 3.7,919.2 0,-30.3 c -0.7,-0.9 -0.8,-1.9 -0.9,-3 0,-0.8 0.1,-1.7 -0.6,-2.4 -0.8,-0.1 -1.5,-0.1 -2.3,0.4 -0.4,1.1 -0.4,2.3 -0.4,3.4 0,11.2 0,22.4 0,33.7 0,1.1 0.1,2.1 0.2,3.2 0.6,0.4 1,0.8 1.5,1.1 0.4,-0.1 0.8,-0.2 1.2,-0.3 0.2,-1.4 0.3,-2.7 0.5,-4.2 0.3,-0.3 0.5,-1 0.8,-1.6 M 3.9,1189 c -0.5,1.1 -0.4,2.3 -0.4,3.4 0,10.9 0,21.7 0,32.6 0,1.5 0.1,2.9 0.2,4.3 0.6,0.4 1,0.8 1.5,1.2 0.5,-0.3 0.9,-0.6 1.1,-0.7 0.5,-1.1 0.5,-2.1 0.5,-3.1 0,-1.1 0.6,-1.9 0.8,-2.7 l 0,-30 c -0.6,-0.8 -0.8,-1.8 -0.9,-2.8 0,-0.9 0,-1.8 -0.6,-2.7 -0.8,0 -1.5,0.1 -2.2,0.5 m 3,-240.8 c 0.7,-0.8 0.8,-2 0.8,-3.2 0,-9.4 0,-18.8 0,-28.1 0,-0.2 0,-0.5 -0.1,-0.7 -0.2,-0.3 -0.4,-0.7 -0.7,-1.1 -0.2,-1.4 -0.1,-2.8 -0.5,-4 -1.4,-0.3 -1.4,-0.3 -2.5,0.4 -0.5,1.1 -0.4,2.4 -0.4,3.6 0,9.5 0,18.9 0,28.4 0,2.5 0.1,4.9 0.2,7.4 0,0.2 0.1,0.5 0.1,0.7 0.3,0.4 0.7,0.7 1,1 0.7,0.1 1.2,0.3 1.7,-0.3 0.1,-1.3 0.2,-2.5 0.4,-4.1 m 177.6,803.7 0,3.3 c 0,0 2.4,-0.5 4.7,-2.9 0.9,-1 1.9,-2.1 2.1,-5.2 0.2,-3.2 -1.6,-5.4 -1.9,-5.9 -2.2,-3.3 -6.8,-4.3 -7.7,-4.4 -1.7,-0.2 -4.5,0 -6.3,0.9 -2.2,1.1 -4.2,2.6 -4.9,5 -0.7,2.3 -0.6,4.1 -0.3,6.2 0.4,2.2 1.1,3.1 2.3,4.3 1.3,1.4 5.1,2 5.1,2 l 0.1,-3.3 c 0,0 -3.1,-0.9 -3.9,-2.6 -0.7,-1.5 -0.9,-2.9 -0.2,-5.1 0.3,-1 2.8,-4 7.2,-3.7 0.1,0 4.7,-0.1 6.7,3.8 1,2 0.7,3.4 -0.2,4.9 -1.3,2.1 -2.8,2.7 -2.8,2.7 M 37,1900.7 c 5.8,-0.3 147.5,0 148.1,0.1 2.5,0.4 3.3,1.4 3.3,1.4 l 0,-4.3 c 0,0 -0.6,1.1 -3.3,1.8 l -148.6,0 c -0.7,-0.2 -2.7,-1.6 -2.7,-1.6 l 0,4 c 0.1,-0.1 1.4,-1 3.2,-1.4 M 6.5,277.6 C 6.6,276 6.4,236.9 6.4,236.9 L 3.7,237 3.6,277.6 c 0,0 2.3,0 2.9,0 M 205.3,1772 c 0,3.2 0,6.3 0,9.5 0,1.5 0,6.3 0,6.3 l 6.2,0 0,-24.2 -6.1,0 m 6.1,-64 -0.2,-20 -6.8,0 0,19.9 m -6,-6.5 0,6.5 4.2,0 c 0,0 0,-12.4 -0.1,-17.2 0,-0.8 0,-2.7 0,-2.7 l -12.9,0 c 2.3,1.1 7.9,5.5 8.8,13.4 z m -58.1,73.8 m 32.1,-74.4 c 1,-4.1 1.5,-8.1 8.7,-12.7 l -11.9,0 c 0,0 0,2.7 0,3.7 0,1 0,2 0,3 0,3.8 -0.1,7.5 -0.1,11.3 0,0.5 0,1.9 0,1.9 l 3.3,-0.1 0,-7.1 z M 67.1,89.6 c 0,0 1.8,-2.2 1.9,-4.4 0.2,-2.4 -0.8,-4.1 -1,-4.6 -0.9,0 -7.9,0 -10.3,0 -0.2,0 -1.2,2.4 -1,4.6 0.2,2 2,4.3 2,4.3 l 8.4,0 z m 62.1,-0.3 8.6,-0.1 c 0,0 1.4,-1.7 1.7,-3.8 0.3,-2.3 -0.9,-4.7 -0.9,-4.7 l -10.2,0 c 0,0 -1.2,2 -1.1,4 0,2.3 1.9,4.6 1.9,4.6 z M 81.3,80.8 c 0,0 -0.8,2.3 -0.7,4.5 0.1,2.1 1.9,4.1 1.9,4.1 l 7.9,-0.1 c 0,0 2.1,-2.1 2.1,-4.4 -0.1,-2.4 -0.8,-4 -1.1,-4.3 l -10.1,0.2 z m 22.8,4.1 c 0,2.4 2,4.3 2,4.3 l 7.8,0 c 0,0 2.1,-2 2.2,-4.1 0.1,-2.8 -1.3,-4.4 -1.3,-4.4 l -9.6,0 c -0.1,-0.1 -1,1.5 -1.1,4.2 z m 46.6,0.1 c 0.3,2.4 1.8,4.4 1.8,4.4 l 8.6,0.1 c 0,0 1.7,-2.4 1.8,-3.9 0.2,-2.7 -1.1,-4.8 -1.1,-4.8 l -10.3,0.1 c 0,0 -0.9,2.7 -0.8,4.1 z m -78.9,141.6 -46.6,0.1 -0.1,2.2 46.6,-0.2 0,-2.1 z m 80.9,2 c 0,0 1.4,0.1 2.2,0.1 13.3,0 42.6,0 42.6,0 l 0,-2 c 0,0 -44.1,-0.1 -44.8,0 l 0,1.9 z M 101.8,85.9 c -0.4,-2.2 0.8,-5 0.8,-5 L 94.3,81 c 0,0 0.7,2 0.4,4.5 -0.3,1.8 -1.3,3.9 -1.3,3.9 l 10,-0.1 c -0.2,-0.1 -1.5,-2.3 -1.6,-3.4 z m 39.3,-5.1 c 0,0 0.6,1.1 0.4,4.5 -0.1,1.7 -1.2,4.1 -1.2,4.1 l 9.5,0 c 0,0 -0.9,-1.8 -1.1,-4 -0.3,-2.6 0.7,-4.7 0.7,-4.7 l -8.3,0.1 z M 25.4,1719 c -1.8,-0.3 -9.5,-0.3 -11.5,0 -0.6,0.7 -0.6,1.5 -0.6,2.4 0,1 -0.2,2.2 0.5,3.2 1.2,0.2 2.5,0.1 3.8,0.1 1.3,0 2.6,0 3.9,0 1.3,0 2.6,0.2 3.9,-0.2 0.1,-0.4 0.2,-0.7 0.2,-1 0,-1.3 0,-2.6 0,-3.9 0,-0.2 -0.1,-0.4 -0.2,-0.6 M 69.7,89.5 c 0.9,0.1 10,0 10,0 0,0 -1.3,-2.1 -1.7,-3.8 -0.4,-1.8 0.4,-5 0.4,-5 l -8.2,0 c 0,0 0.9,2.5 0.8,4.6 0,2.8 -1.1,3.4 -1.3,4.2 m 55.5,-4.4 c -0.2,-2.5 0.8,-4.5 0.8,-4.5 0,0 -6.8,0 -8.8,0.1 -0.1,0 0.9,2.1 0.8,4.4 -0.1,1.9 -1.4,4.1 -1.4,4.1 l 9.9,0.1 c 0.1,-0.1 -1.2,-2.4 -1.3,-4.2 z m 37.1,151.3 37,0 0,-1.7 -37,0.1 0,1.6 z m -101.9,-1.7 -36.7,0.3 0,1.5 36.6,-0.3 0.1,-1.5 z m 142.2,1529.1 -17.6,0 0,2.9 17.6,0 m -33.8,90 0,2 c 0,0 10.7,0 15,0 2.6,0 4.7,1.1 4.7,1.1 l -0.1,-3.1 -19.6,0 z M 73.1,333.7 c -0.3,2.7 -0.2,11.1 0.1,12.9 0.8,0.2 1.7,0.5 2.6,-0.2 0,-4.1 0,-8.1 0,-12.2 0,-0.2 -0.2,-0.4 -0.3,-0.6 -0.8,-0.2 -1.5,-0.2 -2.4,0.1 M 33.8,1859 c 0.5,-0.3 1,-0.4 1.2,-0.4 5.7,0 17.5,0 17.5,0 l 0,-1.9 -18.8,0 0.1,2.3 z m 139.7,-92.4 c 0,0 9.7,0.1 9.9,-0.1 l 0,-2.8 -9.9,0 m -56.3,-1416.2 3.2,-0.1 0.1,-8.8 0,-1.8 c 0,0 -1.5,5.4 -1.9,6.6 -0.6,2.1 -1.4,4.1 -1.4,4.1 z m -52.5,-111.3 7.4,0 0,-1.5 -7.4,0 m 91.6,-0.1 -3.6,0 0,1.8 3.6,0 0,-1.8 z m 11,1459.6 c 0.1,1.2 -1.8,5.4 -1.8,5.4 l 1.8,0 0,-4.6"
                 id="path3482"
                 clip-path="url(#SVGID_6_)" />
              <path
                 inkscape:connector-curvature="0"
                 class="st2"
                 d="m 79.1,198.7 c -1.9,1.3 -9.5,5.1 -10.2,5.3 -2.4,0.7 -7.9,0.5 -10.3,-0.2 -0.7,-0.2 -9.3,-4.8 -10.3,-5.9 -0.3,-0.3 -1.7,-4 -1.7,-4 l 0.3,-2 c 0.5,-1.9 0.5,-1.9 1.2,-3.2 0,-0.6 0,-1.3 0,-2 0,-4.9 0,-9.9 0,-14.8 0,-0.4 -0.2,-0.9 -0.3,-1.3 -1.2,-0.2 -1.9,0.2 -3,0.4 -0.2,0.8 -0.5,1.2 -0.5,2 0,4.9 0.1,16.9 0.1,16.9 l -1,2.2 c 0,0 -0.2,-0.8 -0.2,-1.2 0,-6.7 0,-13.4 0,-20 0.6,-0.6 1.1,-1.2 1.7,-1.7 0.3,-0.3 0.8,-0.4 1.2,-0.5 1,0.1 1.8,0.8 2.9,0.5 0.1,-0.7 0,-1.7 0.4,-2.5 0.5,-0.9 1.4,-1.7 2.3,-2.2 1.9,-1 22.4,-0.8 24.2,0 0.4,0.2 0.8,0.5 1.2,0.9 0.4,0.4 0.8,0.7 1.1,1.3 0.3,0.6 0.2,1.5 0.4,2.3 1,0.2 1.7,-0.5 3.1,-0.3 0.2,0.1 0.8,0.3 1.3,0.6 0.4,0.6 0.8,1.1 1.2,1.6 0,0.3 0.1,0.7 0.1,1 0.4,5 0.1,18.5 -0.3,20.5 -0.8,1.1 -2.2,1.2 -3.5,1.6 0,0.2 -0.5,3.2 -1.4,4.7 -0.3,0.5 -1.1,-0.5 -1.5,-0.5 0.1,-0.1 0.7,-4.2 0.6,-6.3 0,-0.1 -0.2,-0.2 -0.3,-0.4 l -1.2,0 c -0.2,0.2 -4.1,3.5 -4.4,3.8 -0.8,0 -3.7,-2 -4.4,-2.2 -1.6,-0.4 -5.1,-0.2 -6.8,0.1 -1.6,0.3 -4.4,2.5 -5.6,2.2 -1.1,-1.2 -1.4,-2.9 -2.4,-3.6 -1,-0.6 -1.7,-0.8 -2.6,-1.2 -0.2,0 -0.7,0 -1.1,0.1 -0.5,0.4 0.1,5.5 0.2,6 0.3,1.4 7.6,4.6 8.2,4.9 l 11.4,0 c 0.6,-0.4 8,-3.5 8.4,-3.5 m -2.9,-32.3 c 0,0 -16.5,-1.1 -21.6,0.3 -1.3,0.4 -2.2,0.6 -2.6,1.7 -1.2,3.4 -0.6,19.8 -0.2,20.8 0.1,0.1 2.3,0.8 2.4,0.8 1.1,0.4 1.6,0.9 2,1.3 0.8,0.8 1.2,1.9 1.9,2.4 0.8,0.6 3.6,-1.7 4,-1.9 1.8,-0.6 5.8,-0.7 7.6,0.1 0.4,0.2 3.3,1.6 3.6,1.7 1.9,0.2 1.4,-1.6 3.2,-2.5 0.5,-0.2 2,-1.1 2.2,-1.4 0,0 0.9,-16.3 -0.6,-21.5 -0.4,-1.3 -1.2,-1.5 -2.3,-2.2 m 4.6,23.9 c 1.2,0.8 1.1,1.8 1.8,3 0.3,0 0.6,0.1 0.9,0.1 0.2,0 0.4,-0.1 0.7,-0.1 0.3,-0.7 0.6,-1.4 1,-2.1 l 0,-17.4 c -0.4,-0.8 -0.8,-1.5 -1.1,-2.2 -0.7,0 -1.3,0 -1.9,0 -0.2,0 -1,0.4 -1.2,0.4 -0.2,0.5 -0.2,18.3 -0.2,18.3 z"
                 id="path3484"
                 clip-path="url(#SVGID_6_)" />
              <path
                 inkscape:connector-curvature="0"
                 class="st2"
                 d="m 199.1,436.7 c -0.5,0.4 -0.9,0.9 -1.4,1.3 -3.4,0 -6.8,0.1 -10.2,0 -0.2,-0.5 -0.3,-0.9 -0.4,-1.4 -0.1,-0.5 0,-0.9 0,-1.4 0,-5 0,-10 0,-15 l 0,-1.8 c 0.6,-0.3 1.2,-0.6 1.7,-0.9 l 8.7,0 c 0.5,0.3 0.9,0.7 1.4,1 0.1,0.3 0.2,0.7 0.2,1.1 0,1.9 0,3.8 0,5.8 0,3 0,6 0,9 0,0.7 0,1.5 0,2.3 M 197,420.4 c -0.8,-0.5 -1.6,-0.5 -2.4,-0.4 -1.7,0.1 -3.5,-0.2 -5.3,0.2 -0.1,0.4 -0.2,0.8 -0.2,1.1 0,4.5 0,9.1 0,13.6 0,0.4 0.2,0.7 0.3,1.1 0.5,0.1 0.8,0.1 1.2,0.1 1.8,0 3.5,0 5.3,0 0.5,-0.4 0.9,-0.7 1.2,-1 0.2,-2.7 0.1,-12.8 -0.1,-14.7"
                 id="path3486"
                 clip-path="url(#SVGID_6_)" />
              <path
                 inkscape:connector-curvature="0"
                 class="st2"
                 d="m 38.8,428.3 c 0.5,0 0.9,-0.1 1.3,-0.1 0.4,0.5 0.8,1.1 1.2,1.5 0.3,1.4 -0.1,2.8 0.4,4.2 0.8,0.1 1.5,0.3 2.2,0.4 0.9,0.9 0.8,1.8 0.1,2.7 -1.6,0.3 -3.2,0.2 -4.8,0.1 -0.2,-0.3 -0.4,-0.6 -0.5,-0.8 -0.3,-1.3 -0.2,-6.2 0.1,-8"
                 id="path3488"
                 clip-path="url(#SVGID_6_)" />
              <path
                 inkscape:connector-curvature="0"
                 class="st2"
                 d="m 38.6,419.9 c -0.2,-3.7 -0.2,-9.7 0.2,-11.5 0.4,-0.4 0.8,-0.3 1.4,-0.3 0.2,0.2 0.3,0.6 0.5,0.8 0.2,0.2 0.4,0.5 0.6,0.7 l 0,9.4 c -0.3,0.4 -0.7,1 -1.1,1.4 -0.8,0.4 -1.3,0.1 -1.6,-0.5"
                 id="path3490"
                 clip-path="url(#SVGID_6_)" />
              <path
                 inkscape:connector-curvature="0"
                 class="st2"
                 d="m 38.6,393.3 c 2.4,-0.3 4.5,-0.2 6.7,-0.1 0.2,0.6 0.3,1 0.4,1.5 -0.3,0.4 -0.5,0.7 -0.8,1.2 -1.1,0.1 -2.1,0.2 -3.3,0.3 -0.1,0.4 -0.2,0.7 -0.3,1.1 0,0.6 0,1.2 0,1.9 -0.4,0.5 -0.9,1 -1.3,1.6 -0.5,-0.2 -0.9,-0.4 -1.4,-0.5 -0.2,-2.4 -0.2,-4.6 0,-7"
                 id="path3492"
                 clip-path="url(#SVGID_6_)" />
              <path
                 inkscape:connector-curvature="0"
                 class="st2"
                 d="m 199.9,314.9 c -0.8,0.4 -1.7,0.3 -2.5,0.3 -5.5,0 -10.9,0 -16.4,0 0,0 -13.7,-0.1 -18,-0.1 -0.1,0 -0.3,-0.1 -0.6,-0.2 -0.1,-0.4 -0.3,-0.8 -0.3,-1.2 -0.1,-0.9 0,-1.8 0,-2.8 0,-5.3 0,-10.6 0,-15.9 0,-0.8 -0.1,-1.7 0.2,-2.6 0.2,-0.1 0.5,-0.2 0.8,-0.2 0.6,0 1.2,0 1.8,0 10.8,0 21.6,0 32.3,0 0.8,0 1.7,0 2.4,0.1 0.9,1 1.2,2.1 1.2,3.3 0,2.3 0,4.6 0,6.9 0,2.2 -0.1,4.5 0,6.7 0.2,1.9 -0.1,3.8 -0.9,5.7 m -20.5,-3 c 1.8,0.4 6,0.4 15.9,0.3 0.6,0 1.2,-0.1 1.8,-0.2 0.1,-0.5 0.3,-0.8 0.3,-1.2 0,-4.9 0,-9.7 0,-14.6 0,-0.3 -0.1,-0.6 -0.2,-0.8 -0.3,-0.1 -0.5,-0.2 -0.7,-0.2 -5.5,0 -10.9,0 -16.4,0 -0.2,0 -0.4,0.1 -0.7,0.2 -0.1,0.2 -0.2,0.4 -0.2,0.7 0,5.1 0,10.2 0,15.3 0,0.1 0.1,0.3 0.2,0.5 m -3.6,0 c 0.1,-0.2 0.2,-0.4 0.2,-0.6 0,-5.1 0,-10.3 0,-15.4 0,-0.1 -0.1,-0.3 -0.2,-0.4 -0.2,-0.1 -0.4,-0.2 -0.6,-0.2 -3.1,0 -6.1,0 -9.2,0 -0.2,0 -0.4,0.1 -0.7,0.2 -0.1,0.3 -0.2,0.6 -0.2,0.9 0,4.9 0,9.8 0,14.7 0,0.3 0.2,0.7 0.3,1 2.9,0.2 8.8,0.1 10.4,-0.2"
                 id="path3494"
                 clip-path="url(#SVGID_6_)" />
              <path
                 inkscape:connector-curvature="0"
                 class="st2"
                 d="m 188.1,984.6 c 5.5,0 16.3,4.6 15.8,18.4 -0.4,8.5 -5.6,16.5 -15.9,16.8 -13,0.3 -18.5,-7.9 -18.6,-16.5 -0.2,-11.3 6,-18.7 18.7,-18.7 z m 13.3,19.3 c 0.6,-5.6 -1.4,-17.4 -14.4,-17.1 -8.7,0.2 -15.5,5.5 -15.5,15.4 0,10.9 8.4,15.4 15.6,15.2 11.2,-0.2 14,-10.1 14.3,-13.5 z"
                 id="path3496"
                 clip-path="url(#SVGID_6_)" />
              <path
                 inkscape:connector-curvature="0"
                 class="st2"
                 d="m 43.6,286 c 0.3,-0.3 0.6,-0.6 0.8,-0.8 l 13.9,0 c 0.3,0.2 0.6,0.4 0.9,0.7 0.3,0.6 0.6,1.2 0.9,2 l 0,27.7 c -0.2,0.4 -0.5,0.9 -0.8,1.5 -0.4,0.2 -0.8,0.5 -1.3,0.7 -0.4,0.1 -0.9,0.2 -1.4,0.2 -3.6,0 -7.2,0 -10.9,0 -0.2,0 -0.5,-0.1 -0.8,-0.1 -0.4,-0.2 -0.9,-0.5 -1.3,-0.8 -0.1,-0.2 -0.2,-0.5 -0.2,-0.7 0,-0.5 0,-1.1 0,-1.6 0,-8.7 0,-17.4 0,-26.1 0.1,-0.9 0.2,-1.7 0.2,-2.7 m 13,28 c 0.3,-1 0.3,-1.8 0.3,-2.6 0,-6.7 0,-13.4 0,-20.1 0,-0.5 0,-1.1 0,-1.6 0,-0.4 -0.2,-0.9 -0.3,-1.3 -0.4,-0.1 -0.7,-0.2 -1,-0.2 -2.6,0 -5.2,0 -7.8,0 -0.3,0 -0.7,0.2 -1.1,0.3 0,0.9 -0.1,1.6 -0.1,2.4 0,3.2 0,6.5 0,9.7 0,3.9 0,7.8 0,11.8 0,0.6 -0.1,1.2 0.5,1.8 0.3,0 0.7,0.2 1,0.2 2.6,0 5.2,0 7.8,0 0.2,-0.1 0.4,-0.2 0.7,-0.4"
                 id="path3498"
                 clip-path="url(#SVGID_6_)" />
            </g>
          </g>
        </g>
        <path
           inkscape:connector-curvature="0"
           d="m 55.9,1345.3 0,24.8 -39.9,0 0,-24.7 39.9,-0.1 z m -37.8,12.9 35.5,0 0,-10.3 -35.5,0 m 35.3,20.1 0,-6.2 -35.1,0.1 -0.1,6.2 35.2,0 z"
           id="path3500" />
        <path
           inkscape:connector-curvature="0"
           d="m 101.2,1345.3 0,24.8 -39.9,0 0,-24.7 39.9,-0.1 z m -37.8,12.9 35.5,0 0,-10.3 -35.5,0 m 35.2,20.1 0,-6.2 -35.1,0.1 -0.1,6.2 35.2,0 z"
           id="path3502" />
        <path
           inkscape:connector-curvature="0"
           d="m 160.9,1345.3 0,24.8 -39.9,0 0,-24.7 39.9,-0.1 z m -37.8,12.9 35.5,0 0,-10.3 -35.5,0 m 35.3,20.1 0,-6.2 -35.1,0.1 -0.1,6.2 35.2,0 z"
           id="path3504" />
        <path
           inkscape:connector-curvature="0"
           d="m 205.9,1345.3 0,24.8 -39.9,0 0,-24.7 39.9,-0.1 z m -37.8,12.9 35.5,0 0,-10.3 -35.5,0 m 35.3,20.1 0,-6.2 -35.1,0.1 -0.1,6.2 35.2,0 z"
           id="path3506" />
        <path
           inkscape:connector-curvature="0"
           d="m 55.9,762.4 0,24.8 -39.9,0 0,-24.7 39.9,-0.1 z m -37.8,12.9 35.5,0 0,-10.3 -35.5,0 m 35.3,20.1 0,-6.2 -35.1,0.1 -0.1,6.2 35.2,0 z"
           id="path3508" />
        <path
           inkscape:connector-curvature="0"
           d="m 101.2,762.4 0,24.8 -39.9,0 0,-24.7 39.9,-0.1 z m -37.8,12.9 35.5,0 0,-10.3 -35.5,0 m 35.2,20.1 0,-6.2 -35.1,0.1 -0.1,6.2 35.2,0 z"
           id="path3510" />
        <path
           inkscape:connector-curvature="0"
           d="m 160.9,762.4 0,24.8 -39.9,0 0,-24.7 39.9,-0.1 z m -37.8,12.9 35.5,0 0,-10.3 -35.5,0 m 35.3,20.1 0,-6.2 -35.1,0.1 -0.1,6.2 35.2,0 z"
           id="path3512" />
        <path
           inkscape:connector-curvature="0"
           d="m 205.9,762.4 0,24.8 -39.9,0 0,-24.7 39.9,-0.1 z m -37.8,12.9 35.5,0 0,-10.3 -35.5,0 m 35.3,20.1 0,-6.2 -35.1,0.1 -0.1,6.2 35.2,0 z"
           id="path3514" />
        <path
           inkscape:connector-curvature="0"
           d="M 43.4,192.2"
           id="path3516" />
        <path
           inkscape:connector-curvature="0"
           d="m 47,194.4 -3.7,-2.3 1,-2.2 c 0,0 2,2.2 2.9,1.8"
           id="path3518" />
        <path
           inkscape:connector-curvature="0"
           d="m 157.4,198.4 c -1.9,1.3 -9.5,5.1 -10.2,5.3 -2.4,0.7 -7.9,0.5 -10.3,-0.2 -0.7,-0.2 -9.3,-4.8 -10.3,-5.9 -0.3,-0.3 -1.7,-4 -1.7,-4 l 0.3,-2 c 0.5,-1.9 0.5,-1.9 1.2,-3.2 0,-0.6 0,-1.3 0,-2 0,-4.9 0,-9.9 0,-14.8 0,-0.4 -0.2,-0.9 -0.3,-1.3 -1.2,-0.2 -1.9,0.2 -3,0.4 -0.2,0.8 -0.5,1.2 -0.5,2 0,4.9 0.1,16.9 0.1,16.9 l -1,2.2 c 0,0 -0.2,-0.8 -0.2,-1.2 0,-6.7 0,-13.4 0,-20 0.6,-0.6 1.1,-1.2 1.7,-1.7 0.3,-0.3 0.8,-0.4 1.2,-0.5 1,0.1 1.8,0.8 2.9,0.5 0.1,-0.7 0,-1.7 0.4,-2.5 0.5,-0.9 1.4,-1.7 2.3,-2.2 1.9,-1 22.4,-0.8 24.2,0 0.4,0.2 0.8,0.5 1.2,0.9 0.4,0.4 0.8,0.7 1.1,1.3 0.3,0.6 0.2,1.5 0.4,2.3 1,0.2 1.7,-0.5 3.1,-0.3 0.2,0.1 0.8,0.3 1.3,0.6 0.4,0.6 0.8,1.1 1.2,1.6 0,0.3 0.1,0.7 0.1,1 0.4,5 0.1,18.5 -0.3,20.5 -0.8,1.1 -2.2,1.2 -3.5,1.6 0,0.3 -0.6,3.3 -1.4,4.7 -0.3,0.5 -1.1,-0.5 -1.5,-0.5 0.1,-0.1 0.7,-4.2 0.6,-6.3 0,-0.1 -0.2,-0.2 -0.3,-0.4 l -1.2,0 c -0.2,0.2 -4.1,3.5 -4.4,3.8 -0.8,0 -3.7,-2 -4.4,-2.2 -1.6,-0.4 -5.1,-0.2 -6.8,0.1 -1.6,0.3 -4.4,2.5 -5.5,2.2 -1.1,-1.2 -1.4,-2.9 -2.4,-3.6 -1,-0.6 -1.7,-0.8 -2.6,-1.2 -0.2,0 -0.7,0 -1.1,0.1 -0.5,0.4 0.1,5.5 0.2,6 0.3,1.4 7.6,4.6 8.2,4.9 l 11.4,0 c 0.6,-0.4 8,-3.5 8.4,-3.5 m -3,-32.3 c 0,0 -16.5,-1.1 -21.6,0.3 -1.3,0.4 -2.2,0.6 -2.6,1.7 -1.2,3.4 -0.6,19.8 -0.2,20.8 0.1,0.1 2.3,0.8 2.4,0.8 1.1,0.4 1.6,0.9 2,1.3 0.8,0.8 1.2,1.9 1.9,2.4 0.8,0.6 3.6,-1.7 4,-1.9 1.8,-0.6 5.8,-0.7 7.6,0.1 0.4,0.2 3.3,1.6 3.6,1.7 1.9,0.2 1.4,-1.6 3.2,-2.5 0.5,-0.2 2,-1.1 2.2,-1.4 0,0 0.9,-16.3 -0.6,-21.5 -0.4,-1.3 -1.2,-1.5 -2.3,-2.2 m 4.6,24 c 1.2,0.8 1.1,1.8 1.8,3 0.3,0 0.6,0.1 0.9,0.1 0.2,0 0.4,-0.1 0.7,-0.1 0.3,-0.7 0.6,-1.4 1,-2.1 l 0,-17.4 c -0.4,-0.8 -0.8,-1.5 -1.1,-2.2 -0.7,0 -1.3,0 -1.9,0 -0.2,0 -1,0.4 -1.2,0.4 -0.2,0.4 -0.2,18.3 -0.2,18.3 z"
           id="path3520" />
        <path
           inkscape:connector-curvature="0"
           d="M 121.7,191.9"
           id="path3522" />
        <path
           inkscape:connector-curvature="0"
           d="m 125.3,194.2 -3.7,-2.3 1,-2.2 c 0,0 2,2.2 2.9,1.8"
           id="path3524" />
        <path
           inkscape:connector-curvature="0"
           d="m 38.4,984.6 c 5.5,0 16.3,4.6 15.8,18.4 -0.4,8.5 -5.6,16.5 -15.9,16.8 -13,0.3 -18.5,-7.9 -18.6,-16.5 -0.2,-11.3 5.9,-18.7 18.7,-18.7 z m 13.3,19.3 c 0.6,-5.6 -1.4,-17.4 -14.4,-17.1 -8.7,0.2 -15.5,5.5 -15.5,15.4 0,10.9 8.4,15.4 15.6,15.2 11.2,-0.2 13.9,-10.1 14.3,-13.5 z"
           id="path3526" />
        <path
           inkscape:connector-curvature="0"
           d="M 155.6,1766.8"
           id="path3528" />
      </g>
    </g>
  </g>
  <style
     id="style3456"
     type="text/css">
	.st0{clip-path:url(#SVGID_2_);}
	.st1{clip-path:url(#SVGID_4_);}
	.st2{clip-path:url(#SVGID_6_);}
</style>
</svg>
