<?xml version="1.0" encoding="utf-8"?>
<!-- Generator: Adobe Illustrator 19.0.1, SVG Export Plug-In . SVG Version: 6.00 Build 0)  -->
<svg version="1.1" id="Layer_1" xmlns="http://www.w3.org/2000/svg" xmlns:xlink="http://www.w3.org/1999/xlink" x="0px" y="0px"
	 viewBox="0 0 222 1520" style="enable-background:new 0 0 222 1520;" xml:space="preserve">
<g>
	<path d="M0,1485.5C0,1001.2,0,516.9,0,32.6c0.4-0.1,0.7-0.2,1.2-0.3c0.1-1.6,0.1-3,0.2-4.4c0.4-0.3,0.7-0.5,0.9-0.7
		c0.1-0.9,0.1-1.8,0.2-2.7c0.3-0.2,0.5-0.4,0.7-0.5c0-0.6,0.1-1,0.1-1.5c0.3-0.2,0.5-0.3,0.8-0.4c0.1-0.6,0.2-1.1,0.3-1.6
		c0.3-0.1,0.6-0.3,0.9-0.4c0.1-0.5,0.2-1,0.3-1.6c0.6-0.1,0.7-0.7,1.1-1c0.4-0.4,0.7-0.8,0.9-1.2c0.3-0.1,0.5-0.1,0.7-0.2
		c0.1-0.3,0.3-0.6,0.4-0.8c0.5-0.1,1-0.2,1.4-0.3c0.6-0.6,1.2-1.1,1.9-1.7c0.7,0,1.4-0.1,2.3-0.2c0.2-0.2,0.4-0.5,0.6-0.7
		c1.7-0.3,55.2-0.3,56.6,0c0.1,0.5,0.2,1.1,0.2,1.6c0.3,0.2,0.5,0.4,0.8,0.6c0,8.1,0,16.1,0,24.1c0,0.1,0,0.3,0.1,0.4
		c0,0,0,0.1,0.1,0.1c0,0,0.1,0.1,0.1,0.1c26,0,52.1,0,78.2,0c0-3.1,0-6.1,0-9.1c0-3,0-6,0-9c0-3-0.1-6,0.1-9.1
		c0.9,0,1.7-0.1,2.5-0.1c9.7,0,19.4,0,29.1,0c7.9,0,15.7,0,23.6,0c0.8,0,1.7,0.1,2.4,0.1c0.3,0.4,0.4,0.6,0.6,0.8
		c0.6,0,1.2,0.1,1.8,0.1c0.1,0.3,0.2,0.6,0.4,0.9c0.5,0.1,1,0.2,1.5,0.2c0.2,0.8,1.5,0.7,1.4,1.7c0.3,0.1,0.6,0.1,0.8,0.2
		c1,1.2,1.9,2.5,3,3.6c0.1,0.4,0.2,0.8,0.2,1.2c0.3,0.1,0.5,0.3,0.8,0.4c0.1,0.6,0.1,1.1,0.2,1.7c1.3,0.6,1,1.8,1.1,2.9
		c1.5,1.4,0.5,3.4,1,5.2c0.2,0.1,0.4,0.3,0.7,0.4c0,0.3,0.1,0.7,0.1,1c0,3.9,0.1,7.9,0.1,11.8c0,476.7,0,953.3,0,1430
		c0,4.1-0.1,8.2-0.1,12.3c0,0.2,0,0.4-0.1,0.6c-0.2,0.2-0.5,0.3-0.9,0.6c0,1.5,0,3,0,4.4c-0.4,0.3-0.6,0.5-0.8,0.7
		c-0.1,0.9-0.1,1.7-0.2,2.6c-0.3,0.1-0.6,0.3-0.9,0.4c-0.1,0.8-0.2,1.6-0.3,2.4c-0.3,0.2-0.5,0.3-0.7,0.5c-0.1,0.3-0.2,0.6-0.2,0.8
		c-0.4,0.1-0.6,0.3-0.9,0.4c-0.2,0.7-0.8,1.3-0.9,1.9c-0.1,0.8-1,0.7-1.2,1.4c-0.1,0.8-1.3,0.4-1.3,1.3c-0.6,0.2-1,0.3-1.4,0.5
		c-0.1,0.3-0.3,0.5-0.4,0.6c-0.6,0.1-1.1,0.2-1.6,0.3c-0.2,0.3-0.3,0.6-0.4,0.8c-0.9,0.1-1.7,0.1-2.5,0.1c-0.2,0.3-0.4,0.5-0.5,0.7
		c-1.4,0.3-52.2,0.4-54.7,0.1c-0.1-0.3-0.3-0.6-0.4-0.8c-0.3-0.1-0.6-0.2-0.9-0.3c0-2.3,0-4.6,0-6.8c0-2.2,0-4.5,0-6.7s0-4.5,0-6.7
		c0-2.2,0-4.4,0-6.6c-2-0.3-77.2-0.2-78.4,0.1c0,8.5,0,17,0,25.4c-0.4,0.3-0.6,0.5-0.8,0.7c-0.2,0.6-0.3,1.2-0.4,1.8
		c-0.6,0.1-1.2,0.2-1.8,0.2c-16.8,0-33.6,0-50.4,0c-1.1,0-2.2-0.1-3.2-0.2c-0.2-0.4-0.4-0.7-0.6-0.8c-0.6,0-1,0-1.4,0
		c-0.4,0-0.8-0.1-1.1-0.1c-0.2-0.3-0.3-0.6-0.5-0.8c-0.5-0.1-1-0.2-1.2-0.2c-0.7-0.5-1.1-0.8-1.6-1.1c-0.1-0.2-0.1-0.4-0.2-0.6
		c-0.3-0.1-0.6-0.1-0.8-0.2c-0.1-0.3-0.1-0.5-0.2-0.8c-0.3-0.1-0.6-0.2-0.9-0.4c0.1-0.9-1.1-0.8-1.2-1.7c0-0.1-0.5-0.2-0.7-0.3
		c-0.1-0.6-0.1-1.2-0.2-1.8c-0.4-0.1-0.6-0.2-0.7-0.2c-0.5-0.8-0.8-1.4-1.3-2.2c0-0.3,0-0.9-0.1-1.5c-0.2-0.2-0.5-0.4-0.8-0.7
		c0-0.8-0.1-1.6-0.1-2.5c-0.8-0.5-1.1-1.3-1-2.3c0-0.7,0-1.4-0.1-2.1c0-0.5-0.2-1.1-0.3-1.6C0.6,1485.7,0.3,1485.6,0,1485.5z
		 M99.5,151.8c-1,0.7-1,1.9-1.1,2.9c-0.6,0.1-1.1,0.2-1.7,0.2c0,0.9-0.1,1.7-0.1,2.6c-0.4,0.2-0.7,0.4-1,0.5
		c-0.1,0.6-0.1,1.2-0.1,1.7c-0.3,0.1-0.6,0.3-0.8,0.4c0,0.6-0.1,1.1-0.1,1.7c-0.3,0.2-0.6,0.3-1,0.5c0,0.5-0.1,1-0.1,1.5
		c-0.3,0.1-0.6,0.2-0.9,0.3c0,0.6-0.1,1.2-0.1,1.8c-0.6,0.4-0.8,1-0.9,1.8c-0.1,0.6-0.5,1.1-0.8,1.6c0,0,0,0,0,0
		c-0.3,0.6-0.7,1.2-1,1.9c0,0,0,0,0,0c-0.4,0.7-0.7,1.4-1.1,2.2c0,0,0,0,0,0c-0.3,0.6-0.6,1.3-0.9,1.9c0,0-0.1,0-0.1-0.1
		c-0.1,0.5-0.2,1.1-0.3,1.6c-0.3,0.2-0.5,0.3-0.8,0.5c0,0.9-0.2,1.7-1,2.1c-0.1,0.5-0.1,1-0.2,1.4c-0.3,0.2-0.5,0.4-0.8,0.5
		c-0.1,0.6-0.2,1.1-0.2,1.5c-0.3,0.2-0.5,0.4-0.7,0.6c-0.1,0.6-0.2,1.1-0.3,1.6c-0.4,0.2-0.6,0.3-0.8,0.4c-0.1,0.7-0.1,1.2-0.2,1.7
		c-0.9,0.2-0.9,1.5-1.8,1.3c-0.1,0.7-0.1,1.2-0.2,1.8c-0.3,0.1-0.6,0.2-0.8,0.3c-0.2,0.3-0.1,0.9-0.8,0.7c0-0.3-0.1-0.5-0.1-0.8
		c0-0.9,0-1.8,0-2.7c0.3-0.2,0.5-0.3,0.8-0.5c0.1-0.5,0.1-1.1,0.2-1.6c0.3-0.1,0.5-0.3,0.8-0.4c0.1-0.5,0.1-1,0.2-1.5
		c0.3-0.2,0.6-0.3,0.9-0.5c0.1-0.6,0.1-1.1,0.2-1.6c0.3-0.2,0.5-0.3,0.8-0.5c0.1-0.5,0.1-1,0.2-1.6c0.7-0.5,1-1.2,1.1-2.1
		c0-0.4,0.4-0.9,0.6-1.3c0.3-0.7,0.2-1.6,1.2-1.9c0.1-0.9,0.2-1.8,1.1-2.1c0.1-0.5,0.2-0.9,0.2-1.3c0.3-0.2,0.5-0.4,0.7-0.5
		c0.3-1.5,1.3-3.6,2-4.3c0.1-0.5,0.1-0.9,0.2-1.4c0.2-0.2,0.5-0.4,0.8-0.6c-0.1-0.9,0.3-1.5,0.8-1.7c0.4-1,0.7-1.7,1-2.4
		c0,0,0.1,0,0.1,0.1c0.1-0.5,0.2-1,0.3-1.4c0.3-0.2,0.5-0.4,0.7-0.5c0.1-0.6,0.2-1.1,0.3-1.6c0.3-0.2,0.6-0.3,0.8-0.4
		c0.1-0.6,0.1-1.1,0.2-1.7c0.3-0.1,0.5-0.3,0.8-0.4c0.1-0.5,0.2-1,0.3-1.4c0.3-0.2,0.6-0.4,0.8-0.5c0.1-0.6,0.1-1.2,0.2-1.7
		c0.2-0.2,0.4-0.3,0.6-0.5c0.1-0.5,0.2-1,0.3-1.5c0.3-0.2,0.5-0.3,0.7-0.5c0.2-0.2,0.3-0.5,0.4-0.8c0.9,0,1.7,0,2.6,0
		c38,0,75.9,0,113.9,0c0.5,0,1.1,0,1.6,0c0.3,0,0.6-0.1,1-0.2c0-1.7,0.1-3.2-0.1-4.9c-3.4,0-6.7,0-10,0c-3.3,0-6.6,0-9.9,0
		c-3.4,0-6.7,0-10.1,0c-3.3,0-6.6,0-9.9,0c-3.3,0-6.6,0.1-10-0.1c0-0.6,0-1.2,0-1.7c0-3.5,0-7,0-10.5c0-12.5,0-25,0-37.5
		c0-0.6,0.2-1.2-0.2-1.7c-0.2,0-0.4,0-0.6,0c-7.8,0-15.5,0-23.3,0c-0.6,0-1.3,0.1-2-0.3c0-1.5,0-3,0-4.5c0-1.5,0-3,0-4.5
		c0-1.5,0-3,0-4.5c0-1.5,0.1-3-0.1-4.6c-4.6,0-9.1,0-13.5,0c-0.3-0.3-0.4-0.6-0.7-0.8c-0.2-0.2-0.5-0.2-0.8-0.3c0-2.6,0-5.1,0-7.6
		c0.3-0.3,0.6-0.5,0.8-0.7c0.1-1.2,0.1-2.4,0.2-3.6c0.4-0.2,0.7-0.3,0.9-0.4c0.1-0.9,0.1-1.7,0.2-2.6c0.3-0.2,0.6-0.3,0.8-0.4
		c0.1-0.5,0.1-1,0.2-1.5c0.3-0.2,0.6-0.3,0.9-0.5c0.1-0.5,0.1-1,0.2-1.2c0.5-0.8,0.8-1.2,1.1-1.8c0.1,0,0.4-0.1,0.6-0.2
		c0.1-0.5,0.3-1,0.4-1.5c0.7,0,0.7-0.7,1-1c0.4-0.3,0.7-0.7,1-1c0.4-0.4,0.7-0.8,0.8-1.2c0.4-0.1,0.6-0.2,0.8-0.2
		c0.3-0.6,0.5-1,0.7-1.4c-0.7-0.5-1.5-0.4-2.3-0.4c-19.4,0-38.9,0-58.3,0c-0.7,0-1.4,0-2.1,0c-0.3,0-0.7,0-1.1,0.1
		c0,15.5,0,30.8,0,46.4c-23.2,0-46.2,0-69.3,0c0,0.4,0.1,0.7,0.1,1.1c2.4,0,4.8,0,7.2,0c2.4,0,4.7,0,7.1,0s4.7,0,7.1,0s4.7,0,7.1,0
		c2.4,0,4.7,0,7.1,0c2.4,0,4.7,0,7.1,0c2.4,0,4.7,0,7,0c0.3,1.8,0.2,49.2-0.1,50.5c-3.3,0-6.6,0-9.9,0c-3.3,0-6.6,0-9.9,0
		c-3.4,0-6.7,0-10.1,0c-3.3,0-6.6,0-9.9,0c-3.3,0-6.6,0-10,0c0,2.4,0,4.7,0,7.2c1.7,0,3.3,0.1,5,0.1c0,203.4,0,406.6,0,609.8
		c0.4,0.2,0.7,0.3,1,0.4c0,0.1,0.1,0.2,0.1,0.2c0,198.9,0,397.7,0,596.6c0,0.1,0,0.3,0,0.4c0,0.1,0,0.2,0,0.3c0,0,0,0.1,0.1,0.1
		c0,0,0.1,0.1,0.2,0.3c2.2,0,4.6,0,7,0c2.4,0,4.7,0,7.1,0c2.3,0,4.6,0,7,0c2.4,0,4.7,0,7.1,0c2.4,0,4.7,0,7.1,0s4.7,0,7.1,0
		s4.7,0,7.1,0c2.3,0,4.6,0,7,0c2.4,0,4.7,0,7.1,0c2.4,0,4.7,0,7.2,0c0,3.1,0.1,6,0,9c-1.6,0-3.1,0-4.6,0c-1.5,0-3.1,0-4.6,0
		c-1.5,0-3,0-4.5,0c-1.5,0-3,0-4.5,0c-1.5,0-3.1,0-4.6,0c-1.5,0-2.9-0.1-4.4,0.1c0,2.3,0,4.5,0,6.5c0.5,0.5,0.9,0.9,1.4,1.5
		c0.3,0,0.8,0.1,1.2,0.2c0.5,0.6,1,1.2,1.6,1.8c0.6,0.5,1.2,1,1.8,1.5c0.1,0.5,0.2,1,0.2,1.5c0.3,0.2,0.6,0.3,0.8,0.4
		c0,0.6,0.1,1.1,0.1,1.6c0.2,0.2,0.5,0.4,0.7,0.6c0,0.4,0.1,0.9,0.1,1.3c0,8.6,0,17.1,0,25.7c0,0.8-0.2,1.6-0.8,2
		c-0.1,0.6-0.1,1.1-0.2,1.6c-0.3,0.2-0.5,0.3-0.8,0.5c-0.1,0.3-0.2,0.6-0.3,0.8c-0.3,0.1-0.6,0.2-0.8,0.2c-0.1,0.3-0.2,0.5-0.2,0.6
		c-0.8,0.4-1.4,0.8-2.1,1.1c-0.5,0-1,0.1-1.6,0.1c-0.1,0.3-0.2,0.5-0.4,0.8c-0.3,0.1-0.5,0.2-0.8,0.3c-0.1,0.3-0.3,0.6-0.4,0.9
		c-0.7,0-1.4,0-2.1,0c-11.4,0-22.7,0-34.1,0c-3.6,0-7.1,0-10.7,0c-0.6,0-1.1,0.1-1.8,0.1c0,0.4,0.1,0.6,0.1,1c6.4,0,12.7,0,19,0
		c6.3,0,12.7,0,19,0s12.7,0,19,0c6.3,0,12.6,0,19.1,0c0.2,3,0.1,5.8,0.1,8.6c0,2.8,0,5.7,0,8.4c0.5,0.4,0.9,0.8,1.3,1.1
		c0.5,0,1,0,1.6,0c3.3,0,6.6,0,9.9,0c0.6,0,1.3,0.1,2,0.2c0.6,2.6,0.1,5.2,0.3,7.8c-0.4,0.1-0.7,0.3-1.1,0.4c0,1.5,0,3,0,4.5
		c-0.4,0.2-0.7,0.4-1,0.6c0,0.9,0,1.8,0,2.6c-0.4,0.2-0.7,0.3-1,0.4c-0.1,0.9-0.1,1.7-0.2,2.6c-0.3,0.1-0.5,0.2-0.6,0.3
		c-0.5,1-0.9,1.9-1.4,2.8c-0.2,0-0.4,0.1-0.7,0.2c-0.1,0.3-0.2,0.5-0.3,0.8c-0.3,0.1-0.5,0.2-0.7,0.3c-0.1,0.3-0.2,0.6-0.3,0.8
		c-0.3,0.1-0.6,0.2-0.5,0.2c-0.4,0.6-0.6,1.1-0.9,1.4c-0.3,0.3-0.8,0.5-1.3,0.7c-0.1,0.2-0.2,0.5-0.2,0.7c-0.3,0.1-0.6,0.2-0.8,0.2
		c-0.1,0.3-0.2,0.5-0.2,0.5c-0.6,0.5-1.1,0.9-1.6,1.4c-0.3,0.1-0.8,0.1-1.2,0.2c-0.2,0.3-0.3,0.5-0.5,0.9c-3.2,0-6.4,0-9.8,0
		c0,2.7-0.1,5.3,0.1,8c26.5,0,52.9,0,78.9,0c0.6-0.5,0.9-0.8,1.3-1.1c0-1.9,0-3.8,0-5.7c-0.9-0.2-1.8-0.3-2.8-0.5
		c0-0.8-0.1-1.5-0.1-2.2c0-10.4,0-20.7,0-31.1c0-4.7,0-9.5,0-14.2c0-0.5-0.2-1.1,0.2-1.5c0.1,0,0.1,0,0.2,0c22.3,0,44.5,0,66.8,0
		c0.1,0,0.3,0,0.4,0c0.1,0,0.2,0,0.3,0c0,0,0.1,0,0.1-0.1c0,0,0.1-0.1,0.1-0.1c0.2-1,0.2-1-0.2-1.9c-2,0-4.1,0-6.2,0
		c-2.1,0-4.2,0-6.2,0s-4.2,0-6.2,0s-4.2,0-6.2,0s-4.2,0-6.2,0s-4.2,0-6.2,0s-4.2,0-6.2,0c-2.1,0-4.1,0.1-6.3,0c0-4.2,0-8.3,0-12.4
		c0-4.1,0-8.2,0-12.3c0-4.1,0-8.3,0-12.4c0-4.1-0.2-8.1,0-12.3c14.8,0,29.4,0,44.1,0c0-0.4,0-0.7,0-0.9c-0.1-0.1-0.2-0.1-0.2-0.1
		c0,0-0.1,0-0.1,0c0,0-0.1,0-0.1,0c0,0-0.1,0-0.1,0c0,0-0.1,0-0.1,0c0,0-0.1,0-0.1,0c0,0-0.1,0-0.1,0c-22.5,0-45.1,0-67.6,0
		c-0.1,0-0.2,0-0.3,0c-0.1,0-0.2,0-0.3,0c0,0-0.1,0-0.1,0c-0.1,0-0.2,0-0.3,0c0,0-0.1,0-0.1,0c0,0-0.1,0-0.1-0.1
		c0,0-0.1-0.1-0.1-0.1c-0.2-2.6-0.1-7.7,0.2-8.8c0.6,0,1.3,0,1.9,0c15.2,0,30.4,0,45.5,0c7.2,0,14.4,0,21.7,0c0.6,0,1.2-0.1,1.8-0.1
		c0-321.5,0-642.9,0-964.2c-1.2-0.3-80.3-0.3-82-0.1c-0.2,0.3-0.4,0.6-0.7,1c-0.3-0.5-0.5-0.8-0.7-1.2c-22.3,0-44.6,0-66.6,0
		c-0.5-0.6-0.9-1-1.4-1.4c0-0.5,0-1.1,0-1.7c0-11.6,0-23.2,0-34.8c0-0.8-0.1-1.6-0.1-2.4c-1-0.1-2-0.1-2.8-0.2
		c-0.3-2.8-0.2-32.1,0.1-33.2c0.5,0,1.1,0.1,1.8,0.1c0,3.6,0,7,0,10.5c0,3.5,0,7,0,10.5c0,3.4-0.1,6.8,0.1,10.3c1,0,1.8,0.1,2.7,0.1
		c0.1,0.3,0.2,0.5,0.4,0.8c0.3,0.1,0.5,0.2,0.8,0.3c0,4.4,0,8.7,0,13c0,4.4,0,8.8,0,13.2c0,4.3,0,8.6,0,13.1c0.8,0,1.4,0,2.1,0
		c31,0,61.9,0,92.9,0c16.4,0,32.7,0,49.1,0c0.9,0,1.9,0.1,2.8,0.1c0.6,0,1.2,0.1,1.7-0.4c0-39,0-78,0-117c0-0.3,0-0.6-0.1-0.9
		c0,0,0-0.1-0.1-0.1c0,0-0.1-0.1-0.1-0.2c-0.1,0-0.3-0.1-0.5-0.1c-49.1,0-98.3,0-147.4,0.1c0,0-0.1,0-0.1,0.1c0,0-0.1,0.1-0.2,0.3
		c0,13.9,0,27.9,0,42c-0.7,0-1.3,0-2,0c0-0.8,0-1.5,0-2.3c0-32.1,0-64.1,0-96.2c0-0.4,0-0.8,0-1.2c0-0.4,0.1-0.8,0.2-1.1
		c0.3-0.2,0.6-0.3,0.8-0.4c0.1-0.6,0.1-1.2,0.1-1.7c0.3-0.2,0.6-0.3,0.9-0.4c0.1-1.1-0.2-2.3,1.1-2.9c0.1-0.6,0.1-1.1,0.2-1.7
		c0.2-0.1,0.5-0.3,0.8-0.4c0-0.5,0.1-1,0.1-1.5c0.2-0.2,0.5-0.4,0.7-0.6c0.2-1.1-0.2-2.4,1.1-3c0.1-0.6,0.1-1,0.1-1.4
		c0.3-0.2,0.6-0.4,0.8-0.5c0.1-0.6,0.1-1.2,0.1-1.7c0.3-0.2,0.6-0.4,0.9-0.5c0.3-1-0.2-2.2,1-2.8c0.1-0.6,0.1-1.2,0.2-1.7
		c0.3-0.2,0.6-0.3,0.8-0.5c0-0.6,0.1-1.1,0.1-1.6c0.3-0.1,0.6-0.2,0.9-0.4c0.1-0.8,0.2-1.7,0.3-2.4c0.3-0.2,0.6-0.3,0.8-0.5
		c0-0.6,0.1-1.1,0.1-1.7c0.3-0.2,0.5-0.3,0.7-0.4c0-0.5,0.1-1,0.1-1.5c0.5-0.2,1.1-0.3,1.5-0.5c0.5,0.2,1,0.3,1.4,0.5
		c0.2,1.2,0.1,2.2-0.9,2.9c-0.1,0.6-0.1,1.1-0.2,1.6c-0.3,0.1-0.5,0.3-0.8,0.4c-0.1,0.6-0.1,1.2-0.2,1.8c-0.4,0.2-0.7,0.3-0.9,0.4
		c-0.1,2.2-0.1,2.2-0.9,2.9c-0.1,0.5-0.1,1.1-0.2,1.7c-0.2,0.1-0.5,0.2-0.8,0.4c-0.1,0.5-0.1,1.1-0.2,1.6c-0.4,0.2-0.7,0.4-0.9,0.5
		c-0.1,0.6-0.1,1.2-0.1,1.7c-0.3,0.2-0.6,0.3-0.9,0.4c-0.2,1.1,0.2,2.3-0.9,2.9c-0.1,0.6-0.1,1.2-0.2,1.7c-0.4,0.2-0.7,0.3-0.9,0.5
		c-0.1,0.8-0.2,1.5-0.2,2.2c-0.3,0.3-0.6,0.5-0.8,0.7c-0.1,0.6-0.1,1.2-0.2,1.7c-0.4,0.2-0.6,0.4-0.9,0.5c0,0.6-0.1,1.1-0.1,1.5
		c-0.3,0.2-0.5,0.3-0.8,0.4c-0.1,0.9-0.1,1.6-0.2,2.5c-0.3,0.2-0.5,0.3-0.8,0.4c-0.1,0.3-0.2,0.6-0.2,0.8c-0.4,0.2-0.6,0.3-0.9,0.4
		c-0.2,2.9-0.1,53.2,0.1,54.4c0.6,0,1.2,0,1.9,0c47.9,0,95.7,0,143.6,0c0.3,0,0.7,0,1,0c0.3,0,0.7-0.1,1.1-0.2c0-1.2,0-2.3,0-3.4
		c0.3-0.3,0.5-0.5,0.7-0.7c0.3-4.8,0.1-114.8-0.1-116.1c-0.1,0-0.3-0.1-0.4-0.1c-37.1,0-74.2,0-111.3,0c-0.4,0-0.8,0-1.2,0.1
		c0,0-0.1,0-0.1,0.1c0,0-0.1,0.1-0.1,0.2C99.6,150.5,99.6,151,99.5,151.8z M68.5,34.4c-21.2-0.1-42.2,0.1-63,0
		c-0.5,0.6-0.9,1-1.2,1.4c0,17.4,0,34.8,0,52.3c0.7,0,1.3,0.1,2,0.1c13.2,0,26.4,0,39.6,0c8.3,0,16.7,0,25,0c0.2,0,0.4-0.1,0.5-0.2
		c0-14.8,0-29.5,0-44.3c-1-0.1-1.9-0.1-2.9-0.2C68.5,40.4,68.5,37.5,68.5,34.4z M218,1475.3c0-18.2,0-36.3,0-54.5
		c-0.6,0-1.2-0.1-1.8-0.1c-20.6,0-41.1,0-61.7,0c-0.2,0-0.5,0-0.7,0c-0.3,0-0.6,0.1-0.9,0.2c-0.3,2.1-0.2,42.9,0,44.4
		c0.6,0.1,1.2,0.2,1.9,0.3c0.1,3.3,0,6.5,0.1,9.8C175.9,1475.3,196.9,1475.3,218,1475.3z M218,87.8c0-8.8,0-17.7,0-26.5
		c0-8.9,0-17.8,0-26.7c-1-0.5-1.1-1.2-1.1-2.1c0-1.1,0-2.2,0-3.3c0-0.2,0-0.5,0-0.7c-0.3-0.2-0.5-0.4-0.8-0.6c0-0.5-0.1-1-0.1-1.4
		c-0.2-0.2-0.5-0.3-0.7-0.5c-0.1-0.5-0.2-1.1-0.3-1.6c-0.9-0.3-0.9-1.1-1.1-1.9c-0.3-0.1-0.5-0.2-0.7-0.3c-0.7-1.4-1.6-2.5-3-3.1
		c-0.1-0.3-0.2-0.5-0.3-0.6c-0.4-0.1-0.7-0.1-0.9-0.2c-0.1-0.3-0.3-0.6-0.4-0.8c-0.9-0.1-1.6-0.3-2.4-0.4c-0.2-0.3-0.4-0.5-0.6-0.8
		c-0.6,0-1.3,0-1.9,0c-16.2,0-32.4,0-48.6,0c0,0-0.1,0-0.1,0.1c0,0-0.1,0.1-0.2,0.2c0,1.7,0,3.5,0,5.3c0,1.8,0,3.6,0,5.4
		c0,1.8,0,3.7,0,5.5c0,1.8,0,3.6,0,5.4c0,1.8,0.1,3.6-0.1,5.4c-0.5,0.1-0.9,0.1-1.3,0.1c-2.7,0-5.4,0.1-8.2,0.1
		c-0.8,0-1.7,0-2.3,0.7c-0.2,0.2-0.7,0.3-1.1,0.4c-0.1,0.2-0.3,0.5-0.4,0.7c-0.6,0.1-1,0.1-1.4,0.1c-0.5,0.7-1,1.3-1.5,2
		c-0.2,0-0.4,0.1-0.7,0.2c-0.1,0.3-0.2,0.5-0.3,0.8c-0.2,0.1-0.5,0.2-0.7,0.3c-0.1,0.3-0.2,0.6-0.2,0.5c-0.8,0.6-1.3,1.1-1.8,1.5
		c-0.1,0.5-0.2,1-0.2,1.6c-0.2,0.1-0.4,0.2-0.7,0.3c-0.1,0.3-0.2,0.6-0.3,0.9c-0.3,0.2-0.6,0.3-0.8,0.4c-0.1,0.6-0.1,1.1-0.2,1.5
		c-0.3,0.1-0.5,0.2-0.8,0.3c-0.3,1,0.2,2.4-1,3c-0.1,1-0.1,1.8-0.2,2.6c-0.4,0.3-0.6,0.5-0.9,0.7c-0.2,2.3-0.2,5.7,0.2,6.8
		c4.2,0,8.5,0,12.6,0c0.5,0.4,0.8,0.7,1,0.9c0.4,0.7,0.7,1.2,1.1,1.9c0,0.4,0,1,0,1.6c0,4.1,0,8.3,0,12.4c0,0.8,0,1.6,0.3,2.3
		C146.8,88.2,216.7,88.1,218,87.8z M90.5,1455.1c0.1-0.6,0.2-1.2,0.3-1.6c0.4-0.2,0.6-0.3,0.8-0.4c0.1-0.7,0.1-1.2,0.1-1.7
		c0.3-0.2,0.5-0.3,0.7-0.5c0-0.6,0.1-1,0.1-1.5c0.3-0.2,0.6-0.3,0.9-0.4c0-1.5,0-3.1,0-4.6c0.4-0.2,0.7-0.3,1-0.5c0-1.6,0-3.2,0-4.9
		c-5,0-9.9,0-15,0c-0.1-5.8,0-11.4-0.1-16.8c-0.5-0.5-0.8-0.9-1.2-1.3c-24.3,0-48.5,0-72.5,0c-0.6,0.5-1,0.9-1.5,1.3
		c0,0.6,0,1.3,0,1.9c0,15.7,0,31.3,0,47c0,1.3-0.1,2.7,1,3.7c0.1,0.1,0.1,0.4,0.2,0.6c0.8,0,1.6,0,2.4,0c18.4,0,36.8,0,55.2,0
		c2.2,0,4.3,0,6.5-0.1c0.3,0,0.7-0.1,1-0.1c0.2-3.3,0-6.5,0.1-9.9c3.3,0,6.5,0,9.6,0c0.2-0.4,0.4-0.7,0.5-1c0.6,0,1.1-0.1,1.6-0.1
		c0.1-0.3,0.2-0.6,0.3-0.8c0.3-0.1,0.6-0.2,0.8-0.4c0.7-0.7,1.2-1.4,2-2.1c1-0.9,1.9-2,2.8-3c0.4-0.4,0.7-0.7,1.2-0.9
		c0.1-0.6,0.1-1.1,0.2-1.6C90,1455.4,90.2,1455.2,90.5,1455.1z M205.3,1503c0.8-0.1,1.7-0.2,2.5-0.3c0.2-0.3,0.4-0.6,0.5-0.9
		c0.5-0.1,1-0.1,1.6-0.2c-0.2-1,1.2-0.6,1.1-1.5c0.6-0.3,1-0.8,1.3-1.4c0.4-0.5,0.9-0.9,1.2-1.3c0.4-0.7,0.8-1.4,1.1-2
		c0.1,0,0.1,0.1,0.2,0.1c0.1-0.5,0.2-1.1,0.2-1.6c0.3-0.2,0.6-0.4,0.8-0.5c0.1-1.2-0.2-2.4,0.9-3c0.1-1.6-0.1-3.2,0.2-4.7
		c0.3-0.2,0.6-0.3,0.8-0.4c0.1-2.7,0.1-5.2,0-7.8c-21.1,0-42.1,0-63.1,0c0,8.4,0,16.8,0,25.1c0.4,0.4,0.8,0.7,1.2,1.1
		c16.2,0,32.4,0,48.7,0C204.9,1503.5,205.1,1503.3,205.3,1503z M7.2,1494.7c1.1,0.2,0.8,1.3,1.1,2c0.3,0.2,0.5,0.3,0.8,0.4
		c0.1,0.6,0.1,1,0.2,1.5c0.3,0.1,0.5,0.1,0.8,0.2c0.4,1.3,1.6,1.8,2.4,2.8c0.5,0.1,1,0.1,1.6,0.2c0.1,0.3,0.2,0.6,0.4,0.9
		c1.2,0.1,2.4,0.2,3.5,0.3c0.3,0.3,0.5,0.6,0.6,0.7c16.3,0,32.5,0,48.8,0c0.1-0.7,0.2-1.2,0.2-1.8c0-7.3,0-14.5,0-21.8
		c0-0.5-0.1-0.9-0.1-1.5c-20.7,0-41.3,0-61.9,0c-0.4,0.5-0.8,0.9-1.2,1.3c0,0.8,0,1.6,0,2.5c0.8,0.4,0.9,1.2,0.9,2
		c0,1.2,0.1,2.4,0.1,3.6c0,0.1,0,0.3,0.1,0.5c0.2,0.2,0.5,0.4,0.8,0.7c0.1,1.2,0.1,2.4,0.2,3.5c0.3,0.1,0.5,0.3,0.7,0.4
		C7.1,1493.5,7.1,1494,7.2,1494.7z M11.5,18.3c-0.6,1-1.4,1.6-2.1,2.2c-0.7,1.1-1.4,2.2-1.3,3.4c-0.4,0.2-0.7,0.4-0.9,0.5
		C7.1,25.1,7.1,25.6,7,26c-0.3,0.2-0.6,0.4-0.7,0.5c0,0.9-0.1,1.7-0.1,2.5c-0.3,0.2-0.5,0.3-0.8,0.5c0,0.6,0,1.1-0.1,1.9
		c0.7,0,1.3,0,1.9,0c19.8,0,39.5,0,59.3,0c0.3,0,0.7,0,1,0c0.3,0,0.6-0.1,0.9-0.2c0.2-2.7,0.1-13.9-0.1-15.1c-17.3,0-34.6,0-51.8,0
		c-0.2,0.3-0.4,0.5-0.6,0.8c-0.8,0.1-1.6,0.2-2.5,0.3c-0.2,0.3-0.3,0.6-0.4,0.9C12.5,18.2,12,18.3,11.5,18.3z M202.1,1381.5
		c-1.6-0.3-22.8-0.3-24,0c0,0.1-0.1,0.3-0.1,0.4c0,6.6,0,13.1,0,19.7c0,0.2,0,0.4,0.1,0.6c0,0,0,0.1,0.1,0.1c0,0,0.1,0.1,0.2,0.2
		c0.1,0,0.4,0.1,0.6,0.1c7.4,0,14.7,0,22.1,0c0.3,0,0.6-0.1,1.1-0.2c0-1.6,0-3.1,0-4.5c0.6-0.5,0.9-0.8,1.3-1.1
		c1.2-0.2,2.5,0.2,3.6-0.4c0.1-0.5,0.1-1,0.2-1.6c0.3-0.2,0.6-0.3,0.8-0.5c0-1.6,0-3.2,0-4.8c-0.3-0.2-0.5-0.4-0.8-0.6
		c-0.1-0.8-0.3-1.5-0.4-2.3c-1.6-0.1-3.1-0.2-4.7-0.3C202.1,1384.6,202.1,1383.1,202.1,1381.5z M206.8,110.4
		c-0.8-0.1-1.6-0.1-2.3-0.2c-0.8,0-1.6-0.1-2.4-0.1c-0.4-1.6,0.1-3.3-0.3-4.8c-8,0-15.9,0-23.8,0c0,7.1,0,14.1,0,21
		c1.6,0.3,22.7,0.2,24,0c0-1.6,0-3.1,0-4.6c0.5-0.5,0.9-0.8,1.5-1.3c1,0,2.2,0,3.4,0c0.1-0.7,0.2-1.2,0.2-1.7
		c0.3-0.2,0.5-0.3,0.8-0.4c0-1.6,0-3.2,0-4.8c-0.3-0.2-0.5-0.4-0.7-0.5C207.1,112.2,207,111.4,206.8,110.4z M44.4,1396.5
		c0-3.1,0-6,0-8.9c-0.3-0.1-0.6-0.2-0.9-0.3c-0.1-0.3-0.3-0.6-0.4-0.8c-1.5-0.4-3,0.2-4.4-0.5c-0.8-1.4-0.1-3.1-0.6-4.7
		c-1.5,0-3,0-4.5,0c-1.5,0-3.1,0-4.6,0c-1.6,0-3.2,0-4.7,0c-1.5,0-3.1,0-4.6,0c-1.5,0-3-0.1-4.6,0.1c0,7.1,0,14.1,0,21
		c0.2,0.1,0.3,0.2,0.3,0.2c0.1,0,0.3,0.1,0.4,0.1c7.1,0,14.2,0,21.3,0c0.2,0,0.5,0,0.7-0.1c0,0,0.1,0,0.1-0.1c0,0,0.1-0.1,0.2-0.2
		c0-1.3,0-2.8,0-4.1c0.6-0.5,1-0.9,1.5-1.3C41.2,1396.7,42.8,1396.6,44.4,1396.5z M15.2,126.5c0.4,0,0.6,0.1,0.8,0.1
		c7.4,0,14.7,0,22.1-0.1c0,0,0.1-0.1,0.1-0.1c0,0,0.1-0.1,0.2-0.2c0-1.4,0-2.9,0-4.2c0.6-0.6,1-1,1.4-1.4c1.5-0.2,3,0.2,4.5-0.4
		c0.3-1.8,0.2-7.4,0-8.3c-0.5-0.7-0.9-1.1-1.3-1.6c-1.4-0.3-3,0.2-4.6-0.4c0-1.5-0.1-3-0.1-4.5c-2-0.2-21.9-0.2-23.1,0.1
		C15.2,112.4,15.2,119.4,15.2,126.5z M212.1,1358.1c-0.7,0-1.3,0-1.9,0c-21.8,0-43.7,0-65.5,0c-0.3,0-0.6,0-0.9,0
		c-0.3,0-0.6,0.1-1,0.2c0,2,0,3.8,0,5.7c0.4,0,0.6,0.1,0.9,0.1c22.7,0,45.4,0,68.2-0.1c0,0,0.1,0,0.1-0.1c0,0,0.1-0.1,0.1-0.2
		C212.1,1362,212.1,1360.2,212.1,1358.1z M11.3,1364.1c0.8,0,1.4,0,2,0c12.8,0,25.5,0,38.3,0c8.9,0,17.8,0,26.7,0
		c0.7,0,1.4-0.1,2.2-0.1c0-2,0-3.9,0-5.7c-0.2-0.1-0.3-0.1-0.3-0.1c-22.6,0-45.2,0-67.8,0c-0.2,0-0.5,0-0.7,0c0,0-0.1,0-0.1,0.1
		c0,0-0.1,0.1-0.1,0.1C11.3,1360.2,11.3,1362.1,11.3,1364.1z M8.2,1341.8c0-0.5,0.1-0.9,0.1-1.2c0-28.1,0-56.3-0.1-84.4
		c0,0,0-0.1-0.1-0.1c0,0-0.1-0.1-0.2-0.2c-1.2,0-2.5-0.2-3.8,0.1c0,0.4-0.1,0.8-0.1,1.1c0,28.1,0,56.3,0.1,84.4c0,0,0,0.1,0.1,0.1
		c0,0,0.1,0.1,0.2,0.2C5.6,1341.8,6.9,1341.8,8.2,1341.8z M215.2,646.6c-0.1,0.3-0.1,0.4-0.1,0.6c0,28.5,0,57,0,85.5
		c0,0.2,0,0.4,0.1,0.6c0,0,0,0.1,0.1,0.1c0,0,0.1,0.1,0.2,0.2c0.8,0,1.7,0.2,2.6-0.2c0.2-2.6,0.1-85.6-0.1-86.9
		C217,646.6,216.1,646.6,215.2,646.6z M215.2,1255.9c-0.1,0.3-0.1,0.4-0.1,0.5c0,28.2,0,56.3,0,84.5c0,0.2,0,0.4,0.1,0.6
		c0,0,0,0.1,0.1,0.1c0,0,0.1,0.1,0.2,0.2c0.8,0,1.7,0.2,2.6-0.2c0-28.6,0-57.1,0-85.8C217,1255.9,216.1,1255.9,215.2,1255.9z
		 M215.2,1132.5c-0.3,1.7-0.2,83.7,0.1,84.9c0.9,0.1,1.8,0.3,2.7-0.1c0-28.2,0-56.4,0-84.7C217,1132.5,216.1,1132.5,215.2,1132.5z
		 M215.2,892.6c-0.2,1.6-0.2,83.8,0.1,85c0.9,0.1,1.8,0.2,2.7-0.1c0-28.3,0-56.6,0-84.9C217,892.6,216.1,892.6,215.2,892.6z
		 M215.2,1013.1c-0.3,1.7-0.2,83.7,0.1,84.8c1.4,0.2,1.7,0.2,2.7-0.1c0-28.2,0-56.4,0-84.7C217,1013.1,216.1,1013.1,215.2,1013.1z
		 M215.1,774.2c-0.2,2.3-0.2,83.7,0.1,84.8c0.9,0,1.8,0,2.7,0c0.3-2.2,0.2-83.7-0.1-84.8C217,774.2,216.1,774.2,215.1,774.2z
		 M216,530.3c0,8.1,0,16.1,0,24.1c-0.3,0.2-0.5,0.3-0.7,0.5c0,0.2-0.1,0.4-0.1,0.6c0,0.3-0.1,0.6-0.1,0.9c0,19.6,0,39.2,0.1,58.8
		c0,0,0,0.1,0.1,0.1c0,0,0.1,0.1,0.1,0.1c0.9,0,1.8,0,2.6,0c0.1-0.2,0.2-0.3,0.2-0.4c0-0.4,0-0.8,0-1.2c0-27.7,0-55.4,0-83.1
		c0,0,0-0.1,0-0.1c0,0-0.1-0.1-0.2-0.1C217.3,530.3,216.7,530.3,216,530.3z M60.4,1404.4c0-5,0-9.9,0-14.7c0-1.3,0-2.6-1-3.6
		c0-1.5,0-3,0-4.5c-0.4-0.2-0.7-0.4-0.9-0.5c-0.1-0.5-0.2-1-0.3-1.5c-0.2-0.1-0.4-0.2-0.6-0.3c-0.1-0.3-0.2-0.6-0.3-0.8
		c-0.3-0.2-0.6-0.3-0.9-0.4c-0.1-0.3-0.2-0.6-0.3-0.8c-0.7,0-1.2,0.1-1.8,0.1c-0.1,0.3-0.1,0.4-0.1,0.6c0,11.3,0,22.6,0,33.9
		c0,0.2,0,0.4,0.1,0.6c0,0,0,0.1,0.1,0.1c0,0,0.1,0.1,0.2,0.2c0.8,0,1.6,0,2.5,0c0.2-0.4,0.3-0.6,0.4-0.9c0.3-0.1,0.5-0.2,0.7-0.3
		c0.1-0.5,0.1-1,0.2-1.4c0.3-0.2,0.6-0.4,0.8-0.6c0.1-1.6,0.2-3.1,0.3-4.4C60,1404.8,60.2,1404.6,60.4,1404.4z M8.2,1217.4
		c0-8.5,0-16.8,0-25.1c-0.3-0.2-0.5-0.3-0.9-0.5c0-0.7-0.1-1.5-0.1-2.3c0-18.3,0-36.6,0-54.9c0-0.6,0-1.3,0-2c-0.7,0-1.3,0-1.8,0
		c-0.3,1.9-0.2,83.7,0.1,84.9C6.3,1217.4,7.2,1217.4,8.2,1217.4z M216.1,301.6c-0.1,0.3-0.1,0.4-0.1,0.6c0,27.8,0,55.6,0,83.4
		c0,0.2,0,0.5,0.1,0.7c0,0,0,0.1,0.1,0.1c0,0,0.1,0.1,0.2,0.2c0.5,0,1,0,1.5,0c0.1-0.2,0.2-0.3,0.2-0.4c0-27.8,0-55.5,0-83.3
		c0-0.4,0-0.8-0.1-1.2c0,0-0.1-0.1-0.1-0.1c0,0-0.1-0.1-0.1-0.1C217.3,301.6,216.7,301.6,216.1,301.6z M216.1,181.2
		c-0.1,0.3-0.1,0.4-0.1,0.5c0,27.8,0,55.6,0,83.4c0,0.2,0,0.4,0.1,0.6c0,0,0,0.1,0.1,0.1c0,0,0.1,0.1,0.1,0.1c0.6,0,1.1,0,1.7,0
		c0-28.3,0-56.5,0-84.8C217.3,181.2,216.7,181.2,216.1,181.2z M217.9,495.8c0.1-0.3,0.1-0.4,0.1-0.6c0-27.8,0-55.6,0-83.5
		c0-0.2,0-0.4-0.1-0.6c0,0,0-0.1-0.1-0.1c0,0-0.1-0.1-0.1-0.1c-0.5,0-1.1,0-1.6,0c-0.1,0.3-0.1,0.4-0.1,0.5c0,27.8,0,55.5,0,83.3
		c0,0.2,0,0.5,0.1,0.7c0,0,0,0.1,0.1,0.1c0,0,0.1,0.1,0.2,0.2C216.7,495.8,217.3,495.8,217.9,495.8z M7,1098
		c0.3-1.3,0.3-82.9,0-84.8c-0.5,0-1.1,0-1.7,0c0,0.2-0.1,0.4-0.1,0.5c0,27.8,0,55.6,0,83.4c0,0.2,0,0.4,0.1,0.6c0,0,0,0.1,0,0.1
		c0,0,0.1,0.1,0.2,0.2C6,1098,6.5,1098,7,1098z M5.3,731.6c0.7,0,1.2,0,1.7,0c0.2-1.7,0.2-83.8,0-84.9c-0.9-0.2-0.9-0.2-1.7,0.1
		C5.3,675.1,5.3,703.3,5.3,731.6z M5.4,892.6c-0.2,2-0.2,83.9,0.1,84.9c0.9,0.2,0.9,0.2,1.7-0.1c0-28.2,0-56.5,0-84.8
		C6.5,892.6,6,892.6,5.4,892.6z M5.4,530.3c-0.1,0.2-0.1,0.3-0.1,0.4c0,27.7,0,55.4,0,83.2c0,0.4,0,0.8,0.1,1.2c0,0,0,0.1,0.1,0.1
		c0,0,0.1,0.1,0.1,0.1c0.5,0,1,0,1.5,0c0.1-0.2,0.1-0.3,0.1-0.3c0-27.8,0-55.5,0-83.3c0-0.3,0-0.7-0.1-1c0,0,0-0.1,0-0.1
		c0,0-0.1-0.1-0.2-0.1C6.4,530.3,5.9,530.3,5.4,530.3z M5.3,774.2c0,0.4-0.1,0.7-0.1,1c0,27.9,0,55.7,0.1,83.6c0,0,0,0.1,0.1,0.1
		c0,0,0.1,0.1,0.1,0.1c0.5,0,1,0,1.6,0c0-28.3,0-56.5,0-84.9C6.5,774.2,6,774.2,5.3,774.2z M200.7,1373.3c-7.3,0-14.5,0-21.4,0
		c-0.6,0.6-0.9,0.9-1.4,1.4c0.1,1.1-0.1,2.4,0.1,3.6c0.3,0,0.5,0.1,0.7,0.1c7.4,0,14.8,0,22.2,0c0.3,0,0.6-0.1,1-0.2
		c0-1.3,0-2.6,0-3.8c-0.4-0.1-0.6-0.2-0.9-0.3C200.9,1373.8,200.8,1373.5,200.7,1373.3z M37.2,1373.3c-0.4,0-0.5-0.1-0.7-0.1
		c-6.5,0-12.9,0-19.4,0c-0.6,0-1.1,0.2-1.7,0.3c-0.5,1.6-0.3,3.2-0.3,4.6c0.2,0.1,0.3,0.2,0.4,0.2c0.3,0,0.7,0.1,1,0.1
		c7.2,0,14.3-0.1,21.5-0.1c0,0,0.1,0,0.1-0.1c0,0,0.1-0.1,0.1-0.2c0-1.2,0-2.4,0-3.6c-0.3-0.1-0.6-0.2-0.8-0.3
		C37.4,1373.8,37.3,1373.6,37.2,1373.3z M202,1405.8c-1.5-0.3-22.7-0.2-24,0c0,1.2,0,2.4,0,3.5c0.4,0.5,0.8,0.8,1.2,1.2
		c7.1,0,14.3,0,21.4,0c0.5-0.4,1-0.8,1.4-1.2C202,1408.3,202,1407.1,202,1405.8z M179.2,134.6c7.2,0,14.4,0,21.4,0
		c0.6-0.5,1-0.9,1.4-1.3c0-1.2,0-2.4,0-3.7c-8,0-15.9,0-23.9,0c0,1.3,0,2.5,0,3.6C178.4,133.7,178.8,134.1,179.2,134.6z M200.8,97.3
		c-7.3,0-14.5,0-21.5,0c-0.5,0.5-0.8,0.8-1.2,1.2c0,1.2,0,2.4,0,3.6c1.4,0.3,22.7,0.3,23.9,0c0-1.2,0-2.4,0-3.7
		c-0.3-0.1-0.6-0.2-0.9-0.3C200.9,97.7,200.9,97.5,200.8,97.3z M38.3,129.7c-0.2-0.1-0.3-0.2-0.3-0.2c-7.2,0-14.3,0-21.5,0
		c-0.3,0-0.7,0-1,0.1c0,0-0.1,0-0.1,0.1c0,0-0.1,0.1-0.2,0.2c0,1.4-0.2,3,0.2,4.6c1.8,0.3,21.8,0.3,23-0.1
		C38.3,132.8,38.5,131.3,38.3,129.7z M15.2,1410.4c2,0.3,21.7,0.3,23,0c0.3-1.8,0.3-3.6,0-4.7c-2.1-0.2-21.8-0.1-22.9,0.1
		C15.2,1407.4,15.2,1408.9,15.2,1410.4z M15.5,97.3c-0.7,1.6-0.3,3.2-0.4,4.6c1.2,0.3,21.8,0.4,23.2,0.1c0-1.2,0-2.4,0-3.5
		c-0.5-0.5-0.9-0.8-1.3-1.2C29.9,97.3,22.8,97.3,15.5,97.3z M5.5,301.6c-0.3,1.4-0.3,83.8,0,85.1c0.2,0,0.5-0.1,0.7-0.1
		c0.3-2.1,0.2-83.6-0.1-85C5.9,301.6,5.7,301.6,5.5,301.6z M6.3,266.1c0-0.7,0-1.3,0-1.9c0-27,0-54,0-81.1c0-0.5,0-1,0-1.5
		c0-0.1-0.1-0.3-0.2-0.4c-0.2,0-0.5,0.1-0.8,0.1c0,0.6,0,1.1,0,1.7c0,27.1,0,54.2,0,81.4c0,0.4,0,0.9,0,1.3c0,0.1,0.1,0.3,0.2,0.4
		C5.7,266.1,5.9,266.1,6.3,266.1z M6.3,495.8c0-28.2,0-56.2,0-84.3c0-0.2-0.1-0.4-0.2-0.6c-0.3,0-0.5,0-0.9,0c0,0.6,0,1.2,0,1.8
		c0,27.1,0,54.1,0,81.2c0,0.5,0,1,0,1.5c0,0.1,0.1,0.3,0.2,0.4C5.7,495.8,5.9,495.8,6.3,495.8z"/>
	<path d="M74.5,0c0,0.3,0,0.6,0,0.9c0.6,0.1,1.2,0.3,1.8,0.4c0.1,0.2,0.2,0.4,0.4,0.7c0.5,0.1,1,0.1,1.4,0.2c0.5,0.4,1.1,0.6,1.3,1
		c0.3,0.4,0.3,1.1,1,0.9c0.1,0.4,0.2,0.6,0.3,0.8c0.3,0.1,0.5,0.2,0.9,0.3c0,1.2,0,2.4,0,3.6c-0.3,0.1-0.6,0.3-0.9,0.4
		c-0.1,0.2-0.2,0.4-0.3,0.7c-0.5,0.1-0.9,0.2-1.4,0.2c-0.3,1.2-0.4,21.3-0.1,24.9c0.3,0.4,0.7,0.8,1.1,1.3c20.9,0,41.8,0,62.8,0
		c0.4-0.4,0.8-0.7,1.3-1.1c0-8.3,0-16.6,0-25c-0.6-0.1-1.2-0.2-1.8-0.2c-0.1-0.2-0.2-0.5-0.3-0.7c-0.3-0.1-0.6-0.2-0.9-0.3
		c0-1.2,0-2.4,0-3.6c0.3-0.1,0.5-0.2,0.9-0.3c0.1-0.2,0.2-0.5,0.3-0.8c0.3-0.1,0.5-0.2,0.8-0.3c0.1-0.3,0.2-0.5,0.2-0.6
		c0.6-0.4,1.1-0.7,1.8-1.1c0.1,0,0.5-0.1,1.1-0.2c0.6-1.2,1.8-0.8,2.9-1.1c0-0.3,0-0.7,0-1c4.4,0,8.7,0,13.1,0c0,0.3,0,0.6,0,0.9
		c0.7,0.1,1.3,0.2,1.9,0.4c0.1,0.5,0.2,1,0.4,1.6c7.8,0.1,15.7-0.1,23.6,0.1c0.2,0.3,0.4,0.6,0.6,0.9c0.8,0.1,1.6,0.2,2.4,0.3
		c0.2,0.3,0.3,0.6,0.4,0.8c0.5,0.1,1,0.1,1.3,0.2c0.9,0.8,1.7,1.5,2.6,2.4c0,0.3,0.1,0.7,0.1,1.1c-0.5,0.4-1,0.8-1.7,1.4
		c-15.2,0-30.8,0-46.5,0c0,0.7-0.1,1.2-0.1,1.8c0,7.8,0,15.6,0,23.3c0,0.6,0,1.2,0,1.8c-0.3,0.2-0.6,0.3-0.9,0.4
		c-0.1,0.3-0.2,0.5-0.3,0.8c-0.2,0-0.3,0.1-0.4,0.1c-0.6,0-1.3,0.1-1.9,0.1c-21.4,0-42.8,0-64.2,0c-0.8,0-1.6-0.1-2.5-0.1
		c-0.1-9.4,0-18.7-0.1-28.2c-3.3-0.2-6.4-0.1-9.6-0.1c-3.2,0-6.4,0-9.6,0c-3.2,0-6.3,0-9.5,0c-3.2,0-6.4,0-9.6,0c-3.2,0-6.3,0-9.4,0
		c-0.4-0.5-0.8-1-1.2-1.6c-0.1-1.2,0.8-1.9,1.8-2.5c0.1-0.2,0.2-0.5,0.3-0.7c0.6-0.1,1.1-0.2,1.7-0.2c0.1-0.3,0.3-0.5,0.4-0.8
		C32.5,4.1,33.3,4,34.1,4c0.2-0.3,0.3-0.5,0.6-0.9c7.5,0,15,0,22.5,0c0.6-0.6,1-1.1,1.6-1.8c0.3,0,0.9-0.1,1.6-0.2c0-0.4,0-0.7,0-1
		C65.2,0,69.8,0,74.5,0z"/>
	<path d="M75.4,1510c0-0.7,0.1-1.3,0.1-1.9c0-8,0-15.9,0-23.9c0-0.7,0.1-1.5,0.2-2.3c0.5-0.1,0.9-0.3,1.4-0.3
		c0.7-0.1,1.5-0.1,2.2-0.1c21.2,0,42.4,0,63.6,0c0.9,0,1.8,0.1,2.8,0.1c0,4.8,0,9.5,0,14.1c0,4.7,0,9.4,0,14.2
		c0.9,0,1.7,0.1,2.4,0.1c11.6,0,23.2,0,34.9,0c2.9,0,5.8,0,8.7,0c0.6,0,1.2,0,1.7,0c0.6,1.1,0.6,1.1,0.5,2.6
		c-0.3,0.1-0.6,0.3-0.9,0.4c-0.1,0.2-0.1,0.4-0.2,0.7c-0.2,0-0.4,0.1-0.7,0.2c-0.1,0.2-0.2,0.5-0.4,0.8c-0.5,0-1,0.1-1.5,0.1
		c-0.1,0.2-0.2,0.5-0.4,0.9c-0.8,0.1-1.6,0.1-2.6,0.2c-0.2,0.2-0.4,0.5-0.7,0.9c-7.4,0-14.8,0-22.3,0c-0.1,0.4-0.2,0.6-0.3,0.7
		c-0.5,0.5-0.9,0.8-1.4,1.2c-0.9,0.1-2,0-2.6,1.1c-3.7,0-7.3,0-11,0c-0.5-1.2-1.7-1-2.6-1.2c-0.2-0.2-0.4-0.4-0.6-0.6
		c-0.5-0.1-0.9-0.1-1.4-0.2c-0.1-0.3-0.3-0.6-0.4-0.9c-0.5-0.1-1-0.2-1.3-0.2c-0.6-0.5-1-0.9-1.6-1.5c-0.1-1.6-0.4-3.3,0.2-5
		c0.6-0.1,1.1-0.3,1.7-0.4c0.2-1.7,0.1-3.4,0.1-5.2c0-1.7,0-3.5,0-5.2c0-1.7,0-3.5,0-5.2s0-3.5,0-5.2c0-1.7,0.1-3.5-0.1-5.1
		c-1.4-0.3-58.6-0.4-63-0.2c-0.3,0.2-0.6,0.5-1,0.8c0,8.4,0,16.8,0,25.3c0.5,0.1,1,0.3,1.5,0.4c-0.1,0.1-0.2,0.2-0.3,0.3
		c0.4,0.3,0.7,0.6,1.1,1c0.1-0.1,0.2-0.1,0.3-0.2c0.1,0.4,0.2,0.9,0.3,1.3c-0.7,0.9-1.2,1.8-1.1,2.9c-0.5,0.4-0.9,0.8-1.6,1.4
		c-0.1,0-0.6,0.1-1.2,0.2c-0.1,0.3-0.2,0.5-0.3,0.8c-0.5,0.1-1,0.2-1.6,0.3c-0.2,0.2-0.4,0.4-0.6,0.7c-0.5,0-0.9,0.1-1.4,0.1
		c-0.1,0.3-0.3,0.5-0.5,1c-3.6,0.1-7.3,0.1-11,0c-0.3-0.3-0.5-0.6-0.8-0.9c-0.8-0.1-1.7-0.1-2.3-0.4c-0.7-0.3-1.2-0.9-1.6-1.7
		c-3.7,0-7.3,0-11,0c-3.6,0-7.2,0-10.9,0c-1-1.5-2.6-0.8-3.9-1.3c-0.1-0.2-0.2-0.4-0.4-0.7c-0.5-0.1-1.1-0.1-1.7-0.2
		c-0.1-0.2-0.3-0.4-0.4-0.7c-0.3-0.1-0.6-0.2-0.6-0.2c-0.5-0.6-0.8-1-1.2-1.4c-0.1-1.2-0.1-1.2,0.4-2.3c0.6,0,1.4-0.1,2.1-0.1
		c14.5,0,29,0,43.5,0C74.1,1510.1,74.7,1510,75.4,1510z"/>
	<path d="M160,29.4c16.3,0,32.5,0,48.7,0c0.3,1.2,0.4,47.2,0.1,50.3c0,0-0.1,0.1-0.1,0.1c0,0-0.1,0.1-0.1,0.1c-0.3,0-0.7,0-1,0
		c-15.8,0-31.6,0-47.3,0c-0.1-0.1-0.2-0.1-0.2-0.2c0,0-0.1-0.1-0.1-0.1c0-16.4,0-32.9-0.1-49.3C159.9,30,159.9,29.7,160,29.4z
		 M186.6,37.3c-1.2,0.1-2.3,0.1-3.4,0.2c-0.2,0.3-0.4,0.6-0.6,0.8c-1.2,0.1-2.4,0.2-3.4,0.3c-0.2,0.4-0.3,0.6-0.4,0.8
		c-0.7,0.1-1.2,0.1-1.9,0.2c0,1.3-0.1,2.6,0.1,3.9c1,0.1,1.9,0.1,2.7,0.2c0.2,0.3,0.4,0.5,0.6,0.9c1.1,0,2.3,0,3.4,0
		c0.3,0.4,0.4,0.6,0.6,0.8c0.8,0.1,1.6,0.2,2.4,0.2c0,0.2,0.1,0.4,0.1,0.6c-0.9,0.2-1.7,0.3-2.5,0.5c-0.2,0.3-0.3,0.5-0.5,0.7
		c-1.2,0.1-2.4,0.1-3.5,0.2c-0.3,0.4-0.5,0.7-0.7,0.9c-0.5,0-0.9,0-1.4,0c-0.4,0-0.8,0.1-1.3,0.1c-0.1,1.4-0.2,2.6,0.1,3.9
		c0.6,0.1,1.2,0.1,1.8,0.1c0.2,0.3,0.3,0.5,0.5,0.8c1,0.1,2.1,0.2,3.4,0.3c1,1.3,2.7,0.5,4.1,1c0.1,0.3,0.3,0.5,0.4,0.8
		c1.2,0,2.4,0,3.5,0c0.2,0.4,0.3,0.7,0.5,1c0.3-0.1,0.5-0.1,0.8-0.1c0-0.9,0-1.8,0-2.7c-0.6-0.1-1.1-0.2-1.6-0.3
		c-0.2-0.3-0.4-0.6-0.6-0.9c-1.2,0-2.4,0-3.5,0c-0.2-0.4-0.3-0.6-0.4-0.9c-1.3-0.1-2.5-0.1-3.7-0.2c-0.1-0.7-0.2-1.2,0.2-1.8
		c1.2,0,2.3,0,3.5,0c0.2-0.4,0.4-0.7,0.6-1c1.2,0,2.3,0,3.4,0c0.2-0.4,0.4-0.7,0.5-0.9c0.6-0.1,1.1-0.1,1.6-0.2c0-1,0-1.9,0-2.8
		c-0.6-0.1-1.1-0.1-1.7-0.2c-0.2-0.3-0.3-0.6-0.4-0.9c-1.2-0.1-2.3-0.1-3.4-0.2c-0.2-0.4-0.4-0.7-0.6-1c-0.7,0-1.2,0-1.8,0
		c-0.6,0-1.2-0.1-1.8-0.1c0-0.6,0-1.1,0-1.7c1.3-0.1,2.5-0.1,3.7-0.2c0.2-0.3,0.3-0.6,0.5-1c1.2,0,2.3,0,3.4,0
		c0.2-0.3,0.4-0.6,0.5-0.9c0.6-0.1,1.1-0.2,1.6-0.3c0-1,0-1.8,0-2.7c-0.4,0-0.6,0-0.8,0c-0.2,0.3-0.4,0.6-0.5,0.9
		c-1.2,0-2.3,0-3.4,0C186.9,36.8,186.8,37.1,186.6,37.3z M188.8,72.8c0.2-0.4,0.3-0.7,0.4-0.9c0.6-0.1,1-0.1,1.5-0.2
		c0.1-0.3,0.2-0.5,0.3-0.7c0.3-0.1,0.6-0.3,0.9-0.4c0-0.9,0.1-1.8,0.1-2.6c0.3-0.2,0.6-0.4,0.9-0.6c-0.1-0.5-0.1-1-0.2-1.4
		c-0.3-0.2-0.5-0.3-0.7-0.4c-0.1-1.2-0.2-2.3-0.2-3.5c-0.6-0.3-0.9-0.6-1.1-1.2c-0.2-0.4-0.9-0.6-0.9-1.2c-0.6-0.1-1.1-0.2-1.6-0.3
		c-0.2-0.3-0.4-0.6-0.5-0.8c-2.6,0-5.1,0-7.7,0c-0.1,0.3-0.2,0.6-0.3,0.9c-1.3,0.4-1.8,1.7-2.8,2.5c0,0.7-0.6,0.6-0.9,1
		c0,1.9,0,3.9,0,5.7c0.4,0.2,0.6,0.3,0.8,0.4c0.1,0.7,0.1,1.2,0.2,1.9c1.1-0.4,0.9,1.1,1.8,1.1c0.1,0,0.2,0.4,0.4,0.6
		c0.9,0.2,1.8,0.5,2.7,0.1c0-0.9,0-1.8,0-2.7c-0.6-0.1-1.2-0.2-1.8-0.3c-0.1-0.3-0.2-0.6-0.3-0.8c-0.3-0.1-0.5-0.2-0.6-0.2
		c-0.3-0.8-0.6-1.5-0.9-2.2c-0.1,0-0.1,0-0.2,0.1c0-0.4,0-0.9,0-1.4c0.3-0.2,0.5-0.4,0.7-0.5c0.1-0.6,0.2-1.1,0.3-1.4
		c0.8-0.5,1.5-0.9,2.3-1.3c2,0,4.2,0,6,0c0.6,0.5,1,0.8,1.4,1.1c0.1,0.2,0.1,0.4,0.2,0.6c0.3,0.1,0.6,0.2,0.7,0.3c0,1.6,0,3,0,4.5
		c-0.1,0-0.1,0-0.2-0.1c-0.3,0.4-0.7,0.9-1,1.4c-0.5,0.1-1,0.2-1.6,0.2c0,1,0,1.9,0,2.9C187.6,72.8,188.2,72.8,188.8,72.8z"/>
	<path d="M66.4,1474.4c-16.3,0-32.7,0-49,0c-0.3-0.4-0.5-0.8-1-1.4c0-16.1,0-32.5,0-49c0.3-0.3,0.6-0.5,1-0.8c16.3,0,32.6,0,49,0
		c0.3,0.2,0.6,0.5,0.9,0.7c0,16.5,0,33,0,49.6C67,1473.7,66.7,1474,66.4,1474.4z M35.8,1437.5c-0.1,0.2-0.2,0.4-0.2,0.5
		c1.1,0,2.2,0,3.1,0c0.4,0.4,0.6,0.7,0.9,1c0.7,0,1.4,0,2.1,0c0.4,0,1.1,0.1,1.2,0.3c0.3,0.7,1,0.6,1.5,0.8c0,0.2,0,0.4,0,0.6
		c-0.7,0-1.3,0.1-2,0.1c-1,1.6-2.6,0.7-4,1.1c-0.2,0.2-0.4,0.5-0.6,0.8c-1.1,0.1-2.3,0.1-3.5,0.2c0,1.4,0,2.6,0,3.9
		c1,0.1,1.8,0.1,2.7,0.2c0.1,0.2,0.2,0.3,0.2,0.5c0.1,0.1,0.1,0.2,0.3,0.5c1.1,0,2.3,0,3.4,0c0.2,0.4,0.3,0.7,0.5,1
		c0.9,0,1.9,0,2.7,0c1.1,1.5,2.8,0.6,4.1,1.1c0.1,0.3,0.3,0.5,0.4,0.8c0.3,0,0.5,0,0.8-0.1c0.2-1,0.2-1.9,0-2.8
		c-0.6-0.1-1.2-0.1-1.8-0.2c-0.1-0.3-0.3-0.6-0.4-0.9c-1.2-0.1-2.4-0.1-3.5-0.2c-0.2-0.4-0.4-0.6-0.7-1c-1.1,0-2.3,0-3.6,0
		c0-0.6,0-1.1,0-1.6c1.2-0.1,2.4-0.2,3.5-0.3c0.2-0.4,0.4-0.6,0.6-0.9c0.9,0,1.8,0,2.8,0c0.6-1.5,2.1-0.7,3.2-1.2c0-0.9,0-1.8,0-2.7
		c-0.6-0.2-1.1-0.3-1.7-0.5c-0.2-0.3-0.4-0.5-0.6-0.8c-0.9,0-1.8,0-2.6,0c-0.2-0.3-0.4-0.6-0.6-0.9c-1.1-0.1-2.2-0.2-3.2-0.3
		c-0.6-0.4-1-0.8-1.4-1.2c0-0.2,0.1-0.4,0.1-0.6c0.9,0,1.8,0,2.7,0c0.2-0.3,0.4-0.5,0.7-0.9c1.4-0.1,2.9-0.2,4.3-0.2
		c0.2-0.4,0.3-0.6,0.4-0.9c0.6-0.1,1.2-0.2,1.8-0.2c0-1,0.2-1.9-0.1-2.8c-0.6,0-1.2,0-1.8,0c-0.2,0.3-0.3,0.6-0.5,0.9
		c-1.2,0.1-2.4,0.1-3.6,0.2c-0.2,0.4-0.3,0.6-0.4,0.9c-1.2,0.1-2.3,0.1-3.4,0.2c-0.3,0.3-0.4,0.6-0.6,0.9c-1.1,0-2.3,0-3.1,0
		c-0.7,0.6-1.2,1-1.7,1.4c0,0.8,0,1.6,0,2.2C35,1436.9,35.4,1437.2,35.8,1437.5z M33.3,1458.4c0,1.6,0,3.1,0,4.6
		c0.3,0.2,0.7,0.4,1,0.5c0.1,0.6,0.1,1.1,0.2,1.6c0.3,0.1,0.5,0.3,0.8,0.4c0.1,0.3,0.2,0.6,0.3,0.8c0.6,0.1,1.1,0.1,1.5,0.2
		c0.2,0.3,0.3,0.5,0.4,0.8c0.7,0,1.3,0.2,1.9-0.2c0-0.9,0-1.8,0-2.7c-0.7-0.1-1.2-0.1-1.9-0.2c-0.1-0.3-0.2-0.5-0.3-0.8
		c-0.3-0.1-0.5-0.3-0.7-0.4c-0.1-0.6-0.2-1.1-0.3-1.5c-0.3-0.2-0.6-0.4-0.7-0.5c0-0.6,0-1.1,0-1.6c0.3-0.1,0.6-0.2,0.9-0.4
		c0.1-0.4,0.2-0.9,0.2-1.2c0.5-0.6,0.9-1,1.3-1.6c0.7-0.1,1.5-0.1,2.3-0.2c0.1-0.1,0.1-0.3,0.2-0.4c0.1-0.2,0.2-0.3,0.3-0.4
		c1,0.1,1,0.1,1.9,0.9c0.8,0,1.7,0,2.5,0c0.1,0.4,0.3,0.6,0.3,0.8c0.5,0.2,1,0.3,1.5,0.5c0.6,1.5,0.2,3,0.3,4.5
		c-0.4,0.2-0.7,0.4-1,0.5c-0.1,0.5-0.2,0.9-0.4,1.3c-0.3,0.2-0.6,0.4-0.8,0.6c0.1,0.9-0.2,1.8,0.2,2.7c0.3,0,0.5,0,0.7,0
		c0.2-0.3,0.3-0.5,0.4-0.7c0.6-0.1,1.1-0.1,1.4-0.2c0.5-0.9,0.9-1.6,1.5-2.7c0-0.2,0-0.7,0.1-1.1c1.1-0.9,0.8-2.1,0.8-3.1
		c-0.3-0.2-0.5-0.3-0.8-0.5c-0.1-0.9-0.1-1.7-0.2-2.6c-0.3-0.1-0.6-0.2-0.7-0.2c-0.6-0.7-1.1-1.3-1.7-2c-0.1,0-0.4-0.1-0.6-0.1
		c-0.2-0.2-0.3-0.5-0.5-0.8c-2.8,0-5.6,0-8.2,0c-0.9,0.8-1.6,1.4-2.3,2c-0.1,0.3-0.1,0.6-0.2,0.8c-0.3,0.1-0.6,0.2-0.8,0.2
		c-0.1,0.6-0.2,1.1-0.2,1.6C33.9,1458.1,33.6,1458.3,33.3,1458.4z"/>
</g>
</svg>
