<?xml version="1.0" encoding="UTF-8" standalone="no"?>
<!-- Created with Inkscape (http://www.inkscape.org/) -->

<svg
   xmlns:dc="http://purl.org/dc/elements/1.1/"
   xmlns:cc="http://creativecommons.org/ns#"
   xmlns:rdf="http://www.w3.org/1999/02/22-rdf-syntax-ns#"
   xmlns:svg="http://www.w3.org/2000/svg"
   xmlns="http://www.w3.org/2000/svg"
   xmlns:xlink="http://www.w3.org/1999/xlink"
   xmlns:sodipodi="http://sodipodi.sourceforge.net/DTD/sodipodi-0.dtd"
   xmlns:inkscape="http://www.inkscape.org/namespaces/inkscape"
   width="210mm"
   height="297mm"
   viewBox="0 0 744.09448819 1052.3622047"
   id="svg3715"
   version="1.1"
   inkscape:version="0.91 r13725"
   sodipodi:docname="carriage_h_2.svg">
  <defs
     id="defs3717" />
  <sodipodi:namedview
     id="base"
     pagecolor="#ffffff"
     bordercolor="#666666"
     borderopacity="1.0"
     inkscape:pageopacity="0.0"
     inkscape:pageshadow="2"
     inkscape:zoom="0.35"
     inkscape:cx="375"
     inkscape:cy="520"
     inkscape:document-units="px"
     inkscape:current-layer="layer1"
     showgrid="false"
     inkscape:window-width="1440"
     inkscape:window-height="852"
     inkscape:window-x="0"
     inkscape:window-y="0"
     inkscape:window-maximized="1" />
  <metadata
     id="metadata3720">
    <rdf:RDF>
      <cc:Work
         rdf:about="">
        <dc:format>image/svg+xml</dc:format>
        <dc:type
           rdf:resource="http://purl.org/dc/dcmitype/StillImage" />
        <dc:title></dc:title>
      </cc:Work>
    </rdf:RDF>
  </metadata>
  <g
     inkscape:label="Layer 1"
     inkscape:groupmode="layer"
     id="layer1">
    <g
       id="g3889"
       transform="matrix(0,-1,1,0,-688.01429,454.94078)">
      <defs
         id="defs3891">
        <rect
           height="1445"
           width="222"
           id="SVGID_1_"
           x="0"
           y="0" />
      </defs>
      <clipPath
         id="SVGID_2_">
        <use
           id="use3895"
           style="overflow:visible"
           xlink:href="#SVGID_1_"
           x="0"
           y="0"
           width="100%"
           height="100%" />
      </clipPath>
      <path
         clip-path="url(#SVGID_2_)"
         id="path3897"
         d="m 149,1445 c -1.2,-1.5 -3.1,-1.3 -4.6,-2 -1.6,-0.7 -3.3,-1.4 -4.8,-2.1 l 0,-2.4 c 1,-0.7 2.1,-1.3 3.1,-2 0,-6.3 0,-18.6 0,-18.6 l -64.6,-0.1 0,19.7 c 0.5,0.2 1.1,0.4 1.8,0.6 l 0,2.5 c -2.3,1.4 -4.5,3.2 -7.5,3.4 -0.3,0 -0.6,0.6 -0.8,1 -2.1,0 -4.2,0 -6.4,0 0,-0.2 0,-0.5 0,-0.5 -3,-0.5 -5.9,-1.3 -8.9,-1.5 -3.9,-0.3 -7.8,0.1 -11.7,-0.1 -4.1,-0.2 -8.2,-0.4 -12.3,-1.1 -1.6,-0.3 -4.1,-0.8 -4.4,-3.3 0.2,-0.2 0.2,-0.4 0.4,-0.5 0.1,-0.1 0.3,-0.2 0.4,-0.2 15.5,0 31.1,0 47,0 l 0,-22.4 70.1,0 c 0,6.2 0,12.4 0,18.7 0,1.4 -0.3,2.8 2.5,3.7 l 44.3,0 c 1.5,1.3 -0.2,3.5 -5.8,4.5 -0.8,0.1 -2,0.3 -3,0.3 -3,0 -6,0.2 -9,0 -4.7,-0.4 -13.4,1.5 -18.1,1.5 -0.1,0 -0.2,0.5 -0.4,0.8 -2.4,0.1 -4.8,0.1 -7.3,0.1"
         class="st0"
         inkscape:connector-curvature="0" />
      <path
         clip-path="url(#SVGID_2_)"
         id="path3899"
         d="m 76.8,0 c 1.5,1.2 2.9,2.4 4.3,3.6 C 81,4.5 81,5.1 81,5.7 80.3,6 79.7,6.2 79,6.4 l 0,20.1 5.2,0 c 18,0 36,0 54,0 l 6.3,0 0.1,-20.3 -3.9,0 c -0.1,-0.9 -0.2,-1.7 -0.3,-2.8 0.9,-0.6 1.8,-1.3 2.8,-2.1 0.9,-1.1 2.9,0.7 3.7,-1.5 l 17,0 c 0,1.4 1.1,1 1.9,1 4.9,0 9.9,0.2 14.8,0 4.8,-0.2 9.2,1.3 13.5,3.1 0.3,0.1 0.5,0.8 0.6,1.1 -0.1,0.3 -0.2,0.4 -0.3,0.6 -0.1,0.1 -0.3,0.3 -0.4,0.3 -15.5,0 -31.1,0 -47,0 l 0,22.3 -70,0 C 76.5,21 77,13.6 76.7,5.9 l -48.2,0 C 29.3,4.6 29.6,3.5 30.3,3.2 33,2.2 35.7,1 38.8,1 c 6.4,0.1 12.7,0 19.1,0 0.8,0 1.9,0.4 1.9,-1 l 17,0 z"
         class="st0"
         inkscape:connector-curvature="0" />
      <path
         clip-path="url(#SVGID_2_)"
         id="path3901"
         d="m 71.6,10.2 0,22.4 79.3,0 0,-22.2 c 1.5,-0.1 2.9,-0.2 4.2,-0.2 16.3,0 32.5,0 48.8,0 8.7,0 13.7,4.5 16.1,11.5 1.4,4 2.2,8.1 2.2,12.4 -0.1,459.2 -0.1,918.4 0,1377.5 0,4.5 -1.3,8.6 -2.6,12.8 -0.3,0.9 -3.4,5.1 -4.5,6.4 -3,3.8 -7.6,4.8 -12.2,4.9 -13.1,0.3 -26.2,0.1 -39.3,0.1 l -12.5,0 0,-24.4 -79.4,0 0,24.2 c -1.5,0.1 -2.9,0.2 -4.2,0.2 -16.1,0 -32.2,0 -48.3,0 -5.8,0 -10.3,-2.6 -13.4,-6.8 -3.6,-4.9 -5.5,-10.4 -5.5,-16.7 0.1,-460.2 0.1,-920.4 0,-1380.6 0,-5.4 1.9,-10.1 4.4,-14.6 1.7,-3.2 5.2,-4.5 8.5,-5.8 1.5,-0.6 3.2,-1 4.9,-1 17.6,-0.1 35.3,-0.1 53.5,-0.1 m 19.4,137.7 43.9,-0.1 0,-24.3 c -0.6,0 -19.3,10.7 -28.5,15.8 -1.9,1.1 -16.7,8.8 -16.7,8.8 l -3.8,0 c 0,0 35.4,-19.3 38.7,-21.1 4,-2.2 8,-4.4 12.6,-6.9 0,2.7 0,5 0,7.3 0,2.2 0,4.4 0,6.6 0,2.4 -0.1,13.8 -0.1,13.8 l 2.2,0 0,-65.3 79.4,0 0,-8.2 c 0,0 -39,0.1 -38.9,0 12.3,-12.1 25.6,-25.1 37.9,-37.2 l 0,-4.3 -63.7,0 0,2.8 -85.9,-0.1 c 0,0 0,-1.9 -0.1,-2.7 l -64.3,0 0,2.5 c 12.5,12 41.1,39.4 41.1,39.4 l -41,-0.1 0,6.2 63.3,0 c 0,0 -0.9,56 -0.9,67.3 l 8.3,0 c 3.2,0 5.9,0.1 9.5,0.1 m 128.5,1138.4 0,-794.2 c -18,-0.8 -198,-0.4 -202.4,0.3 l 0,793.9 202.4,0 z M 132,480.8 l 80.5,0 0,-329.5 -202.4,0 0,329.8 79.5,0 0,9 42.4,0 0,-9.3 z m 80.6,915 -18,0 0.2,-19.7 c 0,0 -11.9,-13 -18,-18.9 l 35.8,0 0,-10.1 -74.4,-0.1 0,-57.1 -53,0 0,57.2 -75,0 0,9.3 34.2,-0.2 c 0,0 -14.6,14.5 -20.9,20.6 l 0,19.4 -14.5,0 0,12.9 58.9,0 c -1.4,-0.6 -2,-0.9 -2.6,-1.2 l 0,-14.8 91.9,0.1 0.1,14.9 c -0.8,0.2 -1.3,0.3 -1.9,0.5 0,0.2 0.1,0.3 0.1,0.5 l 57.1,0 0,-13.3 z m -146.2,-1.8 0,13 c 18,0.7 85.4,0.4 89.9,-0.3 l 0,-12.7 -89.9,0 z m -57.5,32.1 c 3.5,4.3 8,5.7 13.2,5.7 13.3,-0.1 26.5,0 39.8,0 l 5.2,0 0,-20.2 -58.2,0 0,14.5 z m 146.6,5.6 c 13.5,0 26.6,0 39.7,0 4.6,0 9.5,0.9 13.5,-1.1 2.3,-1.1 2.8,-2.4 3.8,-3.3 l 0,-15.9 -57,0 0,20.3 z m 34.8,-127.5 -48.7,0 c 0,7.9 -0.1,15.6 0.1,23.2 l 48.7,0 0,-23.2 z M 4.6,31.5 l 63.5,0 0,-17.2 c -16.3,0 -32.4,0 -48.4,-0.1 -2.3,0 -4.6,0.5 -6.2,1.5 -6.1,3.5 -8.9,8.9 -8.9,15.8 m 150.9,0 62.4,0 c 0.2,-2.7 -0.2,-4.7 -1,-6.8 -2,-5.1 -5.9,-10.5 -13.4,-10.5 -14.5,0.1 -28.9,0 -43.4,0 l -4.6,0 0,17.3 z m 57,1278.6 0,-21.1 -70.8,0 0,11.9 55.9,0 c 3.1,3 6.4,6.1 9.6,9.3 l 5.3,0 z m -58,-7.9 c 0,0.3 0,0.6 0,0.9 l 37.2,0 0,8.4 9.2,0 0,20.3 -8.5,0 0,11 -29.6,0 c 0,-3.8 0,-14.1 0,-14.1 l -21,0.2 0,14.9 70.8,0 0,-32.4 -6.7,0 c -3.3,-3.2 -6.4,-6.2 -9.4,-9 l -42,0 z M 9,95.8 l 56.2,0 C 65.2,93.4 65,82.9 65,82.9 l -56,0 0,12.9 z M 39.5,72.4 C 27.5,60.8 15.6,49.4 3.7,38 l 0,34.4 35.8,0 z m 179.4,-0.1 0,-33.2 c -11.5,11.1 -23,22.1 -34.5,33.2 l 34.5,0 z M 28,1318.5 l -17.8,0 0,25.2 21.9,0 0,-1.9 -4.1,0 0,-23.3 z M 189.5,85.9 l 0,5.2 7.4,0 0,20.2 c 2.8,0 5.4,0 8.1,0 2.6,-0.1 5.2,0.3 7.5,-0.2 l 0,-25.2 -23,0 z M 36.6,148 l 8.1,0 0,-49.9 -8.1,0 0,49.9 z m 175.9,1242 c 0,0 0.1,-31 -0.2,-31.4 l -16.4,0 0,15.6 c 5.3,5 10.3,10.1 16.6,15.8 M 187.1,139 148,139 c -2,1.9 -3.5,3.3 -5.2,5 l 0,3.9 44.3,0 0,-8.9 z M 17.5,98.1 l 0,50 c 2.5,-0.2 4.9,0.2 7.1,-0.3 l 0,-49.7 -7.1,0 z m 16.7,0.2 -7.1,0 0,49.7 7.1,0 0,-49.7 z m 13,49.5 7.1,0 0,-49.7 -7.1,0 0,49.7 z m 16.3,0.3 0,-49.9 -6.8,0 0.4,49.9 6.4,0 z m 127.8,1180.6 -27.4,0 -0.1,13.1 27.5,0 0,-13.1 z M 142.8,85.9 l 0,30.6 c 1.5,-0.1 2.8,-0.2 4.3,-0.3 l 0,-25.3 c 13.4,0 26.6,0 39.9,0 0.5,0 0.9,-0.3 1.1,-0.3 l 0,-4.7 -45.3,0 z m -132.7,1213.2 0,18.3 c 3.2,0 6.1,0 9.1,0 2.9,0 5.9,0.1 8.6,-0.1 l 0,-18.2 -17.7,0 z m 186.7,-1160 -8.6,0 c 0.2,3.1 -0.2,6.1 0.2,8.9 l 24,0 0,-15 -15.6,0 0,6.1 z m 15.8,345.1 -77.4,0 c 0.1,1.4 0.2,2.7 0.2,3.7 l 77.2,0 0,-3.7 z m -126.4,0.1 -76.1,0 0,3.8 76.1,0 0,-3.8 z m 110.6,-353.8 15.8,0 c -0.1,-6.2 0.1,-12.2 -0.1,-18 l -15.7,0 0,18 z m -186.7,1256 c 4.1,-3.9 8.2,-7.9 12.4,-11.9 l 0,-16.4 c -2.3,0 -4.4,0 -6.5,0 -2,0 -4.1,0.1 -5.9,0.1 l 0,28.2 z M 218.9,623 l -2.9,0 0,83.6 2.8,0 0,-83.6 z M 15.1,147 l 0,-49 c -1.8,0.1 -3.5,0.2 -5,0.2 l 0,48.8 5,0 z m 203.8,139 -2.9,0 0,81.5 2.8,0 0,-81.5 z m -212.3,0 -2.9,0 0,81.5 2.8,0 0,-81.5 z m 211.9,194 c 0.8,-4.8 0.8,-80.9 0.2,-81.5 l -2.7,0 c -0.6,16.2 -0.3,80.8 0.4,81.5 l 2.1,0 z m -211.9,-0.1 0,-81.6 c -1.1,0.1 -2.1,0.2 -2.9,0.2 l 0,81.4 2.9,0 z M 6.4,594.2 c 0.1,-0.4 0.3,-0.7 0.3,-1 0,-26.2 0,-52.4 0,-78.6 0,-1.9 0,-1.9 -3,-1.8 l 0,81.4 2.7,0 z m 0.2,28.8 -2.9,0 0,81.5 2.8,0 0,-81.5 z m -2.9,194.9 2.8,0 0,-81.5 -2.8,0 0,81.5 z m 0,113.3 2.8,0 0,-81.5 -2.8,0 0,81.5 z M 216,512.7 l 0,81.6 c 1.1,-0.1 2.1,-0.2 2.9,-0.2 l 0,-81.4 -2.9,0 z m -212.4,532.8 2.9,0 c 0.6,-16.2 0.3,-80.8 -0.2,-81.3 l -2.7,0 0,81.3 z m 0.1,113.5 2.8,0 0,-81.5 -2.8,0 0,81.5 z m 215.1,-309.3 -2.8,0 0,81.5 2.8,0 0,-81.5 z m -2.8,-31.8 2.8,0 0,-81.5 -2.8,0 0,81.5 z M 6.6,171.7 l -2.9,0 0,80.5 2.8,0 0,-80.5 z m 0,1024.2 -2.9,0 0,80.5 2.8,0 0,-80.5 z m 212.3,-231.8 -2.9,0 0,80.5 2.8,0 0,-80.5 z m 0,114.4 -2.9,0 0,80.5 2.8,0 0,-80.5 z m 0,117.4 -2.9,0 0,80.5 2.8,0 0,-80.5 z m -0.1,-1024.2 -2.8,0 0,80.5 2.8,0 0,-80.5 z M 83,1343.8 l 0,-27.4 -4.1,0 0,25.4 c -15.2,0 -45.4,0 -45.4,0 l 0,2 49.5,0 z m 112.9,33.8 0,17.2 c 5.6,0 11,0 16.4,0 0.1,0 0.2,-0.2 0.3,-0.3 0,-0.1 -11.6,-12 -16.7,-16.9 z m -173.4,0.3 c -4.4,4.3 -8.9,8.5 -13.4,12.9 l 0,4.2 13.4,0 0,-17.1 z m 39.4,-77.3 c 0,0 -10.6,1.8 -15.7,2.7 l 0,3.3 c 3.6,0.9 7.1,1.8 11.3,3 -4.5,1.2 -8,2.1 -11.4,3 l 0,3.2 c 2.8,0.5 15.6,3.1 15.6,3.1 l 0,-3.4 -10.3,-1.3 c 0,0 6.7,-2.3 10.4,-3.2 l 0,-2.6 c -3.5,-0.9 -7,-1.8 -10.6,-2.6 0,-0.3 10.5,-1.9 10.5,-1.9 l 0.2,-3.3 m 102.2,-1190.8 0.1,3.3 c 0,0 10.3,2.7 15.5,4.1 l 0,-2.7 c -3.5,-0.9 -11,-2.8 -11,-2.8 l 10.6,-2.7 0,-3.4 c 0,0 -6.8,-1.8 -11.1,-2.9 4.5,-1.2 8.1,-2.1 11.4,-2.9 l 0,-2.9 c -5.4,1.5 -10.6,3 -15.7,4.4 l 0,2.7 c 1.6,0.4 9.9,3.4 9.9,3.4 l -9.7,2.4 z m -160.4,29 2.8,0 0,-45.8 -2.8,0 0,45.8 z M 219.9,93 l -2.8,0 0,45.8 2.8,0 0,-45.8 z m -186.7,1197 -23,0 0,6.8 17.7,0 c 0.1,-1.4 0,-4.2 0,-4.2 l 5.3,0.1 0,-2.7 z m 1.3,-0.1 0,2.7 44.2,0 3.2,-2.8 -47.4,0.1 z m 165.3,22.5 -7.3,0 c 0,5.9 0,18.1 0,18.1 l 7.3,0 0,-18.1 z m -175.9,61.1 c 0,0 15.4,-14.4 15.3,-15 l -15.3,-0.1 0,15.1 z m 170.7,-14.9 -14.1,0 c 0,0 14,14.5 14,14.2 0,-4.1 0.1,-10.3 0.1,-14.8 M 45,1330.6 c 0.6,2.1 1.1,2.6 2,3.8 0.8,1 4.8,2 4.8,2 l 0.1,-3.1 c 0,0 -4.1,-0.5 -4.2,-4.4 0,-1.1 1.1,-2.8 2.4,-3.8 1.9,-1.4 5.6,-1.9 8.1,1 0.9,1 1.2,3.6 1,4.3 -0.4,1.4 -0.4,1 -2.3,2.8 l -0.2,2.8 c 0,0 4.9,0.1 5.3,-7.1 0.2,-2.6 -2.4,-6.2 -6,-7.2 -1.6,-0.4 -4.9,-0.3 -6.4,0.4 -2.1,1 -3.8,2.8 -4.6,4.8 -0.4,0.8 -0.3,2.8 0,3.7 z M 170.2,130.2 c -1.7,-0.7 -2.1,-0.5 -3,-1.3 -0.6,-0.6 -1,-3.3 -0.7,-4.1 0.7,-1.8 1.6,-2.3 3,-2.9 1,-0.5 3.3,-0.6 4.3,-0.3 1.5,0.4 2.7,1.2 3.5,2.3 0.6,0.9 0.5,3.2 0.1,4.2 -0.3,0.8 -2.3,2.1 -2.3,2.1 l 0,2.5 c 0,0 4.6,-0.4 5.3,-4.7 0.3,-2.1 0,-2.8 -0.8,-5.1 -0.5,-1.4 -1.9,-3 -3.5,-3.4 -2.2,-0.6 -3.2,-1.4 -6.5,-0.5 -3,0.8 -4.1,2.4 -5.2,4.1 -0.8,1.2 -0.7,4 -0.1,5.4 0.8,1.9 1.7,3.1 3.2,3.7 0.9,0.4 2.8,0.4 2.8,0.4 l 0,-2.4 z M 79,1314.1 l 3.9,0 0,-23 -3.8,3.9 -0.1,19.1 z M 142.6,118.6 c 0,7.2 0,14 0,20.8 0,0.2 0,1.8 0,1.8 0,0 3.2,-2.8 4,-3.5 l 0,-19 -4,0 z"
         class="st0"
         inkscape:connector-curvature="0" />
      <path
         clip-path="url(#SVGID_2_)"
         id="path3903"
         d="m 157.4,36.9 0,15 -93.2,0 c 0,0 -0.1,-4.8 -0.2,-7.2 -0.1,-2.5 0,-5.1 0,-7.7 l 93.4,0 z m -91.1,14 89,0 0,-11.9 -89,0 0,11.9 z"
         class="st0"
         inkscape:connector-curvature="0" />
    </g>
  </g>
  <style
     id="style3887"
     type="text/css">
	.st0{clip-path:url(#SVGID_2_);}
</style>
</svg>
