<?xml version="1.0" encoding="utf-8"?>
<!-- Generator: Adobe Illustrator 19.0.1, SVG Export Plug-In . SVG Version: 6.00 Build 0)  -->
<svg version="1.1" id="Layer_1" xmlns="http://www.w3.org/2000/svg" xmlns:xlink="http://www.w3.org/1999/xlink" x="0px" y="0px"
	 viewBox="0 0 222 1445" style="enable-background:new 0 0 222 1445;" xml:space="preserve">
<g>
	<path d="M149,1445c-1.2-1.5-3.1-1.3-4.6-2c-1.6-0.7-3.3-1.4-4.8-2.1c0-1,0-1.7,0-2.4c1-0.7,2.1-1.3,3.1-2c0-6.3,0-12.4,0-18.6
		c-4.5-0.8-47-1-63.3-0.4c-0.4,0.4-0.7,0.7-1.3,1.2c0,6.1,0,12.3,0,18.7c0.5,0.2,1.1,0.4,1.8,0.6c0,0.8,0,1.6,0,2.5
		c-2.3,1.4-4.5,3.2-7.5,3.4c-0.3,0-0.6,0.6-0.8,1c-2.1,0-4.2,0-6.4,0c0-0.2,0-0.5,0-0.5c-3-0.5-5.9-1.3-8.9-1.5
		c-3.9-0.3-7.8,0.1-11.7-0.1c-4.1-0.2-8.2-0.4-12.3-1.1c-1.6-0.3-4.1-0.7-4.4-3.3c0.2-0.2,0.2-0.4,0.4-0.5c0.1-0.1,0.3-0.2,0.4-0.2
		c15.5,0,31.1,0,47,0c0-7.5,0-14.9,0-22.4c23.5,0,46.6,0,70.1,0c0,6.2,0,12.4,0,18.7c0,1.4-0.3,2.8,2.5,3.7c14.2,0,29.5,0,44.3,0
		c-0.7,0.6-1.6,1.5-2.5,2.4c0.2,0.2,0.4,0.3,0.6,0.5c-1.4,0.4-2.8,0.9-4.3,1.2c-1.3,0.3-2.7-0.4-4,0.7c-0.6,0.5-2,0.3-3,0.3
		c-3,0-6,0.2-9,0c-4.7-0.4-9.2,1.2-13.8,1.3c-0.1,0-0.2,0.5-0.4,0.8C153.9,1445,151.5,1445,149,1445z"/>
	<path d="M76.8,0c1.5,1.2,2.9,2.4,4.3,3.6C81,4.5,81,5.1,81,5.7c-0.7,0.3-1.3,0.5-2,0.7c0,6.6,0,13.2,0,20.1c1.8,0,3.5,0,5.2,0
		c18,0,36,0,54,0c2.2,0,4.5,0.5,6.4-2.3c0-5.3,0-11.5,0-17.9c-1.2,0-2.4,0-3.9,0c-0.1-0.9-0.2-1.7-0.3-2.8c0.9-0.6,1.8-1.3,2.8-2.1
		c0.9-1.1,2.9,0.7,3.7-1.5c5.7,0,11.3,0,17,0c0,1.4,1.1,1,1.9,1c4.9,0,9.9,0.2,14.8,0c4.8-0.2,9.2,1.3,13.5,3.1
		c0.3,0.1,0.5,0.8,0.6,1.1c-0.1,0.3-0.2,0.4-0.3,0.6c-0.1,0.1-0.3,0.3-0.4,0.3c-15.5,0-31.1,0-47,0c0,7.4,0,14.8,0,22.3
		c-23.5,0-46.5,0-70,0c-0.5-7.2,0-14.6-0.3-22.3c-15.9,0-31.7,0-48.2,0c0.8-1.3,1.1-2.4,1.8-2.7C33,2.2,35.7,1,38.8,1
		c6.4,0.1,12.7,0,19.1,0c0.8,0,1.9,0.4,1.9-1C65.5,0,71.1,0,76.8,0z"/>
	<path d="M71.6,10.2c0,7.7,0,15,0,22.4c26.5,0,52.8,0,79.3,0c0-7.3,0-14.6,0-22.2c1.5-0.1,2.9-0.2,4.2-0.2c16.3,0,32.6,0,48.8,0
		c8.7,0,13.7,4.5,16.1,11.5c1.4,4,2.2,8.1,2.2,12.4c-0.1,459.2-0.1,918.4,0,1377.6c0,4.5-1.3,8.6-2.6,12.8c-0.3,0.9-0.6,1.8-1.1,3.1
		c-0.9,0.9-2.3,2-3.4,3.3c-3,3.8-7.6,4.8-12.2,4.9c-13.1,0.3-26.2,0.1-39.3,0.1c-4.1,0-8.1,0-12.5,0c0-8.1,0-16.2,0-24.4
		c-26.7,0-53,0-79.5,0c0,8,0,15.9,0,24.2c-1.5,0.1-2.9,0.2-4.2,0.2c-16.1,0-32.2,0-48.3,0c-5.8,0-10.3-2.6-13.4-6.8
		c-3.6-4.9-5.5-10.4-5.5-16.7c0.1-460.2,0.1-920.4,0-1380.6c0-5.4,1.9-10.1,4.4-14.6c1.7-3.2,5.2-4.5,8.5-5.8c1.5-0.6,3.2-1,4.9-1
		C35.7,10.2,53.4,10.2,71.6,10.2z M92.7,146c-0.3,0.5-0.7,1.1-1.1,1.8c14.5,0,28.9,0,43.3,0c0-8.1,0-16.2,0-24.3c-0.6,0-1-0.1-1.3,0
		c-9.1,5.3-18,10.6-27.2,15.8c-1.9,1.1-3.8,2.7-6.3,2.6c0.4-0.5,0.6-1.3,1.1-1.6c4.5-2.6,9.1-5.1,13.7-7.6c3.3-1.9,6.5-3.9,9.7-5.7
		c4-2.2,8-4.4,12.6-6.9c0,2.7,0,5,0,7.3c0,2.2,0,4.4,0,6.6c0,2.4-0.1,4.8,0,7.1c0.1,2.3-0.3,4.6,0.3,7c0.8-0.2,1.3-0.3,1.9-0.5
		c0-21.6,0-43.2,0-65.1c26.6,0,53,0,79.4,0c0-2.9,0-5.4,0-8.2c-12.8,0-25.4,0-38.1,0c0-0.5-0.1-0.8,0-0.9
		c12.3-12.1,24.7-24.3,37-36.4c0-1.4,0-2.9,0-4.3c-15.7-0.6-62.8-0.4-63.7,0.6c0,0.6,0,1.4,0,2.2c-28.6,0-57.1,0-85.5,0
		c-0.2-1-0.3-2-0.5-2.8c-21.6,0-42.9,0-64.4,0c0,0.9,0,1.7,0,2.5c12.5,12,25,24.1,37.5,36.1c0.8,0.7,2.3,1.2,1.2,3.2
		c-12.8,0-25.8,0-38.7,0c0,2.2,0,4,0,6.2c21.3,0,42.4,0,63.3,0c1.1,11.5-1.4,22.5-1,33.6c0.4,11.2,0.1,22.4,0.1,33.6
		c3,0,5.7,0,8.3,0c3.2,0,6.4-0.4,9.5,0.1C87.4,148.7,89.7,146.2,92.7,146z M212.5,1286.6c0-265,0-529.6,0-794.2
		c-18-0.8-198-0.4-202.4,0.3c0,264.6,0,529.2,0,793.9C77.6,1286.6,145,1286.6,212.5,1286.6z M132,480.8c27.2,0,53.9,0,80.5,0
		c0-110,0-219.8,0-329.5c-67.6,0-134.9,0-202.3,0c0,110,0,219.8,0,329.8c26.5,0,52.8,0,79.5,0c0,3.1,0,6.1,0,9c14.3,0,28.2,0,42.3,0
		C132,487,132,484.2,132,480.8z M212.6,1395.8c-6.2,0-12,0-18,0c0-7.1,0-14,0-21.5c-5.8-5.5-11.7-11.3-17.8-17.1
		c11.9,0,23.9,0,35.8,0c0-3.5,0-6.7,0-10.1c-24.3,0-48.5,0-72.5,0c-0.7-0.7-1.2-1.1-1.9-1.8c0-18.3,0-36.8,0-55.4
		c-17.6,0-35.1,0-52.9,0c0,19.1,0,38,0,57.2c-25.3,0-50.2,0-75.1,0c0,3.2,0,6.1,0,9.3c10.6,0,21,0,31.5,0c0,1,0,1.8,0,2.9
		c-5.9,5.6-11.9,11.4-18.2,17.5c0,6.1,0,12.7,0,19.4c-5,0-9.7,0-14.5,0c0,4.4,0,8.6,0,12.9c19.5,0,38.8,0,58.9,0
		c-1.4-0.6-2-0.9-2.6-1.2c0-5,0-9.9,0-14.8c16.4-0.7,87.8-0.4,92,0.3c0,4.9,0,9.8,0,14.6c-0.8,0.2-1.3,0.3-1.9,0.5
		c0,0.2,0.1,0.3,0.1,0.5c19,0,38,0,57.1,0C212.6,1404.8,212.6,1400.5,212.6,1395.8z M66.4,1394c0,4.6,0,8.8,0,13
		c18,0.7,85.4,0.4,89.9-0.3c0-4.2,0-8.4,0-12.7C126.2,1394,96.4,1394,66.4,1394z M8.9,1426.1c3.5,4.3,8,5.7,13.2,5.7
		c13.3-0.1,26.5,0,39.8,0c1.7,0,3.5,0,5.2,0c0-6.9,0-13.5,0-20.2c-19.5,0-38.8,0-58.2,0C8.9,1416.4,8.9,1421.2,8.9,1426.1z
		 M155.5,1431.7c13.5,0,26.6,0,39.7,0c4.6,0,9.4,0.7,13.5-1.1c1.5-1.3,2.8-2.4,3.7-3.3c0-5.6,0-10.8,0-15.9c-19.1,0-38,0-57,0
		C155.5,1418.2,155.5,1424.8,155.5,1431.7z M190.3,1304.2c-16.5,0-32.5,0-48.7,0c0,7.9-0.1,15.6,0.1,23.2c16.5,0,32.5,0,48.7,0
		C190.3,1319.6,190.3,1312,190.3,1304.2z M4.6,31.5c21.6,0,42.5,0,63.5,0c0-5.8,0-11.5,0-17.2c-16.3,0-32.4,0-48.4-0.1
		c-2.3,0-4.6,0.5-6.2,1.5C7.4,19.2,4.6,24.6,4.6,31.5z M155.5,31.5c20.8,0,41.6,0,62.7,0c-0.5-2.4-0.5-4.7-1.3-6.8
		c-2-5.1-5.9-10.5-13.4-10.5c-14.5,0.1-28.9,0-43.4,0c-1.5,0-3.1,0-4.6,0C155.5,20.2,155.5,25.8,155.5,31.5z M212.5,1310.1
		c0-7.4,0-14.3,0-21.2c-23.7,0-47.3,0-70.8,0c0,4.1,0,7.9,0,11.9c18.6,0,37.1,0,55.9,0c3.1,3,6.4,6.1,9.6,9.3
		C208.8,1310.1,210.5,1310.1,212.5,1310.1z M154.5,1302.2c0,0.3,0,0.6,0,0.9c12.3,0,24.5,0,37.2,0c0,3,0,5.6,0,8.4
		c3.3,0,6.3,0,9.2,0c0,6.8,0,13.4,0,20.3c-2.8,0-5.6,0-8.5,0c0,3.9,0,7.4,0,11c-10,0-19.8,0-29.6,0c0-3.8,0.1-7.3,0-10.9
		c0-1.1-0.6-2.1-0.9-3.2c-7,0.1-13.7-0.2-20.1,0.2c0,5.3,0,10.1,0,14.9c23.8,0,47.3,0,70.8,0c0-10.9,0-21.6,0-32.4
		c-2.4,0-4.7,0-6.7,0c-3.3-3.2-6.4-6.2-9.4-9C182.3,1302.2,168.4,1302.2,154.5,1302.2z M9,95.8c19,0,37.5,0,56.2,0
		c0-2.4,0-4.5,0-6.7c-0.1-2.1,0.3-4.3-0.2-6.2c-18.9,0-37.4,0-55.9,0C9,87.3,9,91.5,9,95.8z M39.5,72.4c-12-11.6-23.9-23-35.8-34.4
		c0,11.4,0,22.9,0,34.4C15.7,72.4,27.5,72.4,39.5,72.4z M218.9,72.3c0-11.1,0-22.2,0-33.2c-11.5,11.1-23,22.1-34.5,33.2
		C195.6,72.3,207.2,72.3,218.9,72.3z M28,1318.5c-6.3,0-12.1,0-17.8,0c0,8.6,0,17,0,25.2c7.5,0,14.6,0,21.9,0c0-0.6,0-1.1,0-1.9
		c-1.3,0-2.7,0-4.2,0C28,1333.9,28,1326.3,28,1318.5z M189.5,85.9c0,1.9,0,3.4,0,5.2c2.5,0,4.9,0,7.4,0c0,6.9,0,13.5,0,20.2
		c2.8,0,5.4,0,8.1,0c2.6-0.1,5.2,0.3,7.5-0.2c0-8.7,0-16.9,0-25.3C204.8,85.9,197.2,85.9,189.5,85.9z M36.6,98.1
		c0,16.7,0,33.2,0,49.8c2.8,0,5.4,0,8.1,0c0-16.7,0-33.2,0-49.8C42,98.1,39.4,98.1,36.6,98.1z M212.5,1390c0-11,0-20.8,0-30.4
		c-0.4-0.4-0.8-0.8-1.2-1.1c-5.2,0-10.4,0-15.5,0c0,5.4,0,10.6,0,15.7C201.2,1379.2,206.2,1384.3,212.5,1390z M187.1,139
		c-13.7,0-26.8,0-39.1,0c-2,1.9-3.5,3.3-5.2,5c0,0.9,0,2.3,0,3.9c14.9,0,29.6,0,44.3,0C187.1,144.9,187.1,142,187.1,139z M17.5,98.1
		c0,16.9,0,33.3,0,50c2.5-0.2,4.9,0.2,7.1-0.3c0-16.8,0-33.2,0-49.7C22.2,98.1,20,98.1,17.5,98.1z M34.2,148c0-16.9,0-33.3,0-49.7
		c-2.5,0-4.9,0-7.1,0c0,16.7,0,33.1,0,49.7C29.5,148,31.7,148,34.2,148z M47.2,98.1c0,16.9,0,33.3,0,49.7c2.5,0,4.9,0,7.1,0
		c0-16.7,0-33.1,0-49.7C51.9,98.1,49.7,98.1,47.2,98.1z M63.5,148.1c0.7-4.2,0.7-45.9,0-49.9c-2.3,0-4.5,0-6.8,0
		c-0.6,15.9-0.4,45.5,0.4,49.9C59.3,148.1,61.4,148.1,63.5,148.1z M191.3,1328.7c-9.1,0-17.7,0-26.1,0c-0.5,0.5-0.9,0.9-1.3,1.3
		c0,3.5,0,7,0,10.9c4.3,1.9,8.9,0.7,13.3,0.9c4.7,0.2,9.4,0,14.1,0C191.3,1337.3,191.3,1333.1,191.3,1328.7z M142.8,85.9
		c0,10.4,0,20.4,0,30.6c1.5-0.1,2.8-0.2,4.3-0.3c0-8.6,0-16.9,0-25.3c13.4,0,26.6,0,39.9,0c0.5,0,0.9-0.3,1.1-0.3c0-1.7,0-3.2,0-4.7
		C172.9,85.9,157.9,85.9,142.8,85.9z M10.1,1299.1c0,6.3,0,12.2,0,18.3c3.2,0,6.1,0,9.1,0c2.9,0,5.9,0.1,8.6-0.1
		c0-6.4,0-12.3,0-18.2C21.8,1299.1,16.1,1299.1,10.1,1299.1z M196.8,139.1c-3.2,0-5.8,0-8.6,0c0.2,3.1-0.2,6.1,0.2,8.9
		c8.3,0,16.2,0,24,0c0-5.2,0-10.2,0-15c-5.3,0-10.4,0-15.6,0C196.8,134.9,196.8,136.7,196.8,139.1z M212.6,484.2
		c-26.1,0-51.6,0-77.4,0c0.1,1.4,0.2,2.7,0.2,3.7c26,0,51.5,0,77.2,0C212.6,486.7,212.6,485.5,212.6,484.2z M86.2,488.1
		c0-1.6,0-2.7,0-3.8c-25.5,0-50.9,0-76.1,0c0,1.4,0,2.5,0,3.8C35.5,488.1,60.8,488.1,86.2,488.1z M196.8,130.5c5.5,0,10.6,0,15.8,0
		c-0.1-6.2,0.1-12.2-0.1-18c-5.5,0-10.6,0-15.7,0C196.8,118.6,196.8,124.5,196.8,130.5z M10.1,1386.5c4.1-3.9,8.2-7.9,12.4-11.9
		c0-5.1,0-10.7,0-16.4c-2.3,0-4.4,0-6.5,0c-2,0-4.1,0.1-5.9,0.1C10.1,1368,10.1,1377.3,10.1,1386.5z M218.9,706.6
		c0-27.9,0-55.7,0-83.5c-1,0-1.8,0-2.8,0c0,27.9,0,55.7,0,83.5C217,706.6,217.9,706.6,218.9,706.6z M15.1,147c0-16.6,0-32.7,0-49
		c-1.8,0.1-3.5,0.2-5,0.2c0,16.5,0,32.6,0,48.7C11.8,147,13.4,147,15.1,147z M218.9,367.5c0-27.2,0-54.3,0-81.5c-1,0-1.8,0-2.8,0
		c0,27.2,0,54.3,0,81.5C217,367.5,217.8,367.5,218.9,367.5z M6.6,367.5c0-27.2,0-54.3,0-81.5c-1,0-1.8,0-2.8,0c0,27.2,0,54.3,0,81.5
		C4.8,367.5,5.6,367.5,6.6,367.5z M218.5,480c0.8-4.8,0.8-80.9,0.2-81.5c-1,0-1.9,0-2.7,0c-0.6,16.2-0.3,80.8,0.4,81.5
		C217.1,480,217.8,480,218.5,480z M6.6,479.9c0-27.4,0-54.4,0-81.6c-1.1,0.1-2.1,0.2-2.9,0.2c0,27.3,0,54.3,0,81.4
		C4.7,479.9,5.5,479.9,6.6,479.9z M6.4,594.2c0.1-0.4,0.3-0.7,0.3-1c0-26.2,0-52.4,0-78.6c0-1.9,0-1.9-3-1.8c0,27.1,0,54.2,0,81.4
		C4.8,594.2,5.6,594.2,6.4,594.2z M6.6,704.5c0-27.2,0-54.3,0-81.5c-1,0-1.8,0-2.8,0c0,27.2,0,54.3,0,81.5
		C4.7,704.5,5.5,704.5,6.6,704.5z M3.7,736.4c0,27.2,0,54.3,0,81.5c1,0,1.9,0,2.8,0c0-27.2,0-54.3,0-81.5
		C5.5,736.4,4.7,736.4,3.7,736.4z M3.7,849.7c0,27.2,0,54.3,0,81.5c1,0,1.9,0,2.8,0c0-27.2,0-54.3,0-81.5
		C5.5,849.7,4.7,849.7,3.7,849.7z M216,512.7c0,27.4,0,54.4,0,81.6c1.1-0.1,2.1-0.2,2.9-0.2c0-27.3,0-54.3,0-81.4
		C217.9,512.7,217.1,512.7,216,512.7z M3.6,1045.5c1.3,0,2.1,0,2.9,0c0.6-16.2,0.3-80.8-0.2-81.3c-1,0-1.9,0-2.8,0
		C3.6,991.4,3.6,1018.4,3.6,1045.5z M3.7,1077.5c0,27.2,0,54.3,0,81.5c1,0,1.8,0,2.8,0c0-27.2,0-54.3,0-81.5
		C5.6,1077.5,4.7,1077.5,3.7,1077.5z M218.8,931.2c0-27.2,0-54.3,0-81.5c-1,0-1.8,0-2.8,0c0,27.2,0,54.3,0,81.5
		C217,931.2,217.8,931.2,218.8,931.2z M216,736.4c0,27.2,0,54.3,0,81.5c1,0,1.8,0,2.8,0c0-27.2,0-54.3,0-81.5
		C217.9,736.4,217,736.4,216,736.4z M6.6,252.1c0-26.8,0-53.6,0-80.5c-1,0-1.8,0-2.8,0c0,26.8,0,53.6,0,80.5
		C4.7,252.1,5.5,252.1,6.6,252.1z M6.6,1276.4c0-26.9,0-53.6,0-80.5c-1,0-1.8,0-2.8,0c0,26.9,0,53.6,0,80.5
		C4.7,1276.4,5.6,1276.4,6.6,1276.4z M218.9,1044.6c0-26.8,0-53.6,0-80.5c-1,0-1.8,0-2.8,0c0,26.8,0,53.6,0,80.5
		C217,1044.6,217.8,1044.6,218.9,1044.6z M218.9,1159c0-26.8,0-53.6,0-80.5c-1,0-1.8,0-2.8,0c0,26.8,0,53.6,0,80.5
		C217,1159,217.8,1159,218.9,1159z M218.9,1276.4c0-26.9,0-53.6,0-80.5c-1,0-1.8,0-2.8,0c0,26.9,0,53.6,0,80.5
		C217,1276.4,217.9,1276.4,218.9,1276.4z M218.8,252.1c0-26.9,0-53.6,0-80.5c-1,0-1.9,0-2.8,0c0,26.9,0,53.6,0,80.5
		C217.1,252.1,217.9,252.1,218.8,252.1z M83,1343.8c0-9.4,0-18.4,0-27.4c-1.4,0-2.6,0-4.1,0c0,8.5,0,16.9,0,25.4
		c-15.2,0-30,0-44.8,0c-0.3,0-0.5,0.3-0.9,0.6c0.1,0.4,0.2,0.9,0.3,1.4C50.1,1343.8,66.4,1343.8,83,1343.8z M212.6,1392.4
		c-0.2,0.2-0.5,0.4-0.7,0.7c-5.5-5.3-10.9-10.5-16-15.4c0,5.3,0,11.3,0,17.2c5.6,0,11,0,16.4,0c0.1,0,0.2-0.2,0.3-0.3
		C212.6,1393.7,212.6,1393,212.6,1392.4z M22.5,1377.9c-4.4,4.3-8.9,8.5-13.4,12.9c0,1.1,0,2.6,0,4.2c2.5,0,4.7,0,7,0
		c2.2-0.1,4.5,0.3,6.4-0.2C22.5,1388.9,22.5,1383.3,22.5,1377.9z M61.9,1300.6c-5.6-0.6-10.6,1.8-15.7,2.7c0,1.3,0,2.5,0,3.3
		c3.6,0.9,7.1,1.8,11.3,3c-4.5,1.2-8,2.1-11.4,3c0,1.2,0,2.4,0,3.5c2.8,0.5,5.4,0.8,8,1.5c2.6,0.7,5,1.9,8,1.5
		c-0.6-1.7-1.2-2.6-2.9-2.8c-3.1-0.5-6.1-1.4-9.9-2.3c4.8-1.2,8.7-2.2,12.5-3.1c0-1,0-1.7,0-2.6c-3.5-0.9-7-1.8-10.6-2.6
		c0.1-0.4,0.1-0.9,0.2-1.1C55.1,1303.3,59,1303.5,61.9,1300.6z M174.3,108c-3.1,0.5-6.2,1.1-9.8,1.7c-0.2,1-0.5,2.1-0.8,3.2
		c5.5,1.5,10.7,2.9,15.9,4.3c0-0.9,0-1.7,0-2.7c-3.5-0.9-6.9-1.7-11-2.8c3.3-1.7,6.6-2.1,9.8-2.7c1.2-1.6,1.2-1.6,0.9-3.4
		c-3.5-0.9-6.8-1.8-11.1-2.9c4.5-1.2,8.1-2.1,11.4-2.9c0-1.1,0-1.9,0-2.9c-5.4,1.5-10.6,3-15.7,4.4c0,1,0,1.6,0,2.7
		c1.6,0.4,3.4,0.8,5.1,1.2c1.9,0.5,3.8,0.9,5.6,1.4C174.4,107.2,174.4,107.5,174.3,108z M3.7,93c0,15.3,0,30.5,0,45.8
		c1,0,1.8,0,2.8,0c0-15.3,0-30.5,0-45.8C5.6,93,4.7,93,3.7,93z M219.9,138.8c0-15.3,0-30.5,0-45.8c-1,0-1.8,0-2.8,0
		c0,15.3,0,30.5,0,45.8C218.1,138.8,218.9,138.8,219.9,138.8z M33.2,1290c-7.7,0-15.4,0-23,0c0,2.4,0,4.7,0,6.8c6,0,11.8,0,17.7,0
		c0.1-1.4,0.2-2.7,0.3-4.1c1.8,0,3.4,0,5,0C33.2,1291.7,33.2,1290.9,33.2,1290z M34.5,1289.9c0,1.2,0,2,0,2.7c15.3,0,30.4,0,45.1,0
		c0.5-1.2,0.8-1.9,1.2-2.7C65.3,1289.9,50,1289.9,34.5,1289.9z M199.8,1312.4c-2.7,0-5,0-7.3,0c0,5.9,0,11.7,0,17.4
		c0,0.1,0.1,0.3,0.2,0.4c0.1,0.1,0.2,0.2,0.2,0.2c2.4,0,4.7,0,7,0C199.8,1324.4,199.8,1318.5,199.8,1312.4z M23.9,1373.5
		c5-4.7,9.8-9.2,14.7-13.8c0.2-0.2,0-0.6,0-1.2c-4.8,0-9.6,0-14.6,0C23.9,1363.4,23.9,1368.4,23.9,1373.5z M194.6,1358.1
		c-5,0.4-9.4-0.4-14.1,0.5c3.1,4.3,10.5,11.2,13.5,12.8c0.2-0.3,0.5-0.5,0.5-0.8C194.6,1366.7,194.6,1362.6,194.6,1358.1z
		 M45,1330.6c1.2,1.8,1.9,2.9,2.7,4.1c0.5,0,1.2-0.1,1.9,0c0.5,0.1,1,0.6,1.7,1c0-1.1,0-1.9,0-2.7c-2.2-1.1-2.2-1.1-4.2-4.4
		c0.5-1,1-2,1.4-2.8c3.4-1.9,6.8-1.8,10.1,0.1c0.5,1.3,1,2.6,1.4,3.7c-1.1,2.3-4.5,3-3,6.1c2.5-1.7,5.4-3.1,5-6.8
		c-0.3-3.7-2.6-5.8-6-7.2c-2,0-4.2,0-6.6,0c-1.5,1.8-3,3.6-4.3,5.3C45,1328.4,45,1329.7,45,1330.6z M170.2,130.2
		c-1.7-0.7-3-1.2-4.2-1.6c0-1.5,0-2.5,0-3.3c1.3-1.4,2.5-2.6,3.6-3.7c1.5,0,2.9,0,4.2,0c1.4,0.8,2.6,1.6,3.8,2.3c0,1.6,0,2.9,0,4.3
		c-2,2.1-2,2.1-1.6,4.6c2.9-1.7,2.9-1.7,4.4-4.7c-0.3-2.1-0.6-3.5-0.8-5.1c-1.1-1-2.3-2.2-3.5-3.4c-2.2,0.5-4.4-2.6-6.5,0
		c-3.1-0.5-3.8,2.4-5.6,3.5c0,2.3,0,4.3,0,5.9c1.4,1.5,2.6,2.8,3.7,4c1-0.1,1.8-0.1,2.6-0.2C170.2,131.6,170.2,130.9,170.2,130.2z
		 M79,1314.1c1.6,0,2.8,0,3.9,0c0-7.5,0-14.9,0-23c-1.6,2.1-2.8,3.6-3.9,5.1C79,1302.2,79,1308.1,79,1314.1z M142.6,118.6
		c0,7.2,0,14,0,20.8c0,0.2,0.5,0.4,1,0.8c1.1-0.9,2.2-1.8,3-2.5c0-6.6,0-12.8,0-19C145.3,118.6,144.1,118.6,142.6,118.6z"/>
	<path d="M157.4,36.9c0,5,0,9.9,0,15c-31,0-61.9,0-93.1,0c-0.4-2.3-0.1-4.8-0.2-7.2c-0.1-2.5,0-5.1,0-7.7
		C95.1,36.9,126,36.9,157.4,36.9z M66.3,50.9c29.7,0,59.3,0,89,0c0-4,0-7.9,0-11.9c-29.7,0-59.3,0-89,0C66.3,43,66.3,46.9,66.3,50.9
		z"/>
	<path d="M100.2,141.9c-1.6,2.8-4.7,3.2-7.4,4.1C94.4,143.3,97.4,142.9,100.2,141.9z"/>
</g>
</svg>
