<?xml version="1.0" encoding="utf-8"?>
<!-- Generator: Adobe Illustrator 19.1.0, SVG Export Plug-In . SVG Version: 6.00 Build 0)  -->
<svg version="1.1" id="Layer_1" xmlns="http://www.w3.org/2000/svg" xmlns:xlink="http://www.w3.org/1999/xlink" x="0px" y="0px"
	 viewBox="0 0 222 1920" style="enable-background:new 0 0 222 1920;" xml:space="preserve">
<style type="text/css">
	.st0{clip-path:url(#SVGID_2_);}
	.st1{clip-path:url(#SVGID_4_);}
	.st2{clip-path:url(#SVGID_6_);}
</style>
<g>
	<defs>
		<rect id="SVGID_1_" x="-0.5" y="0.6" width="222" height="1920"/>
	</defs>
	<clipPath id="SVGID_2_">
		<use xlink:href="#SVGID_1_"  style="overflow:visible;"/>
	</clipPath>
	<g class="st0">
		<defs>
			<polygon id="SVGID_3_" points="-0.2,1921.4 221.1,1918.7 221.1,-1.6 -0.2,1.1 			"/>
		</defs>
		<clipPath id="SVGID_4_">
			<use xlink:href="#SVGID_3_"  style="overflow:visible;"/>
		</clipPath>
		<g class="st1">
			<defs>
				<rect id="SVGID_5_" x="-0.2" y="1.1" width="222" height="1920.3"/>
			</defs>
			<clipPath id="SVGID_6_">
				<use xlink:href="#SVGID_5_"  style="overflow:visible;"/>
			</clipPath>
			<path class="st2" d="M221,1342.8v2.8c-0.1,0.2-0.4,0.5-0.4,0.7c-0.1,0.6,0,1.2,0,1.8c0,13.2,0,26.5,0,39.7c0,0.8,0,1.5,0,2.2
				c0.2,0.2,0.4,0.2,0.5,0.3v467.1c-0.7,0.1-1.4,0.2-2.1,0.3c-0.3-0.1-0.6-0.3-1.1-0.5c-0.2-0.5-0.5-1.1-0.5-1.1l-24.9,0
				c0,0-0.1,53.7-0.1,61.6c0,0.5,0,0.9,0,1.3c-0.4,0.4-0.6,0.6-1,0.9v1.7H31.9c0-0.9-1-1.1-1.3-1.9c0,0-0.2-63.8-0.3-64.2H4.8
				c-0.5,0.6-1,1.2-1.5,1.8c-0.4,0.2-0.9,0.3-1.3,0.5c-0.4-0.3-0.9-0.5-1.4-0.8c0-1.4,0-2.8,0-4.2c0-502.1,0-1004.2,0-1506.2
				c0-1.1,0-2.2,0-3.2c0-0.4-0.2-0.7-0.3-1.1H-1c0-21.1,0-42.2,0-63.4c0.4-0.1,0.9-0.3,1.3-0.4c0.1-0.4,0.1-0.7,0.2-1
				c0-1.2,0-2.5,0-3.7c0-18.4,0.9-85,0.9-91.2c0-6.2,0.3-12.5,0.5-18.7c0-0.6,0.2-43.4,2.3-66.2c0-0.5,5.6-63.8,8.3-71.7
				c2.8-8.4,9.7-13.1,14.3-15.9C38,3.5,85.6,1.6,92,1.6c10.8,0,28.4-0.3,37.9,0c30.6,1.1,55.5,1.4,69.4,11.5
				c1.6,1.2,7.9,7.6,10.1,15.6c2.4,8.8,7,60,7,61.4c0.1,1.9,2.7,49.3,2.7,49.6c0.1,2.5,1.2,23.6,1.2,23.8
				c0.4,11.9,0.5,34.1,0.7,34.2c0,375.4,0,750.8,0,1126.2c-0.1,0.1-0.2,0.2-0.5,0.3v2.2c0,2.8,0,5.7,0,8.5c0,2.1,0,4.3,0,6.4
				C220.6,1341.9,220.6,1342.4,221,1342.8 M159.1,1765.7c0.4-0.3,0.9-1.7,0.8-2c-1.3,0-3.9-0.1-3.9-0.1c0,1,0.4,1.6,1,2.1
				C157.3,1766,158.2,1766.3,159.1,1765.7c0.3-0.2,0.1,0.5,0.3,1c0.8,0,1.6,0.1,2.3,0.1c2.7,0,5.4,0,8.1,0c0.8,0,2.6,0,2.6,0v-3
				l-4,0h-6.6c-0.4,1.4-1.7,3.1-2.4,3 M186.5,1877.2c0,0-0.8,0.2-1.5,0.4c-1.2,0.2-2.3,0.1-3.5,0.1c-47.7,0-95.4,0-143.1,0
				c-0.8,0-4.7-0.9-4.7-0.9l-0.1,3.9c0,0,1-0.6,1.5-0.8c0.6-0.2,2.7-0.3,2.7-0.3c36.7,0,73.4,0,110,0c11.6,0,23.1,0,34.7,0.1
				c1.1,0,3.2,0.2,4,0.4c0.6,0.2,1.9,0.9,1.9,0.9l-0.1-4.4c0,0-1.6,0.7-2.4,0.6c0,0-0.5-0.6-0.4-0.9c0.8-0.1,2.8-0.9,2.8-0.9v-3.7
				c0,0-2.1-1.3-3.4-1.4c-1.1-0.1-10.7,0.2-14.6,0.2c-44.4,0-88.8,0-133.2,0c-0.7,0-0.7-0.1-1.4,0c-1.8,0.2-2,0.9-2,0.9l0,4.1
				c0,0,1.3,0.7,3.3,1h3c45.6,0,91.1,0,136.7,0c2.5,0,5.1,0,7.6,0c0.4,0,0.7-0.1,1.1-0.2 M9.7,790.1v3.1c0,60,0,119.9,0,179.9
				c0,0.8,0,3.7,0,3.7l55.2-0.1l0,4.8c0,13.8,0,45.2,0,45.2L9.6,1027c0,0,0.1,211.5,0.2,315.9c0,0.1,0,0.2,0,0.2
				c0,0.1,0.1,0.1,0.1,0.2c0.2,0.3,0.5,0.6,0.7,0.9v3.5c0,87.9,0,175.9,0,263.8c0,0.9,0,1.8,0,2.8c0,0.4,0.1,0.7,0.2,1.2
				c3.2,0.2,56.9,0.1,58.3,0.1c1.2,0,2.4-0.2,3.6,0.2c0.1,0.3,0.2,0.5,0.2,0.7c0,20.7,0,41.5,0,62.2c0,0.2-0.1,0.4-0.2,0.7
				c-1.2,0.5-2.6-0.1-3.9,0.5c-0.1,0.5-0.2,1-0.2,1.6c0,0.9,0,1.8,0,2.8c0,33.7,0,67.4,0,101.1c0,0.8,0.1,1.7,0,2.5
				c-0.2,1.2-0.5,2.4-0.7,3.6c-0.6,0.3-1.2,0.6-1.8,0.9c-1,0-2.1,0-3.1,0c-16,0-32.1,0-48.1,0c-0.8,0-1.5,0-2.3,0
				c-0.9,0-1.7,0.1-2.4,0.5c-0.6,0.7-1.2,1.3-1.8,1.9c-0.8,0-1.5-0.1-2-0.1c-0.6-0.3-0.7-1-1.4-0.7c-0.4,0.8-0.2,1.7-0.2,2.6
				c0,15.4,0,30.8,0,46.2c0,0.7,0,1.4,0.1,2.1c0,0.2,0.2,0.5,0.5,0.8c0.8-1.1,1.9-1.4,3-2c56,0,112.1,0,168.1,0c0.2,0,0.5,0,0.7-0.1
				c0.1,0,0.2,0,0.2-0.1c0.1,0,0.1-0.1,0.2-0.1c0.1-0.1,0.2-0.3,0.2-0.4c0-16,0.1-31.9,0.1-47.9c0-0.8,0-1.5-0.1-2.3
				c-0.5-0.2-0.9-0.4-1.4-0.5c-0.8-0.1-1.7-0.1-2.5-0.1c-15.6,0-31.1,0-46.7,0c-0.8,0-1.5,0-2.3,0c-1.2,0-2.3-0.3-3.2-1.2
				c-0.4-0.9-0.3-2-0.3-2.9c0-19.5,0-68,0-70.9c0-15,0-29.9,0-44.9c0-0.8,0.2-1.7-0.3-2.5c-0.9-0.1-1.8-0.2-2.7-0.3
				c-0.3-0.4-0.6-0.7-1-1.1v-2.3c0-12.1,0-24.2,0-36.3c0-0.7,0-1.4,0-2.1c0-0.2,0.1-0.4,0.2-0.7c0.5-0.3,1-0.7,1.5-1
				c1,0,2-0.1,3-0.1c7.6,0,15.1,0,22.7,0c0.8,0,1.5,0,2.3,0c0.4,0,0.9-0.2,1.2-0.3c0.5-0.8,0.4-1.6,0.4-2.4c0-2,0-4,0-6
				c0-0.4-0.1-0.9,0.5-1.4c0.7-0.3,1.5-0.1,2.3-0.2c3.7,0,57.1,0,59.1,0c0.4,0,0.7-0.2,1.1-0.2c0.2-1.2,0.1-2.4,0.1-3.5
				c0-88.3,0-176.5,0-264.8c0-1.1,0-2.2,0-3.2c0-0.2,0.1-0.5,0.1-0.7c0.3-0.4,0.6-0.7,0.9-1.1v-3c0-102.9,0-205.8,0-308.7
				c0-0.8,0-1.5,0-2.3c0-0.4-0.1-0.7-0.2-1.1c-1.1-0.4-2.1-0.2-3.1-0.2c-29.8,0-92.9,0-92.9,0l-0.4-49.9l96.5-0.1
				c0,0,0-124.7,0-186.5c-0.3-0.4-0.6-0.7-0.9-1c-0.2-3.2-0.1-24.2,0.1-25.9c0.3-0.4,0.6-0.7,0.8-1v-313c-0.3-0.4-1.1-2.6-1.2-3.5
				c-4.3,0-84.6,0-88.7,0c-0.5-0.6-0.9-1-1.4-1.6v-2.2c0-21.3,0-42.5,0-63.8c0-0.6,0-1.2,0-1.8c0-0.6,0.3-1,1-1.4
				c0.7-0.2,26.1-0.1,26.1-0.1l0-1.2l-4,0c-6.6,0-13.3,0-19.9,0c-1,0-3.9,0-3.9,0l-0.1-20.8l-5.5,0.1c0,0-2.9,4.9-3.9,6.6
				c-2.5,4.3-5.7,7.9-7.5,9.2c-2.7,1.9-3.9,3.3-9.9,5.1c-4.6,1.4-17.8,1-17.8,1s0-3.2,0-4.1c0-5.2,0-10.5,0-15.7
				c0-0.7,0.2-1.4-0.4-2.1c-0.7,0-1.5-0.3-2.3,0.2c-0.3,0.9-0.2,1.7-0.2,2.6c0,9.9,0,19.7,0,29.6c0,0.7,0,1.4,0,2.1
				c0,0.4-0.2,0.9-0.4,1.2c-1.6,0.4-3.2-0.1-4.6,0.4c-0.5,1.2-0.4,2.4-0.4,3.5c0,15.6,0,31.3,0,46.9c0,0.8,0,1.7,0,2.5
				c-0.1,1-0.3,2-1.1,2.8h-2.7c-16.6,0-33.1,0-49.7,0c-0.7,0-1.4,0-2.1,0c-0.4,0-0.7,0.1-1.1,0.2c-0.3,1.3-0.2,2.6-0.2,3.8
				c0,112.2,0,224.3,0,336.5c0,0.9,0,1.9,0,2.8c0,0.5-0.1,0.9-0.1,1.3C10.2,789.5,10,789.7,9.7,790.1 M202.5,123.2
				c2,20.4,1.8,38.6,1.8,38.6s3.4-0.1,4.7-0.3c0.8-0.7,1.4-1.5,2.1-1.8c1.6-0.6,2.7,0.5,4.2,0.8c0.2,0-1.5-39.9-1.5-40.8
				c-0.1-4.4-2.3-41.8-3.7-52.1c-1.5-11.9-2.8-22.9-4.2-33.1c-1.7-12.1-8-15.5-10.1-17.4c-8.6-7.7-37.2-9-50.9-9.9
				c-28.5-2.1-63.8-0.6-55.8-0.7c6.2-0.1-50.2,2.2-59.8,7.9c-7.7,4.6-12.4,10.9-13.8,20.8c-0.2,1.2-2.8,27.1-4.2,38.7
				c-1.1,9.1-3.2,37.6-3.7,53c-0.1,2-0.7,34.6-0.6,34.6c0.9-0.6,2-1.7,3.2-1.5c1,0.2,1.7,1.1,2.5,1.7c2.9,0.3,6.6,0,6.6,0
				s0.8-29.7,1.6-39.8c0.8-11.5,0.8-15.5,4.3-32.6c1.9-9.2,4.4-14.1,4.8-14.6h23.1c5.7-4.7,7-5.5,11.7-8.7h96.8
				c2.9,1.4,12.6,8.1,13.1,8.7c1,0,20.1-0.1,20.1-0.1S199.5,93.6,202.5,123.2z M172.7,160.4l-11.6-11.1h-38.4l-8.2,8l-21.9,0
				l-6.9-7.6L44.1,150l-15.4,15.6l-2.9,0.1l-0.5,58.9c0,0,2.6,0.1,3.5,0.1c13.7,0,45,0.1,45,0.1l0.1,3.9l8.7,0.1h42.3
				c7.4,0,14.8,0,22.2,0c0.6,0,3.4,0,3.4,0l0-3.9l47.1,0c0,0,0.1-39.1,0.1-56.9c0-0.6,0-2.7-0.1-2.9c-0.2-0.2-20.6,0-20.6,0
				l-1.7-1.6l-2.6,0L172.7,160.4z M46,272.9c-4.4,3.3-17.6,6-24.1,7c-1.7,0.2-8.7,0.8-10.1,0.8c-0.4,0-0.5,1-0.3,1
				c0.8,0.1,34.1,0.1,49.9,0.1c0.8,0,1.7,0,2.5,0c0.2,0,0.4,0.1,0.7,0.2c0.4,0.4,0.7,0.8,1.1,1.3c0,0.9,0.1,1.8,0.1,2.7
				c0,11.9,0,23.7,0,35.6c0,0.7,0,1.4,0,2.1c0,0.3,0.1,0.6,0.2,0.9c2.2,0.5,4.5-0.1,6.7,0.4c0.4,1.6-0.1,3.1,0.4,4.6
				c0.8,0.5,9,0.6,9.8,0.6c10.4,0,37.4-0.2,37.4-0.2l0.2-45.9l90.1-0.1l-0.1-3.2c0,0-1.2-0.1-1.9-0.1c-2.3,0-13.9-1.9-19.1-2.6
				c-5.5-0.8-13.8-5.3-15.4-6.5c-3-2.3-7.7-7.5-9-10c-0.8-1.6-2.1-3.1-6.6-16.6l-0.1,5.4l-39.5,0.1c0,0,0.2-10-0.1-9.9
				c-0.1,0.5-2.6,9.1-4.2,12.2c-2,3.8-3.8,7.6-6.6,10.8c-1.6,1.8-9.5,7.2-14.4,8.9c-6.4,2.3-18.1,1.7-18.1,1.7s0-2.5,0-3.2
				c0-3.8,0-7.6,0-11.3c0-7.4,0-14.8,0-22.2c0-0.8,0-2.7,0-2.7l-1.9,0l0,4l-9.2,0c-1.2,4.3-3.3,16.2-6.2,21.1
				C54.5,266.8,50.1,269.8,46,272.9z M121.2,113.7H161c1.2,0.6,30.4,13.5,30.4,13.5l-0.2,13l-29.9-10.5l0.1,16.4l11.2,10.4v-5.9
				c0,0,15.3,0,22,0c0.5,0,1.8,0,1.8,0v11l1.4,0c0,0,0.3-23.2-1.2-40.2c-1.5-17-3.5-28-4-28.9c0,0-161.9,0.1-162.2,0.2
				c-0.4,1.2-3.7,21.7-4,36.4c-0.3,18.3-0.6,31.9-0.5,32.3h2.3c4-4.3,12.5-12.7,12.5-12.7l0.1-40.4H87l0,38.6c0,0,5.1,6.2,6.4,7.5
				h20.3c1.2-1.2,7.3-7.2,7.3-7.2l-0.2-17.6l-23.4,11.8L97.3,127C97.3,127,120.6,114.1,121.2,113.7 M148.1,377.8
				c-2.2-0.3-13.7-0.4-22.1-0.2c-0.5,0-1.1,0.1-1.6,0.1c-0.5,0.9-0.3,1.9-0.3,2.8c0,19.7,0,39.4,0,59.2c0,0.5,0,1.1,0,1.6
				c0,0.4,0.1,0.7,0.2,1.1c1,0.4,1.9,0.2,2.8,0.2c26.7,0,53.5,0,80.2,0c0.5,0,1.1,0,1.6,0c0.4,0,0.9-0.2,1.4-0.3c0-0.9,0-1.8,0-2.6
				c0-16.1,0-32.2,0-48.3c0-0.5,0-1.1,0-1.6c0-0.4-0.1-0.7-0.2-1.2c-1,0-1.9,0-2.8,0c-18.3,0-36.7,0-55,0c-0.8,0-1.5,0-2.3,0
				c-0.4,0-0.9-0.2-1.3-0.3c-0.6-1.2-0.4-2.4-0.4-3.5c0-1.2,0-2.3,0-3.5C148.3,380.2,148.5,379.1,148.1,377.8 M52.8,393.9
				c0.9-0.3,1.7-0.3,2.5-0.3c2.3,0,4.6,0,6.9,0c0.5,0,1-0.1,1.6-0.2c0.4-1.6,0.7-3.1,0-4.6c-0.9-0.4-1.9-0.2-2.8-0.2
				c-15.8,0-31.6,0-47.4,0c-0.6,0-1.2,0-1.8,0c-0.4,0-0.7,0.2-1.1,0.3c0,0.9-0.1,1.6-0.1,2.4c0,15.9,0,31.7,0,47.6
				c0,0.4,0,0.8,0,1.2c0,0.4,0.1,0.9,0.2,1.3c1.1,0.4,2.1,0.3,3,0.3c15.6,0,31.3,0,46.9,0c0.6,0,1.2,0,1.8,0c0.4,0,0.9-0.2,1.3-0.2
				c0.5-2.1,0.5-2.2-0.3-3.7c-1.9,0-3.8,0-5.7,0c-1.9,0-3.8,0.2-5.8-0.2c-0.2-0.5-0.3-0.9-0.5-1.3c0.2-0.4,0.3-0.9,0.4-1.2
				c0.8-0.5,1.6-0.4,2.4-0.4c2.8,0,5.5,0,8.3,0c0.4,0,1.2-0.1,1.2-0.1l0.1-37.8c0,0-2.7-0.2-3.3-0.2c-2.1,0-4.2,0-6.2,0
				c-0.2,0-0.5-0.1-0.7-0.1c-0.3-0.3-0.6-0.6-1-0.9V393.9z M63.8,1679.8c-0.5-0.1-0.8-0.1-1.2-0.1c-16.8,0-33.6,0-50.4,0.1
				c-0.1,0-0.3,0.1-0.6,0.3c0,0.8-0.2,1.7,0.1,2.6c1,0.4,2,0.3,3,0.3c12.5,0,25,0,37.5,0c0.9,0,1.8,0,2.5,0c1.4,0.5,2.3,1.3,2.9,2.4
				c0.2,5.2,0.2,31.1-0.1,31.9c-0.4,0.5-0.8,1-1.3,1.6H41.2c-0.9,0.8-2,0.9-3.2,0.8c-2.5,0-5.1,0-7.6,0c-0.5,0-1.1-0.1-1.6,0.6
				c0,1.9-0.1,4-0.1,6c-0.5,0.6-1,1-1.5,1.5h-2.6c-3.8,0-7.6,0-11.3,0c-0.5,0-1,0.1-1.6,0.2c0,1,0,1.8,0,2.6c0,7.2,0,14.5,0,21.7
				c0,4.8,0,9.6,0,14.3c0,0.6-0.2,1.2,0.4,1.8c0.8,0.2,1.7,0.1,2.7,0.1c15.4,0,30.8,0,46.2,0c0.5,0,1.1,0,1.6,0
				c0.4,0,0.9-0.1,1.2-0.2c0.6-2,0.6-2.1-0.2-3.7c-0.7,0-1.5,0-2.2,0c-3.7,0-7.4,0-11.1,0c-0.4,0-0.8-0.1-1.1-0.1
				c-0.4-0.5-0.8-1-1.3-1.6c0-0.7,0-1.6,0-2.4c0-11.1,0-22.2,0-33.3c0-0.5,0-1.1,0-1.6c0.1-0.5,0.2-1,0.3-1.4c0.7-0.8,1.4-1,2.2-1
				c0.9-0.1,1.8-0.1,2.8-0.1c2.8,0,5.5,0,8.3,0c0.8,0,1.7,0.1,2.4-0.7c0.4-1,0.3-2.1,0.3-3.1c0-12,0-24,0-36.1c0-0.6,0-1.2,0-1.8
				C64.1,1680.8,64,1680.3,63.8,1679.8 M156.4,1024.2l-0.1-45.3h-38l0,45.6 M123.9,287.4c0,0-0.2,27.5-0.2,40c0,0.7,0.1,1.4,0.1,1.9
				c0.7,0.9,1.5,0.8,2.3,0.8c6.7,0,13.4,0,20.1,0c0.5,0,1-0.1,1.6-0.2c0.1-0.3,0.1-0.6,0.2-1c-0.7-0.1-1.3-0.1-1.9-0.1
				c-3.4,0-6.8,0-10.2,0c-2,0-4,0-6,0c-0.6,0-1.2,0.1-1.8-0.5c-0.3-0.8-0.2-1.7-0.2-2.6c0-9,0-18,0-27c0-0.6,0-1.2,0-1.8
				c0-0.2,0.1-0.4,0.1-0.6c0.6-0.4,1.1-0.8,1.6-1.2c4.9-0.2,23.9-0.1,25.8,0.1c0.4,0.5,1,1.1,1.5,1.7v5.6v5.5v5.5c0,1.8,0,3.7,0,5.5
				c0,1.8,0.2,5.6,0.2,5.6l53.7,0.2l-0.4-37.2L123.9,287.4z M202.5,238.7c0,0-39.6-0.1-40,0c0,0-0.2,2.7,0.2,6.3
				c0.4,2.9,2,8.4,4.7,13.2c2.5,4.4,5.6,7.3,9,10.1c3,2.5,9.4,5.1,15.1,6.4c1.2,0.3,14.5,2.1,17,2.1c0.6,0,1.9,0,1.9,0v-42l-7.9,0
				L202.5,238.7z M12.8,277.1c0,0,19.4-0.9,30.7-7.2c4.9-2.8,7.4-6,10.7-10.3c3.8-4.9,6.2-20.9,6.2-20.9s-38.3,0.6-38.8,0.5
				c-0.1-1.2-0.2-4.6-0.2-4.6l-8.7,0.1L12.8,277.1z M159.1,1024.4l53.4,0.2l-0.2-45.9h-53.1c0,0,0.2,45.5,0.3,45.7 M56.1,1859.4
				c0.4,0.1,0.7,0.2,1,0.2c35.8,0,71.5,0,107.3,0c0.2,0,0.4-0.1,0.7-0.2c0.1-0.3,0.3-0.6,0.3-0.8c0-3.3,0-6.6,0-9.9
				c0-0.3-0.2-0.5-0.3-0.8c-1.1-0.3-2.1-0.2-3.1-0.2c-34.2,0-68.4,0-102.7,0c-0.7,0-1.4,0-2.1,0c-0.4,0-0.7,0.1-1.1,0.2
				C55.8,1849.6,55.8,1856.9,56.1,1859.4 M62.1,1024.6l-0.2-45.8l-50.3-0.1l0.1,46.1 M37.2,1887.6h148c2-0.5,3-1.3,3.3-1.7l0-3.3
				c-0.4-0.4-0.6-0.7-1-1c-0.7-0.6-1.3-0.7-2.5-0.9H36.2c-1.4,0.7-2.1,0.7-2.5,1.5c0,0.6,0,1.3,0,2.1c0,0.7,0.1,2.3,0.1,2.3
				C34.2,1886.7,35.9,1887.9,37.2,1887.6 M125.3,1769.7l0,18.3l58.2,0l0-18.3 M120.3,1629.8c0,0.8-0.1,1.5-0.1,2.3
				c0,5.2,0,10.3,0,15.5c0,5.6,0,11.2,0,16.9c0,0.7-0.2,1.4,0.4,2.1c0.7,0,1.4,0.1,2.2,0.1c3,0,6,0,9,0c4.8,0,9.5,0,14.3,0
				c0.7,0,1.4,0.2,2.1-0.4c0.3-0.8,0.1-1.6,0.1-2.4c0-10.5,0-20.9,0-31.4c0-0.6,0-1.2,0-1.8c0-0.3-0.2-0.6-0.3-0.8
				c-0.7-0.4-1.4-0.3-2.1-0.3c-7.7,0-15.4,0-23.1,0C122.1,1629.4,121.3,1629.3,120.3,1629.8 M79.9,234.7c0,0,0,1.9,0,2.8
				c0,6.4,0,12.8,0,19.2c0,4,0,8,0,12c0,0.6,0,1.9,0,1.9s12.1-0.4,17.4-3.1c7.3-3.7,11.6-11.4,13.1-13.6c2.3-3.3,3.7-10.4,4.5-13.5
				c0.6-2.4,1.2-4.8,0.8-5.5c-0.2-0.1-0.4-0.2-0.6-0.2c-11.6,0-23.2,0-35,0 M148.4,1715.1c0-0.9,0-1.7,0-2.6c0-3.5,0-6.9,0-10.4
				c0-0.8-0.1-1.6,0.5-2.2c0.8-0.5,1.6-0.3,2.5-0.3c2.5,0,4.9,0,7.4,0c0.8,0,2.4,0,2.4,0c2.9-4.4,2.8-12.8,2.8-12.8
				s-1.7-0.2-2.5-0.2c-6.5,0-13.1,0-19.6,0c-4.7,0-9.4,0-14.1,0c-0.8,0-1.5-0.2-2.4,0.3c0,0.5-0.1,1.1-0.1,1.7
				c-0.2,15.2,0.2,34.6,0.2,34.6C133.2,1724,147.5,1716.1,148.4,1715.1 M36.1,1891.9c-1.4,0.3-1.6,0.6-2.4,1.1l0,3.5
				c0,0,1.1,1,1.9,1.1c0,0,12.9,0,20.1,0c7.2,0,14.5,0,21.7,0h21.7h21.7h21.7c7.2,0,14.5,0,21.7,0c7.2,0,21,0.1,21.6,0
				c1.5-0.2,2.5-1.3,2.5-1.3l0-3.3c0,0-1.3-0.8-2.9-1.2 M36,1902.7c-1.1,0.3-1.8,1-2.2,1.3v3c0.5,0.6,1.3,1.3,2.2,1.5h2
				c48.4,0,96.8,0,145.1,0c0.8,0,2.8-0.2,2.9-0.2c1,0,2.4-1.3,2.4-1.3l0-3.2c0,0-1.2-1-2.8-1 M185,1912.7H37.2
				c-2.3-0.1-3.2,1.1-3.2,1.1l-0.1,4.7c0,0,17.1,0,25.5,0c8.6,0,17.1,0,25.7,0h25.4H136h25.7c8.5,0,25.3,0,25.3,0
				c0.5-0.2,0.8-0.4,1.4-1.2l-0.1-2.8C188.2,1914.6,186.6,1912.8,185,1912.7 M162.5,369.6c0.7,0,1.2,0.1,1.7,0.1c1.8,0,3.7,0,5.5,0
				c6.9,0,13.7,0,20.6,0c0.7,0,1.4,0.2,2-0.4c0.3-2.1-0.2-4.3,0.3-6.4c1.9-0.5,3.8,0,5.5-0.4c0.4-0.4,0.8-0.8,1.3-1.2
				c0.1-3.4,0.1-6.9,0-10.3c-0.5-0.4-0.9-0.8-1.2-1.1c-1.9-0.5-3.8,0.2-5.5-0.6c-0.6-2.1,0.1-4.3-0.4-6.4c-0.9-0.4-1.7-0.3-2.6-0.3
				c-5.5,0-10.9,0-16.4,0c-3,0-6,0-9,0c-0.6,0-1.2-0.1-1.8,0.3C162.2,344.8,162.2,367.2,162.5,369.6 M52.8,362.9
				c2-0.6,3.9,0.1,5.7-0.6c0.4-0.7,0.8-1.5,1.2-2.2c0-2.4,0-4.7,0-7c0-1.3-0.2-2.4-1.3-3.3c-1.8-0.4-3.7,0.2-5.5-0.5
				c-0.6-2.1,0-4.3-0.4-6.4c-0.7-0.5-1.5-0.3-2.3-0.3c-4,0-8,0-12,0c-4.4,0-8.8,0-13.2,0c-0.8,0-1.5-0.2-2.3,0.4
				c0,0.3-0.1,0.7-0.1,1.1c0,8.1,0,16.2,0,24.2c0,0.4,0.1,0.7,0.2,1.2c0.6,0,1.1,0.1,1.7,0.1c2,0,4,0,6,0c6.7,0,13.4,0,20.1,0
				c0.7,0,1.4,0.2,2-0.5C52.7,367.2,52.7,365.2,52.8,362.9 M192.3,1660.6c0-1.4,0-2.4,0-3.5c0-1.1-0.2-2.1,0.3-3.2
				c0.5-0.1,1.1-0.2,1.6-0.2c1.2,0,2.3,0,3.5,0c0.2,0,0.4-0.1,0.7-0.2c0.3-0.3,0.6-0.7,0.8-0.9c0.3-4.1,0.3-9.7-0.2-10.5
				c-0.5-0.4-1-0.8-1.7-1.3c-1.1,0-2.4,0-3.6,0c-0.4,0-0.9-0.1-1.3-0.2c-0.3-1.2-0.1-2.3-0.2-3.3c0-1.1,0.1-2.1-0.2-3.3
				c-0.5,0-0.8-0.1-1.2-0.1c-9.2,0-18.3,0-27.5,0c-0.4,0-0.7,0.1-1.1,0.2c-0.1,0.4-0.1,0.7-0.1,1c0,8.2,0,16.3,0,24.5
				c0,0.4,0.1,0.7,0.2,1c2,0.3,11.6,0.4,27.6,0.2C190.7,1660.7,191.4,1660.7,192.3,1660.6 M58.4,1653.6c1-1,1.4-1.9,1.4-2.9
				c0-2.6,0-5.2,0-7.7c-0.7-0.9-1.2-1.8-2.3-2.3c-1,0-2.2,0-3.3,0c-0.4,0-0.9-0.2-1.4-0.3c0-1.8,0-3.5,0-5.2c0-0.4-0.1-0.9-0.2-1.4
				c-0.7,0-1.3-0.1-1.9-0.1c-2.4,0-4.8,0-7.2,0c-6.2,0-12.3,0-18.5,0c-0.7,0-1.4-0.2-2.1,0.3c0,0.3-0.1,0.7-0.1,1.1c0,8,0,16,0,24
				c0,0.4,0.1,0.9,0.2,1.3c0.9,0.4,1.8,0.3,2.6,0.3c4.9,0,9.9,0,14.8,0c3.5,0,6.9,0,10.4,0c0.6,0,1.2,0.1,1.7-0.3
				c0.3-0.5,0.2-1.1,0.2-1.6c0-1.2,0-2.5,0-3.7c0-0.4,0.2-0.9,0.4-1.4C54.9,1653.7,56.7,1653.7,58.4,1653.6 M63.7,1770.8
				c-1.9-0.2-48.8-0.2-50.8,0c-0.1,0.2-0.2,0.4-0.2,0.6c0,5.1,0,10.2,0,15.2c0,0.3,0.1,0.6,0.2,0.8c0.9,0.6,1.8,0.4,2.7,0.4
				c15.1,0,30.2,0,45.2,0c0.5,0,1.1,0,1.6,0c0.4,0,0.9-0.2,1.2-0.3c0.5-0.7,0.5-1.4,0.5-2.1c0-4.2,0-8.5,0-12.7
				C64.2,1772.1,64.2,1771.4,63.7,1770.8 M148.4,1739.8c0-4,0-19.3,0-19.3c-12.9,6.5-21.8,7.2-23,7.4l0,39l18.4-0.1l3.3,0.1
				c2.4,0,8.1,0,8.5-0.1c0.4,0,1.1,0.1,1.1,0.1c-1.1-0.6-1.9-1.5-2.4-3l-5.8,0c0,0,0-18.3,0-19.7 M194.1,1792.7
				c-0.6-0.1-1.1-0.3-1.6-0.4c-0.6-0.1-1.2,0-1.8,0c-2.9,0-5.7,0-8.5,0c-0.9,0-1.8,0-2.7,0.7c0,0.8,0,1.7,0,2.5c0,15,0,30,0,45.1
				c0,0.6,0,1.2,0,1.8c0,0.4,0.1,0.7,0.2,1c0.3,0.1,0.6,0.2,0.8,0.2c4.3,0,8.6,0,12.9,0c0.3,0,0.6-0.2,0.8-0.3
				C194.4,1841.3,194.4,1794.9,194.1,1792.7 M62.6,284.8c-1,0-1.8-0.1-2.6-0.1c-15.5,0-31,0-46.5,0c-0.5,0-1.1,0-1.6,0
				c-0.4,0-0.7,0.2-1,0.2c-0.3,0.9-0.2,1.6-0.2,2.4c0,11.5,0,23,0,34.5c0,0.8,0.1,1.5,0.1,2.3c0,0.1,0.2,0.2,0.3,0.4
				c0.2,0,0.4,0.1,0.6,0.1c0.3,0,0.6-0.1,0.8-0.2c0.4-1,0.2-1.9,0.2-2.9c0-9.8,0-19.6,0-29.4c0-0.8,0.1-1.7,0.1-2.5
				c0-0.2,0.2-0.4,0.3-0.7c0.4-0.3,0.9-0.6,1.2-0.8c2-0.2,15.8-0.3,19.9-0.1c0.4,0.2,0.9,0.5,1.4,0.7c0.2,0.2,0.3,0.5,0.5,0.7
				c0.2,0.2,0.4,0.5,0.6,0.7c0,0.9,0,1.9,0,2.8c0,9.3,0,18.7,0,28c0,0.8,0,1.5,0,2.3c0,0.4,0.2,0.8,0.4,1.4c0.9,0,1.6,0,2.4,0
				c2.9,0,5.9,0,8.8,0c4.2,0,8.3,0,12.5,0c0.7,0,1.4,0.2,2-0.4C62.9,322.2,62.8,286.8,62.6,284.8 M59.7,74.5
				c0.8,0.1,1.2,0.1,1.7,0.1c35.5,0,71,0,106.5-0.1c0.1,0,0.6-0.1,0.4-0.3c-1.6-1.3-3.4-2.4-7.9-5.5H66.1
				C62.9,71.1,63,71.2,59.7,74.5 M154.2,323.4v-24.6c-0.4-0.4-0.7-0.8-1.1-1.2c-3.1,0-9.9,0-9.9,0l0,10.1l-3,0l0-10.1
				c0,0-2.2,0-3.1,0c-1,0-2,0-3,0c-0.9,0-1.8-0.2-2.7,0.3c-0.3,2-0.4,18.8-0.2,26.1c0,0.4,0.1,0.9,0.2,1.4c2.2,0.5,4.3,0.2,6.5,0.2
				c0.7,0,1.4,0.2,2.1-0.4c0.3-2.8-0.1-5.7,0.2-8.6c0.5-0.4,2.5-0.1,3,0.5c0,0.8,0,1.7,0,2.5c0,1.5,0,3.1,0,4.6
				c0,0.4,0.2,0.8,0.3,1.3h4.2c0.4-0.3,0.8-0.6,1.2-0.9c1.4,0,2.8-0.1,4.2-0.1C153.5,324.2,153.9,323.8,154.2,323.4 M16.6,323.4
				c3.8,0.3,15.4,0.3,16.3-0.1c0.2-0.3,0.5-0.6,0.8-1c0-0.8,0-1.6,0-2.3c0-5.5,0-11.1,0-16.6c0-3.4,0-6.8,0-10.2
				c0-0.5,0.1-1.1-0.5-1.6c-0.4-0.1-1-0.1-1.5-0.2c-0.8,0-1.5,0-2.3,0c-3.7,0-7.4,0-11.1,0c-0.8,0-1.7-0.1-2.4,0.4
				c-0.3,2.1-0.3,30,0.1,31.1C16,322.9,16.3,323.2,16.6,323.4 M168.8,1859.7l0,1.7l6.2,0l0,3l-14,0c0,0-1.4-1.3-2-1.9c-1,0-2,0-3,0
				c-11.5,0-23,0-34.4,0c-11.6,0.1-23.1-0.2-34.7,0.2c-7.1,0.2-14.2,0-21.3,0c-0.8,0-1.7,0-2.4,0c-0.7,0.7-1.8,1.8-1.8,1.8
				l-14.6,0.1l0-3.2l5.6,0c0,0,0-1.2,0-1.6c0-0.1-17.4-0.1-17.4-0.1s-0.7,0.1-1.4,0.8l0,3.6c0.5,0.5,1.6,1.2,2.3,1.3
				c1.3,0.2,1.6,0.1,1.6,0.1c4.4,0,8.8,0,13.2,0c22,0,44.1,0.1,66.1,0.1c10,0,20-0.1,30.1-0.1c11.7,0,23.4,0.1,35.1,0.1
				c1.4,0,3.8,0,4.3-0.3c1.6-0.8,1.1-0.5,2-1.2l-0.1-3.2c0,0-1.1-1.1-2.6-1.2C181.6,1859.3,168.8,1859.7,168.8,1859.7z M83.7,125.7
				l-39.5-0.1l-0.1,11.9l39.6-0.1C83.7,137.3,83.8,126.2,83.7,125.7 M212.9,1795.5c-1-0.9-1.4-1.9-1.6-3c-1.3-0.2-2.5-0.4-3.6,0.5
				c0,0.8-0.1,1.7-0.1,2.5c0,15.1,0,30.2,0,45.3c0,0.5,0,1.1,0,1.6c0,0.4,0,0.8,0.5,1.2c0.3,0,0.7,0.1,1.2,0.1c1.3,0,2.6,0,3.9,0
				c0.8,0,1.6,0,2.3,0.1c0.6,0.1,1.1,0.4,1.8,0.7c0.1-0.3,0.2-0.6,0.2-0.9c0-0.6,0-1.2,0-1.8c0-14.5,0-28.9,0-43.4
				c0-0.6,0-1.2,0-1.8c0-0.3-0.1-0.6-0.2-0.8c-0.8-0.2-1.4,0-2,0.4c-0.2,0.1-0.4,0.1-0.7,0.2
				C213.9,1796.1,213.4,1795.8,212.9,1795.5 M117.3,333.6l-37.2,0l-0.1,14l33.5-0.1c0,0,0.6-1.2,0.9-1.8c0.3-0.7,1.3-3.8,2.1-6.8
				C117.1,336.7,117.3,333.6,117.3,333.6z M63.6,1761.5c0.3-2,0.4-15.5,0.2-32.8c0-0.7-0.1-1.4-0.1-2.1c-0.5-0.2-1-0.4-1.4-0.4
				c-3.2,0-6.5,0-9.7,0c-0.6,0-1.1,0.3-1.8,0.5c0,0.9-0.1,1.6-0.1,2.4c0,2.9,0,5.9,0,8.8c0,7,0,14,0,21c0,0.8-0.1,1.7,0.2,2.5
				c0.3,0.1,0.5,0.2,0.7,0.2c3.6,0,7.2,0,10.9,0C62.9,1761.7,63.2,1761.6,63.6,1761.5 M205.3,1843.5c0.4-1.1,0.2-2.1,0.2-3.1
				c0-14.9,0-29.7,0-44.6c0-0.6,0-1.2,0-1.8c0-0.4-0.2-0.9-0.2-1.3c-0.3-0.1-0.5-0.3-0.7-0.3c-2.2,0-4.5-0.1-6.7,0
				c-0.4,0-0.8,0.3-1.3,0.5v2.4c0,15.2,0,30.3,0,45.5c0,0.5,0,1.1,0,1.6c0,0.4,0.1,0.7,0.2,1C198.7,1843.8,203,1843.8,205.3,1843.5
				 M83.8,111.9l-39.8,0l0,10.4l39.8-0.1L83.8,111.9z M150.4,234.6l-28.4,0.1l0.1,13.2l34.1,0.1l0.1-9.1l-5.8,0 M148.4,352.6h-24.6
				l0,18l24.7-0.1 M111,352.8c-0.7,0-30.8-0.1-30.8-0.1L80,370.8c0,0,11.9-0.1,16.2-2.5c2.9-1.6,5.5-3.7,7.9-6
				c1.3-1.2,2.1-2.7,3.1-4.1c0.2-0.3,2.8-3.6,3.3-5.4 M54.7,1715.5c0-0.8,0.1-1.5,0.1-2.2c0-3.1,0-6.2,0-9.2c0-5,0-10,0-15
				c0-0.8,0.2-1.5-0.4-2.3c-0.2-0.1-0.5-0.3-0.8-0.3c-3.5,0-6.9-0.1-10.4-0.1c-0.4,0-0.7,0.1-1.1,0.2c-0.1,0.3-0.3,0.5-0.3,0.7
				c0,9-0.1,18-0.1,27c0,0.4,0.1,0.7,0.2,1.2c0.4,0.1,0.8,0.2,1.2,0.2C47,1715.8,52.8,1715.7,54.7,1715.5 M219.5,822.1v-84
				c-0.5-0.8-0.9-1.6-1.3-2.3c-0.3,0-0.6-0.1-0.9-0.1c-0.3,0-0.6,0.1-0.9,0.1c-0.3,0.3-0.5,0.6-0.9,1c-0.1,0.9-0.2,1.8-0.2,2.7
				c0,2.6,0,5.2,0,7.9c0,24.2,0,48.4,0,72.5c0,1.1,0.1,2.3,0.1,3.4c0.5,0.6,0.9,1,1.3,1.4c0.6-0.1,1-0.1,1.4-0.1
				C218.7,823.7,219.1,822.9,219.5,822.1 M215.8,1317.1c-0.5,1.3-0.4,2.5-0.4,3.8c0,12.6,0,25.1,0,37.7c0,13.9,0,27.9,0,41.8
				c0,1.3,0,2.6,0.2,3.9c0.6,0.5,1.1,0.9,1.6,1.4c0.3-0.1,0.6-0.1,0.8-0.1c0.5-1,1-1.8,1.4-2.8v-83.9c-0.5-0.8-0.9-1.5-1.3-2.2
				C217,1316.6,217,1316.5,215.8,1317.1 M219.5,546.5v-83.8c-0.5-0.8-0.9-1.5-1.3-2.1c-1.3,0-1.3,0-2.5,0.6
				c-0.4,1.2-0.3,2.5-0.3,3.9c0,26.3,0,52.7,0,79c0,0.9,0,1.8,0.1,2.8c0,0.5,0.2,1,0.4,1.6c0.9,0.3,1.7,0.6,2.4,0.2
				C218.7,547.9,219.1,547.2,219.5,546.5 M13.8,1686.6c-0.2,0.4-0.4,0.8-0.4,1.3c-0.1,0.6-0.1,1.2-0.1,1.8c0,7.6,0,15.2,0,22.9
				c0,0.6,0,1.2,0.1,1.8c0,0.4,0.2,0.7,0.3,1c1.8,0.3,5.7,0.4,10.7,0.2c0.4,0,0.7-0.1,1.2-0.2c0-0.8,0.1-1.4,0.1-2.1
				c0-3.4,0-6.8,0-10.2c0-4.8,0-9.5,0-14.3c0-0.8,0.2-1.5-0.4-2.3c-0.2-0.1-0.5-0.2-0.8-0.2c-3.2,0-6.3,0-9.5,0
				C14.6,1686.4,14.3,1686.5,13.8,1686.6 M7.6,1399.3V1322c-0.7-0.7-0.8-1.7-0.9-2.7c-0.1-0.9,0-1.9-0.5-2.6
				c-1.2-0.2-1.3-0.2-2.4,0.6c-0.3,1.9-0.3,3.9-0.3,5.9c0,25.3,0,50.5,0,75.8c0,1.8,0.1,3.5,0.2,5.2c0.5,0.6,0.9,1,1.3,1.4
				c0.5,0,0.9,0.1,1.4-0.5c0.1-1.2,0.3-2.6,0.5-4.1C7.1,1400.5,7.4,1399.9,7.6,1399.3 M6.9,820.1c0.6-0.7,0.8-1.6,0.8-2.5
				c0-0.5,0-0.9,0-1.4c0-24.3,0-48.5,0-72.8v-2.2c-0.3-0.5-0.5-0.9-0.7-1.2c-0.1-1.3-0.3-2.5-0.4-3.8c0-0.2-0.2-0.4-0.3-0.6H4.7
				c-0.3,0.4-0.7,0.8-1,1.2c-0.1,1.8-0.2,3.6-0.2,5.3c0,9.8,0,19.6,0,29.4c0,16.2,0,32.4,0,48.5c0,1.1,0.1,2.1,0.1,3.3
				c0.4,0.5,0.8,0.9,1.2,1.3c0.7-0.1,1.1-0.2,1.7-0.3C6.6,823.1,6.7,821.8,6.9,820.1 M7.6,543.2v-77.2c-0.7-0.9-0.9-2-0.9-3.2
				c0-0.7,0-1.5-0.5-2.2c-0.9-0.2-1.7,0-2.3,0.4c-0.4,1.2-0.4,2.4-0.4,3.5c0,26.7,0,53.3,0,80c0,0.8,0,1.5,0.1,2.3
				c0.1,0.5,0.2,1,0.3,1.5c0.9,0.4,1.7,0.6,2.4,0.1C7,546.7,6.4,544.7,7.6,543.2 M188,1680.6l-5.4,0c-6.4,2.4-8.3,11-8.1,12.1
				l0.1,6.8l22.1-0.1l0.2-6C196.8,1688.8,192.5,1682,188,1680.6z M124.1,138.3l34.9,0l-0.2-9.6l-34.8,0.2
				C124.1,128.9,123.9,134.2,124.1,138.3 M148.1,333.7c-0.9-0.4-1.8-0.3-2.6-0.3c-6.2,0-12.3,0-18.5,0c-0.5,0-1.1,0-1.6,0
				c-0.4,0.1-0.9,0.2-1.2,0.3c-0.1,0.3-0.2,0.6-0.2,0.8c0,3.9,0,7.7,0,11.6c0,0.4,0.2,0.9,0.4,1.2c2.2,0.3,10.8,0.4,22.3,0.2
				c0.5,0,1-0.1,1.7-0.1c0.1-0.5,0.2-0.9,0.2-1.4C148.6,340.5,148.4,335.5,148.1,333.7 M19.4,228.7l0.2-62.8l-6.6,0l-0.1,62.7
				L19.4,228.7z M170.5,1713.9l0,3.4l9.9,4.3l-9.9,3.2l0,4.4c0,0,19.9,5.4,19.9,5.1c0-1.1,0.1-3.2,0-4.3c-1.6-0.7-11.4-3.3-11.4-3.3
				s10.5-3.1,11.4-3.5v-3.3c-1.4-0.5-11.9-3.7-11.9-3.7l12-3.2v-4.3 M158.9,125.3l-0.1-8.5l-34.8,0.3l0,8.1
				C124.1,125.3,158.7,125.4,158.9,125.3 M185.5,1769.8l0,18l17,0l0-18 M28.9,1715.5c0.3,0.1,0.6,0.2,0.8,0.2c2.7,0,5.4,0,8.1,0
				c0.3,0,0.6-0.2,0.8-0.2c0.3-2.3,0.4-17.2,0.2-27.1c0-0.4-0.1-0.9-0.1-1.3c-0.3-0.1-0.5-0.3-0.7-0.3c-2.7,0-5.4,0-8.1,0
				c-0.3,0-0.6,0.1-1,0.2c-0.1,0.4-0.1,0.8-0.1,1.1C28.5,1694.2,28.7,1713.3,28.9,1715.5 M35.9,1869c1.4-0.3,3.3-0.3,3.3-0.3
				c34.8,0,69.6,0,104.5,0c12.5,0,25,0,37.4,0.1c1.2,0,4.6,0.6,4.9,0.7c1.1,0.4,2.5,1.2,2.5,1.2l0-5.1c0,0-0.5,0.4-1.8,0.9
				c-0.6,0.2-2.6,0.3-3.8,0.3c-5.4,0-10.8,0.1-16.2,0.1c-20.8,0-41.6,0-62.4,0c-22.4,0-44.8,0-67.2,0c-0.8,0-0.9,0-1.6-0.1
				c-0.9-0.1-1.8-0.7-1.8-0.7l0,3.6 M37.9,1890.5c48.2,0,96.5,0,144.7,0c0.5,0,1.1,0,1.6,0c2,0,4.2,1.1,4.2,1.1l0-4.1
				c0,0-1.9,1-3.4,1c-4.5,0.1-8.9,0.1-13.4,0.1c-45.5,0-90.9,0-136.4,0c-0.1,0-0.1,0-0.2-0.1c-0.1,0-0.1-0.1-0.2-0.1
				c-0.3-0.2-0.9-0.6-0.9-0.6l0,3.5c0,0,0.8-0.5,1.9-0.8 M36.1,1911.7h149.7c1.8,0.5,2.5,1.3,2.5,1.3l0-4.1c0,0-0.7,0.5-1.6,0.7
				l-2.8,0.2c-48.8,0-97.7,0-146.5,0c-0.8,0-2.4,0.3-3.5-0.5l0,3.2C33.8,1912.5,34.9,1911.6,36.1,1911.7 M209.4,228.5l-1.3-63.5
				l-3.5,0l-0.1,63.6C204.5,228.5,208.2,228.8,209.4,228.5 M148.1,1673.8c-1.1-0.5-2-0.4-2.9-0.4c-5.6,0-11.3,0-16.9,0
				c-0.5,0-1.1,0-1.6,0c-0.4,0-0.9,0.2-1.2,0.3c-0.3,2-0.3,6.8,0,8.6c0.8,0.5,1.6,0.3,2.5,0.3c8.2,0,16.3,0,24.5,0c4,0,8,0,12,0
				c0.8,0,1.5-0.1,2.3-0.3c0.2,0,0.4-0.3,0.5-0.4c0.2-0.7,0.3-1.4-0.2-2c-0.7-0.5-1.5-0.4-2.3-0.4c-2.8,0-5.5,0-8.3,0
				c-2.2,0-4.3,0-6.5,0c-0.5,0-1.1,0-1.5-0.5C148.1,1677.4,148.6,1675.6,148.1,1673.8 M190.8,80.6c0,0-18.6,0.1-26.5,0.2
				c-0.1,0,0.9,0.4,0.8,4.2c0,1.9-1.4,4.6-1.2,4.7c0.6,0.1,28.2-0.2,28.4-0.3L190.8,80.6z M44,146.6l39.9,0l0-5.9c0,0-21.5,0-30.8,0
				c-2.6,0-9.1,0-9.1,0L44,146.6 M214.7,275.5l4.5,0l-0.2-36.6l-4.4-0.1 M215.6,1767.3c0.5,0.3,0.9,0.7,1.3,0.8
				c0.4,0.1,0.8,0.1,1.2,0.1c0.5-0.8,0.9-1.4,1.2-2.1c0.3-0.7,0.2-1.5,1.1-1.8v-34c-0.8-1.4-1.5-2.6-2.2-3.7
				c-0.9-0.2-1.7-0.1-2.5,0.4c-0.2,0.7-0.3,1.4-0.4,2c-0.2,0.3-0.5,0.6-0.7,0.9v34.4c0.3,0.3,0.5,0.5,0.7,0.8
				C215.4,1765.9,215.5,1766.5,215.6,1767.3 M214.6,361.2v1.5c0,11.9,0,23.8,0,35.8c0,0.5,0,0.9,0,1.4c0,0.2,0.1,0.4,0.1,0.5
				c0.5,0.4,0.9,0.8,1.3,1.1h2.2c0.5-0.8,0.9-1.5,1.3-2.3v-37c-0.3-0.4-0.6-0.8-0.8-1.2c-0.2-0.4-0.3-0.8-0.5-1.3H216
				C215.5,360.2,215.1,360.6,214.6,361.2 M31,89.9c0,0,22.1-0.1,24.8-0.1c0.6,0-1.1-1.6-1.5-4.4c-0.3-2,0.8-4.4,1-4.6l-21.8,0.1
				c0,0-1.1,2.4-1.6,4.6C31.2,88.6,31,89.9,31,89.9z M214.7,299.2c-0.2,4.3-0.2,37.5,0.1,38.1c0.2,0.2,0.4,0.4,0.7,0.6
				c0.1,0.5,0.2,1,0.4,1.6c0.4,0,0.8,0.1,1.2,0.1c0.9-0.8,1.7-1.7,2.5-2.4v-36.8c-0.3-0.4-0.6-0.8-0.8-1.2c-0.2-0.5-0.4-1-0.5-1.5
				H216C215.6,298.2,215.1,298.7,214.7,299.2 M161.4,125.4l26.8,10.3l0.2-6.5l-27-11.3C161.4,117.9,161.4,122.8,161.4,125.4
				 M52.6,1665c-2.3-0.3-21.5-0.5-28.9-0.2c-0.3,0-0.6,0.1-1,0.2c0,0.5-0.1,1-0.1,1.4c0,1.1,0,2.3,0.1,3.4c0.4,0.3,0.8,0.6,1.1,0.9
				c0.4,0.3,0.9,0.6,1.3,0.9c5.6,0.2,23.5,0.1,25.5-0.1c0.7-0.8,1.3-1.6,2-2.3V1665z M192.3,1664.8c-0.9,0-1.6-0.1-2.3-0.1
				c-8.5,0-16.9,0-25.4,0c-0.7,0-1.5-0.2-2.3,0.4c-0.1,1.5-0.2,3,0.1,4.6c0.7,0.6,1.5,1.2,2.3,1.8h25.4c0.8-0.8,1.5-1.5,2.2-2.2
				V1664.8z M162.4,1630.4c1,0.4,1.9,0.2,2.7,0.2c6.7,0,13.4,0,20.1,0c1.9,0,3.9,0,5.8,0c0.4,0,0.9-0.2,1.3-0.3v-3.8
				c-0.4-0.6-0.8-1.2-1.2-1.7c-0.6-0.4-1.2-0.8-1.8-1.2c-8.2,0-16.4,0-24.4,0c-1,0.7-1.7,1.2-2.6,1.8
				C162.2,1627,162.2,1628.6,162.4,1630.4 M49.4,1623.7H25.1c-0.8,0.7-1.6,1.3-2.4,1.9c-0.1,1.6-0.4,3.2,0.1,4.7
				c0.9,0.4,1.8,0.2,2.6,0.2c6.7,0,13.4,0,20.1,0c1.9,0,3.9,0,5.8,0c0.4,0,0.9-0.2,1.3-0.3v-3c-0.5-0.9-0.8-1.6-1.1-2.4
				C50.9,1624.6,50.2,1624.1,49.4,1623.7 M23.8,379.3c1,0.5,2,0.5,3,0.5c7.1,0,14.2,0,21.3,0c1.2,0,2.3,0,3.5-0.4
				c0.4-0.5,0.7-1.1,1.1-1.7c0-1.3,0.2-2.6-0.1-4c-0.6-0.1-1.1-0.1-1.7-0.1c-8.7,0-17.4,0-26.1,0c-0.6,0-1.2,0.1-1.8,0.2
				c-0.3,1.6-0.2,3.1-0.1,4.6C23.2,378.8,23.5,379.1,23.8,379.3 M192.4,378.2c0-1.2,0-2.2,0-3.3c0-0.4,0-0.8-0.4-1
				c-2-0.3-21.3-0.4-28.2-0.2c-0.5,0-0.9,0.1-1.5,0.2c-0.1,1.6-0.2,3.1,0.1,4.5c0.5,0.4,0.9,0.8,1.3,1.2c0.8,0.1,1.6,0.2,2.4,0.2
				c7.5,0,14.9,0,22.4,0c0.8,0,1.7-0.2,2.3-0.3C191.5,379.1,191.9,378.7,192.4,378.2 M158.8,146.7l0-5.1l-34.7,0.2l0,4.9
				L158.8,146.7z M190.2,332.8h-25.9c-0.7,0.4-1.2,0.8-1.9,1.2c-0.1,1.5-0.3,3.1,0.1,4.6c0.9,0.4,1.8,0.2,2.6,0.2
				c7.9,0,15.8,0,23.8,0c0.7,0,1.4,0,2.1,0c0.4,0,0.9-0.2,1.3-0.3V335C191.6,334.3,190.9,333.6,190.2,332.8 M50.4,332.8
				c-4.6-0.2-25.2-0.2-25.9,0.1c-0.6,0.4-1.1,0.7-1.7,1.1c-0.4,1.2-0.3,2.5-0.2,3.7c0,0.4,0.2,0.7,0.3,1c1.6,0.2,26.1,0.3,28.7,0.2
				c0.3,0,0.6-0.1,0.9-0.2c0.2-1,0.2-1.9,0-2.7c-0.4-0.7-0.7-1.4-1-2C51.2,333.5,50.9,333.2,50.4,332.8 M99.9,129.3l0.1,7.4
				c0,0,20.6-10.2,21.1-10.7c0-2.5-0.2-8.3-0.2-8.3 M219.5,1291.7V1255c-0.5-1.1-0.8-1.9-1.2-2.8c-0.1-0.1-0.2-0.2-0.4-0.4h-0.8
				c-0.5,0.4-1,0.7-1.6,1.2c0,1.2-0.1,2.5-0.1,3.8c0,10.6,0,21.1,0,31.7c0,1.5,0.1,3.1,0.1,4.6c0.5,0.5,1,1,1.4,1.5
				C218.5,1294.2,218.6,1292.6,219.5,1291.7 M215.6,1562.9c-0.1,1.1-0.1,2-0.1,2.9c0,11.2,0,22.5,0,33.7c0,0.9,0.1,1.8,0.2,2.8
				c0,0.1,0.1,0.3,0.2,0.6c0.1,0.1,0.4,0.4,0.6,0.7h1.8c0.5-0.8,0.9-1.6,1.4-2.3v-36.9c-0.5-1-0.8-1.7-1.1-2.3
				c-0.1-0.1-0.2-0.2-0.4-0.3h-1.2C216.4,1562.1,216,1562.5,215.6,1562.9 M215.8,1428.2c-0.4,1.2-0.4,2.4-0.4,3.5c0,11,0,22,0,33
				c0,0.9,0.1,1.8,0.1,2.8c0,0.3,0.1,0.6,0.1,0.8c0.5,0.4,1,0.7,1.6,1.1c0.3,0,0.6-0.1,0.9-0.1c0.5-0.8,0.9-1.6,1.4-2.5
				c0.2-2.1,0.2-35.4,0-37.3c-0.4-0.7-0.9-1.4-1.3-2.1C217.2,1427.4,216.5,1427.6,215.8,1428.2 M215.6,1055
				c-0.1,0.7-0.2,1.5-0.2,2.3c0,11.6,0,23.3,0,34.9c0,0.9,0,1.8,0.3,2.6c0.7,0.9,1.5,1.1,2.5,0.8c0.5-0.8,0.9-1.6,1.3-2.4v-36.9
				c-0.3-0.4-0.6-0.8-0.8-1.2c-0.2-0.4-0.3-0.8-0.5-1.2h-1.1C216.5,1054.3,216.1,1054.6,215.6,1055 M215.8,1492
				c-0.4,1.2-0.4,2.4-0.4,3.6c0,11.1,0,22.2,0,33.2c0,0.9,0.1,1.8,0.1,2.8c0,0.2,0.1,0.4,0.2,0.6c0.5,0.4,1,0.8,1.5,1.2
				c0.3,0,0.6-0.1,0.9-0.1c0.2-0.5,0.3-0.9,0.5-1.3c0.2-0.4,0.5-0.7,0.8-1.1v-37.1c-0.5-0.8-0.9-1.5-1.3-2.2
				C217.3,1491.3,216.6,1491.6,215.8,1492 M215.5,1123.1c0,1.1-0.1,2.1-0.1,3.1c0,10.9,0,21.9,0,32.8c0,1.5,0.1,2.9,0.2,4.3
				c1,0.6,1.8,0.6,2.6,0.2c0.5-0.9,0.9-1.6,1.3-2.5c0-12.1,0-24.5,0-36.4c-0.6-1.2-1.1-1.9-1.5-2.8c-0.3,0-0.6,0-0.8,0
				C216.7,1122.2,216.2,1122.6,215.5,1123.1 M219.5,881.7v-36.9c-0.4-0.7-0.9-1.5-1.3-2.2c-1-0.2-1.7,0.1-2.4,0.5
				c-0.4,1-0.4,2.1-0.4,3.1c0,11.3,0,22.7,0,34c0,1,0.1,2,0.2,3c0.3,0.2,0.6,0.3,0.8,0.5c0.3,0.2,0.6,0.5,0.8,0.7
				c0.4-0.1,0.7-0.1,0.9-0.2C218.6,883.4,219,882.7,219.5,881.7 M219.5,642.5v-36.7c-0.5-0.8-0.9-1.6-1.4-2.3c-0.4,0-0.7-0.1-1,0
				c-0.4,0.1-0.9,0.3-1.3,0.4c-0.5,1.2-0.4,2.5-0.4,3.7c0,10.8,0,21.6,0,32.4c0,1.4,0.1,2.8,0.2,4.2c0.1-0.1,0.2-0.2,0.3-0.3
				c0.4,0.6,0.7,1.2,1,1.8C218.5,645.1,218.7,643.6,219.5,642.5 M215.5,672.8c0,1.2-0.1,2.3-0.1,3.5c0,10.5,0,20.9,0,31.4
				c0,1.5,0.1,2.9,0.2,4.4c0,0.1,0.1,0.3,0.2,0.6c0.4,0.3,0.8,0.7,1.3,1.1c0.4-0.1,0.8-0.3,1.1-0.3c0.5-0.8,0.9-1.6,1.4-2.5V674
				c-0.5-0.8-0.9-1.5-1.3-2.3c-0.6,0-1.2,0.1-1.8,0.1C216.1,672.2,215.9,672.4,215.5,672.8 M219.5,1227.6v-36.8
				c-0.5-0.8-0.9-1.5-1.3-2.2c-0.9-0.1-1.7,0.1-2.4,0.6c-0.5,1.2-0.4,2.4-0.4,3.5c0,10.8,0,21.5,0,32.3c0,1.5,0.1,2.9,0.2,4.3
				c0.5,0.4,1,0.8,1.4,1.2C218.7,1230.1,218.6,1228.5,219.5,1227.6 M216.8,952.6c0.7-0.1,1.1-0.1,1.4-0.2c0.5-0.9,0.9-1.6,1.3-2.3
				v-37.1c-0.5-0.8-0.9-1.5-1.3-2.2c-1-0.2-1.8-0.2-2.4,0.6c-0.4,0.8-0.4,1.8-0.4,2.7c0,11.6,0,23.2,0,34.9c0,0.8,0.1,1.5,0.2,2.3
				c0.1-0.1,0.2-0.1,0.3-0.2C216.1,951.6,216.4,952,216.8,952.6 M177.5,161.7l16.9-0.1l0-8.5l-19.1-0.1l0,6
				C175.2,159,176.7,160.9,177.5,161.7 M3.6,1253.1c0,1.1-0.1,2.2-0.1,3.3c0,10.9,0,21.7,0,32.6c0,1.5,0.1,2.9,0.2,4.5
				c0.8,0,0.7,1.1,1.7,1.1c0.3-0.3,0.7-0.7,1-0.9c0.8-1.9-0.1-3.9,1.3-5.4v-30.1c-0.2-0.5-0.5-0.9-0.6-1.3c-0.1-0.5-0.1-1.1-0.2-1.6
				c-0.1-1-0.2-2-0.4-3c0-0.1-0.2-0.3-0.3-0.4H5C4.6,1252.2,4.2,1252.6,3.6,1253.1 M3.7,299.2c0,2.4-0.1,4.8-0.1,7.2
				c0,9.1,0,18.2,0,27.3c0,1.5,0.1,3.1,0.1,4.6c0,0.4,0.2,0.9,0.3,1.2c0.9,0.3,1.8,0.4,2.6-0.2c0.1-1.4,0.2-2.7,0.3-4
				c0.3-0.4,0.5-0.8,0.7-1.2V304c-0.3-0.7-0.5-1.3-0.8-1.9c-0.2-1.5-0.1-3-0.6-4.4H4.9C4.5,298.2,4.1,298.6,3.7,299.2 M3.6,1123.1
				c0,1.3-0.1,2.5-0.1,3.7c0,10.2,0,20.5,0,30.7c0,1.6,0.1,3.2,0.2,4.8c0,0.4,0.1,0.7,0.2,1c1.3,0.4,1.3,0.4,2.5,0
				c0.6-1.3,0.3-2.7,0.5-4.1c0.3-0.5,0.5-0.9,0.7-1.3v-30.1c-0.3-0.6-0.5-1.2-0.7-1.7c-0.2-1.5,0-3-0.7-4.4H5.1
				C4.6,1122.3,4.2,1122.6,3.6,1123.1 M3.9,672.2c-0.5,1.2-0.4,2.5-0.4,3.7c0,10.6,0,21.2,0,31.9c0,1.4,0.1,2.8,0.2,4.1
				c0,0.2,0.1,0.4,0.2,0.7c0.4,0.3,0.8,0.7,1.2,1c0.5-0.2,0.9-0.3,1.3-0.4c0.6-1.4,0.4-2.9,0.6-4.3c0.5-0.9,0.8-1.9,0.8-3
				c0-9.5,0-18.9,0-28.4c0-0.2,0-0.3-0.1-0.5c-0.2-0.4-0.5-0.8-0.7-1.1c-0.2-1.4-0.1-2.8-0.5-4.1C5.5,671.7,4.8,671.6,3.9,672.2
				 M3.7,360.9c-0.1,0.8-0.2,1.6-0.2,2.3c0,11.6,0,23.2,0,34.9c0,0.9,0.1,1.8,0.2,2.5c0.8,1.1,1.7,1,2.6,0.8
				c0.5-1.4,0.3-2.8,0.5-4.2c0.3-0.5,0.5-0.9,0.8-1.3c0-9.7,0-19.3,0-28.9c0-1.1-0.1-2.2-0.8-2.9c-0.1-1.4-0.3-2.6-0.4-3.8
				c0-0.2-0.2-0.4-0.3-0.6H4.8C4.5,360.1,4.2,360.4,3.7,360.9 M7.6,1598.2c0-0.2,0.1-0.4,0.1-0.5c0-9.5,0-19.1,0-28.6
				c0-1.1-0.2-2.1-0.8-2.9c-0.2-1.5-0.1-2.9-0.6-4.3c-0.6-0.1-1.1-0.2-1.6,0.1c-0.3,0.4-0.7,0.8-1.1,1.2c0,1-0.1,2.1-0.1,3.2
				c0,9.8,0,19.5,0,29.3c0,1.6,0,3.2,0,4.8c0,0.8,0.2,1.7,0.4,2.5c0,0.2,0.3,0.3,0.4,0.5c0.7,0.3,1.3,0.4,2.1-0.1
				c0.1-1.3,0.3-2.7,0.4-4.1C7.1,1598.9,7.4,1598.5,7.6,1598.2 M3.9,1492c-0.5,1.3-0.4,2.6-0.4,3.9c0,9.9,0,19.7,0,29.6
				c0,2.2,0.1,4.5,0.1,6.6c0.5,0.6,1,1.1,1.4,1.6c0.4-0.1,0.8-0.2,1.2-0.3c0.5-1.5,0.5-2.9,0.6-4.3c0.3-0.6,0.5-1.2,0.8-1.8V1497
				c-0.8-0.8-0.8-2.1-0.9-3.3c-0.1-0.7,0.1-1.6-0.5-2.2C5.3,1491.3,4.6,1491.6,3.9,1492 M3.9,1428.1c-0.4,1.3-0.4,2.6-0.4,3.8
				c0,8.9,0,17.7,0,26.6c0,3.1,0.1,6.2,0.2,9.2c0,0.2,0.1,0.5,0.1,0.7c0.2,0.2,0.5,0.4,0.7,0.6c0.2,0.2,0.4,0.4,0.6,0.6
				c0.5-0.1,0.8-0.1,1.2-0.2c0.6-1.4,0.5-2.8,0.6-4.2c0.3-0.7,0.5-1.5,0.8-2v-30.3c-0.7-0.7-0.8-1.7-0.9-2.7c-0.1-0.9,0-1.9-0.6-2.6
				C5.3,1427.3,4.6,1427.6,3.9,1428.1 M3.9,603.8c-0.5,1.5-0.4,2.8-0.4,4.1c0,10.6,0,21.1,0,31.7c0,1.5,0.1,3.1,0.1,4.6
				c0.5,0.5,1,1,1.5,1.5c0.5-0.4,0.9-0.8,1.3-1.1c0.6-1.9-0.1-4,1.2-5.5v-30.1c-0.6-0.9-0.9-1.9-0.9-3c0-0.5-0.1-1.1-0.2-1.6
				c-0.1-0.3-0.3-0.7-0.4-1.1C5.4,603.5,4.7,603.7,3.9,603.8 M3.6,1055c0,1-0.1,2.1-0.1,3.2c0,10.1,0,20.1,0,30.2
				c0,1.9,0.1,3.8,0.2,5.8c0,0.1,0.1,0.3,0.2,0.6c0.3,0.3,0.7,0.6,1.1,1c0.5-0.1,0.9-0.1,1.4-0.1c0.4-1.5,0.3-3,0.5-4.4
				c0.3-0.5,0.5-0.8,0.7-1.1c0-0.3,0.1-0.5,0.1-0.6c0-9.5,0-18.9,0-28.4c0-1.2-0.3-2.3-0.8-3c-0.2-1.5-0.3-2.7-0.5-3.9
				c0-0.1-0.2-0.2-0.3-0.4c-0.5,0-1,0.1-1.4,0.1C4.4,1054.2,4.1,1054.5,3.6,1055 M3.9,843.1c-0.4,1.2-0.3,2.5-0.3,3.7
				c0,9.2,0,18.3,0,27.5c0,2.8,0.1,5.7,0.2,8.5c0,0.1,0.1,0.3,0.1,0.4c0.4,0.5,0.8,0.9,1.2,1.4c0.6-0.2,1-0.3,1.5-0.4
				c0.2-1.4,0.3-2.7,0.5-4.1c0.2-0.5,0.5-1.1,0.7-1.8v-30.2c-1.3-1.5-0.6-3.6-1.3-5.4C5.5,842.4,4.7,842.6,3.9,843.1 M7.6,1762.3
				V1732c-0.7-0.9-0.8-1.9-0.9-3c0-0.8,0.1-1.7-0.6-2.4c-0.8-0.1-1.5-0.1-2.3,0.4c-0.4,1.1-0.4,2.3-0.4,3.4c0,11.2,0,22.4,0,33.7
				c0,1.1,0.1,2.1,0.2,3.2c0.6,0.4,1,0.8,1.5,1.1c0.4-0.1,0.8-0.2,1.2-0.3c0.2-1.4,0.3-2.7,0.5-4.2
				C7.1,1763.6,7.3,1762.9,7.6,1762.3 M3.9,1189c-0.5,1.1-0.4,2.3-0.4,3.4c0,10.9,0,21.7,0,32.6c0,1.5,0.1,2.9,0.2,4.3
				c0.6,0.4,1,0.8,1.5,1.2c0.5-0.3,0.9-0.6,1.1-0.7c0.5-1.1,0.5-2.1,0.5-3.1c0-1.1,0.6-1.9,0.8-2.7v-30c-0.6-0.8-0.8-1.8-0.9-2.8
				c0-0.9,0-1.8-0.6-2.7C5.3,1188.5,4.6,1188.6,3.9,1189 M6.9,948.2c0.7-0.8,0.8-2,0.8-3.2c0-9.4,0-18.8,0-28.1c0-0.2,0-0.5-0.1-0.7
				c-0.2-0.3-0.4-0.7-0.7-1.1c-0.2-1.4-0.1-2.8-0.5-4c-1.4-0.3-1.4-0.3-2.5,0.4c-0.5,1.1-0.4,2.4-0.4,3.6c0,9.5,0,18.9,0,28.4
				c0,2.5,0.1,4.9,0.2,7.4c0,0.2,0.1,0.5,0.1,0.7c0.3,0.4,0.7,0.7,1,1c0.7,0.1,1.2,0.3,1.7-0.3C6.6,951,6.7,949.8,6.9,948.2
				 M184.5,1751.9l0,3.3c0,0,2.4-0.5,4.7-2.9c0.9-1,1.9-2.1,2.1-5.2c0.2-3.2-1.6-5.4-1.9-5.9c-2.2-3.3-6.8-4.3-7.7-4.4
				c-1.7-0.2-4.5,0-6.3,0.9c-2.2,1.1-4.2,2.6-4.9,5c-0.7,2.3-0.6,4.1-0.3,6.2c0.4,2.2,1.1,3.1,2.3,4.3c1.3,1.4,5.1,2,5.1,2l0.1-3.3
				c0,0-3.1-0.9-3.9-2.6c-0.7-1.5-0.9-2.9-0.2-5.1c0.3-1,2.8-4,7.2-3.7c0.1,0,4.7-0.1,6.7,3.8c1,2,0.7,3.4-0.2,4.9
				C186,1751.3,184.5,1751.9,184.5,1751.9 M37,1900.7c5.8-0.3,147.5,0,148.1,0.1c2.5,0.4,3.3,1.4,3.3,1.4l0-4.3c0,0-0.6,1.1-3.3,1.8
				H36.5c-0.7-0.2-2.7-1.6-2.7-1.6l0,4C33.9,1902,35.2,1901.1,37,1900.7 M6.5,277.6c0.1-1.6-0.1-40.7-0.1-40.7L3.7,237l-0.1,40.6
				C3.6,277.6,5.9,277.6,6.5,277.6 M205.3,1772c0,3.2,0,6.3,0,9.5c0,1.5,0,6.3,0,6.3l6.2,0l0-24.2l-6.1,0 M211.5,1699.6l-0.2-20
				l-6.8,0l0,19.9 M198.5,1693l0,6.5l4.2,0c0,0,0-12.4-0.1-17.2c0-0.8,0-2.7,0-2.7l-12.9,0C192,1680.7,197.6,1685.1,198.5,1693z
				 M140.4,1766.8 M172.5,1692.4c1-4.1,1.5-8.1,8.7-12.7l-11.9,0c0,0,0,2.7,0,3.7c0,1,0,2,0,3c0,3.8-0.1,7.5-0.1,11.3
				c0,0.5,0,1.9,0,1.9l3.3-0.1L172.5,1692.4z M67.1,89.6c0,0,1.8-2.2,1.9-4.4c0.2-2.4-0.8-4.1-1-4.6c-0.9,0-7.9,0-10.3,0
				c-0.2,0-1.2,2.4-1,4.6c0.2,2,2,4.3,2,4.3H67.1z M129.2,89.3l8.6-0.1c0,0,1.4-1.7,1.7-3.8c0.3-2.3-0.9-4.7-0.9-4.7l-10.2,0
				c0,0-1.2,2-1.1,4C127.3,87,129.2,89.3,129.2,89.3z M81.3,80.8c0,0-0.8,2.3-0.7,4.5c0.1,2.1,1.9,4.1,1.9,4.1l7.9-0.1
				c0,0,2.1-2.1,2.1-4.4c-0.1-2.4-0.8-4-1.1-4.3L81.3,80.8z M104.1,84.9c0,2.4,2,4.3,2,4.3l7.8,0c0,0,2.1-2,2.2-4.1
				c0.1-2.8-1.3-4.4-1.3-4.4l-9.6,0C105.1,80.6,104.2,82.2,104.1,84.9z M150.7,85c0.3,2.4,1.8,4.4,1.8,4.4l8.6,0.1
				c0,0,1.7-2.4,1.8-3.9c0.2-2.7-1.1-4.8-1.1-4.8l-10.3,0.1C151.5,80.9,150.6,83.6,150.7,85z M71.8,226.6l-46.6,0.1l-0.1,2.2
				l46.6-0.2V226.6z M152.7,228.6c0,0,1.4,0.1,2.2,0.1c13.3,0,42.6,0,42.6,0v-2c0,0-44.1-0.1-44.8,0V228.6z M101.8,85.9
				c-0.4-2.2,0.8-5,0.8-5l-8.3,0.1c0,0,0.7,2,0.4,4.5c-0.3,1.8-1.3,3.9-1.3,3.9l10-0.1C103.2,89.2,101.9,87,101.8,85.9z M141.1,80.8
				c0,0,0.6,1.1,0.4,4.5c-0.1,1.7-1.2,4.1-1.2,4.1l9.5,0c0,0-0.9-1.8-1.1-4c-0.3-2.6,0.7-4.7,0.7-4.7L141.1,80.8z M25.4,1719
				c-1.8-0.3-9.5-0.3-11.5,0c-0.6,0.7-0.6,1.5-0.6,2.4c0,1-0.2,2.2,0.5,3.2c1.2,0.2,2.5,0.1,3.8,0.1c1.3,0,2.6,0,3.9,0
				c1.3,0,2.6,0.2,3.9-0.2c0.1-0.4,0.2-0.7,0.2-1c0-1.3,0-2.6,0-3.9C25.6,1719.4,25.5,1719.2,25.4,1719 M69.7,89.5
				c0.9,0.1,10,0,10,0s-1.3-2.1-1.7-3.8c-0.4-1.8,0.4-5,0.4-5l-8.2,0c0,0,0.9,2.5,0.8,4.6C71,88.1,69.9,88.7,69.7,89.5 M125.2,85.1
				c-0.2-2.5,0.8-4.5,0.8-4.5s-6.8,0-8.8,0.1c-0.1,0,0.9,2.1,0.8,4.4c-0.1,1.9-1.4,4.1-1.4,4.1l9.9,0.1
				C126.6,89.2,125.3,86.9,125.2,85.1z M162.3,236.4l37,0l0-1.7l-37,0.1L162.3,236.4z M60.4,234.7L23.7,235l0,1.5l36.6-0.3
				L60.4,234.7z M202.6,1763.8l-17.6,0v2.9l17.6,0 M168.8,1856.7l0,2c0,0,10.7,0,15,0c2.6,0,4.7,1.1,4.7,1.1l-0.1-3.1L168.8,1856.7z
				 M73.1,333.7c-0.3,2.7-0.2,11.1,0.1,12.9c0.8,0.2,1.7,0.5,2.6-0.2c0-4.1,0-8.1,0-12.2c0-0.2-0.2-0.4-0.3-0.6
				C74.7,333.4,74,333.4,73.1,333.7 M33.8,1859c0.5-0.3,1-0.4,1.2-0.4c5.7,0,17.5,0,17.5,0l0-1.9l-18.8,0L33.8,1859z M173.5,1766.6
				c0,0,9.7,0.1,9.9-0.1l0-2.8l-9.9,0 M117.2,347.5l3.2-0.1l0.1-8.8l0-1.8c0,0-1.5,5.4-1.9,6.6C118,345.5,117.2,347.5,117.2,347.5z
				 M64.7,236.2l7.4,0l0-1.5l-7.4,0 M156.3,234.6l-3.6,0l0,1.8l3.6,0L156.3,234.6z M167.3,1694.2c0.1,1.2-1.8,5.4-1.8,5.4l1.8,0
				l0-4.6"/>
			<path class="st2" d="M79.1,198.7c-1.9,1.3-9.5,5.1-10.2,5.3c-2.4,0.7-7.9,0.5-10.3-0.2c-0.7-0.2-9.3-4.8-10.3-5.9
				c-0.3-0.3-1.7-4-1.7-4l0.3-2c0.5-1.9,0.5-1.9,1.2-3.2c0-0.6,0-1.3,0-2c0-4.9,0-9.9,0-14.8c0-0.4-0.2-0.9-0.3-1.3
				c-1.2-0.2-1.9,0.2-3,0.4c-0.2,0.8-0.5,1.2-0.5,2c0,4.9,0.1,16.9,0.1,16.9l-1,2.2c0,0-0.2-0.8-0.2-1.2c0-6.7,0-13.4,0-20
				c0.6-0.6,1.1-1.2,1.7-1.7c0.3-0.3,0.8-0.4,1.2-0.5c1,0.1,1.8,0.8,2.9,0.5c0.1-0.7,0-1.7,0.4-2.5c0.5-0.9,1.4-1.7,2.3-2.2
				c1.9-1,22.4-0.8,24.2,0c0.4,0.2,0.8,0.5,1.2,0.9c0.4,0.4,0.8,0.7,1.1,1.3c0.3,0.6,0.2,1.5,0.4,2.3c1,0.2,1.7-0.5,3.1-0.3
				c0.2,0.1,0.8,0.3,1.3,0.6c0.4,0.6,0.8,1.1,1.2,1.6c0,0.3,0.1,0.7,0.1,1c0.4,5,0.1,18.5-0.3,20.5c-0.8,1.1-2.2,1.2-3.5,1.6
				C80.5,194.2,80,197.2,79.1,198.7c-0.3,0.5-1.1-0.5-1.5-0.5c0.1-0.1,0.7-4.2,0.6-6.3c0-0.1-0.2-0.2-0.3-0.4h-1.2
				c-0.2,0.2-4.1,3.5-4.4,3.8c-0.8,0-3.7-2-4.4-2.2c-1.6-0.4-5.1-0.2-6.8,0.1c-1.6,0.3-4.4,2.5-5.6,2.2c-1.1-1.2-1.4-2.9-2.4-3.6
				c-1-0.6-1.7-0.8-2.6-1.2c-0.2,0-0.7,0-1.1,0.1c-0.5,0.4,0.1,5.5,0.2,6c0.3,1.4,7.6,4.6,8.2,4.9h11.4c0.6-0.4,8-3.5,8.4-3.5
				 M74.7,165.8c0,0-16.5-1.1-21.6,0.3c-1.3,0.4-2.2,0.6-2.6,1.7c-1.2,3.4-0.6,19.8-0.2,20.8c0.1,0.1,2.3,0.8,2.4,0.8
				c1.1,0.4,1.6,0.9,2,1.3c0.8,0.8,1.2,1.9,1.9,2.4c0.8,0.6,3.6-1.7,4-1.9c1.8-0.6,5.8-0.7,7.6,0.1c0.4,0.2,3.3,1.6,3.6,1.7
				c1.9,0.2,1.4-1.6,3.2-2.5c0.5-0.2,2-1.1,2.2-1.4c0,0,0.9-16.3-0.6-21.5c-0.4-1.3-1.2-1.5-2.3-2.2 M78.9,189.3
				c1.2,0.8,1.1,1.8,1.8,3c0.3,0,0.6,0.1,0.9,0.1c0.2,0,0.4-0.1,0.7-0.1c0.3-0.7,0.6-1.4,1-2.1v-17.4c-0.4-0.8-0.8-1.5-1.1-2.2
				c-0.7,0-1.3,0-1.9,0c-0.2,0-1,0.4-1.2,0.4C78.9,171.5,78.9,189.3,78.9,189.3z"/>
			<path class="st2" d="M199.1,436.7c-0.5,0.4-0.9,0.9-1.4,1.3c-3.4,0-6.8,0.1-10.2,0c-0.2-0.5-0.3-0.9-0.4-1.4
				c-0.1-0.5,0-0.9,0-1.4c0-5,0-10,0-15v-1.8c0.6-0.3,1.2-0.6,1.7-0.9h8.7c0.5,0.3,0.9,0.7,1.4,1c0.1,0.3,0.2,0.7,0.2,1.1
				c0,1.9,0,3.8,0,5.8c0,3,0,6,0,9C199.1,435.1,199.1,435.9,199.1,436.7 M197,420.4c-0.8-0.5-1.6-0.5-2.4-0.4
				c-1.7,0.1-3.5-0.2-5.3,0.2c-0.1,0.4-0.2,0.8-0.2,1.1c0,4.5,0,9.1,0,13.6c0,0.4,0.2,0.7,0.3,1.1c0.5,0.1,0.8,0.1,1.2,0.1
				c1.8,0,3.5,0,5.3,0c0.5-0.4,0.9-0.7,1.2-1C197.3,432.4,197.2,422.3,197,420.4"/>
			<path class="st2" d="M38.8,428.3c0.5,0,0.9-0.1,1.3-0.1c0.4,0.5,0.8,1.1,1.2,1.5c0.3,1.4-0.1,2.8,0.4,4.2
				c0.8,0.1,1.5,0.3,2.2,0.4c0.9,0.9,0.8,1.8,0.1,2.7c-1.6,0.3-3.2,0.2-4.8,0.1c-0.2-0.3-0.4-0.6-0.5-0.8
				C38.4,435,38.5,430.1,38.8,428.3"/>
			<path class="st2" d="M38.6,419.9c-0.2-3.7-0.2-9.7,0.2-11.5c0.4-0.4,0.8-0.3,1.4-0.3c0.2,0.2,0.3,0.6,0.5,0.8
				c0.2,0.2,0.4,0.5,0.6,0.7v9.4c-0.3,0.4-0.7,1-1.1,1.4C39.4,420.8,38.9,420.5,38.6,419.9"/>
			<path class="st2" d="M38.6,393.3c2.4-0.3,4.5-0.2,6.7-0.1c0.2,0.6,0.3,1,0.4,1.5c-0.3,0.4-0.5,0.7-0.8,1.2
				c-1.1,0.1-2.1,0.2-3.3,0.3c-0.1,0.4-0.2,0.7-0.3,1.1c0,0.6,0,1.2,0,1.9c-0.4,0.5-0.9,1-1.3,1.6c-0.5-0.2-0.9-0.4-1.4-0.5
				C38.4,397.9,38.4,395.7,38.6,393.3"/>
			<path class="st2" d="M199.9,314.9c-0.8,0.4-1.7,0.3-2.5,0.3c-5.5,0-10.9,0-16.4,0c0,0-13.7-0.1-18-0.1c-0.1,0-0.3-0.1-0.6-0.2
				c-0.1-0.4-0.3-0.8-0.3-1.2c-0.1-0.9,0-1.8,0-2.8c0-5.3,0-10.6,0-15.9c0-0.8-0.1-1.7,0.2-2.6c0.2-0.1,0.5-0.2,0.8-0.2
				c0.6,0,1.2,0,1.8,0c10.8,0,21.6,0,32.3,0c0.8,0,1.7,0,2.4,0.1c0.9,1,1.2,2.1,1.2,3.3c0,2.3,0,4.6,0,6.9c0,2.2-0.1,4.5,0,6.7
				C201,311.1,200.7,313,199.9,314.9 M179.4,311.9c1.8,0.4,6,0.4,15.9,0.3c0.6,0,1.2-0.1,1.8-0.2c0.1-0.5,0.3-0.8,0.3-1.2
				c0-4.9,0-9.7,0-14.6c0-0.3-0.1-0.6-0.2-0.8c-0.3-0.1-0.5-0.2-0.7-0.2c-5.5,0-10.9,0-16.4,0c-0.2,0-0.4,0.1-0.7,0.2
				c-0.1,0.2-0.2,0.4-0.2,0.7c0,5.1,0,10.2,0,15.3C179.2,311.5,179.3,311.7,179.4,311.9 M175.8,311.9c0.1-0.2,0.2-0.4,0.2-0.6
				c0-5.1,0-10.3,0-15.4c0-0.1-0.1-0.3-0.2-0.4c-0.2-0.1-0.4-0.2-0.6-0.2c-3.1,0-6.1,0-9.2,0c-0.2,0-0.4,0.1-0.7,0.2
				c-0.1,0.3-0.2,0.6-0.2,0.9c0,4.9,0,9.8,0,14.7c0,0.3,0.2,0.7,0.3,1C168.3,312.3,174.2,312.2,175.8,311.9"/>
			<path class="st2" d="M188.1,984.6c5.5,0,16.3,4.6,15.8,18.4c-0.4,8.5-5.6,16.5-15.9,16.8c-13,0.3-18.5-7.9-18.6-16.5
				C169.2,992,175.4,984.6,188.1,984.6z M201.4,1003.9c0.6-5.6-1.4-17.4-14.4-17.1c-8.7,0.2-15.5,5.5-15.5,15.4
				c0,10.9,8.4,15.4,15.6,15.2C198.3,1017.2,201.1,1007.3,201.4,1003.9z"/>
			<path class="st2" d="M43.6,286c0.3-0.3,0.6-0.6,0.8-0.8h13.9c0.3,0.2,0.6,0.4,0.9,0.7c0.3,0.6,0.6,1.2,0.9,2v27.7
				c-0.2,0.4-0.5,0.9-0.8,1.5c-0.4,0.2-0.8,0.5-1.3,0.7c-0.4,0.1-0.9,0.2-1.4,0.2c-3.6,0-7.2,0-10.9,0c-0.2,0-0.5-0.1-0.8-0.1
				c-0.4-0.2-0.9-0.5-1.3-0.8c-0.1-0.2-0.2-0.5-0.2-0.7c0-0.5,0-1.1,0-1.6c0-8.7,0-17.4,0-26.1C43.5,287.8,43.6,287,43.6,286
				 M56.6,314c0.3-1,0.3-1.8,0.3-2.6c0-6.7,0-13.4,0-20.1c0-0.5,0-1.1,0-1.6c0-0.4-0.2-0.9-0.3-1.3c-0.4-0.1-0.7-0.2-1-0.2
				c-2.6,0-5.2,0-7.8,0c-0.3,0-0.7,0.2-1.1,0.3c0,0.9-0.1,1.6-0.1,2.4c0,3.2,0,6.5,0,9.7c0,3.9,0,7.8,0,11.8c0,0.6-0.1,1.2,0.5,1.8
				c0.3,0,0.7,0.2,1,0.2c2.6,0,5.2,0,7.8,0C56.1,314.3,56.3,314.2,56.6,314"/>
		</g>
	</g>
</g>
<path d="M55.9,1345.3l0,24.8l-39.9,0l0-24.7L55.9,1345.3z M18.1,1358.2l35.5,0v-10.3l-35.5,0 M53.4,1368l0-6.2l-35.1,0.1l-0.1,6.2
	H53.4z"/>
<path d="M101.2,1345.3l0,24.8l-39.9,0l0-24.7L101.2,1345.3z M63.4,1358.2l35.5,0v-10.3l-35.5,0 M98.6,1368l0-6.2l-35.1,0.1l-0.1,6.2
	H98.6z"/>
<path d="M160.9,1345.3v24.8l-39.9,0l0-24.7L160.9,1345.3z M123.1,1358.2l35.5,0v-10.3l-35.5,0 M158.4,1368l0-6.2l-35.1,0.1l-0.1,6.2
	H158.4z"/>
<path d="M205.9,1345.3v24.8l-39.9,0l0-24.7L205.9,1345.3z M168.1,1358.2l35.5,0v-10.3l-35.5,0 M203.4,1368l0-6.2l-35.1,0.1l-0.1,6.2
	H203.4z"/>
<path d="M55.9,762.4l0,24.8l-39.9,0l0-24.7L55.9,762.4z M18.1,775.3l35.5,0v-10.3l-35.5,0 M53.4,785.1l0-6.2L18.3,779l-0.1,6.2H53.4
	z"/>
<path d="M101.2,762.4l0,24.8l-39.9,0l0-24.7L101.2,762.4z M63.4,775.3l35.5,0v-10.3l-35.5,0 M98.6,785.1l0-6.2L63.5,779l-0.1,6.2
	H98.6z"/>
<path d="M160.9,762.4v24.8l-39.9,0l0-24.7L160.9,762.4z M123.1,775.3l35.5,0v-10.3l-35.5,0 M158.4,785.1l0-6.2l-35.1,0.1l-0.1,6.2
	H158.4z"/>
<path d="M205.9,762.4v24.8l-39.9,0l0-24.7L205.9,762.4z M168.1,775.3l35.5,0v-10.3l-35.5,0 M203.4,785.1l0-6.2l-35.1,0.1l-0.1,6.2
	H203.4z"/>
<path d="M43.4,192.2"/>
<path d="M47,194.4l-3.7-2.3l1-2.2c0,0,2,2.2,2.9,1.8"/>
<path d="M157.4,198.4c-1.9,1.3-9.5,5.1-10.2,5.3c-2.4,0.7-7.9,0.5-10.3-0.2c-0.7-0.2-9.3-4.8-10.3-5.9c-0.3-0.3-1.7-4-1.7-4l0.3-2
	c0.5-1.9,0.5-1.9,1.2-3.2c0-0.6,0-1.3,0-2c0-4.9,0-9.9,0-14.8c0-0.4-0.2-0.9-0.3-1.3c-1.2-0.2-1.9,0.2-3,0.4c-0.2,0.8-0.5,1.2-0.5,2
	c0,4.9,0.1,16.9,0.1,16.9l-1,2.2c0,0-0.2-0.8-0.2-1.2c0-6.7,0-13.4,0-20c0.6-0.6,1.1-1.2,1.7-1.7c0.3-0.3,0.8-0.4,1.2-0.5
	c1,0.1,1.8,0.8,2.9,0.5c0.1-0.7,0-1.7,0.4-2.5c0.5-0.9,1.4-1.7,2.3-2.2c1.9-1,22.4-0.8,24.2,0c0.4,0.2,0.8,0.5,1.2,0.9
	c0.4,0.4,0.8,0.7,1.1,1.3c0.3,0.6,0.2,1.5,0.4,2.3c1,0.2,1.7-0.5,3.1-0.3c0.2,0.1,0.8,0.3,1.3,0.6c0.4,0.6,0.8,1.1,1.2,1.6
	c0,0.3,0.1,0.7,0.1,1c0.4,5,0.1,18.5-0.3,20.5c-0.8,1.1-2.2,1.2-3.5,1.6C158.8,194,158.2,197,157.4,198.4c-0.3,0.5-1.1-0.5-1.5-0.5
	c0.1-0.1,0.7-4.2,0.6-6.3c0-0.1-0.2-0.2-0.3-0.4H155c-0.2,0.2-4.1,3.5-4.4,3.8c-0.8,0-3.7-2-4.4-2.2c-1.6-0.4-5.1-0.2-6.8,0.1
	c-1.6,0.3-4.4,2.5-5.5,2.2c-1.1-1.2-1.4-2.9-2.4-3.6c-1-0.6-1.7-0.8-2.6-1.2c-0.2,0-0.7,0-1.1,0.1c-0.5,0.4,0.1,5.5,0.2,6
	c0.3,1.4,7.6,4.6,8.2,4.9h11.4c0.6-0.4,8-3.5,8.4-3.5 M153,165.5c0,0-16.5-1.1-21.6,0.3c-1.3,0.4-2.2,0.6-2.6,1.7
	c-1.2,3.4-0.6,19.8-0.2,20.8c0.1,0.1,2.3,0.8,2.4,0.8c1.1,0.4,1.6,0.9,2,1.3c0.8,0.8,1.2,1.9,1.9,2.4c0.8,0.6,3.6-1.7,4-1.9
	c1.8-0.6,5.8-0.7,7.6,0.1c0.4,0.2,3.3,1.6,3.6,1.7c1.9,0.2,1.4-1.6,3.2-2.5c0.5-0.2,2-1.1,2.2-1.4c0,0,0.9-16.3-0.6-21.5
	c-0.4-1.3-1.2-1.5-2.3-2.2 M157.2,189.1c1.2,0.8,1.1,1.8,1.8,3c0.3,0,0.6,0.1,0.9,0.1c0.2,0,0.4-0.1,0.7-0.1c0.3-0.7,0.6-1.4,1-2.1
	v-17.4c-0.4-0.8-0.8-1.5-1.1-2.2c-0.7,0-1.3,0-1.9,0c-0.2,0-1,0.4-1.2,0.4C157.2,171.2,157.2,189.1,157.2,189.1z"/>
<path d="M121.7,191.9"/>
<path d="M125.3,194.2l-3.7-2.3l1-2.2c0,0,2,2.2,2.9,1.8"/>
<path d="M38.4,984.6c5.5,0,16.3,4.6,15.8,18.4c-0.4,8.5-5.6,16.5-15.9,16.8c-13,0.3-18.5-7.9-18.6-16.5
	C19.5,992,25.6,984.6,38.4,984.6z M51.7,1003.9c0.6-5.6-1.4-17.4-14.4-17.1c-8.7,0.2-15.5,5.5-15.5,15.4c0,10.9,8.4,15.4,15.6,15.2
	C48.6,1017.2,51.3,1007.3,51.7,1003.9z"/>
<path d="M155.6,1766.8"/>
</svg>
