<?xml version="1.0" encoding="utf-8"?>
<!-- Generator: Adobe Illustrator 19.0.1, SVG Export Plug-In . SVG Version: 6.00 Build 0)  -->
<svg version="1.1" id="Layer_1" xmlns="http://www.w3.org/2000/svg" xmlns:xlink="http://www.w3.org/1999/xlink" x="0px" y="0px"
	 viewBox="0 0 222 1926" style="enable-background:new 0 0 222 1926;" xml:space="preserve">
<g>
	<path d="M192.8,1924.9c-54.1,0-108.3,0-162.4,0c0-22,0-44.1,0-66.3c-10.2,0-20.1,0-30.3,0c0-1.8,0-3.4,0-5.1
		c0-497.6,0-995.1,0-1492.7c0-14.2,0-28.4,0-42.6s0-28.4,0-42.6c0-14.4-0.2-28.8,0.1-43.1c0.3-14.1-1-28.2,0.9-42.2
		c0.9-6.8-0.3-13.7,0.9-20.7c0.9-5.5,0.5-11.4,0.1-17c-0.4-5.8,1.1-11.4,1.2-17.1c0-5.5-1.1-11.2,0.9-16.6c-0.3-6.9,0.2-13.8,1-20.7
		c0.4-3.7-0.4-7.4,0.9-11.2c0.8-2.4,0-5.3,0.2-8c0.2-2.7,0.8-5.4,0.9-8.1c0.4-5.7,0.7-11.4,1-17.1c0-0.2-0.1-0.4,0-0.5
		c1.7-2.4,0.4-5.2,1.1-7.6c0.9-2.7,1-5.4,0.9-8.2c-0.1-4.2,0.9-8.2,2.1-12.2C14.9,16,20.5,9.2,29.4,5.4C34.2,3.3,39.4,2.8,44.5,2
		c3.5-0.6,7.1-0.4,10.7-0.9C62.1,0.1,69,0.2,76-0.1c1.3-0.1,2.7,0,4-0.1c0.3,0,0.5-0.6,0.8-1c20.2,0,40.3,0,60.5,0
		c0.4,0.3,0.8,0.9,1.3,1c5.2,0.4,10.5-0.3,15.7,0.9c3.9,0.9,8.1-0.1,12.2,1.1c2,0.6,4.3,0,6.5,0.1c2.1,0.2,4.1,0.6,6.1,1
		c4.5,0.8,8.8,2,12.7,4.6c4.2,2.9,7.4,6.4,10.1,10.8c2.6,4.2,3.4,8.7,4.7,13.1c0.8,2.9,0.1,6,1,9.1c0.8,2.5,0.3,5.4,1,8.1
		c0.7,2.6,0.6,5.4,1,8.1c0.6,3.8,0.2,7.7,1,11.6c0.7,3.4,0.2,7,1,10.6c0.8,3.9,0.3,8,1,12.1c0.9,5.4,0.1,11.1,1,16.6
		c1,5.8-0.2,11.7,1,17.7c0.9,4.5,0.3,9.3,0.1,14c-0.2,4.8,1.7,9.3,1.1,14.1c-0.2,1.1,0,2.3,0,3.5c-0.6,12.4,1.7,24.8,1.1,37.2
		c0,0.4,0.6,0.9,1,1.3c0,554.3,0,1108.7,0,1663c-9.7,0-19.4,0-29.2,0C192.8,1880.9,192.8,1902.9,192.8,1924.9z M160.5,1767.3
		c-1.6-1.4-3.4-1.4-2.9,2c-1.6-1.8-2.4-2.7-2.8-3.2c-2.7,0-4.4,0-6.3,0c-0.2-7.8,0.2-15.3-0.5-22.9c-3.3,8.4-4,17-3.5,25.9
		c0.5,0.1,0.8,0.2,1.1,0.2c3.5,0,7,0,9.9-2c0.7,0.2,1.5,0.5,2.2,0.7c0.6,0.2,1.2,0.2,1.8,0.3c0.4,0.3,0.9,1,1.3,1
		c3.7,0.1,7.4,0.1,11.1,0c0.2,0,0.5-0.4,1-0.7c-0.5-0.8-1.1-1.5-1.6-2.3c-2.6,0-5.1-0.1-7.6,0C162.5,1766.4,161.5,1767,160.5,1767.3
		z M117.8,976.2c31.5,0,63.3,0,95,0c0-177.6,0-355,0-532.6c-30.1,0-60.2,0-90,0c-0.7-0.7-1.1-1.1-1.5-1.5c0-23.3,0-46.5,0-69.9
		c8.9,0,17.6,0,26.3,0c0.1,0,0.3-0.1,0.4-0.2c0.1-0.1,0.2-0.2,0.6-0.7c-9.3,0-18.2,0-27.6,0c-0.3-2.3-0.8-4.3-0.8-6.4
		c-0.1-4.5,0-9-0.1-13.5c0-0.4-0.2-0.9-0.3-1.1c-1.7,0-3.1,0-4.6,0c-1.4,2.4-2.8,4.7-4.2,7c-2.8,4.6-6.5,8.5-11.1,11.4
		c-3.5,2.1-7.2,3.8-11.6,3.6c-3.7-0.2-7.4,0-11,0c-0.5-0.5-1-1-1.6-1.6c0-6.6,0-13.4,0-20.3c-1,0-1.8,0-2.9,0c0,11.7,0,23.3,0,35.1
		c-2.2,0-4,0-6.1,0c0,19.1,0,38.1,0,57.3c-19.3,0-38.2,0-57.2,0c0,178.1,0,355.9,0,534c18.2,0,36.1,0,54.4,0c0.3,2,0.8,3.9,0.8,5.7
		c0.1,9.4,0,18.7,0,28.1c0,5,0,10,0,14.7c-0.6,0.6-1,1-1.5,1.5c-17.6,0-35.4,0-53.2,0c-0.1,0-0.3,0.1-0.4,0.2
		c-0.1,0.1-0.2,0.2-0.2,0.2c0,197,0,393.9,0,590.9c21.1,0,42.1,0,63.1,0c0,21.5,0,42.8,0,64.1c-1.3,0.1-2.5,0.1-4,0.2
		c0,37.9,0,75.6,0,113.5c-21.7,0-43,0-64.3,0c0,17,0,33.9,0,50.8c57.8,0,115.5,0,173.2,0c0-17,0-33.9,0-51c-1.6,0-3.1,0-4.6,0
		c-15.1,0-30.3,0-45.4,0c-2.3,0-4.5-0.2-6.4-1.6c0-21.2,0-42.5,0-63.7c0-0.3-0.2-0.6-0.4-0.8c-0.2-0.3-0.6-0.6-0.5-0.7
		c0.2-0.6,0.7-1.1,0.9-1.6c0.1-0.5,0-1,0-1.5c0-17.6,0-35.1,0-52.7c0-0.1-0.1-0.3-0.1-0.4c-0.1-0.1-0.2-0.2-0.5-0.5
		c-1,0-2.1,0-3.3,0c0-14.3,0-28.5,0-43.1c2.1-0.3,4.1-0.8,6.1-0.8c7.1-0.1,14.1,0,21.2,0c1.3,0,2.6,0,4,0c0-3.6,0-6.7,0-10
		c21.3,0,42.5,0,63.6,0c0.1,0,0.3-0.1,0.4-0.2c0.1-0.1,0.2-0.2,0.1-0.1c0-197,0-393.9,0-590.9c-32.2,0-64.3,0-96.5,0
		c0-16.4,0-32.5,0-48.8C116.5,977.5,116.9,977.1,117.8,976.2z M19.2,159.3c0.5-8.5-0.5-16.9,1-25.2c0.8-4.8-0.1-9.7,1-14.6
		c0.9-4.2-0.3-8.8,1.1-13.1c0.6-1.8,0-4,0.1-6c0.1-1.7,0.9-3.4,0.9-5.1c0.1-2,0.6-3.7,1-5.6c0.9-3.9,1.2-7.8,2.2-11.7
		c0.6-2.4,2-4.5,3-6.8c7.2,0,14.1-0.1,20.9,0c2,0,3.9-0.5,5.3-1.7c2.9-2.4,5.7-4.9,8.5-7.4c32.6,0,65.2,0,97.9,0
		c4.4,3,8.8,6,13.3,9.1c6.4,0,12.7,0,19.1,0c0.4,1.2,0.9,2.4,1.3,3.6c0.7,2.7,0.8,5.7,2.2,8.1c1.5,2.7-0.2,5.9,1.9,8.3
		c-0.7,2.8,1.1,5.4,1,8.1c-0.1,2.8,0.4,5.4,0.9,8.1c0.6,3.5-0.4,7.2,1.1,10.6c-0.8,7.1,1.3,14.1,1,21.2c-0.2,5.5,0,11,0,16.5
		c0,1.3,0.1,2.5,0.2,3.6c4.5,0,8.7,0,12.8,0c0.4-3.1-0.4-5.9-0.8-8.8c-0.5-4.5,0-9-0.2-13.5c-0.2-4.4-0.6-8.8-1-13.1
		c-0.4-5.4,0.6-10.8-0.9-16.2c-0.8-3,0-6.3-0.2-9.5c-0.2-3-0.7-6.1-1-9.1c-0.3-3.4,0.7-6.9-1-10.1c0.7-5.1-0.9-10.1-1-15.1
		c-0.1-4.5-0.6-9.1-1-13.6c0-0.2,0.1-0.4,0-0.5c-1.9-1.8-0.6-4.1-1-6.1c-0.3-2-1-4.1-0.9-6.1c0.2-6.7-2.1-12.7-5.1-18.5
		c-3.3-6.4-9.1-9.5-15.3-12c-3.7-1.5-7.8-1.2-11.8-1.9c-4-0.8-8.1-0.1-12.2-1c-3.9-0.8-8.1-0.3-12.2-1c-5.5-0.9-11.1-0.5-16.7-1
		c-8.7-0.8-17.5-0.4-26.2-0.2C100,2.1,91.4,1.2,82.7,2.7c-5.3,1-10.8-0.2-16.2,1c-4.1,0.9-8.4-0.1-12.7,1c-3.6,0.9-7.4,0.6-11.2,0.9
		c-5.4,0.5-10.3,2-14.9,4.4c-5.2,2.7-8.6,7.3-11.3,12.3c-1.2,2.2-3.1,12.8-3.3,15.2c-0.3,5.4-0.7,10.8-1,16.1c0,0.2,0.1,0.4,0,0.5
		c-1.7,2.2-0.7,4.7-1,7.1c-0.3,2.5-0.7,5.1-1,7.6c-0.4,3.5,0.3,7.1-0.9,10.7c-0.8,2.4,0,5.3-0.2,8c-0.2,2.7-0.7,5.4-1,8.1
		c-0.4,4.4,0.3,8.7-0.9,13.2c-0.9,3.3-0.5,7-0.1,10.5c0.4,3.7-1.3,7-1.1,10.6c0.2,5.7,0.1,11.4,0.1,17.1c0,1,0.4,2.2-0.1,3
		c-1.8,3.1-0.5,6.3-0.9,9.4C10.1,159.3,14.6,159.3,19.2,159.3z M92.3,154.4c-2.3-2.7-5.5-4.7-7.1-8c-13.7,0-27.5,0-42,0
		c-4.7,4.7-9.8,9.8-15.2,15.2c-0.5,0-1.4,0-2.4,0c0,20.1,0,40.1,0,60.2c15.8,0,31.4,0,47,0c0.1,1.8,0.2,3.3,0.3,4.7
		c26,0,51.7,0,77.5,0c0-1.6,0-3.1,0-4.9c16.2,0,32.3,0,48.3,0c0-20.2,0-40.1,0-60.1c-7.3,0-14.5,0-21.8,0c-0.8-2.9-3.5-4-5.4-5.8
		c-3.3-3.1-6.4-6.3-9.3-9.2c-13.5,0-26.6,0-39.6,0c-2.7,2.7-5.3,5.3-7.9,7.9C107.2,154.4,99.8,154.4,92.3,154.4z M65.1,235.7
		c-0.6,1.9-1.5,3.3-1.4,4.6c0.5,3.9-1.2,7.2-2.2,10.7c-2.2,7.6-7.8,14.9-14.7,18.8c-8.5,4.7-17.7,7.3-27.4,8.1c-1.5,0.1-3,0-4.5,0
		c-1.6,0-3.1,0.1-4.7,0.2c0,0.3,0,0.5,0,0.8c18.1,0,36.1,0,53.8,0c0.7,0.7,1.1,1.1,1.6,1.6c0,13.5,0,27.2,0,40.9
		c0,0.1,0.1,0.3,0.2,0.4c0.1,0.1,0.2,0.2,0.6,0.5c1.9,0,4,0,6.3,0c0,1.7,0,3.1,0,4.9c1.1-0.2,2-0.4,2.9-0.6c1.1-0.2,2.6-0.9,3.2-0.5
		c2,1.4,4.1,0.9,6.2,0.9c9.6,0.1,19.2,0,28.7,0c2.2,0,4.6,0.3,6.3-1.8c0-14,0-28,0-41.4c1-1.3,1.7-2.2,2.5-3.2c29.8,0,59.5,0,89,0
		c0-1,0-1.8,0-2.8c-2.8,0-5.5,0-8.1,0c-1.3,0-2.8,0.4-4-0.1c-5.6-2-11.6-2.4-17.2-4.8c-3.2-1.4-6.4-3-8.9-5
		c-6.3-5.1-11.3-11.4-13-19.6c-2.1-1.3-0.1-3.9-1.6-5.6c-0.5,1.8-1,3.5-1.4,5c-11.8,0-23,0-34.3,0c-1.5,0-3.1,0.3-4.3-2.2
		c0-1.7,0-4.3,0-6.8c-1.7,5.3-3.9,10.3-6.4,15.1c-2.8,5.5-6.4,10.4-11.8,13.6c-4.4,2.6-9,4.7-14.3,4.4c-1.5-0.1-3-0.1-4.5,0
		c-2.1,0.1-4.2,0-6.3-1.6c0-12.6,0-25.4,0-38.2c0-0.1-0.2-0.2-0.1-0.1c-1.1,0-1.8,0-2.6,0c-0.1,1.3-0.1,2.5-0.2,3.7
		C70,235.7,67.5,235.7,65.1,235.7z M191.6,124.3c0,3.9,0,7.4,0,10.7c-0.9,0.4-1.6,0.7-2.3,1c-9-3.4-18-7-27.6-10.1
		c0,6.5,0,12.4,0,18.3c1,0.1,1.8,0.2,2.5,0.3c2.7,2.7,5.3,5.3,7.9,7.9c0.4-1.6,0.8-3.3,1.2-4.8c8.2,0,15.8,0,23.3,0
		c0.4,3.7-0.3,7.2,1.1,10.6c0-1,0-1.9,0-2.9c0-4.2-0.3-8.4,0.1-12.5c0.3-4.2-1.4-8.1-1-12.1c0.6-7.3-1.5-14.4-1-21.7
		c0-0.3,0.1-0.8,0-1c-1.8-2-1.1-4.5-0.9-6.6c0.3-2.4-1.3-4.4-1.1-6.6c0.2-2.1-0.6-3.7-1.4-5.5c-53.9,0-107.8,0-161.5,0
		c-2.1,3.2-1.5,6.9-2.4,10.2c-0.9,3.5-0.4,7.4-1.1,11.1c-0.8,4.1-0.2,8.4-1,12.6c-0.8,4.2-0.3,8.7-0.1,13c0.1,4.3-1.6,8.3-1.1,12.6
		c0.3,2.8,0.1,5.7,0.1,8.5c0,0.3,0.2,0.6,0.4,0.9c0.6,0,1.3,0,1.8,0c4.3-4.3,8.5-8.5,13.2-13.1c0-13,0-26.5,0-39.9
		c15.5,0,30.7,0,46.1,0c0,13,0,25.8,0,37.3c1.4,4.6,4.5,6.2,6.5,8.7c6.8,0,13.5,0,20.2,0c2.5-2.5,5-5,7.4-7.4c0-5.9,0-11.7,0-17.5
		c-7.7,3.6-15.2,7.1-22.8,10.6c-0.4-0.3-0.8-0.8-1.1-1.1c0-4,0-7.8,0-11.6c8-4.7,15.9-9.3,24.2-14.2c13.1,0,26.8,0,39.8,0
		C171.7,115.2,181.6,119.7,191.6,124.3z M210.8,386.1c-21.1,0-41.7,0-62.5,0c0-3.6,0-7.1,0-10.7c-8.1,0-16.1,0-24.1,0
		c0,21.7,0,43.2,0,64.9c28.9,0,57.7,0,86.6,0C210.8,422.3,210.8,404.4,210.8,386.1z M9.2,385.4c0,9.4,0,18.5,0,27.5
		c0,9.2,0,18.3,0,27.6c18,0,35.6,0,53.2,0c0.6,0,1.3,0,2,0c0-1.8,0-3.4,0-5.1c-4.4,0-8.5,0-12.9,0c0.1-1.1,0.1-2,0.2-3.1
		c3.8,0,7.3,0,10.8,0c0.6-13.3,0.4-35-0.4-39.2c-3.1,0-6.3,0-9.5,0c0-0.7,0.1-1.1,0.1-1.9c4,0,8,0,11.8,0c0-2.2,0-3.9,0-5.8
		C46.1,385.4,27.8,385.4,9.2,385.4z M26.7,1730.3c-5,0-10.2,0-15.4,0c0,13.7,0,27.2,0,40.8c17.5,0,34.9,0,52.2,0c0-1.3,0-2.4,0-3.7
		c-4.9,0-9.8,0-14.4,0c-0.7-0.6-1.1-1.1-1.4-1.4c0-13.3,0-26.5,0-39.6c5.2-2.5,10.6-0.6,15.8-1.4c0-14.3,0-28.6,0-42.8
		c-17.5,0-34.7,0-52.3,0c0.1,1.1,0.1,2,0.2,3c14.9,0,29.5,0,43.9,0c0.9,0.9,1.6,1.6,2.4,2.4c0,10,0,20,0,30c0,1.4,0,2.7-1.7,3.6
		c-0.3,0-1,0-1.6,0c-8.6-0.8-17.1,1.6-25.9,1c0,2.4,0,4.5,0,6.5C27.9,1729.1,27.6,1729.4,26.7,1730.3z M156.4,978.6
		c-13,0-25.5,0-38.1,0c-0.6,15.3-0.4,41.9,0.3,45.8c12.6,0,25.1,0,37.7,0C156.4,1009.1,156.4,993.9,156.4,978.6z M162.5,235.8
		c0,1.4-0.1,2.8,0,4c0.2,1.4,0.8,2.7,0.9,4.1c0.5,5.3,2.9,10,6,14c4.9,6.4,11.3,11.3,19.7,13c1,0.2,2,0.8,3.1,0.9
		c2.6,0.1,5,1.6,7.6,1c3.6,2,7.3,0.6,10.8,0.9c0-14.2,0-28,0-41.8c-2.7,0-5.3,0-7.4,0c-0.6,1.5-1.1,2.7-1.6,3.8
		C188.5,235.8,175.7,235.8,162.5,235.8z M59.3,235.5c-12.7,0-25.3,0-37.8,0c-0.1-1.4-0.3-2.6-0.4-3.6c-3.2,0-6,0-8.7,0
		c0,14,0,27.9,0,42c2.1,0,4.1-0.1,6.1,0c2,0.2,3.8-0.8,5.6-1c6.9-0.6,13.2-2.8,19.2-6.1c5.7-3.1,10.2-7.4,12.9-13.2
		C58.6,248.1,60.7,242.4,59.3,235.5z M128.4,326c0-11.3,0-22.1,0-32.7c0.5-0.5,0.9-0.9,1.2-1.2c8.9,0,17.8,0,26.5,0
		c0.5,0.5,0.8,0.8,1.4,1.4c0,9.2,0,18.5,0,27.8c0,0.1,0.1,0.3,0.2,0.4c0.1,0.1,0.2,0.2,0.2,0.2c18.1,0,36.1,0,54,0
		c0-12.3,0-24.5,0-36.8c-29.3,0-58.4,0-87.5,0c0,14,0,27.9,0,41.7c8.1,0,16.1,0,24,0C141.8,325.8,135.1,326.2,128.4,326z
		 M212.8,978.6c-18,0-35.6,0-53.2,0c-0.6,13.7-0.4,41.9,0.3,45.8c17.6,0,35.2,0,52.9,0C212.8,1009.1,212.8,993.9,212.8,978.6z
		 M9.3,1024.4c17.7,0,34.9,0,52.2,0c0.6-12.9,0.4-41.9-0.3-45.8c-17.3,0-34.5,0-51.9,0C9.3,993.9,9.3,1009.1,9.3,1024.4z
		 M55.7,1861.5c36.9,0,73.3,0,109.8,0c0-2,0-3.8,0-5.6c0-1.8-0.1-3.5-0.1-5.1c-36.8,0-73.2,0-109.7,0
		C55.7,1854.4,55.7,1857.8,55.7,1861.5z M182.3,1772.5c-19.1,0-38,0-56.9,0c0,6.1,0,12,0,17.8c19.5,0,38.8,0,58.1,0
		c0-5.6,0-11.1,0-16.5C183.2,1773.3,182.9,1773,182.3,1772.5z M148.3,1632c-9.6,0-18.8,0-28.2,0c0,12.2,0,24.2,0,36.2
		c0,0.1,0.1,0.3,0.2,0.4c0.1,0.1,0.2,0.2,0.2,0.2c9.4,0,18.6,0,27.8,0C148.3,1656.4,148.3,1644.3,148.3,1632z M116.5,231.9
		c-12.5,0-24.5,0-36.5,0c0,12,0,24,0,36c1.9,0,3.5,0,5.2,0c7.7,0,14-3.2,18.9-8.8c2.4-2.7,4.1-5.9,5.9-9.1c2-3.4,2.8-7.2,4.1-10.8
		C114.9,236.8,115.6,234.5,116.5,231.9z M125.4,1689.1c0,12.6,0,24.8,0,37.2c1.2-0.4,2.2-1,3.2-1.1c7.1-0.6,13-2.5,19.8-7.5
		c0-2.5,0-5.2,0-7.8c0-2.6-0.2-5.2,0.2-8c4.5,0,8.6,0,12.7,0c1-4.4,3-8.3,3.3-12.8C151.3,1689.1,138.4,1689.1,125.4,1689.1z
		 M192.9,367.1c0-2.5,0-4.7,0-7c2,0,3.8,0,5.9,0c2-3.8,0.5-7.8,1-11.4c-0.6-0.7-1.1-1.2-1.7-1.8c-1.7,0-3.5,0-5.5,0
		c0-2.3,0-4.4,0-6.6c-10.2,0-20.2,0-30,0c0,9,0,17.9,0,26.8C172.7,367.1,182.5,367.1,192.9,367.1z M192.8,1636
		c-10.4,0-20.3,0-30.2,0c0,9,0,17.8,0,26.7c10.1,0,20.1,0,30.2,0c0-2.3,0-4.5,0-6.8c2,0,3.8,0,5.3,0c0.8-0.7,1.3-1.1,1.7-1.5
		c0-3.4,0-6.8,0-10.1c-2-1.6-4.5-1.6-7-1.5C192.8,1640.4,192.8,1638.3,192.8,1636z M22.4,367c10.3,0,20.1,0,30.2,0
		c0-2.3,0-4.4,0-6.7c2,0,3.8,0,5.5,0c0.5-1,0.9-1.8,1.5-3c-0.3-3.1,0.9-6.8-1.5-10.2c-1.7,0-3.5,0-5.6,0c0-2.4,0-4.7,0-6.8
		c-10.2,0-20.1,0-30.1,0C22.4,349.2,22.4,358,22.4,367z M52.6,1636c-10.4,0-20.3,0-30.3,0c0,8.8,0,17.5,0,26.2
		c0,0.1,0.1,0.3,0.2,0.4c0.1,0.1,0.2,0.2,0.1,0.1c10.1,0,19.9,0,30,0c0-2.3,0-4.4,0-6.7c2,0,3.8,0,5.5,0c0.5-1,0.9-1.8,1.5-2.9
		c0-2.3,0-5,0-7.7c-0.8-0.8-1.7-1.6-2.7-2.6c-1.2,0-2.7,0-4.3,0C52.6,1640.4,52.6,1638.3,52.6,1636z M12.3,1790.2
		c17.3,0,34.3,0,51.3,0c0-3,0-5.8,0-8.6c0-2.8,0.1-5.6-0.1-8.1c-17.4,0-34.3,0-51.3,0C12.3,1779.1,12.3,1784.6,12.3,1790.2z
		 M148.2,1738.8c0-5.3,0-10.4,0-15.6c-7.3,3.9-14.9,5.9-22.8,7.2c0,12.9,0,25.9,0,38.8c6,0,11.9,0,18,0c0-1.6,0-3,0-4.5
		c0.2-6.8-0.7-13.6,1.9-20.3C146,1742.2,146.7,1740.3,148.2,1738.8z M188.6,1917c-51.6,0-102.8,0-154,0c0,1.7,0,3.3,0,4.7
		c51.5,0,102.7,0,154,0C188.6,1920.1,188.6,1918.6,188.6,1917z M34.5,1910.6c51.7,0,102.9,0,154.3,0c-0.1-1.7-0.2-3.3-0.2-4.7
		c-51.6,0-102.8,0-154,0C34.5,1907.6,34.5,1909,34.5,1910.6z M188.6,1895.9c-51.7,0-102.8,0-154.3,0c0.1,1.7,0.2,3.3,0.2,4.7
		c51.6,0,102.8,0,154,0C188.6,1899,188.6,1897.5,188.6,1895.9z M194.7,1795.6c-5.3,0-10.1,0-14.9,0c-0.6,15-0.4,46.7,0.3,50.8
		c4.9,0,9.7,0,14.6,0C194.7,1829.4,194.7,1812.6,194.7,1795.6z M188.6,1884.9c-51.7,0-102.9,0-154.3,0c0.1,1.7,0.2,3.3,0.2,4.7
		c51.6,0,102.8,0,154,0C188.6,1887.9,188.6,1886.5,188.6,1884.9z M34.5,1878.5c51.4,0,102.7,0,154.2,0c-0.1-0.8-0.2-1.3-0.4-2
		c-1,0-1.8,0-2.6,0c-0.1-1-0.2-1.8-0.3-2.7c-49,0-97.9,0-146.9,0c-0.2,1.1-0.4,2-0.6,3c-1.3,0-2.4,0-3.6,0
		C34.5,1877.5,34.5,1878,34.5,1878.5z M36.6,287.6c0,11.3,0,22.8,0,34.4c8.7,0,17.2,0,25.8,0c0-13.4,0-26.7,0-39.9
		c-17.5,0-34.7,0-52,0c0,13.4,0,26.7,0,40.1c0.7-0.1,1.1-0.1,1.8-0.2c0-11.9,0-23.7,0-35.5c1.9-0.9,3.6-1.6,5.6-1.5
		c5.4,0.2,10.7,0.1,16.1,0.1C34.8,285.8,35.6,286.6,36.6,287.6z M59.1,70.9c36.9,0,73.1,0,110,0c-2.7-2.2-5-3.9-7.4-5.8
		c-31.7,0-63.6,0-96,0C63.8,66.8,61.7,68.6,59.1,70.9z M141.8,313.1c1.4,1.7,1.4,1.7,1.8,10.1c3.6-0.5,7.2-1,10.8-1.4
		c0-8.9,0-17.7,0-26.6c-3.7,0-7.3,0-10.7,0c-1.2,3.6,1.3,7.6-1.9,11c-2.9-3.6-0.4-7.7-1.8-11.1c-2.8,0-5.7,0-8.5,0
		c0,9.4,0,18.6,0,27.9c3,0,5.8,0,8.8,0c0-2.9,0-5.7,0-8.3C140.8,314,141.3,313.5,141.8,313.1z M15.4,289c0,10.9,0,21.4,0,32
		c6.1,0,12.1,0,17.8,0c0-11,0-21.5,0-32C27.2,289,21.4,289,15.4,289z M208.1,1795.5c0,17.3,0,34.1,0,51c3.3,0,6.5,0,9.7,0
		c0-16.4,0-32.7,0-49.8c-1,1.4-1.5,2.2-1.9,2.8c-1.2-0.6-2.2-0.9-2.8-1.5c-0.8-0.7-1.3-1.7-1.8-2.5
		C210.2,1795.5,209.2,1795.5,208.1,1795.5z M116.2,331.2c-12.5,0-24.4,0-36.3,0c0,4.6,0,9.1,0,13.7c10.8,0,21.4,0,32.2,0
		C114.5,340.6,115.7,336.2,116.2,331.2z M83.7,134.3c0-4.2,0-8,0-12c-6.9,0-13.6,0-20.2,0c-6.6,0-13.3,0-19.7,0c0,4.3,0,8.1,0,11.9
		C57,134.3,70.3,134.3,83.7,134.3z M196.9,1795.5c0,17.2,0,34.1,0,51.1c3.1-0.1,6,0.1,8.8-0.1c0-17.2,0-34.1,0-51
		C202.8,1795.5,199.9,1795.5,196.9,1795.5z M50.7,1729.2c0,11.9,0,23.4,0,35c2.3,0,4.5,0,6.6,0c2.1,0,4.2,0,6.2,0c0-12,0-23.4,0-35
		C59.2,1729.2,55,1729.2,50.7,1729.2z M43.6,119.1c13.6,0,26.8,0,40,0c0-3.7,0-7.3,0-10.7c-13.5,0-26.7,0-40,0
		C43.6,112,43.6,115.5,43.6,119.1z M110,350.3c-10.1,0-20.1,0-30.1,0c0,6,0,11.8,0,17.5c2.2,1.8,5,2,7.1,1.3
		c5.7-2.1,11.8-3.5,16.2-8.4C105.9,357.5,108.1,354.2,110,350.3z M122.2,244.6c11.6,0,22.8,0,34,0c0-3.1,0-6,0-9c-2,0-3.9,0-5.6,0
		c-0.2-1.4-0.3-2.6-0.4-3.7c-9.5,0-18.7,0-27.9,0C122.2,236.2,122.2,240.3,122.2,244.6z M124.3,368c8,0,16,0,24.1,0c0-3,0-5.8,0-8.6
		c0-2.8,0.1-5.5-0.1-8.3c-4.5,0-8.7,0.7-12.5-0.2c-3.9-0.9-7.7-0.5-11.6-0.9C124.3,356.3,124.3,362.1,124.3,368z M41.6,1689.1
		c0,9.9,0,19.4,0,29c2.3,0,4.5,0,6.6,0c2.1-0.1,4.3,0.3,6.1-0.2c0-9.8,0-19.3,0-28.8C50.1,1689.1,45.9,1689.1,41.6,1689.1z
		 M210.9,226.6c-0.2-5-0.2-9.5-0.8-14c-0.8-5.9-0.3-12-0.2-18c0.1-6.1-1.6-12-1.1-18.1c0.4-4.9,0.1-9.9,0.1-14.9c-1.8,0-3.3,0-4.9,0
		c0,21.7,0,43.3,0,65C206.3,226.6,208.4,226.6,210.9,226.6z M6,1406.9c0-30.3,0-60.2,0-90.3c-1.4,0.1-2.7,0.2-3.7,0.2
		c0,30.2,0,60.1,0,90.1C3.6,1406.9,4.7,1406.9,6,1406.9z M2.3,734.6c0,29.9,0,59.5,0,89.3c1.4-0.1,2.7-0.1,3.7-0.2
		c0-29.9,0-59.4,0-89.1C4.7,734.6,3.6,734.6,2.3,734.6z M159.4,125.5c-11.9,0-23.5,0-35.2,0c0,1.8,0,3.4,0,5.1
		c0,1.6,0.1,3.2,0.2,4.6c11.9,0,23.4,0,35,0C159.4,131.9,159.4,128.8,159.4,125.5z M13.4,1689.1c0,9.9,0,19.4,0,29
		c2.2,0,4.2,0,6.1,0c1.9,0,3.9-0.1,5.6-0.1c0-9.9,0-19.4,0-28.9C21.2,1689.1,17.4,1689.1,13.4,1689.1z M219.8,821.8
		c0-29.3,0-58.2,0-87.3c-1.4,0.1-2.7,0.1-3.7,0.2c0,29.2,0,58.1,0,87.1C217.4,821.8,218.5,821.8,219.8,821.8z M196.8,1702
		c-0.1-3.5-0.2-6.5-0.9-9.5c-0.7-3.3-2.4-5.7-4.9-7.3c-2.6-1.6-5.5-3.3-8.7-1.1c-0.3,0.2-0.9,0.1-1.3,0.1
		c-5.4,4.9-7.2,10.9-6.2,17.9C182.1,1702,189.3,1702,196.8,1702z M2.3,461.6c0,28.9,0,57.5,0,86.2c1.4-0.1,2.7-0.1,3.7-0.2
		c0-28.9,0-57.4,0-86.1C4.7,461.6,3.6,461.6,2.3,461.6z M219.8,546.8c0-29,0-57.5,0-86.2c-1.4,0.1-2.7,0.1-3.7,0.2
		c0,28.9,0,57.4,0,86.1C217.4,546.8,218.5,546.8,219.8,546.8z M216.1,1319.8c0,28.1,0,56.1,0,84.1c1.3,0,2.4,0,3.7,0
		c0-28.1,0-56.1,0-84.1C218.5,1319.8,217.4,1319.8,216.1,1319.8z M124.3,344.9c8.3,0,16.1,0,24.1,0c0-2.5,0-4.8,0-7.1
		c-0.1-2.3,0.3-4.6-0.2-6.6c-8.2,0-16,0-23.9,0C124.3,335.9,124.3,340.3,124.3,344.9z M124.3,113.4c0,3.2,0,6,0,9c6,0,11.9,0,17.7,0
		c5.8,0,11.6,0,17.2,0c0-3.3,0-6.1,0-9C147.6,113.4,136.1,113.4,124.3,113.4z M18.3,225.6c0-1.4,0-2.7,0-4c0-14.8,0-29.7,0-44.5
		c0-1.2-0.4-2.5,0.1-3.5c1.8-4,0.5-8,1-12c-1.9,0-3.4,0-5.1,0c0,1.7,0,3.3,0,5c0.6,16.9-1.8,33.7-1,50.6c0,0.7,0.3,1.6,0,2
		c-2,2.1-0.5,4.3-1,6.5C14.4,225.6,16.2,225.6,18.3,225.6z M188.6,1913c-51.4,0-102.7,0-154.1,0c0,0.6,0,1,0,1.7
		c51.4,0,102.7,0,154.1,0C188.6,1914.1,188.6,1913.6,188.6,1913z M34.5,1867.5c51.4,0,102.7,0,154.1,0c0-0.6,0-1,0-1.7
		c-51.4,0-102.7,0-154.1,0C34.5,1866.4,34.5,1866.9,34.5,1867.5z M34.5,1893.6c51.4,0,102.7,0,154.1,0c0-0.6,0-1.1,0-1.7
		c-51.4,0-102.7,0-154.1,0C34.5,1892.5,34.5,1893,34.5,1893.6z M188.6,1880.9c-51.4,0-102.7,0-154.1,0c0,0.6,0,1,0,1.7
		c51.4,0,102.7,0,154.1,0C188.6,1881.9,188.6,1881.5,188.6,1880.9z M188.6,1869.8c-51.4,0-102.7,0-154.1,0c0,0.6,0,1.1,0,1.7
		c51.4,0,102.7,0,154.1,0C188.6,1870.9,188.6,1870.4,188.6,1869.8z M185.9,1773.6c0,5.7,0,11.1,0,16.7c3,0,5.8,0,8.6,0
		c2.8,0,5.6,0.1,8.2-0.1c0-6.2,0-12,0-17.9c-5.3,0-10.5,0-15.6,0C186.7,1772.8,186.4,1773.1,185.9,1773.6z M190.6,1737.4
		c0-1.9,0-3.5,0-4.8c-2.8-0.6-5.4-1.2-7.8-1.7c0-1,0-1.7,0-2.5c2.6-0.8,5.3-1.7,7.9-2.5c0-1.3,0-2.4,0-3.1c-1.4-1.1-2.6-1.9-3.7-2.7
		c-2.9-0.1-6,0.6-9.3-2.6c5-0.7,8.7-2.9,13-2.4c0-1.5,0-2.6,0-4.1c-5.7,1.2-11.2,2.4-17,3.7c-0.6,0.4-1.7,1.2-3,2.1
		c0.2,1.2-0.6,2.9,1.1,4c2.4,0.6,4.7,1.1,7.3,1.7c-0.5,1.4-1,2.5-1.5,3.7c-2.5,0-4.6,0-6.8,0c0,2.1,0,4,0,5.6
		C177.4,1733.7,183.9,1735.5,190.6,1737.4z M38.3,1718c0-9.9,0-19.4,0-29c-1.8,0-3.5,0-5.1,0c-1.6,0-3.2,0.1-4.6,0.2
		c0,9.8,0,19.3,0,28.9C31.8,1718,35,1718,38.3,1718z M167.4,1682c-6.3,0-12.6,0-18.9,0c-0.1-2.2-0.2-4.2-0.3-5.9c-7.9,0-15.4,0-23,0
		c0,1.6,0,3.1,0,4.6c0,1.4,0.1,2.9,0.2,4.1c14.2,0,28.1,0,42.1,0C167.4,1683.9,167.4,1683.1,167.4,1682z M43.6,143.2
		c13.6,0,26.9,0,40,0c0-2.1,0-4,0-5.7c-13.5,0-26.7,0-40,0C43.6,139.5,43.6,141.3,43.6,143.2z M190.6,77.3c-8.9,0-17.4,0-26.5,0
		c2.5,3.2,1.4,6-0.7,8.9c9.9,0,19.3,0,28.7,0c0.1,0,0.3-0.1,0.4-0.2c0.1-0.1,0.2-0.2,0,0C191.8,83,191.2,80.2,190.6,77.3z
		 M192.6,1667.1c-10.3,0-20.1,0-30.1,0c0,1.6,0,3.1,0,3.8c1.1,1.4,1.8,2.4,2.3,3c8.8,0,17.2,0,25.5,0c0.8-0.8,1.5-1.5,2.3-2.3
		C192.6,1670.2,192.6,1668.7,192.6,1667.1z M24.8,1673.9c8.4,0,16.8,0,25.2,0c0.8-0.8,1.7-1.7,2.4-2.4c0-1.6,0-3.1,0-4.7
		c-9.9,0-19.6,0-29.3,0c-0.3,0-0.5,0.3-0.7,0.5c0,1.3,0,2.7,0,4C23.2,1672.3,24,1673.1,24.8,1673.9z M188.6,126.6
		c-0.7-0.4-1.3-0.9-2.1-1.2c-7.4-3.6-14.8-7.2-22.3-10.7c-0.8-0.4-1.8-0.3-2.7-0.4c0,2.9,0,5.3,0,8.1c8.9,3.3,17.9,6.7,27,10.1
		C188.6,130.2,188.6,128.4,188.6,126.6z M162.6,1632.6c10.3,0,20.1,0,30.5,0c-0.5-2.1-0.9-3.9-1.5-6c-8.9-1.9-17.9-0.3-26.5-0.9
		c-1,1-1.7,1.7-2.5,2.5C162.6,1629.5,162.6,1631,162.6,1632.6z M22.4,1632.6c10.3,0,20.1,0,30.5,0c-0.5-2.1-0.9-3.9-1.5-6
		c-8.9-1.9-17.9-0.3-26.5-0.9c-1,1-1.7,1.7-2.5,2.5C22.4,1629.5,22.4,1631,22.4,1632.6z M31.5,86c8.3,0,16.1,0,23.9,0
		c-0.7-1.5-1.6-2.9-1.7-4.3c-0.1-1.4,0.5-2.9,0.9-4.5c-7.2,0-14,0-20.9,0C31.6,79.8,31.1,82.7,31.5,86z M174.8,149.5
		c0,2.6,0,4.7,0,6.8c2.3,0,2.6,1.8,3.3,3c5.5,0,11,0,16.5,0c0-3.4,0-6.6,0-9.8C187.9,149.5,181.4,149.5,174.8,149.5z M71.6,222.8
		c-16,0-31.5,0-47.3,0c0.1,1.4,0.1,2.6,0.2,3.7c15.9,0,31.5,0,47.1,0C71.6,225.3,71.6,224.1,71.6,222.8z M198.7,222.8
		c-15.7,0-30.9,0-46.3,0c0.1,1.4,0.2,2.6,0.2,3.7c15.6,0,30.8,0,46.1,0C198.7,225.2,198.7,224.1,198.7,222.8z M163.9,377.1
		c9.3,0,18.5,0,27.5,0c0.5-0.5,0.8-0.8,1.1-1.1c0-1.6,0-3.2,0-4.6c-10.1,0-19.9,0-29.9,0c0,1.6,0,3,0,4.5
		C162.9,376.2,163.3,376.5,163.9,377.1z M52.9,371.4c-10.7,0-20.5,0-30.4,0c0,1.6,0,3,0,4.4c0.5,0.6,1,1.1,1.2,1.4
		c9.4,0,18.5,0,27.9,0C52,375.2,52.4,373.4,52.9,371.4z M162.6,335.9c10.1,0,20,0,30,0c0-1.3,0-2.4,0-2.9c-1-1.3-1.8-2.2-2.3-2.9
		c-8.7,0-17,0-25,0c-1.1,0.6-2,1-2.7,1.4C162.6,333,162.6,334.4,162.6,335.9z M124.3,143.2c12,0,23.5,0,35.2,0
		c-0.1-1.7-0.2-3.3-0.2-4.7c-11.9,0-23.4,0-35,0C124.3,140.1,124.3,141.6,124.3,143.2z M50.2,330.1c-7.4,0-14.6,0-21.8,0
		c-2.1,0-4.2,0-6.1,1.5c0.1,1.4,0.1,3,0.2,4.4c10.2,0,20,0,29.9,0C53,333.5,51.7,331.9,50.2,330.1z M2.3,1122c0,14.6,0,28.8,0,43.1
		c1.4-0.1,2.7-0.2,3.7-0.2c0-14.5,0-28.7,0-42.9C4.7,1122,3.6,1122,2.3,1122z M6,1231.3c0-14.6,0-28.7,0-43.1
		c-1.4,0.1-2.7,0.2-3.7,0.2c0,14.5,0,28.7,0,42.9C3.6,1231.3,4.7,1231.3,6,1231.3z M6,1295.5c0-14.6,0-28.7,0-43.1
		c-1.4,0.1-2.7,0.2-3.7,0.2c0,14.5,0,28.7,0,42.9C3.6,1295.5,4.7,1295.5,6,1295.5z M6,884c0-14.6,0-28.7,0-43.1
		c-1.4,0.1-2.7,0.1-3.7,0.2c0,14.5,0,28.7,0,42.9C3.6,884,4.7,884,6,884z M2.3,1428.2c0,14.4,0,28.6,0,43c1.3,0,2.4,0,3.7,0
		c0-14.4,0-28.6,0-43C4.7,1428.2,3.6,1428.2,2.3,1428.2z M6,644.1c0-14.6,0-28.7,0-43.1c-1.4,0.1-2.7,0.1-3.7,0.2
		c0,14.5,0,28.7,0,42.9C3.6,644.1,4.7,644.1,6,644.1z M2.3,1492.4c0,14.6,0,28.7,0,43.1c1.4-0.1,2.7-0.1,3.7-0.2
		c0-14.5,0-28.7,0-42.9C4.7,1492.4,3.6,1492.4,2.3,1492.4z M2.3,1728.2c0,14.6,0,28.7,0,43.1c1.4-0.1,2.7-0.1,3.7-0.2
		c0-14.5,0-28.7,0-42.9C4.7,1728.2,3.6,1728.2,2.3,1728.2z M212.8,1790.3c0-8.2,0-16,0-23.7c-2.4,0-4.7,0-6.7,0c0,8.1,0,15.9,0,23.7
		C208.3,1790.3,210.4,1790.3,212.8,1790.3z M6,1605.6c0-14.2,0-28,0-42.1c-1.4,0.1-2.7,0.1-3.7,0.2c0,14.2,0,28,0,41.9
		C3.6,1605.6,4.7,1605.6,6,1605.6z M216.1,295c0,14.2,0,28.1,0,42.1c1.4-0.1,2.7-0.1,3.7-0.2c0-14.2,0-28,0-41.9
		C218.5,295,217.4,295,216.1,295z M219.8,399.2c0-14.2,0-28,0-42.1c-1.4,0.1-2.7,0.1-3.7,0.2c0,14.2,0,28,0,41.9
		C217.4,399.2,218.5,399.2,219.8,399.2z M3.3,232.8c0,14.2,0,28,0,42.1c1.4-0.1,2.7-0.1,3.7-0.2c0-14.2,0-28,0-41.9
		C5.7,232.8,4.6,232.8,3.3,232.8z M219.8,952.2c0-14.3,0-28.1,0-42.1c-1.4,0.1-2.7,0.2-3.7,0.2c0,14.2,0,28,0,41.9
		C217.4,952.2,218.5,952.2,219.8,952.2z M2.3,1053.8c0,14.3,0,28.1,0,42.1c1.4-0.1,2.7-0.2,3.7-0.2c0-14.2,0-28,0-41.9
		C4.7,1053.8,3.6,1053.8,2.3,1053.8z M2.3,910.3c0,14.3,0,28.1,0,42.1c1.4-0.1,2.7-0.2,3.7-0.2c0-14.2,0-28,0-41.9
		C4.7,910.3,3.6,910.3,2.3,910.3z M6,712.3c0-14.2,0-28.1,0-42.1c-1.4,0.1-2.7,0.2-3.7,0.2c0,14.2,0,28,0,42c0.8,0,1.5,0,2.1,0
		C4.9,712.4,5.4,712.4,6,712.3z M100.1,132.7c7.7-2.4,14-7,20.9-9.4c0-3.3,0-6.1,0-9.2c-7.3,4.2-14.2,8.2-20.9,12.1
		C100.1,128.6,100.1,130.4,100.1,132.7z M219.8,1535.3c0-13.9,0-27.4,0-41.1c-1.4,0.1-2.7,0.2-3.7,0.2c0,13.8,0,27.3,0,40.9
		C217.4,1535.3,218.5,1535.3,219.8,1535.3z M216.1,1253.5c0,13.9,0,27.4,0,41.1c1.4-0.1,2.7-0.2,3.7-0.2c0-13.8,0-27.3,0-40.9
		C218.5,1253.5,217.4,1253.5,216.1,1253.5z M216.1,1123c0,13.9,0,27.4,0,41.1c1.4-0.1,2.7-0.1,3.7-0.2c0-13.8,0-27.3,0-40.9
		C218.5,1123,217.4,1123,216.1,1123z M219.8,1095.7c0-13.7,0-27.3,0-41c-1.3,0-2.4,0-3.7,0c0,13.7,0,27.3,0,41
		C217.4,1095.7,218.6,1095.7,219.8,1095.7z M219.8,712.4c0-13.9,0-27.4,0-41.1c-1.4,0.1-2.7,0.2-3.7,0.2c0,13.8,0,27.3,0,40.9
		C217.4,712.4,218.5,712.4,219.8,712.4z M216.1,1190.3c0,13.6,0,26.7,0,40.1c1.4-0.1,2.7-0.2,3.7-0.2c0-13.5,0-26.7,0-39.9
		C218.5,1190.3,217.4,1190.3,216.1,1190.3z M219.9,603.2c-1.6,0-2.7,0-3.8,0c-0.5,14-0.3,39.3,0.2,39.8c1.3,0,2.4,0,3.6,0
		C219.9,629.7,219.9,616.6,219.9,603.2z M219.8,1604.6c0-13.6,0-26.7,0-40.1c-1.4,0.1-2.7,0.1-3.7,0.2c0,13.5,0,26.7,0,39.9
		C217.4,1604.6,218.5,1604.6,219.8,1604.6z M7,399.2c0-13.2,0-26,0-39.1c-1.4,0.1-2.7,0.1-3.7,0.2c0,13.2,0,26,0,38.9
		C4.6,399.2,5.7,399.2,7,399.2z M3.3,297c0,13.3,0,26.1,0,39.1C4.7,336,6,336,7,335.9c0-13.2,0-26,0-38.9C5.7,297,4.6,297,3.3,297z
		 M219.8,1470.1c0-13.3,0-26.1,0-39.1c-1.4,0.1-2.7,0.2-3.7,0.2c0,13.2,0,26,0,38.8C217.4,1470.1,218.5,1470.1,219.8,1470.1z
		 M191.6,1750.7c-0.4-1.7-0.7-2.7-0.9-3.8c-0.4-2.5-1.7-4.5-3.8-5.8c-3.7-2.2-7.6-2.1-11.9,0c-2.9,1.4-4.5,3.5-4.4,6.7
		c0,1.7,0,3.3,0,5c1,3.5,4.1,4,6.9,5.3c0-1.3,0-2.5,0-3.8c-1.4-0.9-2.6-1.6-3.7-2.3c0-2,0-3.8,0-5.7c1.5-1,2.9-2,4.3-3
		c3.8-0.5,7.2,0.1,9.7,3.5c0,1.5,0,3.2,0,5.3c-0.9,0.7-2,1.6-2.8,2.2c0,1.7,0,2.8,0,3.8C189,1757.1,190,1753.5,191.6,1750.7z
		 M188.5,1903.6c0-0.3,0-0.6,0-0.8c-51.2,0-102.4,0-153.6,0c-0.1,0-0.3,0.2-0.4,0.3c-0.1,0.1,0,0.2,0,0.5
		C85.9,1903.6,137.2,1903.6,188.5,1903.6z M219.9,844.1c-1.6,0-2.7,0-3.8,0c-0.5,13.8-0.3,37.3,0.2,37.8c1.3,0,2.4,0,3.6,0
		C219.9,869.2,219.9,856.8,219.9,844.1z M216.1,1732.3c0,12.6,0,24.7,0,37.1c1.4-0.1,2.7-0.1,3.7-0.2c0-12.5,0-24.6,0-36.9
		C218.5,1732.3,217.4,1732.3,216.1,1732.3z M216.1,236.8c0,12,0,24,0,35.9c1.3,0,2.4,0,3.7,0c0-12,0-24,0-35.9
		C218.5,236.8,217.4,236.8,216.1,236.8z M206,1682.1c0,6.9,0,13.4,0,19.7c2.1,0,4,0,5.7,0c0-6.7,0-13.2,0-19.7
		C209.8,1682.1,208,1682.1,206,1682.1z M199,1701.9c1.5,0,2.6,0,3.6,0c0-6.7,0-13.3,0-19.7c-4.1,0-7.9,0-11.8,0
		C196.4,1688.3,199,1688.6,199,1701.9z M170,1682.1c-0.7,3.9-0.7,15.7,0,19.7c0.8,0,1.6,0,2.4,0c-0.1-10.6,3-14.6,8.2-19.7
		C177,1682.1,173.5,1682.1,170,1682.1z M79.8,78.6c0,1.3,0,2.7,0,3.7c1,1.4,1.8,2.6,2.5,3.7c2.4,0,4.9,0,7.4,0
		c-0.2-0.2-0.4-0.5-0.6-0.7c1.1-0.5,2.1-1.1,2.7-1.4c0-2.6,0-4.5,0-6.6c-3.6,0-7.1,0-10.6,0C80.9,77.6,80.5,77.9,79.8,78.6z
		 M114.9,84.9c1.1-2.7,2.6-5.3-0.1-7.6c-3.5,0-7,0-10.6,0c0,2.2,0,4.4,0,6.4c0.8,0.9,1.6,1.7,2.3,2.5c2.1,0,4.1,0,5.7,0
		C113.2,85.7,113.9,85.3,114.9,84.9z M56.6,82.8c1.2,1.7,1.9,2.6,2.6,3.6c2.9-0.4,5.6-0.7,8.5-1.1c0.4-2.5,0.8-4.7,1.1-6.3
		c-0.8-1-1.2-1.5-1.4-1.7c-3.8,0-7.3,0-10.7,0c-0.1,0.4-0.1,0.5-0.1,0.7C56.6,79.8,56.6,81.7,56.6,82.8z M128.6,77.3
		c-2.2,3-2,4.9,1.1,8.9c2.3,0,4.7,0,7,0c-0.2-0.2-0.3-0.3-0.5-0.5c1.2-0.7,2.3-1.3,3.3-1.9c-0.6-2.4,0.8-4.8-1.7-6.5
		C134.9,77.3,131.7,77.3,128.6,77.3z M154,86.2c2.8-0.1,5.8,0.6,8.4-1.4c0-2.5,0-4.9,0-7.5c-3.6,0-7.1,0-10.8,0
		c-0.5,1.7-1,3.5-1.5,5.1C151.6,83.8,152.8,85,154,86.2z M199.7,231.9c-12.4,0-24.7,0-37.1,0c0,0.6,0,1.1,0,1.7
		c12.4,0,24.7,0,37.1,0C199.7,232.9,199.7,232.5,199.7,231.9z M60.6,232.6c-0.1-0.2-0.1-0.5-0.2-0.7c-12.3,0-24.6,0-37,0
		c0,0.6,0,1.1,0,1.8c11.6,0,23.1,0,34.7,0C58.9,233.7,59.8,233,60.6,232.6z M25.2,1721.3c-4.2,0-8,0-11.8,0c0,2.1,0,4,0,5.7
		c4.1,0,7.9,0,11.8,0C25.2,1725,25.2,1723.3,25.2,1721.3z M92.8,86c1.7,0.1,3.3,0.1,4.9,0.2c1.7,0,3.5-0.1,5.2-0.1
		c-0.7-1.7-1.5-2.9-1.7-4.2c-0.2-1.4,0.3-2.9,0.5-4.5c-2.6,0-5.2,0-7.7,0C93.4,80.3,94.9,83.2,92.8,86z M125.9,86.1
		c-0.4-3.2-0.7-6-1.1-8.8c-2.6,0-5,0-7.6,0c1.9,3.2,0.5,6-1.2,8.8C119.5,86.1,122.7,86.1,125.9,86.1z M141.6,77.3
		c-0.3,3-0.7,5.8-1,8.7c3.2,0,6.4,0,9.8,0c-2-2.8-3.1-5.6-1.2-8.7C146.5,77.3,144,77.3,141.6,77.3z M69.4,86c3.8,0,7,0,10.2,0
		c-0.7-0.7-1.3-1.3-1.9-1.9c0-2.5,0-4.7,0-7.1c-2.7,0.6-5.4-0.3-7.5,0.4C71.1,80.4,71.1,83.1,69.4,86z M188.6,1858.8
		c-6.7,0-13.3,0-20,0c0,0.9,0,1.7,0,2.7c6.7,0,13.3,0,20,0C188.6,1860.5,188.6,1859.7,188.6,1858.8z M202.7,1766.4
		c-5.4,0-10.6,0-16,0c-0.4,0.9-0.8,1.6-1.3,2.7c6.1,0,11.7,0,17.3,0C202.7,1768.2,202.7,1767.4,202.7,1766.4z M168.6,1864.5
		c6.7,0,13.3,0,20,0c0-0.6,0-1.1,0-1.7c-6.7,0-13.3,0-20,0C168.6,1863.4,168.6,1863.9,168.6,1864.5z M72.9,331.2c0,4.3,0,8.5,0,12.9
		c0.9,0,1.7,0,2.7,0c0-4.3,0-8.5,0-12.9C74.6,331.2,73.9,331.2,72.9,331.2z M34.5,1861.5c6,0,12,0,18,0c0-0.6,0-1.1,0-1.7
		c-6,0-12,0-18,0C34.5,1860.4,34.5,1860.9,34.5,1861.5z M34.5,1864.5c6,0,11.9,0,18,0c0-0.6,0-1,0-1.7c-6,0-11.9,0-18,0
		C34.5,1863.4,34.5,1863.8,34.5,1864.5z M182.4,1766.4c-2.8,0-5.2,0-7.8,0c-0.4,0.9-0.8,1.6-1.4,2.9c3.7,0,6.8,0,9.9,0
		c0.2,0,0.4-0.5,0.8-0.9C183.5,1767.8,183,1767.2,182.4,1766.4z M120,336.3c-0.1,0-0.3,0-0.4,0c-0.8,2.9-1.5,5.8-2.3,8.7
		c1.1,0,1.9,0,2.8,0C120,342,120,339.1,120,336.3z M64.8,233.5c2.3,0,4.6,0,6.9,0c0-0.6,0-1.1,0-1.7c-2.3,0-4.6,0-6.9,0
		C64.8,232.5,64.8,232.9,64.8,233.5z M152.5,233.5c1.3,0,2.5,0,3.9,0c0-0.6,0-1.1,0-1.7c-1.3,0-2.5,0-3.9,0
		C152.5,232.5,152.5,232.9,152.5,233.5z M37.3,1873.8c-1,0-1.9,0-2.9,0c0,0.6,0,1.1,0,1.7c1,0,1.9,0,2.9,0
		C37.3,1874.9,37.3,1874.5,37.3,1873.8z M165.1,1701.9c1.1,0,1.7,0,2.2,0c0-1.4,0-2.6,0-4.4C166.5,1699.1,166,1700.2,165.1,1701.9z
		 M186.7,1875.4c0.7,0,1.3,0,2.1,0c-0.1-0.7-0.2-1.2-0.4-1.8c-0.7,0.1-1.3,0.3-1.8,0.4C186.7,1874.5,186.7,1874.9,186.7,1875.4z"/>
	<path d="M16.4,1346.8c13.1,0,25.9,0,38.8,0c1.4,1.8,1.5,3.9,1.4,6c-0.1,5.5,0,11,0,16.2c-0.6,1.1-1,1.9-1.4,2.8
		c-12.9,0-25.7,0-38.7,0C16.4,1363.5,16.4,1355.4,16.4,1346.8z M18.4,1359.6c12,0,23.5,0,35.2,0c0-2,0-3.8,0-5.6
		c0-1.8-0.1-3.5-0.1-5.1c-11.9,0-23.4,0-35.1,0C18.4,1352.5,18.4,1356,18.4,1359.6z M53.5,1363c-12,0-23.5,0-35.3,0
		c0.4,2.4-0.2,4.7,0.3,6.7c11.9,0,23.4,0,35,0C53.5,1367.4,53.5,1365.3,53.5,1363z"/>
	<path d="M206.8,1346.9c0,8.3,0,16.5,0,24.8c-13.3,0-26.5,0-39.9,0c0.1,0.1-0.1,0-0.2-0.2c-0.1-0.1-0.2-0.3-0.2-0.4c0-8,0-16,0-24.2
		C179.9,1346.9,193.1,1346.9,206.8,1346.9z M168.7,1348.8c0,3.9,0,7.4,0,11c11.9,0,23.6,0,35.3,0c0.1,0,0.3-0.1,0.4-0.2
		c0.1-0.1,0.3-0.2,0.2-0.2c0-3.7,0-7.1,0-10.7C192.6,1348.8,180.8,1348.8,168.7,1348.8z M204.8,1363c-12.3,0-24.2,0-36.3,0
		c0.3,2.4-0.2,4.7,0.3,6.7c12.2,0,24.1,0,36,0C204.8,1367.4,204.8,1365.3,204.8,1363z"/>
	<path d="M161.4,1346.9c0,8.3,0,16.5,0,24.8c-13.3,0-26.5,0-39.9,0c0.1,0.1-0.1-0.1-0.2-0.2c-0.1-0.1-0.2-0.3-0.2-0.4
		c0-8,0-16,0-24.1C134.5,1346.9,147.8,1346.9,161.4,1346.9z M123.2,1359.3c4.2,0.7,32.3,0.7,36.1,0c0-3.5,0-7,0-10.6
		c-11.9,0-23.6,0-35.4,0c-0.1,0-0.3,0.1-0.4,0.2c-0.1,0.1-0.2,0.2-0.3,0.4C123.2,1352.6,123.2,1356,123.2,1359.3z M123.2,1369.7
		c12.3,0,24.2,0,36.3,0c-0.2-2.4,0.2-4.7-0.3-6.7c-12.2,0-24.1,0-36,0C123.2,1365.3,123.2,1367.4,123.2,1369.7z"/>
	<path d="M100.8,1371.8c-13,0-25.9,0-39,0c0-8.2,0-16.3,0-24.9c6.3-0.3,12.8-0.1,19.2-0.1c6.5,0,13.1,0,19.8,0
		C100.8,1355,100.8,1363.2,100.8,1371.8z M63.7,1359.6c12,0,23.5,0,35.2,0c0-2,0-3.8,0-5.6c0-1.8-0.1-3.5-0.1-5.1
		c-11.9,0-23.5,0-35.1,0C63.7,1352.6,63.7,1356,63.7,1359.6z M98.9,1363c-11.7,0-23.4,0-35.1,0c0,2.3,0,4.4,0,6.7
		c11.7,0,23.4,0,35.1,0C98.9,1367.4,98.9,1365.3,98.9,1363z"/>
	<path d="M166.6,788.6c0-8,0-15.8,0-23.8c13.3,0,26.5,0,40.2,0c0,7.8,0,15.7,0,23.8C193.5,788.6,180.3,788.6,166.6,788.6z
		 M204.8,766.8c-12.3,0-24.2,0-36.2,0c0,2,0,3.8,0,5.6c0,1.8,0.1,3.5,0.1,5.1c12.3,0,24.1,0,36.1,0
		C204.8,773.9,204.8,770.4,204.8,766.8z M168.6,786.6c12.3,0,24.2,0,36,0c0-2.4,0-4.6,0-6.7c-12.1,0-24,0-36,0
		C168.6,782.1,168.6,784.3,168.6,786.6z"/>
	<path d="M100.9,764.8c0,8,0,15.8,0,23.8c-13,0-25.9,0-39.1,0c-0.4-7.8,0-15.7-0.2-23.8C74.7,764.8,87.6,764.8,100.9,764.8z
		 M63.7,777.5c12,0,23.5,0,35.2,0c0-2,0-3.8,0-5.6c0-1.8-0.1-3.5-0.1-5.1c-11.9,0-23.4,0-35.1,0C63.7,770.4,63.7,773.9,63.7,777.5z
		 M98.9,779.9c-11.9,0-23.5,0-34.9,0c0,2.4,0,4.6,0,6.7c11.8,0,23.3,0,34.9,0C98.9,784.3,98.9,782.2,98.9,779.9z"/>
	<path d="M161.4,764.8c0,8,0,15.8,0,23.7c-12.9,0-25.8,0-38.9,0c0.1,0.1-0.1,0-0.2-0.2c-0.1-0.1-0.2-0.3-0.2-0.4
		c0-7.7,0-15.3,0-23.2C135.2,764.8,148.1,764.8,161.4,764.8z M159.4,766.8c-12,0-23.5,0-35.2,0c0,2,0,3.8,0,5.6
		c0,1.8,0.1,3.5,0.1,5.1c11.9,0,23.5,0,35.1,0C159.4,773.9,159.4,770.4,159.4,766.8z M159.4,779.9c-12,0-23.5,0-35.3,0
		c0.2,2.4-0.2,4.7,0.3,6.7c11.9,0,23.4,0,35,0C159.4,784.3,159.4,782.2,159.4,779.9z"/>
	<path d="M16.3,788.6c0-8,0-15.8,0-23.8c13,0,25.9,0,39.1,0c0.4,7.8,0,15.7,0.2,23.8C42.5,788.6,29.6,788.6,16.3,788.6z M18.4,777.5
		c12,0,23.5,0,35.2,0c0-2,0-3.8,0-5.6c0-1.8-0.1-3.5-0.1-5.1c-11.9,0-23.5,0-35.1,0C18.4,770.4,18.4,773.9,18.4,777.5z M18.4,786.6
		c12,0,23.5,0,35.3,0c-0.4-2.4,0.2-4.7-0.3-6.7c-11.9,0-23.4,0-35,0C18.4,782.1,18.4,784.3,18.4,786.6z"/>
	<path d="M42.5,167.5c0.5-0.7,1.1-1.5,1.6-2.2c1.1,0.6,1.9,1,2.7,1.3c0.9-1.8,1.8-3.5,2.6-5.1c8.4,0,16.5,0,25,0
		c0.5,0.7,1.3,1.7,2.6,3.4c0-0.2,0,0.6,0,1.8c1.1-0.5,1.9-0.9,3.3-1.6c0.6,1,1.2,2.1,1.9,3.3c0.2-0.2,0.4-0.4,0.7-0.6c0,7,0,14,0,21
		c-0.9,0.8-1.9,1.6-2.8,2.4c-0.1-0.1-0.3-0.3-0.6-0.6c-1.1,1.6-0.4,4-2.6,4.9c-0.1-2.2-0.1-4.5-0.1-7.4c-1.7,0.9-3.3,1.5-4.3,2.5
		c-1.3,1.3-2.8,1.2-4.1,0.9c-5.3-1.2-5.3-1.2-9.8,0.1c-1.5,0.4-3,0.8-4.5,1.2c-1.4-2.7-2.7-5.1-5.9-5.1c-0.5,0.5-1,0.9-1.8,1.7
		c1.2,2.4,1,5.6,4,7c4.2,1.9,8.7,2.1,13.2,2.4c4.9,0.3,8.8-2.8,13.3-3.2c-0.2,2.1-2.2,2.5-3.4,2.9c-4.9,1.5-9.9,3-15.1,2.1
		c-3.2-0.6-6.2-1.9-9.2-3.1c-1-0.4-2-1.5-2.4-2.5c-0.9-2.7-2.1-4.9-5.1-5.3c0-7.1,0-13.8,0-20.4C41.5,168.5,41.1,167.5,42.5,167.5
		c0,6.2,0,12.3,0,18.5c0,1.2-0.2,2.4,1,3.1c0.2,0.1,0.5,0.2,0.4,0.2c0.9-1.2,1.8-2.4,2.6-3.5c0-5.8,0-11.7,0-17.5
		c0-0.1-0.1-0.3-0.2-0.4c-0.1-0.1-0.2-0.2-0.3-0.4C44.8,167.5,43.6,167.5,42.5,167.5z M48.6,185.4c1.7,0.9,3.2,1.7,4.2,2.2
		c1,1.3,1.8,2.2,2.6,3.2c2.5-1.7,4.7-2.6,7.5-2.4c2.6,0.2,5.2-0.1,7.2,1.9c1.9-1.5,3.8-2.9,5.5-4.2c0-7.3,0-14.4,0-21.6
		c-1.2-0.7-2.3-1.4-3.6-2.1c-5.5,0-11.2,0.1-16.9,0c-2.6-0.1-4.8,0.6-6.6,2.5C48.6,171.6,48.6,178.3,48.6,185.4z M76.6,185.9
		c0.9,0.9,1.6,1.4,2.1,2.1c0.4,0.5,0.6,1.2,1.4,2.8c0.8-2.5,1.8-3.9,1.7-5.3c-0.3-6,1.3-12.1-1.2-18c-0.8,0-1.5,0-2.2,0
		c-0.1,0-0.3,0.2-0.6,0.4C75.6,173.6,77.4,179.8,76.6,185.9z"/>
	<path d="M119.7,189.5c-0.5-7.8-0.5-15.2-0.5-22.6c1.1-0.5,2.1-0.9,3.1-1.4c0.5,0.3,1,0.6,1.5,0.9c1.2-1.7,2.5-3.3,3.6-4.9
		c8.3,0,16.4,0,24.9,0c0.8,1.4,1.8,3,2.9,4.7c0,0,0.3-0.2,0.9-0.7c0.9,0.4,2,0.8,3.5,1.5c0.3,1.6,0.8,3.5,0.8,5.3
		c0.1,5.7,0,11.3,0,17.1c-1.2,0.7-2.4,1.4-3.6,2.1c-0.4-0.3-0.7-0.6-1.3-1c0,1.7,0,3.2,0,4.8c-4.6,3.5-9.8,5-15.5,5.4
		c-5.6,0.3-10.6-1.6-15.9-4.6C123.4,193.7,122.9,190.3,119.7,189.5c1,0.1,1.5,0.1,1.9,0.1c0.8-1.2,1.6-2.4,2.5-3.6
		c0-6,0-12.1,0-18.5c-1.4,0.1-2.7,0.1-3.9,0.2C120.1,175.2,120.1,182.4,119.7,189.5z M125.4,166.7c0,6.4,0,12.6,0,18.4
		c1.5,0.8,2.9,1.2,3.9,2.1c1.3,1,2.3,2.2,3.3,3.3c5.8-2.4,6.9-2.5,13.2-1c0.7,0.2,1.7,0,2.3-0.3c1.8-0.9,3.6-1.9,5.1-2.7
		c0-7.6,0-14.7,0-21.9c-1.2-0.7-2.3-1.4-3.6-2.1c-6.8,0-13.9,0-21.2,0C127.4,163.9,126.3,165.4,125.4,166.7z M154.2,188.3
		c-1.4,0.6-2.7,1-3.6,1.7c-1,0.7-1.7,1.8-2.3,2.4c-5-1.9-9.5-3.1-14.2-0.2c-0.7,0.5-1.9,0.3-2.8,0.4c-0.3,0-0.6-0.2-0.8-0.3
		c-0.6-1.3-1.2-2.6-1.6-3.4c-1.3-0.6-2.3-1-3.5-1.5c-0.5,1.1-1.2,1.9-1.2,2.8c-0.2,3.5,2.8,6.5,6.6,7.6c3.7,1,7.4,1,11.1,0.9
		c4.5-0.2,8.6-1.5,12.3-4.1C154.2,192.4,154.2,190.5,154.2,188.3z M157.8,190.6c0.8-2.2,1.7-3.7,1.6-5.1c-0.3-6,1.3-12.1-1.1-17.9
		c-1,0-1.8,0-2.7,0c-2.3,6.2-0.5,12.4-1.2,18.3C155.5,187.4,156.3,188.6,157.8,190.6z"/>
	<path d="M186.8,436.3c0-6.6,0-13,0-19.5c0.4-0.4,0.9-0.9,1.5-1.5c3.4,0.6,7.1-1,10.4,1.1c0,6.4,0,12.5,0,18.6
		c-0.4,0.4-0.7,0.7-1.3,1.2C194.1,436.3,190.5,436.3,186.8,436.3z M196.6,434.3c0-5.5,0-10.7,0-15.7c-2.8,0-5.3,0-7.7,0
		c0,5.4,0,10.5,0,15.7C191.5,434.3,194,434.3,196.6,434.3z"/>
	<path d="M43.5,432.6c0,1,0,1.6,0,2.6c-1.9,0-3.8,0-5.9,0c0-2.8,0-5.7,0-8.7c0.6,0,1,0,1.7,0c0,1.8,0,3.6,0,5.7
		C40.8,432.4,42.2,432.5,43.5,432.6z"/>
	<path d="M39.3,419.3c-0.6,0-1.1,0-1.7,0c0-4.3,0-8.6,0-12.9c0.6,0,1.1,0,1.7,0C39.3,410.8,39.3,415,39.3,419.3z"/>
	<path d="M39.4,398.2c-0.8,0-1.2,0-1.8,0c0-2.2,0-4.3,0-6.7c2.1,0,4.3,0,6.7,0c0.1,0.3,0.2,0.8,0.3,1.6c-1.7,0.1-3.3,0.2-5.2,0.3
		C39.4,395,39.4,396.6,39.4,398.2z"/>
	<path d="M199.5,290.1c2.4,3.9,1.3,7.9,1.3,11.7c0,3.7,1.1,7.6-1.5,11.2c-2.3,0-4.8,0-7.3,0c-2.7,0-5.4-0.1-8.1,0
		c-2.4,0.1-4.8-0.6-7,0.7c-2.5-1.5-5.2-0.5-7.8-0.7c-2.5-0.2-5,0-7.5,0c0-7.8,0-15.3,0-22.9C174.2,290.1,186.7,290.1,199.5,290.1z
		 M196.7,293.1c-6.3,0-12.1,0-18.1,0c0,3,0,5.8,0,8.6c0,2.8-0.1,5.5,0.1,8.1c6.3,0,12.1,0,18,0C196.7,304.2,196.7,298.7,196.7,293.1
		z M175.4,309.9c0-5.9,0-11.4,0-17c-2,0-3.8,0-5.6,0c-1.8,0-3.6,0.1-5.1,0.1c0,5.8,0,11.3,0,16.8
		C168.3,309.9,171.8,309.9,175.4,309.9z"/>
	<path d="M190.5,1020.6c-0.6,0-1.6,0-2.6,0c-8.8,0.5-14.7-3.9-18.3-11.3c-1.5-3.1-3.5-6.5-1.1-10.2c-0.5-4.6,2.7-7.8,5.2-10.8
		c2-2.3,5.1-4,8.4-4.8c2-0.5,4.1-0.7,6.1-1c1.2,2,3.6,0.4,5.3,1.9c1.5,1.2,3.4,2.2,5.1,3.4c5.6,3.6,6.9,9.2,7.1,15
		c0.2,4-1.8,7.5-4.3,10.7C198.9,1016.7,195.2,1018.7,190.5,1020.6z M170.6,1007.8c2.5,4.2,5,7.9,9.5,9.7c3.6,1.5,9.7,1.8,13.2,0
		c4-2.1,7.6-5,9.6-10c0-1.8,0-4.3,0-6.8c0-1.5,0.5-3.2-0.1-4.5c-1.3-3.1-2.9-6.2-5.9-8c-2.4-1.5-4.8-3-7.9-2.8c-2.6,0.2-5.3,0-7.1,0
		c-1.4,0.5-2,0.7-2.5,1c-5.6,3.1-9.2,7.4-8.8,14.1C170.7,1003.1,170.6,1005.6,170.6,1007.8z"/>
	<path d="M20.1,1001.9c0.2-1.8,0.2-3.6,0.6-5.3c1.6-5.9,5.9-9.7,11.2-12.3c4.1-2,8.2-2,12.3-0.5c6.8,2.5,11.4,7.1,12.4,14.6
		c2.4,3.4,0.5,6.9-0.5,10c-1.2,4-4.4,6.7-7.8,9.3c-7.7,6-19.9,2.2-24.4-4.3C21.6,1010.1,19.3,1006.4,20.1,1001.9z M52.7,992.1
		c-0.2-0.2-1.2-1.2-2.1-2.1c-3.1-3.2-6.6-5-11.2-4.6c-2.2,0.2-4.4,0-6,0c-1,0.5-1.6,0.7-2.2,1c-5.8,2.9-8.7,7.7-8.9,14.1
		c-0.1,2.2,0,4.3,0,5.9c0.5,1.3,0.7,2,1.1,2.7c1.9,3,4.1,5.7,7.4,7.5c4.9,2.7,9.7,2.5,14.7,0.5c6.1-2.5,9.4-6.9,9.1-13.7
		C54.4,999.8,55,996.2,52.7,992.1z"/>
	<path d="M59.5,313.7c-0.7,0.7-1.5,1.5-2.4,2.3c-4.3,0-8.7,0-13.2,0c-0.4-0.4-0.8-0.9-1.3-1.6c0-9.9,0-20,0-30.6
		c1-0.3,2-0.8,3.1-0.9c3.8-0.1,7.7,0,11.5,0c0.8,0.8,1.5,1.5,2.4,2.3C59.5,294.6,59.5,304,59.5,313.7z M45.7,286c0,8.9,0,17.3,0,26
		c1.8,0,3.5,0,5.1,0c1.6,0,3.2-0.1,4.7-0.2c0-8.8,0-17.3,0-25.8C52.1,286,49,286,45.7,286z"/>
	<path d="M159.5,1768.3c0.3-0.3,0.7-0.7,1-1C160.1,1767.6,159.8,1768,159.5,1768.3z"/>
</g>
</svg>
