<?xml version="1.0" encoding="utf-8"?>
<!-- Generator: Adobe Illustrator 19.1.0, SVG Export Plug-In . SVG Version: 6.00 Build 0)  -->
<svg version="1.1" id="Layer_1" xmlns="http://www.w3.org/2000/svg" xmlns:xlink="http://www.w3.org/1999/xlink" x="0px" y="0px"
	 viewBox="0 0 222 1520" style="enable-background:new 0 0 222 1520;" xml:space="preserve">
<style type="text/css">
	.st0{clip-path:url(#SVGID_2_);}
</style>
<g>
	<defs>
		<rect id="SVGID_1_" width="222" height="1520"/>
	</defs>
	<clipPath id="SVGID_2_">
		<use xlink:href="#SVGID_1_"  style="overflow:visible;"/>
	</clipPath>
	<path class="st0" d="M0,1485.5C0,1001.2,0,516.9,0,32.6c0.4-0.1,0.7-0.2,1.2-0.2c0.1-1.6,0.4-3.1,0.6-4.4c0.4-2.5,1.5-4.9,1.6-5.4
		c0.3-0.2,1.4-3.2,3.2-5c0.4-0.4,2.6-2.7,5.3-4.3c0.6-0.3,2.9-0.9,2.9-0.9l57.7-0.2l-0.1,27.2l78.4,0c0-3.1,0-6.1,0-9.1c0-3,0-6,0-9
		c0-3-0.1-6,0.1-9.1c0.9,0,1.7-0.1,2.5-0.1c9.7,0,19.4,0,29.1,0c7.9,0,15.7,0,23.6,0c0.8,0,2.8,0.4,3.4,0.7c0.4,0.2,5.8,2.8,8.5,7
		c2.9,4.5,3.9,12.4,4,12.8c0,3.9,0.1,7.9,0.1,11.8c0,476.7,0,953.3,0,1430c0,4.1-0.1,8.2-0.1,12.3c0,0.2-1.1,8.1-4.9,13.2
		c-4.7,6.2-10.1,7.4-10.2,7.6c-1.4,0.3-55.7,0.3-56,0.2c0-2.3,0-5.7,0-8v-6.7c0-2.2,0-4.5,0-6.7c0-2.2,0-4.5,0-6.6
		c-2-0.3-77.2-0.2-78.4,0.1l0.1,28.1c0,0-2.5-0.1-3.1-0.1c-16.8,0-33.6,0-50.4,0c-1.1,0-2.2-0.1-3.2-0.2c-0.2-0.4-7.8-2.7-10.3-7
		C1.3,1493.6,0.3,1485.6,0,1485.5 M80.5,188.4c-0.1,0.7-1.9,0.1-1.9-0.8c0.3-0.2,20.1-40.4,20.3-40.7h2.6c38,0,75.9,0,113.9,0
		c0.5,0,1.1,0,1.6,0c0.3,0,0.6-0.1,1-0.2c0-1.7,0.1-3.2-0.1-4.9h-10H198h-10.1c-3.3,0-6.6,0-9.9,0c-3.3,0-6.6,0.1-10-0.1
		c0-0.6,0-1.2,0-1.7c0-3.5,0-7,0-10.5c0-12.5,0-39.3,0-39.3l-26.1,0l0-18.4c0,0-15,0.1-15.2,0.1c0,0,0.5-10.2,2.7-15.8
		c1.8-4.6,8.5-12.3,8.5-12.3s-41.7,0-61.2,0c-0.7,0-1.4,0-2.1,0c-0.3,0-0.7,0-1.1,0.1V90H4.2c0,0.4,0.1,0.7,0.1,1.1h7.2h7.1h7.1h7.1
		H40c2.4,0,4.7,0,7.1,0c2.4,0,4.7,0,7,0c0.3,1.8,0.2,49.2-0.1,50.5h-9.9h-9.9H24.2c-3.3,0-6.6,0-9.9,0c-3.3,0-6.6,0-10,0v7.2
		c1.6,0,3.3,0.1,5,0.1c0,0,0.7,610.1,1,610.2c0,0.1,0.1,398,0.1,596.9c0,0.2,0,0.3,0,0.4c0,0.1,0,0.2,0,0.3c0,0,0,0.1,0.1,0.1
		c0,0,0.1,0.1,0.2,0.3h7h7.1h7h7.1H46h7.1h7.1h7c2.4,0,4.7,0,7.1,0c2.4,0,4.7,0,7.2,0c0,3.1,0.1,6,0,9c-1.6,0-3.1,0-4.6,0
		c-1.5,0-3.1,0-4.6,0h-4.4h-4.5c-1.5,0-3.1,0-4.6,0c-1.5,0-2.9-0.1-4.4,0.1v6.5c0.5,0.5,7.9,7.7,8,10.2c0.1,8.6,0.3,17.2,0,25.7
		c-0.1,3.9-8.2,8.6-8.3,9h-2.1H17.8c-3.6,0-7.1,0-10.7,0c-0.6,0-1.1,0.1-1.8,0.1c0,0.4,0.1,0.6,0.1,1h19h19c6.3,0,12.7,0,19,0
		c6.3,0,12.6,0,19.1,0c0.2,3,0.1,18.2,0.1,18.2s14.1-0.1,14.8,0c0.6,2.6-1.1,11.5-4.4,18.4c-4,8.3-10.9,12-10.9,12h-8.6
		c0,2.7-0.1,5.3,0.1,8l80.2,0l0-7l-3,0c0,0,0-23.3,0-33.7c0-4.7,0-9.5,0-14.2c0-0.5-0.2-1.1,0.2-1.5c0.1,0,0.1,0,0.2,0
		c22.3,0,44.5,0,66.8,0c0.1,0,0.3,0,0.4,0c0.1,0,0.2,0,0.3,0c0,0,0.1,0,0.1-0.1c0,0,0.1-0.1,0.1-0.1c0.2-1,0.2-1-0.2-1.9
		c-2,0-4.1,0-6.2,0h-6.2h-6.2h-6.2h-6.2h-6.2c-2.1,0-4.2,0-6.2,0c-2.1,0-4.1,0.1-6.3,0v-12.4V1392c0-4.1,0-8.3,0-12.4
		c0-4.1-0.2-8.1,0-12.3H212c0-0.4,0-0.7,0-0.9c-0.1-0.1-0.2-0.1-0.2-0.1c0,0-0.1,0-0.1,0c0,0-0.1,0-0.1,0c-0.1,0-0.1,0-0.1,0
		c0,0-0.1,0-0.1,0c0,0-0.1,0-0.1,0c0,0-0.1,0-0.1,0c-22.5,0-45.1,0-67.6,0c-0.1,0-0.2,0-0.3,0c-0.1,0-0.2,0-0.3,0c0,0-0.1,0-0.1,0
		c-0.1,0-0.2,0-0.3,0c0,0-0.1,0-0.1,0c0,0-0.1,0-0.1-0.1c0,0-0.1-0.1-0.1-0.1c-0.2-2.6-0.1-7.7,0.2-8.8h1.9h45.5
		c7.2,0,14.4,0,21.7,0c0.6,0,1.2,0,1.8-0.1V392.8c-1.2-0.3-151.3-0.3-151.3-0.3s-0.1-2.5-0.1-3.1c0-11.6,0-23.2,0-34.9
		c0-0.8-0.1-1.6-0.1-2.4c-1-0.1-2.8-0.2-2.8-0.2l0.1-33.2c0,0,1.1,0.1,1.8,0.1v10.5c0,3.5,0,7,0,10.5c0,3.4-0.1,6.8,0.1,10.3
		c1,0,3.8,0.2,3.8,0.2l0,14.1c0,4.4,0,8.8,0,13.2c0,4.3,0,8.6,0,13.1h2.1h92.9c16.4,0,32.7,0,49.1,0c0.9,0,1.9,0.1,2.8,0.1
		c0.6,0,1.2,0.1,1.7-0.4c0-39,0-78,0-117c0-0.3-0.1-1.3-0.1-1.3s-99,0.1-148.2,0.1c0,0-0.1,0-0.1,0.1c0,0-0.1,0.1-0.2,0.3v42h-2
		c0-0.8,0-1.5,0-2.3c0-32.1,0-64.1,0-96.2c0-0.4,0-0.8,0-1.2c0-0.4,0.1-0.8,0.2-1.1C62.9,213.7,77,183,77,183l2,1l-14.5,31.7
		c0,0-0.1,53.2,0.1,54.4h1.9h143.6c0.3,0,0.7,0,1,0c0.3,0,1.4,0.1,1.8,0c0,0,0.2-119-0.1-120.3c-0.1,0-0.3-0.1-0.4-0.1
		c-37.1,0-74.2,0-111.3,0c-0.4,0-0.8,0-1.2,0.1 M68.5,34.4c-21.2-0.1-64.1,0-64.1,0L4.3,88.1c0.7,0,1.3,0.1,2,0.1
		c13.2,0,26.4,0,39.6,0c8.3,0,16.7,0,25,0c0.2,0,0.4-0.1,0.5-0.2V43.6c-1-0.1-1.9-0.1-2.9-0.2V34.4z M218,1475.3v-54.5
		c-0.6,0-1.2-0.1-1.8-0.1c-20.6,0-41.1,0-61.7,0c-0.2,0-0.5,0-0.7,0c-0.3,0-0.6,0.1-0.9,0.2c-0.3,2.1,0,44.4,0,44.4l1.8,0
		c0,0,0.1,6.8,0.2,10.1H218z M218,87.8c0-8.8,0-17.7,0-26.5c0-8.9,0-26.7,0-26.7s-0.5-7.4-2.5-11c-3.2-5.8-9.8-7.4-9.8-7.4
		s-1.3,0-1.9,0c-16.2,0-32.4,0-48.6,0c0,0-0.1,0-0.1,0.1c0,0-0.1,0.1-0.2,0.2c0,1.7,0,3.5,0,5.3v5.4v5.5c0,1.8,0,3.6,0,5.4
		c0,1.8,0.1,3.6-0.1,5.4c-0.5,0.1-0.9,0.1-1.3,0.1c-2.7,0-11.1,0.1-11.1,0.1s-8.3,8.2-10,12.4c-3.1,7.4-2.8,13-2.8,13l15.2,0
		c0,0,0,3.7,0,4.3c0,4.1,0,14.7,0,14.7S216.7,88.1,218,87.8 M90.9,1452.6c3.5-6.8,3.7-13.5,3.7-13.5h-15c-0.1-5.8-0.1-18-0.1-18
		l-73.7-0.1c-0.6,0.5-1,0.9-1.5,1.3v1.9c0,15.6,0,31.3,0,46.9c0,1.3,0,4.3,0,4.3s40.4,0.1,58.8,0.1c2.2,0,4.3,0,6.5-0.1
		c0.3,0,0.7-0.1,1-0.1c0.2-3.3,0-6.5,0.1-9.9h9.6C80.3,1465.4,85.6,1462.8,90.9,1452.6z M215,1495.6c0.2-0.5,2.1-3.2,2.9-10.2
		c0.3-2.6,0.1-5.2,0-7.8h-63.1v25.1c0.4,0.4,0.8,0.7,1.2,1.1h48.7C204.8,1503.7,212.6,1500.3,215,1495.6z M8.7,1497.7
		c2.7,4.2,9.7,5.8,9.8,6h48.8c0.1-0.7,0.2-1.2,0.2-1.8c0-7.3,0-14.5,0-21.8c0-0.5-0.1-0.9-0.1-1.5l-63-0.1l-0.1,3.9
		C4.3,1482.3,6.4,1494.2,8.7,1497.7z M6.5,24.7c-0.8,1-1.2,6.7-1.2,6.7h1.9c19.8,0,39.5,0,59.3,0c0.3,0,2-0.2,2-0.2l-0.1-15.1H16.5
		c-2.5,0.3-4,1.1-5.7,2.4C8.4,20.4,6.5,24.7,6.5,24.7z M202.1,1381.5c-1.6-0.3-22.8-0.3-24,0c0,0.1-0.1,0.3-0.1,0.4
		c0,6.6,0,13.1,0,19.7c0,0.2,0,0.4,0.1,0.6c0,0,0,0.1,0.1,0.1c0,0,0.1,0.1,0.2,0.2c0.1,0,0.4,0.1,0.6,0.1c7.4,0,14.7,0,22.1,0
		c0.3,0,0.6-0.1,1.1-0.2l0.5-5.7c0,0,3.9,0.1,4.6-0.9c0.3-0.4,0.6-7.8-0.1-8.3c-1.2-1.1-3.4-1.1-5-1.2V1381.5z M204.5,110.2
		c-0.8,0-1.6,0-2.4-0.1c-0.4-1.6,0.1-3.3-0.3-4.8H178v21c1.6,0.3,22.7,0.2,24,0l0.1-5.6c0,0,3.9-0.3,4.6-0.8
		c0.5-0.5,1.1-8.8-0.3-9.6 M43.2,1395.8c0.8-0.8,0.2-8.5,0-8.6c-1.2-1-5-1.2-5-1.2l0-4.6c0,0-3,0-4.5,0c-1.5,0-3.1,0-4.6,0h-4.7
		c-1.5,0-3.1,0-4.6,0c-1.5,0-3-0.1-4.6,0.1v21c0.2,0.1,0.2,0.2,0.3,0.2c0.1,0,0.3,0.1,0.4,0.1c7.1,0,14.2,0,21.3,0
		c0.2,0,0.5,0,0.7-0.1c0,0,0.1,0,0.1-0.1c0,0,0.1-0.1,0.2-0.2l0-5C38.4,1397.2,42.5,1396.5,43.2,1395.8z M15.2,126.5
		c0.4,0,0.6,0.1,0.8,0.1c7.4,0,14.7,0,22.1-0.1c0,0,0.1-0.1,0.1-0.1c0,0,0.1-0.1,0.2-0.2l0.1-5.1c0,0,4,0.2,5-1
		c1.1-1.4,0.5-9.1,0-9.4c-1.2-0.8-5.1-0.7-5.1-0.7s-0.1-3-0.1-4.5c-2-0.2-21.9-0.2-23.1,0.1V126.5z M212.1,1358.1
		c-0.7,0-1.3,0-1.9,0h-65.5c-0.3,0-0.6,0-0.9,0c-0.3,0-0.6,0.1-1,0.2c0,2,0,3.8,0,5.7c0.4,0,0.6,0.1,0.9,0.1c22.7,0,45.5,0,68.2-0.1
		c0,0,0.1,0,0.1-0.1c0,0,0.1-0.1,0.1-0.2V1358.1z M11.3,1364.1c0.8,0,1.4,0,2,0h38.3c8.9,0,17.8,0,26.7,0c0.7,0,1.4-0.1,2.2-0.1
		v-5.7c-0.2-0.1-0.3-0.1-0.3-0.1c-22.6,0-45.2,0-67.8,0c-0.2,0-0.5,0-0.7,0c0,0-0.1,0-0.1,0.1c0,0-0.1,0.1-0.1,0.1V1364.1z
		 M8.2,1341.8c0-0.5,0.1-0.9,0.1-1.2c0-28.1,0-56.3-0.1-84.4c0,0,0-0.1-0.1-0.1c0,0-0.1-0.1-0.2-0.2c-1.2,0-2.5-0.2-3.8,0.1
		c0,0.4-0.1,0.8-0.1,1.1c0,28.1,0,56.3,0.1,84.4c0,0,0,0.1,0.1,0.1c0,0,0.1,0.1,0.2,0.2H8.2z M215.2,646.6c-0.1,0.3-0.1,0.4-0.1,0.6
		c0,28.5,0,57,0,85.5c0,0.2,0,0.4,0.1,0.6c0,0,0,0.1,0.1,0.1c0,0,0.1,0.1,0.2,0.2c0.8,0,1.7,0.2,2.6-0.2c0.2-2.6,0.1-85.6-0.1-86.9
		H215.2z M215.2,1255.9c-0.1,0.3-0.1,0.4-0.1,0.5c0,28.2,0,56.3,0,84.5c0,0.2,0,0.4,0.1,0.6c0,0,0,0.1,0.1,0.1c0,0,0.1,0.1,0.2,0.2
		c0.8,0,1.7,0.2,2.6-0.2v-85.8H215.2z M215.2,1132.5c-0.3,1.7-0.2,83.7,0.1,84.9c0.9,0.1,1.8,0.3,2.7-0.1v-84.7H215.2z M215.2,892.6
		c-0.2,1.6-0.2,83.8,0.1,85c0.9,0.1,1.8,0.2,2.7-0.1v-84.9H215.2z M215.2,1013.1c-0.3,1.7-0.2,83.7,0.1,84.8
		c1.4,0.2,1.7,0.2,2.7-0.1v-84.7H215.2z M215.1,774.2c-0.2,2.3-0.2,83.7,0.1,84.8h2.7c0.3-2.2,0.2-83.7-0.1-84.8H215.1z M216,530.3
		c0,0-0.1,84.9-0.1,84.9h2c0.1-0.2,0.2-0.3,0.2-0.4c0-0.4,0-0.8,0-1.2c0-27.7,0-55.4,0-83.1c0,0,0-0.1,0-0.1c0,0-0.1-0.1-0.2-0.1
		H216z M60.4,1405.2c0-5.1,0.1-10.7,0.1-15.6c0-1.3,0-5.1-0.5-6.5c-0.8-2.5-5.6-6.1-5.6-6c0,11.3,0,23.3,0,34.6
		c0,0.2,0.1,2.1,0.1,2.1S60.4,1411.4,60.4,1405.2z M7.3,1217.4l-0.1-84.9H5.4c-0.3,1.9-0.2,83.7,0.1,84.9H7.3z M216.1,301.6
		c-0.1,0.3-0.1,0.4-0.1,0.6c0,27.8,0,55.6,0,83.4c0,0.2,0,0.5,0.1,0.7c0,0,0,0.1,0,0.1c0,0,0.1,0.1,0.2,0.2h1.5
		c0.1-0.2,0.2-0.3,0.2-0.4c0-27.8,0-55.5,0-83.3c0-0.4,0-0.8-0.1-1.2c0,0-0.1-0.1-0.1-0.1c0,0-0.1-0.1-0.1-0.1H216.1z M216.1,181.2
		c-0.1,0.2-0.1,0.4-0.1,0.5c0,27.8,0,55.6,0,83.4c0,0.2,0,0.4,0.1,0.6c0,0,0,0.1,0.1,0.1c0,0,0.1,0.1,0.1,0.1h1.7v-84.8H216.1z
		 M217.9,495.8c0.1-0.3,0.1-0.4,0.1-0.6c0-27.8,0-55.6,0-83.5c0-0.2,0-0.4-0.1-0.6c0,0,0-0.1-0.1-0.1c0,0-0.1-0.1-0.1-0.1h-1.6
		c-0.1,0.3-0.1,0.4-0.1,0.5c0,27.8,0,55.5,0,83.3c0,0.2,0,0.5,0.1,0.7c0,0,0,0.1,0.1,0.1c0,0,0.1,0.1,0.2,0.2H217.9z M7,1098
		c0.3-1.3,0.3-82.9,0-84.8H5.4c-0.1,0.2-0.1,0.4-0.1,0.5c0,27.8,0,55.6,0,83.4c0,0.2,0,0.4,0.1,0.6c0,0,0,0.1,0,0.1
		c0,0,0.1,0.1,0.2,0.2H7z M5.3,731.6H7c0.2-1.7,0.2-83.8,0-84.9c-0.9-0.2-0.9-0.2-1.7,0.1V731.6z M5.4,892.6
		c-0.2,2-0.2,83.9,0.1,84.9c0.9,0.2,0.9,0.2,1.7-0.1v-84.8H5.4z M5.4,530.3c-0.1,0.2-0.1,0.3-0.1,0.4c0,27.7,0,55.4,0,83.2
		c0,0.4,0,0.8,0.1,1.2c0,0,0,0.1,0.1,0.1c0,0,0.1,0.1,0.1,0.1H7c0.1-0.2,0.1-0.3,0.1-0.3c0-27.8,0-55.5,0-83.3c0-0.3,0-0.7-0.1-1
		c0,0,0-0.1,0-0.1c0,0-0.1-0.1-0.2-0.1H5.4z M5.3,774.2c0,0.4-0.1,0.7-0.1,1c0,27.9,0,55.7,0.1,83.6c0,0,0,0.1,0.1,0.1
		c0,0,0.1,0.1,0.1,0.1h1.6v-84.9H5.3z M200.7,1373.3h-21.4c-0.6,0.6-0.9,0.9-1.4,1.4c0.1,1.2-0.1,2.4,0.1,3.6c0.3,0,0.5,0.1,0.7,0.1
		c7.4,0,14.8,0,22.2,0c0.3,0,0.6-0.1,1-0.2v-3.8C201.6,1374.3,200.8,1373.5,200.7,1373.3 M37.2,1373.3c-0.4,0-0.5-0.1-0.7-0.1
		c-6.5,0-12.9,0-19.4,0c-0.6,0-1.1,0.2-1.7,0.3c-0.5,1.7-0.3,3.2-0.3,4.6c0.2,0.1,0.3,0.2,0.4,0.2c0.3,0,0.7,0.1,1,0.1
		c7.2,0,14.3-0.1,21.5-0.1c0,0,0.1,0,0.1-0.1c0,0,0.1-0.1,0.1-0.2v-3.6C38,1374.3,37.3,1373.6,37.2,1373.3 M202,1405.8
		c-1.5-0.3-22.7-0.2-24,0v3.5c0.4,0.5,0.8,0.8,1.2,1.2h21.3c0.5-0.4,1-0.8,1.4-1.2V1405.8z M179.2,134.6h21.4c0.6-0.5,1-0.9,1.4-1.3
		v-3.7H178v3.6C178.4,133.7,178.8,134.1,179.2,134.6 M200.8,97.3h-21.5c-0.5,0.5-0.8,0.8-1.2,1.2v3.6c1.4,0.3,22.7,0.3,23.9,0v-3.7
		C201.6,98.2,200.9,97.5,200.8,97.3 M38.3,129.7c-0.2-0.1-0.3-0.2-0.3-0.2c-7.2,0-14.3,0-21.5,0c-0.3,0-0.7,0-1,0.1
		c0,0-0.1,0-0.1,0.1c0,0-0.1,0.1-0.2,0.2c0,1.4-0.2,3,0.2,4.6c1.8,0.3,21.8,0.3,23-0.1C38.3,132.8,38.5,131.3,38.3,129.7
		 M15.2,1410.4c2,0.3,21.7,0.3,23,0c0.3-1.8,0.3-3.6,0-4.7c-2.1-0.2-21.8-0.1-22.9,0.1V1410.4z M15.5,97.3c-0.7,1.6-0.3,3.2-0.4,4.6
		c1.2,0.3,21.8,0.4,23.2,0.1v-3.5c-0.5-0.5-0.9-0.8-1.3-1.2H15.5z M5.5,301.6c-0.3,1.4-0.3,83.8,0,85.1c0.2,0,0.5-0.1,0.7-0.1
		c0.3-2.1,0.2-83.6-0.1-85H5.5z M6.3,266.1v-1.9c0-27,0-54,0-81.1c0-0.5,0-1,0-1.5c0-0.1-0.1-0.3-0.2-0.4c-0.2,0-0.5,0.1-0.8,0.1
		v1.7c0,27.1,0,54.2,0,81.4c0,0.4,0,0.9,0,1.3c0,0.1,0.1,0.3,0.2,0.4H6.3z M6.3,495.8c0-28.2,0-56.2,0-84.3c0-0.2-0.1-0.4-0.2-0.6
		H5.3c0,0.6,0,1.2,0,1.8c0,27.1,0,54.1,0,81.2c0,0.5,0,1,0,1.5c0,0.1,0.1,0.3,0.2,0.4C5.7,495.8,5.9,495.8,6.3,495.8"/>
	<path class="st0" d="M74.5,0c0,0.3,6.8,5,7,5.3c0.5,0.7,0.6,2.9,0,3.6c-0.2,0.2-2.8,1.1-2.8,1.1l0,26.5l65.2-0.1l0-26.1
		c-0.6-0.1-4-0.6-4.3-1.7c-0.6-2,1.3-3.2,1.3-3.2c0.3-0.1,7.9-5.3,7.9-5.3h13.1l2.3,2.9c0,0,15.7-0.1,23.6,0.1
		c0.2,0.3,4.2,1.4,4.7,2.1c0,0,3.1,1.9,2.7,3.5c-0.1,0.6-1.7,1.4-1.7,1.4h-46.5c0,0.7-0.1,1.2-0.1,1.8c0,7.8,0,15.6,0,23.3l0,3.3
		H76.6l0-28.4c0,0-6.5,0-9.7,0c-3.2,0-6.4,0-9.6,0h-9.5h-9.6l-9,0.1c0,0-2.9-0.3-2-2.9c1-2.9,7.4-4,7.7-4.3h22.5
		c0.6-0.6,3.3-3,3.3-3H74.5z"/>
	<path class="st0" d="M75.4,1510c0-0.7,0.1-1.3,0.1-1.9c0-8,0-15.9,0-23.9c0-0.7,0.1-1.5,0.2-2.3c0.5-0.1,0.9-0.3,1.4-0.3
		c0.7-0.1,1.5-0.1,2.2-0.1c21.2,0,42.4,0,63.6,0c0.9,0,1.8,0.1,2.8,0.1c0,4.8,0,9.5,0,14.1c0,4.7,0,9.4,0,14.2
		c0.9,0,1.7,0.1,2.4,0.1c11.6,0,23.2,0,34.9,0c2.9,0,5.8,0,8.8,0h1.7c0.6,1.1,0.6,1.1,0.5,2.6c-0.3,0.1-3.3,3.8-7.6,4.2H164
		c-0.1,0.4-1.2,1.9-4.3,3h-11c-2.3-0.8-7.4-4.1-7.9-4.6c-0.1-1.6-0.4-3.3,0.2-5c0.6-0.1,1.1-0.3,1.7-0.4c0.2-1.7,0.1-3.4,0.1-5.2
		c0-1.7,0-3.5,0-5.2v-5.2c0-1.7,0-3.5,0-5.2c0-1.7,0.1-3.5-0.1-5.1c-1.4-0.3-58.6-0.4-63-0.2c-0.3,0.2-0.6,0.5-1,0.8v25.3
		c0.5,0.1,2.8,2.3,2.8,2.7c0,1.5-0.3,2.2-1.1,2.9c-1.1,0.9-4.7,4.5-7.2,4.5c0,0-7.3,0.1-11,0c-0.3-0.3-3.6-0.9-4.7-3c0,0-7.3,0-11,0
		c-3.6,0-10.9,0-10.9,0c-5.7-1.4-7.8-4-8.1-4.5c-0.1-1.2-0.1-1.2,0.4-2.3c0.6,0,1.4-0.1,2.1-0.1c14.5,0,29,0,43.5,0
		C74.1,1510.1,74.7,1510,75.4,1510"/>
	<path class="st0" d="M160,29.4h48.7l0.1,50.3c0,0-0.1,0.1-0.1,0.1c0,0-0.1,0.1-0.1,0.1c-0.3,0-0.7,0-1,0c-15.8,0-31.6,0-47.3,0
		c-0.1-0.1-0.2-0.1-0.2-0.2c0,0-0.1-0.1-0.1-0.1c0-16.4,0-32.9-0.1-49.3C159.9,30,159.9,29.7,160,29.4 M176.8,39.6l0.1,3.9
		c0,0,9.7,2.5,9.8,2.8c-0.9,0.2-9.8,2.5-9.8,2.5l0.1,3.9c0,0,14.7,4,15,3.9v-2.7l-10-2.8c0,0,9.4-3.4,10-3.5v-2.8
		c0,0-9.5-2.7-10.1-2.8c0,0,9.6-3.4,10.1-3.5v-2.7 M192.1,65.6c-0.1-3-2.8-7.4-8.1-7.3c-3.4,0.1-8.1,2-8.2,8.1
		c-0.1,3.9,5.2,6.7,6.1,6.3V70c0,0-3.5-1.2-3.2-4.1c0.6-4.7,4-4.3,5.4-4.4c3-0.2,5.3,0.8,5.3,4.8c0,2.5-2.5,3.7-2.5,3.7v2.9
		C186.9,72.8,192.2,72,192.1,65.6z"/>
	<path class="st0" d="M66.4,1474.4h-49c-0.3-0.4-0.5-0.8-1-1.4v-49c0.3-0.3,0.6-0.5,1-0.8h49c0.3,0.2,0.6,0.5,0.9,0.7v49.6
		C67,1473.7,66.7,1474,66.4,1474.4 M44.4,1440.9c-0.7,0-8.9,2.2-10,2.3v3.9c1,0.1,15,4,15,4s0.2-1.9,0-2.8
		c-0.6-0.1-10.5-2.7-10.5-2.7s9.5-2.2,10.6-2.8l0-3.5c-0.6-0.2-9.6-3.2-10.1-3.5c0-0.2,10.1-2.9,10.1-2.9s0.2-1.9-0.1-2.8
		c0,0-14.5,3.9-15,4.3v2.2 M34.1,1460.4c0.3,4.5,4.7,7.1,5.3,6.7v-2.7c-0.7-0.1-2.6-1.3-2.7-3.6c-0.1-2.1,2.9-4.8,5.5-4.8
		c4.9,0,5.6,4.4,5.5,5.3c-0.1,2-2.2,3.1-2.5,3.3c0.1,0.9-0.2,1.8,0.2,2.7c0,0,4.5-1.5,5-7c0.2-2-2.2-7-8.4-7.1
		C38.4,1453.1,33.9,1457.3,34.1,1460.4z"/>
</g>
</svg>
