<?xml version="1.0" encoding="utf-8"?>
<!-- Generator: Adobe Illustrator 19.0.0, SVG Export Plug-In . SVG Version: 6.00 Build 0)  -->
<svg version="1.1" id="Layer_1" xmlns="http://www.w3.org/2000/svg" xmlns:xlink="http://www.w3.org/1999/xlink" x="0px" y="0px"
	 viewBox="0 0 150 100" style="enable-background:new 0 0 150 100;" xml:space="preserve">
<style type="text/css">
	.st0{fill:#EF0A0A;stroke:#000000;stroke-width:4;stroke-miterlimit:10;}
	.st1{fill:#479B1B;stroke:#000000;stroke-miterlimit:10;}
	.st2{fill:#FFFFFF;stroke:#000000;stroke-miterlimit:10;}
	.st3{fill:#FFFFFF;}
</style>
<path id="XMLID_3_" class="st0" d="M75.3,37.8"/>
<path id="XMLID_1_" class="st1" d="M134,99.9H16.7c-3.5,0-6.4-2.9-6.4-6.4V21.7c0-3.5,2.9-6.4,6.4-6.4H134c3.5,0,6.4,2.9,6.4,6.4
	v71.8C140.4,97.1,137.5,99.9,134,99.9z"/>
<path id="XMLID_4_" class="st1" d="M122.8,15.3h-95c-3.8,0-7-3.1-7-7V6.9c0-3.8,3.1-7,7-7l95,0c3.8,0,7,3.1,7,7v1.5
	C129.8,12.2,126.7,15.3,122.8,15.3z"/>
<path id="XMLID_5_" class="st1" d="M3.7,85.4H7c1.8,0,3.4-1.5,3.4-3.4V28.2c0-1.8-1.5-3.4-3.4-3.4H3.7c-1.8,0-3.4,1.5-3.4,3.4v53.9
	C0.3,83.9,1.9,85.4,3.7,85.4z"/>
<path id="XMLID_6_" class="st1" d="M143.7,85.4h3.3c1.8,0,3.4-1.5,3.4-3.4V28.2c0-1.8-1.5-3.4-3.4-3.4h-3.3c-1.8,0-3.4,1.5-3.4,3.4
	v53.9C140.4,83.9,141.9,85.4,143.7,85.4z"/>
<path id="XMLID_7_" class="st2" d="M111,78.5H39.7c-3.5,0-6.4-2.9-6.4-6.4V38c0-3.5,2.9-6.4,6.4-6.4H111c3.5,0,6.4,2.9,6.4,6.4v34.1
	C117.3,75.7,114.5,78.5,111,78.5z"/>
<path id="XMLID_2_" class="st3" d="M63.1,22.4"/>
</svg>
