<?xml version="1.0" encoding="utf-8"?>
<!-- Generator: Adobe Illustrator 19.0.0, SVG Export Plug-In . SVG Version: 6.00 Build 0)  -->
<svg version="1.1" id="Layer_1" xmlns="http://www.w3.org/2000/svg" xmlns:xlink="http://www.w3.org/1999/xlink" x="0px" y="0px"
	 viewBox="0 0 150 100" style="enable-background:new 0 0 150 100;" xml:space="preserve">
<style type="text/css">
	.st0{fill:#EF0A0A;stroke:#000000;stroke-width:4;stroke-miterlimit:10;}
	.st1{fill:#F90606;stroke:#000000;stroke-miterlimit:10;}
	.st2{fill:#FFFFFF;stroke:#000000;stroke-miterlimit:10;}
</style>
<path id="XMLID_21_" class="st0" d="M74.7,38.1"/>
<path id="XMLID_20_" class="st1" d="M133.4,100.2H16c-3.5,0-6.4-2.9-6.4-6.4V22c0-3.5,2.9-6.4,6.4-6.4h117.3c3.5,0,6.4,2.9,6.4,6.4
	v71.8C139.7,97.3,136.9,100.2,133.4,100.2z"/>
<path id="XMLID_19_" class="st1" d="M121.8,15.6H27.6c-4.1,0-7.4-3.3-7.4-7.4V7.6c0-4.1,3.3-7.4,7.4-7.4l94.2,0
	c4.1,0,7.4,3.3,7.4,7.4v0.7C129.2,12.3,125.8,15.6,121.8,15.6z"/>
<path id="XMLID_18_" class="st1" d="M3.1,85.7h3.3c1.8,0,3.4-1.5,3.4-3.4V28.5c0-1.8-1.5-3.4-3.4-3.4H3.1c-1.8,0-3.4,1.5-3.4,3.4
	l0,53.9C-0.3,84.2,1.2,85.7,3.1,85.7z"/>
<path id="XMLID_17_" class="st1" d="M143.1,85.7h3.3c1.8,0,3.4-1.5,3.4-3.4V28.5c0-1.8-1.5-3.4-3.4-3.4h-3.3c-1.8,0-3.4,1.5-3.4,3.4
	v53.9C139.7,84.2,141.2,85.7,143.1,85.7z"/>
<path id="XMLID_16_" class="st2" d="M110.3,78.8H39.1c-3.5,0-6.4-2.9-6.4-6.4V38.3c0-3.5,2.9-6.4,6.4-6.4h71.2
	c3.5,0,6.4,2.9,6.4,6.4v34.1C116.7,76,113.8,78.8,110.3,78.8z"/>
</svg>
